<svg xmlns="http://www.w3.org/2000/svg" viewBox="0 0 1500 1469.74"><defs><style>.cls-1{isolation:isolate;}.cls-2{fill:#efe0d2;}.cls-3{fill:#f5d759;}.cls-4{fill:#929a9f;}.cls-5{fill:#dcb827;}.cls-6{fill:#7f634a;}.cls-7{fill:#92755a;}.cls-8{fill:#6e863b;}.cls-9{fill:#cc8557;}.cls-10{fill:#af5693;}.cls-11{fill:#3d79a4;}.cls-12{fill:#bd64a1;}.cls-13{fill:#4882b6;}.cls-14{fill:#c07a26;}.cls-15{fill:#bf7e50;}.cls-16{fill:#323157;}.cls-17{fill:#37375d;}.cls-18{fill:#a4683c;}.cls-19{fill:#8e5c36;}.cls-20{fill:#a2693f;}.cls-21{fill:#cd946e;}.cls-22{fill:#fff;}.cls-23{fill:#b67549;}.cls-24{fill:#c07f51;}.cls-25{fill:#97ccf0;}.cls-26{fill:#a8a9a6;}.cls-27{fill:#be8d5d;}.cls-28{fill:#d884b2;}.cls-29{fill:#c977a7;}.cls-30{fill:#dca86e;}.cls-31{fill:#786aa7;}.cls-32{fill:#8474af;}.cls-33{fill:#503820;}.cls-34{fill:#ececed;}.cls-35{fill:#9384bb;}.cls-36{fill:#d7d6d5;}.cls-37{opacity:0.76;}.cls-38{fill:#c6c7c7;}.cls-39,.cls-40{fill:#dbe8f2;}.cls-40{mix-blend-mode:multiply;}.cls-41{fill:#d7d5cc;}.cls-42{fill:#797979;}.cls-43{fill:#97bdda;}.cls-44{fill:#616161;}.cls-45{fill:none;}.cls-46{fill:#5d90bf;}.cls-47{fill:#e6e6e6;}.cls-48{fill:#3f79a3;}.cls-49{fill:#5a5a5a;}.cls-50{fill:#c35c4e;}.cls-51{fill:#b45642;}.cls-52{fill:#a54739;}.cls-53{fill:#c4925f;}.cls-54{fill:#3c79a4;}.cls-55{fill:gray;}.cls-56{fill:#5492c3;}.cls-57{fill:#89bfdd;}.cls-58{fill:#afd8f3;}</style></defs><title>Ilustración 1</title><g class="cls-1"><g id="Capa_1" data-name="Capa 1"><path class="cls-2" d="M1153.54,1320.79c-46.31-12.93-531.2-42.19-513.09,28.69,7.46,29.25,129,16.18,143.53,16.83,75.82,3.34,153,3.44,228.66-3.12,29.57-2.57,141.25,16,148.59-35-4.82-2.77-11.65-6.39-17.34-7.42" transform="translate(-3.44 -13.93)"/><path class="cls-2" d="M464.69,1312.76c-105.55-25.27-214.55-43.79-323.22-32.11-22.27,2.4-75.57,1.65-93,19.19-18.17,18.24-14,50.32,6.48,63,27.47,16.91,86.69,4.36,116.18,3,43.19-2.07,76.85-6.41,116.23,6.45,85.61,28,213.67,4.8,295.9-31-18.93-39.85-108.57-34.73-144.7-34.85" transform="translate(-3.44 -13.93)"/><path class="cls-2" d="M1414.27,1391.6c-86.73-25.13-193.92-27.48-283.06-25.63-57.85,1.21-107.61,28.48-162,28.3-176.62-.6-361.52-1.26-535.23,34.62-13.87,2.86-50.7,3.1-58.12,17.94-10.49,21,16.75,25.33,34.52,28.73,111.19,21.22,236.94-5.78,349.26-6.84,97.29-.91,192.17-7.26,289.06,4.85,85.9,10.74,173.8,5.84,260.16,5.93,41.92,0,82.73-3.1,124.45-6,9.51-.65,45.56,3,52.92-1.83,42.16-28-59.29-69.72-79.94-69.43" transform="translate(-3.44 -13.93)"/><path class="cls-2" d="M18.54,1215.81c-48.8,48.83,154.84,47.91,172,48.6,61.12,2.48,122.37,4.42,183.43,7.26,28.86,1.34,63.87-.32,91.33,8a60.36,60.36,0,0,0-23.17,16.16c30.67,18.71,79.31,15.79,114.74,15.85,80.85.13,162.18-8.42,243.07-10.79,142.62-4.17,282.16,15.82,424.47,16.12,24.86.06,55.77,3,80-3.07,19.13-4.78,24.9-14.73,40.34-23.53,26.39-15.05,55.49-10.26,84.72-13.36,23.87-2.53,47.53-7.5,62.2-28.7,36.5-52.78-76.11-51.15-106.75-59.19" transform="translate(-3.44 -13.93)"/><polygon class="cls-3" points="758.21 27.09 758.21 25.93 755.58 26.51 752.98 25.93 752.98 27.09 6.71 206.76 0.89 1200.69 752.98 1200.69 758.21 1200.69 1496.8 1200.69 1498.23 206.76 758.21 27.09"/><polygon class="cls-4" points="1496.95 195.92 1496.95 225.22 757.01 25.93 748.94 0 1496.95 195.92"/><polyline class="cls-5" points="3.68 225.66 757.01 25.93 1494.29 227.88 1500 253.44 760.93 57.41 9.74 236.77"/><polygon class="cls-4" points="5.33 193.25 0 222.55 763.96 24.07 756 0 5.33 193.25"/><rect class="cls-5" x="930.32" y="196.14" width="134.98" height="42.09"/><rect class="cls-5" x="1075.61" y="196.14" width="134.98" height="42.09"/><rect class="cls-5" x="1005.31" y="253.54" width="134.98" height="42.09"/><rect class="cls-5" x="1162.67" y="248.75" width="134.98" height="42.09"/><rect class="cls-5" x="1103.62" y="309.02" width="134.98" height="42.09"/><rect class="cls-5" x="1039.93" y="772.94" width="134.98" height="42.09"/><rect class="cls-5" x="1138.24" y="828.42" width="134.98" height="42.09"/><rect class="cls-5" x="604.84" y="950.88" width="134.98" height="42.09"/><rect class="cls-5" x="750.13" y="950.88" width="134.98" height="42.09"/><rect class="cls-5" x="699.53" y="892.28" width="134.98" height="42.09"/><rect class="cls-5" x="679.83" y="1008.28" width="134.98" height="42.09"/><rect class="cls-5" x="553.45" y="128.7" width="134.98" height="42.09"/><rect class="cls-5" x="698.74" y="128.7" width="134.98" height="42.09"/><rect class="cls-5" x="628.44" y="186.1" width="134.98" height="42.09"/><rect class="cls-5" x="77.16" y="313.6" width="381.53" height="885.61"/><rect class="cls-6" x="103.25" y="313.6" width="381.53" height="885.61"/><rect class="cls-7" x="118.28" y="332.96" width="347.1" height="866.26"/><path class="cls-8" d="M1427.42,1247.46s97.81-74.51,61.64-74.51-77.72,32.22-77.72,32.22,95.06-90.52,56.2-98.57-85.68,82.46-85.68,82.46,25.46-75.52,1.34-74.51-52.25,72.5-52.25,72.5,18.75-54.37-2.68-50.35-34.84,38.27-34.84,38.27l-13.4-22.16s85.75-68.47,54.94-89.61-92.46,45.31-92.46,45.31,52.26-71.49,18.76-90.62-77.72,110.76-77.72,106.73,10.72-87.6-20.09-89.62-29.48,96.67-29.48,96.67,4-125.87-37.52-131.91-45.56,89.62-45.56,89.62-24.12-104.72-57.61-114.79-5.36,116.8-5.36,116.8S950.41,1035,918.25,1037s28.14,90.62,28.14,90.62-42.88-28.19-59-24.16,29.48,49.33,29.48,49.33-25.46-21.14-48.24-9.06-26.8,20.14-26.8,20.14,12.06-57.39-8-55.38-37.52,52.36-37.52,52.36-8-55.38-37.52-62.43-12.06,67.46-12.06,67.46-40.2-88.6-73.7-90.62S702.52,1178,702.52,1178s-45.55-42.29-71-36.25,42.87,58.4,42.87,58.4-44.21-19.13-53.59-4,45.56,23.16,45.56,23.16-71,35.24-33.5,32.22,146-12.08,146-12.08-22.78,11.08,1.34,11.08,104.51-9.07,104.51-9.07-9.38,10.07,25.46,9.07,128.63-7,128.63-7,101.84,25.17,88.44,14.09-25.46-15.1-25.46-15.1,131.31,23.16,147.39,13.09-13.4-13.09-13.4-13.09,151.41,20.14,146,13.09-32.16-11.08-32.16-11.08,79.06,20.14,100.5,16.11S1427.42,1247.46,1427.42,1247.46Z" transform="translate(-3.44 -13.93)"/><path class="cls-9" d="M530.27,584.78s30.64-9.07,34-17-59,8-57.86,2.27,21.55-4.54,23.82-15.88-32.9,3.4-42,9.07-19.44,28.95-19.44,28.95c-12.63,6.9-71.19,68.63-79.28,63-8.4-5.89-35.33-70-35.33-70L324,651.54s28.77,52.55,52,62.6c29.77,12.9,93.52-68.74,108.8-88.76l.13.25s60.28-4.36,77.16-14.75c14.75-9.08-31.78-2.27-31.78-2.27s30.64-4.54,39.72-10.21-32.91-3.4-32.91-3.4,30.64-4.54,35.18-11.35S530.27,584.78,530.27,584.78Z" transform="translate(-3.44 -13.93)"/><path class="cls-10" d="M317.26,491S342.47,507.8,350,531.34,376,584.78,376,584.78s-17.53,19.08-35.18,25S313.05,607,313.05,607" transform="translate(-3.44 -13.93)"/><path class="cls-11" d="M249.85,1296.45c-14.07,6.81-4.7,24.07,4.27,29.5,8.33,5,15.1,7.21,21.1,15.32a41.29,41.29,0,0,0,29.5,17c10.66,1,24.35-.3,33.85-5.67,12.4-7,4.8-22.35-7.16-24.44" transform="translate(-3.44 -13.93)"/><path class="cls-9" d="M254.37,1228.93s1.06,26.14-2.62,39.15c-4.78,16.85-6.73,27.66-5.23,35.74s10.8,13.51,19.77,18.13,11.63,13.86,20.78,21.94,46.31,8.08,55.69-1.16-26.09-40.41-42.32-58.88-6.36-39.26-6.36-39.26" transform="translate(-3.44 -13.93)"/><path class="cls-9" d="M298.65,1034.05s12.08,17.87,14.26,70.06-23.64,171.35-23.64,171.35l-36.69,5.67-8.13-183.82" transform="translate(-3.44 -13.93)"/><path class="cls-11" d="M309.19,1333.89A55.4,55.4,0,0,0,282,1316.3c-17.82-5.1-29.58,1.14-29.58,1.14l10.81,7.94s5.83-2.27,17.06-.56S310.55,1339,310.55,1339s14.31-25.08,11.92-34c-1.81-6.81-9.11-8-9.11-8Z" transform="translate(-3.44 -13.93)"/><path class="cls-11" d="M182.35,1302.41c13.82,6.81,3.81,24.07-5.35,29.5-8.52,5-15.37,7.21-21.67,15.32-7.39,9.5-18.07,16-30.13,17-10.7,1-24.34-.3-33.65-5.67-12.13-7-4-22.34,8.07-24.44" transform="translate(-3.44 -13.93)"/><path class="cls-9" d="M180.34,1234.89s-2,26.14,1.17,39.15c4.15,16.85,5.7,27.66,3.9,35.74s-11.29,13.51-20.44,18.13-12.14,13.86-21.59,21.94-46.62,8.08-55.64-1.16,27.58-40.41,44.49-58.88a37.79,37.79,0,0,0,7.81-39.26" transform="translate(-3.44 -13.93)"/><path class="cls-9" d="M143.13,1034.05s-9.53,22.69-13.65,74.89,14.23,172.48,14.23,172.48l36.48,5.67,14.94-183.82" transform="translate(-3.44 -13.93)"/><path class="cls-11" d="M121.63,1339.85a58.2,58.2,0,0,1,27.84-17.58c18-5.11,29.54,1.13,29.54,1.13l-11.11,7.94s-5.74-2.27-17-.56S120.08,1345,120.08,1345s-13.38-25.08-10.66-34c2.07-6.81,9.41-7.94,9.41-7.94Z" transform="translate(-3.44 -13.93)"/><path class="cls-12" d="M343.37,607.73A124,124,0,0,1,339.71,583c-.25-7.08-.49-14.17-.92-21.24-.82-13.71-2.35-27.43-6-40.71a128.05,128.05,0,0,0-11.75-28.48c-.39-.23-.75-.47-1.15-.7-56.53-33-73-33.76-77.73-35.33l-22,6.28s-36.12-1.57-91.08,26.69S64.75,601,64.75,601s111.5,39.25,243.4,28.26c15.62-1.3,28.54-3,39.22-4.89C346.29,618.77,344.69,613.29,343.37,607.73Z" transform="translate(-3.44 -13.93)"/><path class="cls-13" d="M211.05,1031.75c1,24.11-5,50.71-5.72,76.62-4.65,2.32-3.8,6.55-8.87,7.94-25.28,6.91-52.39.65-74.25-13.28-.09-2.53-.13-4.89-.13-7a662,662,0,0,1,5.36-81.57s-81.61-249-11.83-278.68C170.06,712.58,255.32,724,255.32,724L224.93,842.82S209.41,993.65,211.05,1031.75Z" transform="translate(-3.44 -13.93)"/><path class="cls-13" d="M330.35,745.58c52.88,33.21-10.15,268.85-10.15,268.85s-.19,42.63.2,85.93V1103c-19.26,10.21-25.56,9.28-44.35,11.35-8.7,1-23.1-4-30.61-6.14a34.85,34.85,0,0,1-7.62-2.94c-1-26-1.9-49.24-1.08-73.5,1.3-38.1-15.57-188.93-15.57-188.93L189.71,724S280,714,330.35,745.58Z" transform="translate(-3.44 -13.93)"/><path class="cls-12" d="M84.74,807.26s6.05-48.18,18-76.45,11.89-33,11.89-33l7.47-57.58s3.75-27,8.51-57.64-8.51-27.15-8.51-27.15,63-22.57,106.54-19.87c43.07-2.7,105.47,19.87,105.47,19.87s9.58,20.07,14.3,50.69-14.3,34.1-14.3,34.1l2.36,63.6s0,4.71,11.78,33,9.47,86.45,9.47,86.45-20.43,25.53-122.55,20.42C153,844.62,84.74,807.26,84.74,807.26Z" transform="translate(-3.44 -13.93)"/><path class="cls-10" d="M351.35,621.23" transform="translate(-3.44 -13.93)"/><path class="cls-10" d="M289.67,484s3,33.82-36.81,42.77-72.62-34.81-72.62-34.81,17.91,45.76,62.67,45.76S289.67,484,289.67,484Z" transform="translate(-3.44 -13.93)"/><path class="cls-10" d="M348.2,736.83c-11.78-28.27-11.78-33-11.78-33l-2.36-63.6a12.33,12.33,0,0,0,3.37-1.82,8.1,8.1,0,0,1-3.6.16,26.69,26.69,0,0,1-4.37,3.53c-18.9,11.94-67.64,9-67.64,9s40.78,6,51.73,9.94,21.88,39.8,13.92,43.78-31.83,8-31.83,8l31.83,4s-29.84,7-23.87,7,16.91-13.93,30.84,14.92c11.1,23,12.22,73.53,12.16,88.06,2.94-1.29,4.83-1.55,6.81-2.55l5.11-.85C358.18,811.9,357.74,759.74,348.2,736.83Z" transform="translate(-3.44 -13.93)"/><path class="cls-14" d="M139.45,736.63s-3.51-3-7.8-6.85A34.36,34.36,0,0,1,139.45,736.63Z" transform="translate(-3.44 -13.93)"/><path class="cls-11" d="M266.76,855,238.53,876.9s1.63,113.41,9.43,133.31c4.09,10.44,4.49,52.23,4,99.25a45.66,45.66,0,0,1-6.56-1.27,34.85,34.85,0,0,1-7.62-2.94c-1-26-1.9-49.24-1.08-73.5,1-30.84-9.8-135.53-14-174.31V857Z" transform="translate(-3.44 -13.93)"/><path class="cls-11" d="M87.4,808.65a311.12,311.12,0,0,0,31.9,13.71c-.15,15.15-.12,55.83,3.48,93.68,4.54,47.66,15.89,96.45,15.89,96.45l-9,94.85c-2.53-1.34-5-2.77-7.43-4.31-.09-2.53-.13-4.89-.13-7a662,662,0,0,1,5.36-81.57S87.34,892.05,87.4,808.65Z" transform="translate(-3.44 -13.93)"/><path class="cls-15" d="M272.52,409.67s-9.51,24.6-8.91,37c1.27,25.81,15.36,24.46,15.36,24.46s13.55,40.31-24.5,44c-69.63,6.69-65.37-48.53-65.37-48.53s26.16-28.44,15.36-55.17" transform="translate(-3.44 -13.93)"/><path class="cls-10" d="M154,771.4s-19-16.1-29.27-21.95,17.56-32.2,16.1-42.44,32.2-2.93,36.59-1.47-19-17.56-27.81-33.66,48.3-13.17,52.69-13.17-26.34-5.85-39.52-16.1S151,597.24,154,579.68s-19,52.69-19,52.69l-11.54-1.78c-.86,6-1.36,9.66-1.36,9.66l-7.47,57.58s0,4.71-11.89,33C96.29,746,91.59,767,88.6,783.08L108,797.27c1.36-4.5,4.91-13,13.81-22.94C135,759.7,154,771.4,154,771.4Z" transform="translate(-3.44 -13.93)"/><path class="cls-10" d="M130.56,813.85,108,797.27a23.15,23.15,0,0,0-.82,3.4Z" transform="translate(-3.44 -13.93)"/><path class="cls-9" d="M47,687.61c3.25-17.56,16.1-58.07,23.53-84.52,7.23,2.27,34.85,6.07,52.69,10.25-.39,11.81-11.71,21.95-12,29.73-6.5,25.64-16,65.86-14.45,75.37,2.37,14.23-14.23,134-14.23,134s11.85,20.15,10.67,28.45,5.63,35.87-1.48,39.43-13.94-20.46-13.94-20.46l2.38,22.53s10.67,2.37,20.15,4.74,0,11.86,0,11.86-13,1.19-21.34-3.56-22.45-9.72-30.75-27.51S55.84,860,55.84,860,41.09,719.62,47,687.61Z" transform="translate(-3.44 -13.93)"/><path class="cls-12" d="M148.12,488.94c-4.39,1.46-22-2.93-43.91,23.41S60.3,600.17,60.3,600.17s52.69,35.12,67.33,29.27S159.83,587,159.83,587" transform="translate(-3.44 -13.93)"/><path class="cls-16" d="M215.89,288.4c6.78-11.18,26.63-14.17,4.11-31.27-9-6.83-31.26-9.6-41.47-7.56-26.29,5.26-50.67,35.07-41.77,62.73-2.24-9.55,9.07-28.69,18.28-31.8-8.67,11.95-15.45,28.85-8.54,44.2-1.89-10.22,6.55-16,9-24.53-1.65,8.29-4.8,14.18.44,22.37,7.14,11.14,18.81,9.27,27.94,2.68" transform="translate(-3.44 -13.93)"/><path class="cls-17" d="M248.84,271.47s-18.17-12.7-57.52,4.73c-47,20.81-47.56,105.22-19.91,116s46.94-9,46.94-9L264.47,283" transform="translate(-3.44 -13.93)"/><path class="cls-18" d="M305.22,352.86s6.7-.66,7.13,3.64c1.14,11.49-5,18.37-5,18.37" transform="translate(-3.44 -13.93)"/><path class="cls-17" d="M224.5,276.07c-4.15.63-44.35,8.48-58.35,31.32s2.32,81.85,15.85,87.19,122.05-39.09,122.05-39.09,15.65-63.75-24-79.9S220,280.44,220,280.44" transform="translate(-3.44 -13.93)"/><path class="cls-9" d="M259.33,302.8s-10.45-5.76-24.19,1.09-26.23,37.54-33.27,50.44c-5.79,10.61-12.38,15.1-12.38,15.1s-4.13,23.7,10.75,45.53c10,14.63,34.68,34.46,59.87,30.68a3.23,3.23,0,0,0,.74-.25c.26,0,.62.24.89.21,35.57-4.18,43.58-34.26,46.18-47.72,3.36-17.37-3.56-56.68-3.56-56.68S302.77,326,296.06,316c-6.58-9.87-13-16.48-19.88-17.25-13-1.48-17.94,4.19-17.94,4.19" transform="translate(-3.44 -13.93)"/><path class="cls-9" d="M197.91,379.2c-7.58-16.1-31.5-13.17-29.63,5.64.76,7.66,9.82,18.45,15.95,22.89,5.54,4,16.57,2.06,17.82-5.18" transform="translate(-3.44 -13.93)"/><path class="cls-18" d="M189.79,377.82c-21.07-4.82-15.18,24.26,3.71,22.83-5.6-1.48-15.13-14.39-8.7-17.4-5.36,8.31,9.26,6.48,7.91,4.29" transform="translate(-3.44 -13.93)"/><path class="cls-19" d="M264.24,390.94c-.06.05-5.82-3.37-7.11-1.6s3.94,2.56,4.84,2.43A7.59,7.59,0,0,0,264.24,390.94Z" transform="translate(-3.44 -13.93)"/><path class="cls-20" d="M253.33,380.39a9.65,9.65,0,0,0-3.8,5.29c-1,3.57,3.72,7,3.77,7s-6-1.08-5.81-4.74A8,8,0,0,1,253.33,380.39Z" transform="translate(-3.44 -13.93)"/><path class="cls-19" d="M273.93,388.51c.07,0,4.59-5,6.33-3.65s-3,3.62-3.92,3.76A7.25,7.25,0,0,1,273.93,388.51Z" transform="translate(-3.44 -13.93)"/><path class="cls-20" d="M276.93,376.78a9.55,9.55,0,0,1,5.15,3.92c2,3.12-1.52,7.83-1.57,7.81s4.19-3,3-6.44C281.33,376.09,276.92,376.85,276.93,376.78Z" transform="translate(-3.44 -13.93)"/><path class="cls-21" d="M274.31,380.75c.37,1.72-1.81,3.69-4.9,4.16s-5.73-.76-5.88-2.52,2.06-1.52,5-2S274,379,274.31,380.75Z" transform="translate(-3.44 -13.93)"/><path class="cls-22" d="M219.61,368.63s5.62-6.55,16.58-7.3,13.55,2.53,13.55,2.53-5.5,3.3-15.54,4.22S219.61,368.63,219.61,368.63Z" transform="translate(-3.44 -13.93)"/><path class="cls-23" d="M219.61,368.63s4.47-6.22,16.58-7.3a28.2,28.2,0,0,1,13.55,2.53,15.63,15.63,0,0,0-14.07-5.07C220.78,361.3,219.61,368.63,219.61,368.63Z" transform="translate(-3.44 -13.93)"/><path class="cls-17" d="M247.45,340.12c.08-.18-13.56-.92-21,3.68-7.31,4.39-7.52,6.86-7.58,6.8s12.88-4.07,20.51-5.62C247,343.23,247.48,340.18,247.45,340.12Z" transform="translate(-3.44 -13.93)"/><path class="cls-24" d="M225.89,372.58l19.31-2.95a38.65,38.65,0,0,1-10.76,4.1C227.5,375.41,225.89,372.58,225.89,372.58Z" transform="translate(-3.44 -13.93)"/><path class="cls-22" d="M276,359.71a21.84,21.84,0,0,1,15.22-7.09c10.12-.63,12.54,2.69,12.54,2.69s-5,3.23-14.3,4S276,359.71,276,359.71Z" transform="translate(-3.44 -13.93)"/><path class="cls-23" d="M276,359.71s4-6.15,15.22-7.09a24.81,24.81,0,0,1,12.54,2.69s-3.69-6.3-13.05-5.23C278.68,351.46,276,359.71,276,359.71Z" transform="translate(-3.44 -13.93)"/><path class="cls-24" d="M283.15,363.53,301,360.81a33.44,33.44,0,0,1-9.9,4C284.68,366.37,283.15,363.53,283.15,363.53Z" transform="translate(-3.44 -13.93)"/><path class="cls-24" d="M300.72,338.57s-29.7-9-29.94,18.74c-.11,12.39,4.28,17.87,4.28,17.87s-1.49-18.68,5.33-24.21a22.09,22.09,0,0,1,21.87-3.62Z" transform="translate(-3.44 -13.93)"/><path class="cls-17" d="M278.43,338.08c-.13-.12,10.63-4.21,17.67-1.92,6.88,2.15,7.54,4.39,7.57,4.32s-11.34-.12-17.73.3C279.56,341,278.43,338.14,278.43,338.08Z" transform="translate(-3.44 -13.93)"/><path class="cls-18" d="M286.88,401.86s-12.12,4.35-20.9,5.08-24.47-1.42-24.47-1.42,11.88,13.46,23.63,12.34C280.51,416.4,286.88,401.86,286.88,401.86Z" transform="translate(-3.44 -13.93)"/><path class="cls-17" d="M244.18,366.14c0-.22.08-.42.08-.64a5.68,5.68,0,0,0-2-4.15,38.19,38.19,0,0,0-6.1,0,27.64,27.64,0,0,0-7.27,1.48,5.11,5.11,0,0,0,.2,5.66c1.52-.09,3.17-.21,5.08-.39A48.23,48.23,0,0,0,244.18,366.14Z" transform="translate(-3.44 -13.93)"/><path class="cls-17" d="M298.63,357.51a5.58,5.58,0,0,0,.14-1.16,5.48,5.48,0,0,0-1.37-3.58,31.79,31.79,0,0,0-6.21-.15,22.91,22.91,0,0,0-8.2,2.05,5.06,5.06,0,0,0-.32,1.68,5.46,5.46,0,0,0,1.23,3.36c1.6-.07,3.42-.19,5.53-.37A40.81,40.81,0,0,0,298.63,357.51Z" transform="translate(-3.44 -13.93)"/><path class="cls-22" d="M265.14,413.66c9.16-.87,17.93-4.76,18.43-10.7-4.22,1.34-11.66,3.48-17.59,4-5.6.46-14-.24-19.35-.82C247.21,412,258.18,414.33,265.14,413.66Z" transform="translate(-3.44 -13.93)"/><path class="cls-24" d="M240.2,405.54l1.68.12c5.27.37,21.49,1.42,26.62.72,6.17-.84,18.38-4.52,18.38-4.52s-5.21-1.09-16.14-1.09-28,3.37-28,3.37" transform="translate(-3.44 -13.93)"/><path class="cls-24" d="M244.13,408.62s12.33,9.81,21,9.24,18.21-9,18.21-9-5,14.85-19.61,15.13S244.13,408.62,244.13,408.62Z" transform="translate(-3.44 -13.93)"/><rect class="cls-6" x="593.99" y="313.12" width="308.98" height="475.9"/><rect class="cls-25" x="625.95" y="340.74" width="113.54" height="185.27"/><rect class="cls-25" x="761.01" y="340.74" width="113.54" height="185.27"/><rect class="cls-25" x="625.95" y="546.92" width="113.54" height="185.27"/><rect class="cls-25" x="761.01" y="546.92" width="113.54" height="185.27"/><path class="cls-26" d="M1087.89,1416.44c.43,1.29,6.88,11.17,1.29,15.47s-28.79,5.59-41.25,3.44-13.32-3.44-27.51-3.44-39.1,3.44-37.81,1.29,8.16-10.74,8.16-10.74" transform="translate(-3.44 -13.93)"/><path class="cls-27" d="M871,429c-2.21,3.72-3.93,8.37-7.2,11.36-2.34,2.15-8,3.56-9.69,5.89-2.52,3.6,3.57,15.3,8.2,13" transform="translate(-3.44 -13.93)"/><polyline class="cls-28" points="1002.35 823.24 1076.99 832.82 1064.57 977.24 997.53 977.24"/><path class="cls-29" d="M1080.16,1371.32l-44.05-12.9s9,8.39-13.35,26.5-69.94,28.2-67,39.08,56.69-1.41,79.65,3.18c30.09,6,53.71,3.34,55.44-5.58S1080.16,1371.32,1080.16,1371.32Z" transform="translate(-3.44 -13.93)"/><path class="cls-30" d="M931.24,949.16s23.4,168,26.19,178.76,80.61,246,80.61,246,7.74,4.29,31.75.08c9.59-1.68,10.37-4.38,10.37-4.38s-8.65-98.42-26-153.37-35.59-88.75-35.59-88.75l1.6-131.28" transform="translate(-3.44 -13.93)"/><path class="cls-31" d="M1022.67,845.3,900.58,894.12c-7.17,19.09,2.6,110.42,12.51,178.56l1.63-.35c3.07-.7,6.13-1.42,9.2-2.13a6.2,6.2,0,0,1,5.81-6.72c9.57-.41,19.16-.44,28.73-.54,8.47-.09,16.95-.23,25.42-.59l18.61-5.41c6-1.74,12-3.32,17.88-5.58,3.13-1.21,6.23-2.51,9.33-3.8l2.85-76.39s1.57-.76,17.42-34.72S1022.67,845.3,1022.67,845.3Z" transform="translate(-3.44 -13.93)"/><path class="cls-32" d="M968.06,1051.06s4.45,5,28.35-2.23,34.47-11.67,34.47-11.67l1.67,14.45s-12.23,7.79-32.8,11.68-35,1.67-35,1.67" transform="translate(-3.44 -13.93)"/><path class="cls-28" d="M972.38,1401.19c-9.76.6-19.37,2.81-29.19,2.44a67.49,67.49,0,0,1-17.18-3.09,74.18,74.18,0,0,1-12.71,12.06c-24.57,19.11-73.72,30.94-71.9,41.86s14.56,12.75,38.23,11.84,107.08-3.26,110.71-12c4.24-10.25-3.81-42.87-6.8-54.15C979.85,1400.68,976.1,1401,972.38,1401.19Z" transform="translate(-3.44 -13.93)"/><path class="cls-26" d="M879.63,1459.92c-19.76.76-31.87-.4-36.4-7.15-2,1.82-3,3.59-2.74,5.33,1.82,10.93,14.56,12.75,38.23,11.84s111-3.64,113.77-12.75c.52-1.72.44-4.87,0-8.82C982.89,1456.52,902.23,1459.06,879.63,1459.92Z" transform="translate(-3.44 -13.93)"/><path class="cls-30" d="M874.32,951.14s7.41,189.6,9,200.81,51.82,243,51.82,243,3.2,14.4,32,9.6a105.94,105.94,0,0,0,14.41-3.2s2.12-92-9.09-149.59-28.32-93.39-28.32-93.39l13.4-149.58" transform="translate(-3.44 -13.93)"/><path class="cls-30" d="M1040.79,666.23s9.6,92.83,4.8,115.24-30.41,83.24-30.41,83.24l-16-164.87" transform="translate(-3.44 -13.93)"/><polygon class="cls-33" points="872.75 418.21 860.93 406.3 864.9 414.12 859.85 418.76 872.75 418.21"/><path class="cls-30" d="M890.48,369.09s-14.31,26.9-17.09,35.74c-3.45,11-3.94,25.55-3.94,25.55s-11,15.4-10.53,29.29c.51,16.67,7.78,35.6,7.78,35.6s.21,15.32,6.46,20.38S914.09,523,914.09,523L937,577.85H992.9c-8.09-32.7-28-53.19-20.79-68.79,9.15-19.64,80.4-86,14.36-131.86S890.48,369.09,890.48,369.09Z" transform="translate(-3.44 -13.93)"/><path class="cls-33" d="M1038.85,386.76c-13.17-26.56-48.23-46.38-78.12-49-20.8-1.8-53.07-3.26-69.07,11.85-12.27,11.59-13.51,35.27-3.24,48.47,5.79,7.44,13,10.16,15.87,20.12,2,6.93-4.06,20.08-3.34,27.31,5.58-11.75,20.84-5.66,23,2.79,2.06,8,.7,13.83.91,21.65.6,22.26,30.82,36.89,50.39,35.89,31.19-1.61,54-28.49,60.74-56.39,3.31-13.8,5.43-25.95,5.39-42.78,0-8.81-5.48-17.12-6.4-23.22" transform="translate(-3.44 -13.93)"/><path class="cls-27" d="M906.92,448a7.19,7.19,0,0,1,4.26-6.22c.61-.28.29,0,.07-.07a5.68,5.68,0,0,1,1.7.73,8.72,8.72,0,0,1,2.81,2.92c2.76,4.51,2.5,10.9,1.41,15.89a77.92,77.92,0,0,1-4,12.67c-1.75,4.28-4.05,9.31-7.94,12.07A5.19,5.19,0,0,1,903,487c.42,0,.06,0-.06-.06a5.69,5.69,0,0,1-1.11-.47,7.4,7.4,0,0,1-1.85-1.4c-2-2.06-3.27-5.27-2-8.05.21-.47.12-.85-.5.57-1.26,2.84-4.75,5.6-2.73,7.74,2.74,2.88,6.95,3.62,10.76,3.06,5.81-.85,9.17-6.15,11.52-11a76.37,76.37,0,0,0,5.43-15.7c1.34-5.74,1.63-13.87-2.8-18.44-2.92-3-7.61-3.69-11.56-2.77a8.2,8.2,0,0,0-6.46,7.47c-.1,1,5.2,1.28,5.33,0Z" transform="translate(-3.44 -13.93)"/><path class="cls-33" d="M882.73,412.35l-7.85-13.73a7.27,7.27,0,0,0-1.67,8.24l8.29,5.74" transform="translate(-3.44 -13.93)"/><path class="cls-27" d="M903.06,454.82c7.62-7.8,5.88,7.51,5.06,11.23-.55,2.48-1.4,8.1-4.26,9.32s-5.86-.32-5.67-3.56c5.14,2.75,6.23-7.09,7.13-10.41-.52,3.13-2.79,4-4,.81-.57-1.55.95-4.7,1.41-6.31" transform="translate(-3.44 -13.93)"/><path class="cls-33" d="M903.43,385.37A90.12,90.12,0,0,1,901.92,425C896.19,446,886,466.4,886,466.4s20.45-24,26.48-39.73,7.79-22.23,7.79-22.23" transform="translate(-3.44 -13.93)"/><path class="cls-34" d="M1005.85,558.78c-3.58-4.6-13.57-2.2-17.76-6.21-8-7.66,6-5.17-4.55-7.61L1011.23,697l41.6-21.32s-12.09-49.42-26.56-92.07C1024.82,579.38,1015.62,563.22,1005.85,558.78Z" transform="translate(-3.44 -13.93)"/><path class="cls-32" d="M1015.18,864.71,874.46,904.39c-8.46,18.44-15,91.65-9.94,160.2a74.15,74.15,0,0,0,13.27,6.65c20.34,7.78,43.15,7.71,64.23,3.15a124.29,124.29,0,0,0,27.73-9.43L980,1005.57s21.82-12.06,40-44.82S1015.18,864.71,1015.18,864.71Z" transform="translate(-3.44 -13.93)"/><path class="cls-35" d="M1003.69,910.14c-4.85,0-61.89,19.42-61.89,19.42L943,964.75l23.06,13.35s32.77-23.06,35.2-26.7S1003.69,910.14,1003.69,910.14Z" transform="translate(-3.44 -13.93)"/><path class="cls-35" d="M899.22,1057.08C900.8,991.51,904.44,921,904.44,921l-4.55-4.25s-3.32,72.69-4.62,139.59Z" transform="translate(-3.44 -13.93)"/><path class="cls-34" d="M987.91,543.41c-56.22-15.39-87.1,40.11-87.1,40.11-7.06,2.62-24.29,66.34-27.77,79.56-8,30.42,7.15,64.83,7.15,64.83l-17.55,183s25.25,19.6,102.92-1.37,81.63-38.42,81.63-38.42-25.61-28-25.61-104c0-31,28.41-196.26-38.81-224.27" transform="translate(-3.44 -13.93)"/><path class="cls-33" d="M1025.51,387c53.69-31.65,72.17,51.11,65,86.55-3.47,17.12-13.74,31.87-9.49,50,5.1,21.71,25,36.19,46.4,25-16.06,7.57-27.36,17-46.12,18,7.28,2.67,15.24,4.47,22.71,2.78-11.06,16.6-41.37,13.85-55.62,3.57C1028.24,558.32,1018,543,1022.47,518c5.73-32.08,35.13-97-4.92-114.36" transform="translate(-3.44 -13.93)"/><path class="cls-35" d="M861.88,1051.06c2.22,1.11,15,10.56,59.48,10,25-.31,51.7-7.22,51.7-7.22l-1.11,15s-25,12.61-66.15,11.12c-30.58-1.12-42.25-6.12-42.25-6.12l-2.23-22.24" transform="translate(-3.44 -13.93)"/><path class="cls-28" d="M1037.77,384.93c-8.21-7.34-14.15,9.17-14,15.6.17,9,4.66,14.9,14.32,15.11-14.47,6.75-30.88-3.75-29-20.26,1.21-10.55,18.73-25.79,26.74-16.33" transform="translate(-3.44 -13.93)"/><path class="cls-29" d="M923.3,1404s4.3-7.74,5.16-13.75,6-4.3,11.17-.43,3,15,3,15-.86,5.15-2.15,5.15-12.46-.43-12.46-.43-2.58,6-16.76,13.33a240.85,240.85,0,0,1-29.65,12.46l-6.45-1.72s35.24-17.19,39.11-21.06a51.63,51.63,0,0,1,9-6.87" transform="translate(-3.44 -13.93)"/><path class="cls-22" d="M902.38,1439.9c1.66-.55-5.44-8.19-11.26-14.08-2.47,1.22-5,2.4-7.48,3.55C891,1434.3,900.72,1440.45,902.38,1439.9Z" transform="translate(-3.44 -13.93)"/><path class="cls-22" d="M919.67,1432.62c2.65-.66-6.24-10.93-11.29-16.49-2.23,1.48-4.6,2.92-7.06,4.31C908,1426,917.4,1433.19,919.67,1432.62Z" transform="translate(-3.44 -13.93)"/><path class="cls-22" d="M915.4,1410.92c5.84,5.52,16.49,15.07,19.75,14.42s-7.74-12.79-14.07-19.42C919.45,1407.49,917.57,1409.16,915.4,1410.92Z" transform="translate(-3.44 -13.93)"/><path class="cls-26" d="M943.07,1399.68c1.29.86,6.88,4.3,20.2,2.58s19.21-6,19.21-6l3.14,6.91s-8.17,3.87-23.21,4.73-21.06-.43-21.06-.43" transform="translate(-3.44 -13.93)"/><path class="cls-22" d="M1022.76,1384.92a71.24,71.24,0,0,1-6.24,4.47,16.71,16.71,0,0,0-.82,1.7c-1.92,5-1.29,9.45.86,10.31s2.57-9,5.15-14.18a16.72,16.72,0,0,1,2.26-3.31C1023.57,1384.25,1023.19,1384.58,1022.76,1384.92Z" transform="translate(-3.44 -13.93)"/><path class="cls-22" d="M1030.74,1378.19c-.22,0-.52.12-.78.18l-1.06,1.07C1030,1378.65,1030.74,1378.19,1030.74,1378.19Z" transform="translate(-3.44 -13.93)"/><path class="cls-22" d="M1006.67,1405.7c2,.81,2.53-7.91,4.73-13.23-1.82,1-3.7,2-5.62,3C1003.91,1400.47,1004.54,1404.84,1006.67,1405.7Z" transform="translate(-3.44 -13.93)"/><path class="cls-22" d="M996.36,1409.56c1.81.73,2.41-6.19,4.1-11.47-1.79.84-3.58,1.66-5.39,2.47C993.73,1405,994.4,1408.78,996.36,1409.56Z" transform="translate(-3.44 -13.93)"/><path class="cls-26" d="M1038,1373.9s6.88.43,21.49-1.29,22.35-4.73,22.35-4.73l1.29,8.17s-18.91,6-32.23,5.15-15-3-15-3Z" transform="translate(-3.44 -13.93)"/><path class="cls-30" d="M874.46,634.2l-64.77,32.07L752,565.62l-3,1.81a22.43,22.43,0,0,1,1.85-3.48A106.86,106.86,0,0,0,737,544.25c-13-15.16-27.86-27.23-31.43-21-5.73,10,29.89,26.33,15.09,28.42a48.07,48.07,0,0,1-13.18-.18c-5.33-1.09-11.14-2.46-16.34-4.07-1.75-.62-2.79-1.06-2.79-1.06v.16c-14.44-4.9-27.5-11.76-30.2-8.09s7.3,8.33,13.71,10.84c3.19,1.25,10.36,3.91,16.76,6.26l.12,3.84c-3.69-.89-7.36-1.89-10.69-3-14.7-4.92-28.12-12.05-30.87-8.33s7.3,8.33,13.71,10.84c5.73,2.24,24.23,9,28.15,10.45l.05,1.74c-4-.95-8-2-11.59-3.23-14.7-4.92-28.13-12.05-30.88-8.32s7.31,8.32,13.72,10.83,28.89,10.72,28.89,10.72l.17,0,.07,2.34c-3.69-.89-7.37-1.9-10.71-3-14.7-4.92-28.12-12.05-30.87-8.32s7.3,8.32,13.71,10.83c5.74,2.24,24.31,9,28.17,10.46l6.49,1.8s26.63-.14,39.3,2.6c13.08,37,45.27,122.69,61.47,131.44,20.16,10.89,84.2-44.92,84.2-44.92Z" transform="translate(-3.44 -13.93)"/><path class="cls-34" d="M925.11,654.18s23.34-10.94,28.32-39.9c2.32-13.49-.35-23.86-5.69-31.55A42.37,42.37,0,0,0,941.1,578c-10.28-5.93-12.2-11.13-29.76-7.69l-4.53-.36c-24.62,8.57-36.49,32.26-55.91,48.65l-30.4,19.63s1.88,17.08,17.45,36.89c15.71,20,29.39,26.63,29.39,26.63s35.08-17.75,56.27-45.22" transform="translate(-3.44 -13.93)"/><path class="cls-36" d="M871.78,697.29s51.5-37.29,40.84-26.64-26.63,24-26.63,24,38.18-6.22,18.64.88-32,8.88-32,8.88" transform="translate(-3.44 -13.93)"/><path class="cls-36" d="M1028.05,686.63s1.77-55,2.66-47.94,3.55,32.85,3.55,32.85,9.77-16,7.11-8.88-6.22,24.86-6.22,24.86" transform="translate(-3.44 -13.93)"/><g class="cls-37"><path class="cls-22" d="M1126.35,563.21s24.2,19.06,30,34.74,13.51,76.62,13.51,76.62,9.19,18.17,6.37,18-19.88-4.81-26.82-5.52a446.1,446.1,0,0,0-45.76-2.67c-20.44,0-46.14,4.45-47.83,3.38s5.26-8.73,7.13-12.65,17.07-79.29,21.94-88.2,29.83-26.55,32.45-29.4S1126.35,563.21,1126.35,563.21Z" transform="translate(-3.44 -13.93)"/><path class="cls-38" d="M1125.24,563.68a151.47,151.47,0,0,1,12.06,10.73c6.58,6.45,13.4,13.68,17.18,22.2,2.46,5.53,3.54,11.76,4.73,17.65,1.64,8.1,3,16.24,4.29,24.4q2.82,17.79,5.09,35.65a7.22,7.22,0,0,0,.9,2.24c1.4,2.87,2.76,5.77,4,8.72.61,1.48,1.2,3,1.66,4.5a13.12,13.12,0,0,1,.37,1.53c0,.24-.07.93,0,1.11-.13-.33,1.25-.51,1.21-.53a2.89,2.89,0,0,0-.59-.08c-.69-.11-1.37-.26-2-.4-1.85-.4-3.68-.83-5.52-1.25-4.43-1-8.85-2.09-13.32-3-3.42-.66-6.86-1-10.32-1.34-11.45-1.12-22.93-1.89-34.43-2.11a294.47,294.47,0,0,0-36.36,1.92c-4.36.46-8.72,1-13.09,1.37a31.2,31.2,0,0,1-3.61.2l-.46,0c-.09,0-.13-.11-.1,0a1.94,1.94,0,0,1,.05-.87,19.86,19.86,0,0,1,3-4.8c1.25-1.78,2.58-3.53,3.67-5.41a13.53,13.53,0,0,0,1.34-3.52c1.24-4.67,2.27-9.4,3.33-14.12,3.38-14.94,6.65-29.9,10.22-44.79,1.51-6.29,3-12.58,4.83-18.8.59-2,1.2-4.09,2-6.09a17.08,17.08,0,0,1,3.06-5.06c5.3-6.39,12.13-11.63,18.58-16.78,2.85-2.28,5.74-4.51,8.58-6.8.82-.65,1.65-1.3,2.42-2,.11-.1.22-.2.32-.31s.42-.34.24-.28.19.07.28.12c.36.18.73.32,1.08.53a20.88,20.88,0,0,1,5.47,5.46c.49.65,2.81-.17,2.23-.94a20.71,20.71,0,0,0-6-5.79,4.38,4.38,0,0,0-4.51-.13,21.27,21.27,0,0,0-2,1.72c-5.9,5-12.12,9.51-18,14.51a105.92,105.92,0,0,0-9.46,8.88,22.62,22.62,0,0,0-4.35,6.11c-1.88,4.38-3,9.17-4.17,13.77-4,15.14-7.3,30.45-10.72,45.73-1.44,6.44-2.87,12.89-4.38,19.32-.46,2-.93,4-1.45,5.95a12.29,12.29,0,0,1-1.6,3.92c-1.18,1.89-2.53,3.67-3.8,5.49a16.21,16.21,0,0,0-2.64,4.57c-.66,2.44,3,1.81,4.41,1.72,9.91-.65,19.76-2.15,29.67-2.87a287.46,287.46,0,0,1,39.81.29c5.12.33,10.24.76,15.35,1.26,3.52.34,7,.71,10.47,1.39,4.61.91,9.18,2,13.75,3.07,1.81.42,3.62.85,5.44,1.21a7.22,7.22,0,0,0,3.22.29c2.6-.72.9-4.26.31-5.89-1.17-3.22-2.62-6.35-4.09-9.44a21.24,21.24,0,0,1-1.76-3.74,34.6,34.6,0,0,1-.48-3.68q-1.21-9.23-2.56-18.45c-2.32-16-4.56-32.11-8.5-47.76a43.24,43.24,0,0,0-9.93-19.72,139.86,139.86,0,0,0-18.58-18.8c-1.16-1-2.33-2-3.53-2.93C1126.8,562.21,1124.58,563.16,1125.24,563.68Z" transform="translate(-3.44 -13.93)"/></g><path class="cls-39" d="M1121.91,560.2c5.09,9.81,18.33,22.41,17.94,34-4.94-2.75-9-11-12.25-15.53-2.77-3.8-8.65-10-8.73-14.84,6.8,4.43,6.75,28.59,2.13,34.77-4.36-9.91-1.53-21.27-2.18-31.57-1.29,4.83-4.1,9.8-6.48,14.31-2.22,4.19-4.45,12.91-8.58,15.31-1.26-5.1,4.34-12.41,6-17.22,2.1-6,2.64-11.67,7.2-16.43-5.33,6.42-11.3,17.87-19.85,19.49,2.84-7.74,13.45-20.84,22.19-22.32" transform="translate(-3.44 -13.93)"/><path class="cls-39" d="M1074.62,630.23c18.53-2,75.15-.43,87.51-.05,3.49,20.91,6.31,43.4,6.31,43.4s8.94,17.78,6.2,17.6-19.33-4.7-26.08-5.4a429.23,429.23,0,0,0-44.51-2.62c-19.88,0-44.88,4.36-46.52,3.32s5.11-8.54,6.93-12.38C1065.42,672.1,1069.89,651.1,1074.62,630.23Z" transform="translate(-3.44 -13.93)"/><path class="cls-40" d="M1124,559.3c1,.49,30.24,28,33.34,39.79s12.93,74.66,12.93,74.66,7.08,18.72,6,18.81-9.61-2.6-18.14-4.32-35.93-3.69-44.21-4.18-21.45-.24-21.45-.24,39.29-5.65,53.77-4.92,8.27-67,2.07-83S1124,559.3,1124,559.3Z" transform="translate(-3.44 -13.93)"/><path class="cls-4" d="M1113.44,629.89l0,.19s-1.6,1.69-1.67,1.74a.88.88,0,0,1-.31.09s-.58-.52-.81-.49h-.06a.07.07,0,0,0,0-.09v0h0a.14.14,0,0,1,0-.06s0-.05,0-.07h0v0s0-.07-.06-.07l0,0a.11.11,0,0,0,0,.06,1,1,0,0,0,.07.29h-.06s0,0,0,0a.79.79,0,0,1-.23-.09l-.21-.13s-.06,0-.07,0,0,0,0,.06a0,0,0,0,0,0,0,2.16,2.16,0,0,0,.34.17.14.14,0,0,0,0,.14l0,0a.8.8,0,0,1-.68-.08s-.08.12,0,.14a.84.84,0,0,0,.84,0l0,0a3.37,3.37,0,0,0-.29.37.11.11,0,0,0,0,.11s0,0,.05,0,.25-.29.35-.44a2.38,2.38,0,0,1,.58.3c.16.18,0,.32.08.44a1.06,1.06,0,0,0,.1.17,1.27,1.27,0,0,0-.11.75c.08.38.18.41.18.41s0,.13,0,.29l-.07-.06a.27.27,0,0,1-.08-.07l0,0,0,0s0,0-.06,0,0,0,0,.06a.11.11,0,0,0,0,0,.71.71,0,0,0,.15.15l.12.09a.91.91,0,0,0,0,.17c0,.22.22.32.19.36a.45.45,0,0,0-.11.3.53.53,0,0,1-.12,0,.65.65,0,0,1-.17-.08s-.07,0-.08,0,0,.09,0,.11a1.06,1.06,0,0,0,.39.13.38.38,0,0,0,0,.1,1.37,1.37,0,0,0,.32.51s-.15.07,0,.43.31.37.31.37-.14,0,0,.44a1.09,1.09,0,0,0,.45.59.71.71,0,0,0,0,.31l0,0-.21.11s0,0,0,0,0,0,0,.06,0,.07,0,.06a1.5,1.5,0,0,0,.32-.19.48.48,0,0,0,.21.2.49.49,0,0,0,0,.19l.07.25a.5.5,0,0,0-.4.1,1.63,1.63,0,0,0-.48-.13c-.06,0-.09.15,0,.16a1.61,1.61,0,0,1,.38.08c-.12.13-.22.19-.28.32a1.22,1.22,0,0,0-.57,0c-.06,0-.07.17,0,.15a1.19,1.19,0,0,1,.53,0,.25.25,0,0,1,0,.08,1.44,1.44,0,0,0,.17.68s-.48-.06-.62.24a1,1,0,0,0,0,.54l-.14,0a.52.52,0,0,0-.22.14,3,3,0,0,0-.29.41.15.15,0,0,0,0,.11s0,0,0,0a2.6,2.6,0,0,1,.27-.38.48.48,0,0,1,.2-.14.69.69,0,0,1,.2,0,1,1,0,0,0,.38.58,1.44,1.44,0,0,0,.88,0,1,1,0,0,1,.1.31,1.89,1.89,0,0,1,0,.41s0,.08,0,.09,0,0,0-.07a1.68,1.68,0,0,0,0-.5,1.11,1.11,0,0,0-.07-.29.43.43,0,0,0,.28-.33,1.76,1.76,0,0,0,0-.65.81.81,0,0,0,.49-.17,1,1,0,0,0,.31-.47,1,1,0,0,1,.09-.17v0h0v0l0,.06h0v0a.44.44,0,0,1,0,.1s0,.06.07,0a.1.1,0,0,0,0-.1,2.17,2.17,0,0,0-.07-.24.36.36,0,0,0-.07-.1c.16.16.31.33.45.5a.06.06,0,0,0,.09,0,.11.11,0,0,0,0-.11,4.76,4.76,0,0,0-.57-.62h0a1.73,1.73,0,0,0-.06-.25,3.81,3.81,0,0,0,0-1s0,0,0,0l.2,0s0,0,0,0l0,0s0,0,0-.06a0,0,0,0,0,0,0,1.88,1.88,0,0,0-.33,0l-.12-.18a.64.64,0,0,0-.1-.45l-.07-.11.12-.17s0-.07,0-.1,0-.06,0,0a1.38,1.38,0,0,0-.17.25c-.1-.14-.17-.22-.17-.22a.65.65,0,0,0-.17-.46c-.18-.19-.35-.34-.35-.34a.54.54,0,0,0-.08-.42c-.15-.2-.28-.35-.28-.35a1.16,1.16,0,0,0-.05-.55,2.34,2.34,0,0,0-.28-.37,1.65,1.65,0,0,0,0-.57s0,0,0,0a.85.85,0,0,1,.24-.36.17.17,0,0,0,0-.1s0-.06,0,0a1,1,0,0,0-.26.4,1.26,1.26,0,0,0-.14-.34,2.2,2.2,0,0,0,0-.55,1.07,1.07,0,0,0-.17-.34,1.1,1.1,0,0,0,.09-.42.7.7,0,0,1,0-.27s1.44-1.77,1.52-1.82.29-.09.22-.15S1113.46,629.77,1113.44,629.89Zm.77,10h0Z" transform="translate(-3.44 -13.93)"/><path class="cls-4" d="M1133.78,629.92l0,.19s-1.71,1.58-1.79,1.63a.94.94,0,0,1-.31.06s-.55-.55-.78-.54h-.06a.1.1,0,0,0,0-.09v0h0a.13.13,0,0,1,0-.06.2.2,0,0,1,0-.07h0v0s0-.07-.06-.07l0,0a.14.14,0,0,0,0,.06.92.92,0,0,0,0,.29h-.06s0,0,0,0a.62.62,0,0,1-.22-.1l-.2-.14s-.06,0-.07,0a.13.13,0,0,0,0,.06s0,0,0,0a2.8,2.8,0,0,0,.32.2s0,.07,0,.14v0a.79.79,0,0,1-.67-.13s-.09.12-.06.14a.84.84,0,0,0,.84.1l0,0c-.11.12-.23.22-.33.35a.2.2,0,0,0,0,.11s0,0,0,0,.27-.27.39-.42a2.39,2.39,0,0,1,.55.34c.15.19,0,.33,0,.45a.77.77,0,0,0,.09.17,1.23,1.23,0,0,0-.16.74c0,.38.15.42.15.42s0,.13-.06.29l-.07-.06-.07-.08,0,0,0,0s0,0-.06,0a.14.14,0,0,0,0,.06s0,0,0,0a.65.65,0,0,0,.13.16l.11.1v.17c0,.22.2.33.17.37a.43.43,0,0,0-.13.3l-.12,0L1131,635s-.06,0-.08,0a.11.11,0,0,0,0,.11,1.4,1.4,0,0,0,.38.16s0,.06,0,.1a1.37,1.37,0,0,0,.29.53s-.16.06,0,.43.29.38.29.38-.14,0,0,.45a1.09,1.09,0,0,0,.4.61.7.7,0,0,0,0,.31l0,0-.22.1s0,0,0,0l0,.06s0,.07,0,.06a1.48,1.48,0,0,0,.33-.17.43.43,0,0,0,.2.21.56.56,0,0,0,0,.19,2.2,2.2,0,0,0,0,.26.49.49,0,0,0-.41.07,1.54,1.54,0,0,0-.47-.16c-.06,0-.1.14,0,.15a2.26,2.26,0,0,1,.37.11,1.41,1.41,0,0,0-.3.3,1.37,1.37,0,0,0-.57,0c-.06,0-.08.17,0,.16a1,1,0,0,1,.53,0s0,0,0,.07a1.27,1.27,0,0,0,.11.69s-.48-.08-.63.2a.86.86,0,0,0,0,.54l-.14,0a.48.48,0,0,0-.23.13,3,3,0,0,0-.32.39.14.14,0,0,0,0,.11s0,0,0,0a3.51,3.51,0,0,1,.29-.36.45.45,0,0,1,.22-.13h.19a1,1,0,0,0,.35.6,1.3,1.3,0,0,0,.87.08.88.88,0,0,1,.07.32,1.39,1.39,0,0,1,0,.41s0,.08,0,.09,0,0,.06-.07a1.6,1.6,0,0,0,0-.49.93.93,0,0,0,0-.29.44.44,0,0,0,.3-.31,1.71,1.71,0,0,0,0-.66.8.8,0,0,0,.51-.13,1.1,1.1,0,0,0,.34-.45s0-.09.1-.17v0h0v0s0,0,0,.05v0h0v0s0,.07,0,.1,0,.07.07,0a.1.1,0,0,0,0-.1,1.11,1.11,0,0,0,0-.25.33.33,0,0,0-.06-.1,5.34,5.34,0,0,1,.41.53.06.06,0,0,0,.09,0,.08.08,0,0,0,0-.1,4.72,4.72,0,0,0-.52-.66h0l0-.25a3.64,3.64,0,0,0,.07-1,.43.43,0,0,1,0-.05l.2.06,0,0,0-.05a.13.13,0,0,0,0-.06l0,0a1.65,1.65,0,0,0-.32-.07,1.18,1.18,0,0,0-.1-.18.67.67,0,0,0-.07-.46l-.06-.12a1.83,1.83,0,0,1,.13-.16.13.13,0,0,0,0-.1s0-.06,0,0a1.37,1.37,0,0,0-.19.23,1.74,1.74,0,0,0-.16-.23.66.66,0,0,0-.13-.47c-.17-.21-.32-.37-.32-.37a.53.53,0,0,0-.06-.42l-.24-.37a1.15,1.15,0,0,0,0-.55,1.91,1.91,0,0,0-.24-.38,1.76,1.76,0,0,0,0-.57s0,0,0,0a.92.92,0,0,1,.27-.35.3.3,0,0,0,0-.1s0-.06,0,0a1.07,1.07,0,0,0-.29.38,1.13,1.13,0,0,0-.11-.34,2.08,2.08,0,0,0,0-.55,1.33,1.33,0,0,0-.14-.36.92.92,0,0,0,.11-.4,1.06,1.06,0,0,1,0-.27s1.57-1.67,1.65-1.72.3-.08.23-.14S1133.81,629.8,1133.78,629.92Zm0,10h0Z" transform="translate(-3.44 -13.93)"/><path class="cls-4" d="M1141.78,637.83c-.06.06.16.08.24.13s1.65,1.64,1.67,1.69a.89.89,0,0,1,0,.27.91.91,0,0,0,.12.41,1,1,0,0,0-.14.36,2.42,2.42,0,0,0,.06.54,1.29,1.29,0,0,0-.11.35.9.9,0,0,0-.3-.37s0,0,0,0a.18.18,0,0,0,0,.1.77.77,0,0,1,.27.35v0a1.6,1.6,0,0,0,0,.57,1.91,1.91,0,0,0-.24.38,1.14,1.14,0,0,0,0,.56l-.24.37a.53.53,0,0,0,0,.42,3.55,3.55,0,0,0-.32.38.66.66,0,0,0-.13.47l-.15.22a2.11,2.11,0,0,0-.19-.23s0,0,0,0a.13.13,0,0,0,0,.1,1,1,0,0,1,.13.16l-.06.12a.6.6,0,0,0-.06.45,1.81,1.81,0,0,0-.1.19,1.25,1.25,0,0,0-.32.08s0,0,0,0,0,0,0,.06l0,0s0,0,0,0l.2-.06s0,0,0,0a3.9,3.9,0,0,0,.09,1l0,.25h0a4.65,4.65,0,0,0-.51.66.09.09,0,0,0,0,.11.06.06,0,0,0,.09,0,4.19,4.19,0,0,1,.4-.54l-.06.1a2.21,2.21,0,0,0-.05.25.14.14,0,0,0,.05.1s.06,0,.06-.05,0-.07,0-.1v0h0v0s0,0,0,0v0h0l0,0c0,.08.1.13.1.17a1.09,1.09,0,0,0,.34.44.8.8,0,0,0,.51.13,1.58,1.58,0,0,0,0,.65.46.46,0,0,0,.31.31.93.93,0,0,0,0,.29,1.6,1.6,0,0,0,0,.49s0,.08.07.07,0-.07,0-.09a1.4,1.4,0,0,1-.05-.41,1.14,1.14,0,0,1,.07-.32,1.28,1.28,0,0,0,.87-.1,1,1,0,0,0,.33-.6h.2a.43.43,0,0,1,.22.12,3.58,3.58,0,0,1,.3.36s0,0,0,0a.2.2,0,0,0,0-.11,3.09,3.09,0,0,0-.33-.39.56.56,0,0,0-.23-.12h-.14a1,1,0,0,0,0-.55c-.16-.28-.64-.19-.64-.19a1.27,1.27,0,0,0,.11-.69s0-.05,0-.08a1.19,1.19,0,0,1,.53,0c.06,0,0-.14,0-.15a1.1,1.1,0,0,0-.57,0,1.27,1.27,0,0,0-.31-.3,2.59,2.59,0,0,1,.37-.11c.06,0,0-.17,0-.15a1.4,1.4,0,0,0-.46.16.51.51,0,0,0-.41-.06s0-.11,0-.26,0-.19,0-.19a.49.49,0,0,0,.2-.22,1.09,1.09,0,0,0,.34.17s0,0,0-.06a.14.14,0,0,0,0-.06s0,0,0,0a1.57,1.57,0,0,1-.23-.09l0,0a.62.62,0,0,0,0-.31,1.08,1.08,0,0,0,.4-.62c.09-.42,0-.44,0-.44s.16,0,.28-.4,0-.39,0-.42a1.59,1.59,0,0,0,.28-.54s0-.06,0-.1a1,1,0,0,0,.38-.17s0-.07,0-.1,0-.06-.08,0a.7.7,0,0,1-.17.09l-.12,0a.37.37,0,0,0-.13-.29s.14-.15.16-.38a.85.85,0,0,0,0-.16l.1-.1a1,1,0,0,0,.14-.17s0,0,0,0a.14.14,0,0,0,0-.06s0,0-.06,0l0,0,0,0-.07.08-.07.06c0-.15-.07-.28-.07-.28s.1,0,.15-.43a1.21,1.21,0,0,0-.18-.73.74.74,0,0,0,.09-.18c.05-.12-.11-.26,0-.44a2.38,2.38,0,0,1,.55-.35c.12.14.27.26.39.41a0,0,0,0,0,.05,0,.13.13,0,0,0,0-.1c-.1-.12-.22-.23-.33-.35l0,0a.82.82,0,0,0,.83-.1s0-.17-.06-.15a.76.76,0,0,1-.67.14l0,0a.14.14,0,0,0,0-.14,2.8,2.8,0,0,0,.32-.2l0,0a.13.13,0,0,0,0-.06s0-.06-.08,0l-.19.14a.65.65,0,0,1-.22.11s0,0,0,0h-.06a1,1,0,0,0,0-.3.08.08,0,0,0,0-.05.05.05,0,0,0,0,0s-.05,0-.05.07v0h0v0s0,0,0,.06,0,0,0,.06h0v0a.12.12,0,0,0,0,.1H1145c-.23,0-.77.55-.77.55a.94.94,0,0,1-.31-.06c-.08,0-1.82-1.6-1.82-1.6l0-.19C1142.06,637.49,1141.85,637.76,1141.78,637.83Zm.43,9.78h0Z" transform="translate(-3.44 -13.93)"/><path class="cls-4" d="M1132.47,656.49c-.06.06.16.09.24.13s1.65,1.65,1.68,1.7a1.08,1.08,0,0,1,0,.27,1.12,1.12,0,0,0,.12.41,1.2,1.2,0,0,0-.14.35,2.45,2.45,0,0,0,.06.55,1.63,1.63,0,0,0-.11.35.9.9,0,0,0-.29-.38s0,0,0,0a.13.13,0,0,0,0,.1,1,1,0,0,1,.27.34.08.08,0,0,0,0,0,1.6,1.6,0,0,0,0,.57,2.17,2.17,0,0,0-.24.39,1.06,1.06,0,0,0,0,.55,3.48,3.48,0,0,0-.24.38.51.51,0,0,0,0,.42s-.15.16-.32.37a.62.62,0,0,0-.12.47,1.74,1.74,0,0,0-.16.23,1,1,0,0,0-.19-.23s0,0,0,0a.17.17,0,0,0,0,.11s.09.1.14.15l-.07.12a.66.66,0,0,0,0,.46l-.11.18-.32.08a0,0,0,0,0,0,0,.13.13,0,0,0,0,.06l0,0s0,0,0,0l.2-.05s0,0,0,.05a3.44,3.44,0,0,0,.09,1l0,.26h0a4.14,4.14,0,0,0-.51.66.11.11,0,0,0,0,.11s.07,0,.09,0c.13-.18.26-.37.41-.54a.24.24,0,0,0-.06.11,1,1,0,0,0,0,.24.09.09,0,0,0,0,.1s.06,0,.07,0,0-.07,0-.1v0s0,0,0,0h0l0-.06v0h0l0,0c0,.07.1.13.1.16a1,1,0,0,0,.35.44.8.8,0,0,0,.51.13,1.63,1.63,0,0,0,0,.66.43.43,0,0,0,.3.3,1.57,1.57,0,0,0,0,.3,2.05,2.05,0,0,0,.06.49s0,.07.06.06,0-.06,0-.08a1.5,1.5,0,0,1,0-.42.7.7,0,0,1,.07-.31,1.36,1.36,0,0,0,.87-.1,1.05,1.05,0,0,0,.33-.61.71.71,0,0,1,.2,0,.53.53,0,0,1,.21.11c.12.11.2.25.3.36s0,0,0,0a.15.15,0,0,0,0-.11,3.79,3.79,0,0,0-.32-.38.56.56,0,0,0-.24-.13h-.13a.9.9,0,0,0,0-.54c-.16-.28-.64-.19-.64-.19a1.29,1.29,0,0,0,.11-.69.19.19,0,0,0,0-.08,1.24,1.24,0,0,1,.54,0c.06,0,0-.14,0-.15a1.22,1.22,0,0,0-.57,0,1.48,1.48,0,0,0-.31-.3,1.45,1.45,0,0,1,.37-.11s0-.17,0-.16a2,2,0,0,0-.46.17.54.54,0,0,0-.41-.07l.05-.26a.59.59,0,0,0,0-.18.51.51,0,0,0,.19-.22,1.33,1.33,0,0,0,.34.16s0,0,0-.06a.59.59,0,0,0,0-.09,1.09,1.09,0,0,1-.23-.09l0,0a.65.65,0,0,0,0-.3,1.09,1.09,0,0,0,.4-.63c.1-.42,0-.44,0-.44s.16,0,.28-.39,0-.39,0-.43a1.2,1.2,0,0,0,.28-.53.38.38,0,0,0,0-.1,1.19,1.19,0,0,0,.38-.17.08.08,0,0,0,0-.1s0-.06-.08,0a.69.69,0,0,1-.17.1l-.11,0a.41.41,0,0,0-.14-.29s.14-.15.16-.37a.48.48,0,0,0,0-.17l.11-.1a.55.55,0,0,0,.13-.17.07.07,0,0,0,0,0s0,0,0,0,0-.05,0,0l0,0,0,0-.07.07-.07.07a3,3,0,0,0-.07-.29s.11,0,.15-.42a1.26,1.26,0,0,0-.18-.74.77.77,0,0,0,.09-.17c0-.13-.11-.26,0-.45a2.92,2.92,0,0,1,.55-.35c.13.14.27.27.39.41s0,0,0,0a.11.11,0,0,0,0-.11c-.1-.12-.22-.23-.33-.34l0,0a.84.84,0,0,0,.84-.11s0-.17-.06-.14a.8.8,0,0,1-.68.14l0,0a.13.13,0,0,0,0-.14c.12-.06.22-.14.33-.2s0,0,0-.05a.13.13,0,0,0,0-.06s0-.05-.07,0l-.2.14a.88.88,0,0,1-.22.1.05.05,0,0,0,0,0h-.08s0,0,0,0a.7.7,0,0,0,0-.29.14.14,0,0,0,0-.06l-.05,0s0,0,0,.08v0h0a.17.17,0,0,1,0,.07.13.13,0,0,1,0,.06h0v.05a.1.1,0,0,0,0,.09h0c-.24,0-.78.56-.78.56a.94.94,0,0,1-.31-.06c-.08-.05-1.81-1.61-1.81-1.61l0-.18C1132.76,656.15,1132.54,656.43,1132.47,656.49Zm.43,9.79Z" transform="translate(-3.44 -13.93)"/><path class="cls-4" d="M1102.34,637.72l-.24.1a16.17,16.17,0,0,0-3.1.25,1,1,0,0,1-.33-.09s.11-.78-.08-.89l-.06,0a.22.22,0,0,0,.13-.08l0,0a0,0,0,0,0,0,0s0,0,0,0l.06-.06.07-.06,0,0h0l0,0s.08-.07,0-.09h-.07a.25.25,0,0,0-.09,0,1.48,1.48,0,0,0-.31.3v0l-.07,0s0,0,0,0a.27.27,0,0,1-.07-.2,1.92,1.92,0,0,0,0-.24s-.06,0-.1,0l-.09.06a.09.09,0,0,0,0,.05,2,2,0,0,0,0,.35.32.32,0,0,0-.15.14v0c-.26-.06-.46-.22-.43-.46,0,0-.21.08-.22.12,0,.3.28.48.62.5v0c-.22.07-.43.12-.65.21a.32.32,0,0,0-.13.1s0,.05,0,0c.25-.11.51-.17.77-.26,0,.22.17.44.13.6s-.31.31-.37.46a.61.61,0,0,0-.06.21,2,2,0,0,0-.73.71c-.21.44-.13.51-.13.51a2.48,2.48,0,0,0-.23.3l0-.09,0-.1V640s0,0,0-.05,0,0-.06,0l-.06.06a.14.14,0,0,0,0,.06.59.59,0,0,0,0,.23,1.21,1.21,0,0,0,0,.14,1.07,1.07,0,0,0-.09.19c-.09.26,0,.42,0,.46a.56.56,0,0,0-.25.31l-.1-.07a.58.58,0,0,1-.13-.14s-.07,0-.09,0-.06.09,0,.12a.89.89,0,0,0,.31.27s0,.07,0,.11a1.34,1.34,0,0,0,.13.66s-.17.06-.1.49.24.48.24.48-.16,0-.06.5a1.18,1.18,0,0,0,.42.7,1.47,1.47,0,0,0,0,.35l0,0a1.13,1.13,0,0,1-.21.12l0,0s0,.05,0,.07,0,.08,0,.07a1.29,1.29,0,0,0,.3-.22.5.5,0,0,0,.23.22.44.44,0,0,0,0,.2l.11.28a.39.39,0,0,0-.37.13,1.76,1.76,0,0,0-.49-.12c-.06,0-.06.18,0,.19a1.67,1.67,0,0,1,.39.06,1.18,1.18,0,0,0-.18.4.82.82,0,0,0-.54.09s0,.21,0,.18a.79.79,0,0,1,.5-.08s0,.05,0,.09a1.77,1.77,0,0,0,.44.75s-.49,0-.46.41a1.62,1.62,0,0,0,.33.64.41.41,0,0,0-.11.07.37.37,0,0,0-.1.23,2.46,2.46,0,0,0,.06.59.23.23,0,0,0,.07.14s0,0,0,0a2.58,2.58,0,0,1-.07-.54.37.37,0,0,1,.09-.22.46.46,0,0,1,.15-.09,1.61,1.61,0,0,0,.74.53.92.92,0,0,0,.76-.25,2,2,0,0,1,.3.28,2.59,2.59,0,0,1,.32.42s.06.08.09.07,0-.07,0-.09a5.86,5.86,0,0,0-.37-.5,3.44,3.44,0,0,0-.27-.27.39.39,0,0,0,0-.42,2.89,2.89,0,0,0-.37-.66.61.61,0,0,0,.38-.28,1.18,1.18,0,0,0,.09-.51s0-.1,0-.18l0,0h0l0,0,0,.05h0s0,0,0,0l0,0,.05.09s.06,0,.08,0a.09.09,0,0,0,0-.1,1.7,1.7,0,0,0-.15-.22l-.1-.09.6.4a.05.05,0,0,0,.08,0,.08.08,0,0,0,0-.1c-.24-.17-.47-.35-.73-.5h0l-.13-.24a8.8,8.8,0,0,0-.16-1l0,0,.21,0s0,0,0,0l0,0V645l0,0-.33-.06c-.06-.1-.12-.18-.12-.18a.69.69,0,0,0-.11-.45.75.75,0,0,0-.07-.12c0-.05.09-.11.14-.15a.17.17,0,0,0,0-.1s0-.06,0,0a1.24,1.24,0,0,0-.18.22c-.09-.14-.16-.23-.16-.23a.77.77,0,0,0-.11-.49l-.28-.42a.57.57,0,0,0,0-.44l-.15-.44a1.61,1.61,0,0,0,.17-.59,2.84,2.84,0,0,0-.09-.46,3.25,3.25,0,0,0,.31-.58.09.09,0,0,1,0-.05,1.26,1.26,0,0,1,.45-.26.39.39,0,0,0,.1-.08s0-.06,0-.05a1.13,1.13,0,0,0-.5.28,2.36,2.36,0,0,0,.1-.39,6.66,6.66,0,0,0,.42-.52,1.51,1.51,0,0,0,.14-.41,2.32,2.32,0,0,0,.44-.33,1.12,1.12,0,0,1,.24-.25,12.72,12.72,0,0,1,3-.43c.11,0,.29.14.31.06S1102.5,637.67,1102.34,637.72Zm-3.61,8.84h0Z" transform="translate(-3.44 -13.93)"/><path class="cls-4" d="M1087.63,630.75l-.16.19a16.42,16.42,0,0,0-2.53,1.72,1,1,0,0,1-.33.08s-.33-.73-.55-.73H1084a.29.29,0,0,0,.07-.12v-.07s0,0,0,0a.19.19,0,0,1,0-.08.29.29,0,0,1,0-.09v0h0l0,0s0-.1,0-.1l-.06,0,0,.07a2.28,2.28,0,0,0-.11.41v0h-.08s0,0,0,0a.33.33,0,0,1-.16-.15c-.05-.06-.08-.14-.13-.2s-.06,0-.09,0a.36.36,0,0,0,0,.09s0,0,0,.06a2.15,2.15,0,0,0,.23.28.28.28,0,0,0-.05.2v0a.47.47,0,0,1-.61-.18s-.15.17-.12.21c.13.27.49.28.79.13l0,0c-.15.16-.31.31-.45.49a.28.28,0,0,0-.06.15s0,.05,0,0c.16-.21.35-.39.53-.59.15.17.38.3.43.45s-.1.42-.07.58a.54.54,0,0,0,.06.21,1.86,1.86,0,0,0-.25,1c0,.47.17.5.16.5a3.35,3.35,0,0,0,0,.36l-.07-.06-.08-.07,0,0,0,0s0,0-.06,0,0,.06,0,.08,0,.05,0,.06a.65.65,0,0,0,.15.18l.12.1a1.2,1.2,0,0,0,0,.2c.06.27.25.35.24.4a.56.56,0,0,0,0,.39h-.13a.43.43,0,0,1-.18-.06s-.06,0-.07.07,0,.11,0,.12a.9.9,0,0,0,.42.08.27.27,0,0,0,0,.11,1.3,1.3,0,0,0,.47.5s-.13.13.17.47.46.29.46.29-.13.09.22.47a1.2,1.2,0,0,0,.74.39.83.83,0,0,0,.22.28.11.11,0,0,1,0,0,2,2,0,0,1-.11.2s0,0,0,0l0,.06s0,.07.06.05a1.22,1.22,0,0,0,.14-.33.58.58,0,0,0,.32.08.68.68,0,0,0,.15.15l.25.18a.4.4,0,0,0-.26.29,1.56,1.56,0,0,0-.48.14s0,.18.1.15.24-.1.37-.13a1,1,0,0,0,.06.43.8.8,0,0,0-.42.34c0,.05.11.19.14.14a.76.76,0,0,1,.38-.32l.07.07a2,2,0,0,0,.78.44s-.41.26-.18.57a1.66,1.66,0,0,0,.63.4.24.24,0,0,0-.06.11.39.39,0,0,0,0,.25,3.09,3.09,0,0,0,.36.47.28.28,0,0,0,.13.09s.06,0,0,0a3.37,3.37,0,0,1-.35-.44.33.33,0,0,1,0-.23.35.35,0,0,1,.08-.16,1.6,1.6,0,0,0,.92.11.86.86,0,0,0,.52-.59,1.89,1.89,0,0,1,.41.1,4.4,4.4,0,0,1,.5.21s.09,0,.11,0,0-.06,0-.08a6.14,6.14,0,0,0-.59-.25,2.24,2.24,0,0,0-.37-.1.4.4,0,0,0-.2-.38,3.93,3.93,0,0,0-.67-.39.58.58,0,0,0,.17-.42,1,1,0,0,0-.2-.48.73.73,0,0,1-.07-.17h.07l.06,0h0l.1.05s.07,0,.08,0,0-.07-.06-.09a1.75,1.75,0,0,0-.24-.11.31.31,0,0,0-.13,0l.73,0a0,0,0,0,0,0-.06.09.09,0,0,0-.08-.06c-.3,0-.6-.07-.9-.08h0l-.24-.14a7.34,7.34,0,0,0-.65-.74l0,0,.2-.07s0,0,0,0a.08.08,0,0,0,0-.05.05.05,0,0,0,0,0h0a1.92,1.92,0,0,0-.31.11.7.7,0,0,0-.2-.09.74.74,0,0,0-.33-.35l-.13-.07a1.29,1.29,0,0,1,0-.19.17.17,0,0,0,0-.1s0,0,0,0a.86.86,0,0,0,0,.28l-.26-.13a1,1,0,0,0-.36-.37l-.46-.22a.65.65,0,0,0-.22-.4c-.21-.16-.37-.3-.37-.3a1.6,1.6,0,0,0-.17-.58,3.11,3.11,0,0,0-.32-.36,3.64,3.64,0,0,0,0-.65.09.09,0,0,1,0,0,1.05,1.05,0,0,1,.24-.44s0-.09,0-.12,0-.06,0,0a1.21,1.21,0,0,0-.28.49,2.67,2.67,0,0,0-.12-.39s.08-.45.08-.65a1.51,1.51,0,0,0-.1-.42,2,2,0,0,0,.2-.5,1.35,1.35,0,0,1,.08-.33,12.26,12.26,0,0,1,2.37-1.83c.1,0,.32,0,.29-.09S1087.73,630.62,1087.63,630.75Zm1.63,9.35Z" transform="translate(-3.44 -13.93)"/><path class="cls-4" d="M1087.28,651.56a2,2,0,0,0-.08.23,14.88,14.88,0,0,0-1.86,2.38,1.07,1.07,0,0,1-.29.17s-.54-.6-.76-.53l0,0a.23.23,0,0,0,0-.14v-.07h0s0-.06,0-.09v-.11h0v0s0-.1,0-.09l0,.05,0,.09a2.77,2.77,0,0,0,0,.42h0l-.08,0s0,0,0,0a.41.41,0,0,1-.21-.1l-.18-.15s-.06,0-.07.07a.36.36,0,0,0,0,.1.14.14,0,0,0,0,.06,2,2,0,0,0,.31.2.24.24,0,0,0,0,.2v0a.48.48,0,0,1-.64,0s-.08.2,0,.24a.57.57,0,0,0,.8-.12l0,0a4.59,4.59,0,0,0-.27.6.3.3,0,0,0,0,.16s0,.05,0,0c.08-.25.2-.47.3-.71.2.11.46.17.56.3s0,.42.12.57a.58.58,0,0,0,.12.18,1.86,1.86,0,0,0,.09,1c.2.44.31.43.31.43s0,.18.08.37l-.09,0-.1,0,0,0,0,0s-.05,0-.05,0,0,.06,0,.08l0,.06a.82.82,0,0,0,.2.12l.15.06.09.19c.15.23.36.25.36.31a.49.49,0,0,0,.08.38l-.12,0h-.2s0,.05,0,.08,0,.1.08.11a1,1,0,0,0,.42-.06.34.34,0,0,0,.08.09,1.23,1.23,0,0,0,.61.34s-.08.17.31.41.54.14.54.14-.09.12.36.38a1.33,1.33,0,0,0,.83.16,1,1,0,0,0,.3.19s0,0,0,0,0,.15,0,.23,0,0,0,0l0,.05s.07.06.07,0a1,1,0,0,0,0-.35.65.65,0,0,0,.33,0,.77.77,0,0,0,.19.1l.29.1a.36.36,0,0,0-.14.35,1.51,1.51,0,0,0-.42.27s.1.16.15.12a1.78,1.78,0,0,1,.31-.23,1,1,0,0,0,.19.39.83.83,0,0,0-.29.44c0,.06.17.15.17.09a.78.78,0,0,1,.27-.41l.08,0a2.15,2.15,0,0,0,.89.19s-.3.36,0,.59a1.59,1.59,0,0,0,.72.2.5.5,0,0,0,0,.12.4.4,0,0,0,.12.22,2.62,2.62,0,0,0,.5.35.25.25,0,0,0,.15,0c.05,0,.06,0,0,0a2.73,2.73,0,0,1-.47-.31.35.35,0,0,1-.12-.21.34.34,0,0,1,0-.17,1.69,1.69,0,0,0,.91-.17.84.84,0,0,0,.3-.71,2,2,0,0,1,.43,0,4.53,4.53,0,0,1,.53,0s.11,0,.12,0,0,0-.08,0a4.5,4.5,0,0,0-.63-.07,2.54,2.54,0,0,0-.39,0,.41.41,0,0,0-.31-.3,4.82,4.82,0,0,0-.77-.18.53.53,0,0,0,0-.45,1,1,0,0,0-.34-.4s-.07-.08-.13-.14h.2l.11,0s.08,0,.07,0,0-.06-.08-.07l-.27,0a.29.29,0,0,0-.13,0l.71-.16a.05.05,0,0,0,0-.08.11.11,0,0,0-.1,0c-.29.06-.59.1-.88.19h0l-.27-.07s-.64-.43-.86-.51h-.06l.17-.12a0,0,0,0,0,0,0s0,0,0,0l0,0h0a1.57,1.57,0,0,0-.26.19l-.22,0a.9.9,0,0,0-.43-.23l-.14,0a1.25,1.25,0,0,1,0-.19.28.28,0,0,0-.06-.09s0,0,0,0a.92.92,0,0,0,.05.28,1.4,1.4,0,0,0-.29,0,.77.77,0,0,0-.45-.25l-.52-.08a.65.65,0,0,0-.34-.31l-.44-.18a1.73,1.73,0,0,0-.35-.51,1.88,1.88,0,0,0-.42-.24,2.8,2.8,0,0,0-.26-.61l0,0a1,1,0,0,1,.09-.49.19.19,0,0,0,0-.13s0-.06,0,0a1.09,1.09,0,0,0-.11.54,2.65,2.65,0,0,0-.24-.33s-.07-.45-.14-.64a1.48,1.48,0,0,0-.22-.37,2.11,2.11,0,0,0,0-.54,1.28,1.28,0,0,1,0-.34,11.89,11.89,0,0,1,1.66-2.43c.09-.06.3-.11.25-.18S1087.34,651.41,1087.28,651.56Zm4.58,8.42Z" transform="translate(-3.44 -13.93)"/><path class="cls-4" d="M1080.05,665.28c0,.07.17.12.26.19a11.75,11.75,0,0,1,1.66,2.43,1,1,0,0,1,0,.33,2,2,0,0,0,0,.54,1.48,1.48,0,0,0-.22.37c-.07.19-.13.64-.14.64a2.65,2.65,0,0,0-.24.33,1.12,1.12,0,0,0-.11-.54s0,0,0,0a.17.17,0,0,0,0,.12,1,1,0,0,1,.09.49l0,0a3.33,3.33,0,0,0-.26.61,3.67,3.67,0,0,0-.42.24,1.87,1.87,0,0,0-.35.51l-.45.18a.65.65,0,0,0-.33.31l-.52.08a1,1,0,0,0-.46.25l-.28,0a1.26,1.26,0,0,0,0-.28s0,0,0,0-.06.06-.06.09a1.38,1.38,0,0,1,0,.2l-.14,0a.84.84,0,0,0-.43.22l-.22,0a2.48,2.48,0,0,0-.26-.19h0a.1.1,0,0,0,0,0l0,0a0,0,0,0,0,0,0l.17.12h-.06a8.15,8.15,0,0,0-.86.52l-.27.06h0c-.29-.08-.59-.13-.88-.19a.1.1,0,0,0-.1,0s0,.06,0,.07l.71.16h-.13a1.17,1.17,0,0,0-.27,0s-.08,0-.08.06,0,0,.07,0l.11,0h.19c0,.06-.09.12-.12.13a.93.93,0,0,0-.34.41.54.54,0,0,0,0,.45,3.09,3.09,0,0,0-.77.17.44.44,0,0,0-.31.3h-.39a4.34,4.34,0,0,0-.63.07s-.1,0-.08,0,.09,0,.12,0a4.52,4.52,0,0,1,.53-.06,3.11,3.11,0,0,1,.43,0,.86.86,0,0,0,.3.72,1.81,1.81,0,0,0,.91.16.36.36,0,0,1,0,.17.33.33,0,0,1-.12.21,2.73,2.73,0,0,1-.47.31s0,0,0,0a.34.34,0,0,0,.16,0,3.2,3.2,0,0,0,.5-.36.31.31,0,0,0,.11-.22.25.25,0,0,0,0-.12,1.75,1.75,0,0,0,.72-.19c.32-.23,0-.6,0-.6a2,2,0,0,0,.89-.19l.08,0a.7.7,0,0,1,.26.42c0,.06.19,0,.18-.09a.82.82,0,0,0-.29-.45.89.89,0,0,0,.19-.39,1.78,1.78,0,0,1,.31.23c.05,0,.19-.08.15-.12a1.51,1.51,0,0,0-.42-.27.4.4,0,0,0-.14-.35l.29-.1a.77.77,0,0,0,.19-.1.53.53,0,0,0,.33,0,1,1,0,0,0,0,.35s.06,0,.07,0l.05-.05v0a1.85,1.85,0,0,1,0-.23s0,0,0,0a.94.94,0,0,0,.31-.19,1.25,1.25,0,0,0,.83-.16c.45-.26.36-.38.36-.38s.14.09.53-.14.29-.37.32-.4a1.51,1.51,0,0,0,.61-.34l.08-.09a1,1,0,0,0,.42.05s.07-.07.08-.11,0-.09,0-.08h-.2l-.12,0a.55.55,0,0,0,.08-.38s.21-.08.36-.31a1.72,1.72,0,0,0,.09-.19l.14-.06.21-.12,0-.06s0,0,0-.08,0-.07,0,0l0,0,0,0-.1,0-.09,0c0-.19.08-.36.08-.36s.11,0,.31-.43a1.86,1.86,0,0,0,.09-1s0,0,.12-.19,0-.37.12-.57.35-.19.56-.3c.1.24.22.47.3.72,0,0,0,0,0,0a.33.33,0,0,0,0-.17,4,4,0,0,0-.27-.59l0,0a.58.58,0,0,0,.8.11s0-.27,0-.23a.5.5,0,0,1-.64,0v0a.28.28,0,0,0,0-.2,2,2,0,0,0,.31-.2.11.11,0,0,0,0-.06.24.24,0,0,0,0-.09s0-.1-.07-.08l-.18.16a.43.43,0,0,1-.21.09s0,0,0,0l-.08,0v0a1.44,1.44,0,0,0,0-.42.24.24,0,0,0,0-.08s0-.05,0-.05,0,0,0,.09v0h0V667s0,.05,0,.08h0v.06a.23.23,0,0,0,0,.14l0,0c-.22-.06-.76.54-.76.53a1.07,1.07,0,0,1-.29-.17,16.51,16.51,0,0,0-1.86-2.38s0-.07-.08-.22S1080.1,665.22,1080.05,665.28Zm-4.33,8.2Z" transform="translate(-3.44 -13.93)"/><path class="cls-4" d="M1146.05,666.71c0,.07.16.12.25.18a12.3,12.3,0,0,1,1.66,2.43,1.08,1.08,0,0,1,0,.34,1.9,1.9,0,0,0,0,.53,1.73,1.73,0,0,0-.22.37c-.07.2-.13.65-.14.65a2.65,2.65,0,0,0-.24.33,1.09,1.09,0,0,0-.11-.54s0,0,0,0a.19.19,0,0,0,0,.13,1,1,0,0,1,.09.49l0,0a3.11,3.11,0,0,0-.26.6,3,3,0,0,0-.42.25,1.73,1.73,0,0,0-.35.51l-.45.18a.65.65,0,0,0-.33.31l-.52.08a.87.87,0,0,0-.46.25.83.83,0,0,0-.28,0,1.37,1.37,0,0,0,0-.28s0,0,0,0-.06.06-.06.09a1.25,1.25,0,0,1,0,.19l-.14,0a.81.81,0,0,0-.43.23l-.22,0a1.57,1.57,0,0,0-.26-.19h0l0,0,0,.05a0,0,0,0,0,0,0l.17.12h-.06c-.22.08-.85.52-.86.51l-.27.07h0c-.29-.09-.59-.13-.88-.19a.09.09,0,0,0-.1,0s0,.06,0,.08l.71.16a.29.29,0,0,0-.13,0,2.23,2.23,0,0,0-.27,0s-.08,0-.08.07,0,0,.07,0l.11,0h0s0,0,0,0h.16c0,.06-.09.13-.12.14a1,1,0,0,0-.34.4.54.54,0,0,0,0,.45,4.82,4.82,0,0,0-.77.18.41.41,0,0,0-.31.3,2.54,2.54,0,0,0-.39,0,4.34,4.34,0,0,0-.63.07s-.1,0-.08.05.09,0,.12,0a4.53,4.53,0,0,1,.53-.05,2.08,2.08,0,0,1,.43,0,.84.84,0,0,0,.3.71,1.69,1.69,0,0,0,.91.17.34.34,0,0,1,0,.17.38.38,0,0,1-.12.21,2.73,2.73,0,0,1-.47.31s0,0,0,0a.25.25,0,0,0,.16,0,2.62,2.62,0,0,0,.5-.35.33.33,0,0,0,.11-.22.24.24,0,0,0,0-.12,1.59,1.59,0,0,0,.72-.2c.32-.23,0-.59,0-.59a2.15,2.15,0,0,0,.89-.19l.08-.05a.71.71,0,0,1,.26.41c0,.06.19,0,.18-.09a.83.83,0,0,0-.29-.44,1,1,0,0,0,.19-.39,1.78,1.78,0,0,1,.31.23c.05,0,.19-.08.15-.12a1.51,1.51,0,0,0-.42-.27.38.38,0,0,0-.14-.35l.29-.1a.77.77,0,0,0,.19-.1.6.6,0,0,0,.33,0,1.05,1.05,0,0,0,0,.36s.06,0,.07,0l.05,0s0,0,0,0a1.85,1.85,0,0,1,0-.23s0,0,0-.05a.87.87,0,0,0,.31-.2,1.28,1.28,0,0,0,.83-.15c.45-.26.36-.39.36-.38s.14.09.53-.14.29-.38.32-.41a1.36,1.36,0,0,0,.61-.34.65.65,0,0,0,.08-.09.86.86,0,0,0,.42,0s.07-.06.08-.1,0-.09,0-.08h-.2l-.12,0a.55.55,0,0,0,.08-.38c0-.06.21-.08.36-.32l.09-.18.14-.06a.88.88,0,0,0,.21-.12l0-.06s0,0,0-.08,0-.07,0,0l0,0,0,0-.1,0-.09,0c0-.19.08-.36.08-.36s.11,0,.31-.43a1.86,1.86,0,0,0,.09-1s0,0,.12-.18,0-.37.12-.57.35-.19.56-.3c.1.24.22.46.3.71,0,0,0,0,0,0a.29.29,0,0,0,0-.16,4.59,4.59,0,0,0-.27-.6l0,0a.56.56,0,0,0,.8.11s0-.26,0-.23a.49.49,0,0,1-.64,0v0a.28.28,0,0,0,0-.2,1.54,1.54,0,0,0,.31-.21s0,0,0-.05a.36.36,0,0,0,0-.1s0-.09-.07-.07-.12.1-.18.15a.36.36,0,0,1-.21.09.08.08,0,0,0,0,0l-.08,0h0a1.44,1.44,0,0,0,0-.42.29.29,0,0,0,0-.09.12.12,0,0,0-.05,0s0,0,0,.09v.05h0v.11s0,.06,0,.09h0v.07a.23.23,0,0,0,0,.14l0,0c-.22-.07-.76.54-.76.53a1.07,1.07,0,0,1-.29-.17,14.88,14.88,0,0,0-1.86-2.38l-.08-.23C1146.23,666.33,1146.09,666.65,1146.05,666.71Zm-4.34,8.19Z" transform="translate(-3.44 -13.93)"/><path class="cls-4" d="M1103.42,662.87l-.08.23a15.47,15.47,0,0,0-1.86,2.38,1.07,1.07,0,0,1-.29.17s-.54-.6-.76-.53l0,0a.23.23,0,0,0,0-.14v-.07h0s0-.06,0-.09v-.11h0v-.05s0-.1,0-.09l0,0a.29.29,0,0,0,0,.09,1.44,1.44,0,0,0,0,.42h0l-.08,0s0,0,0-.05a.36.36,0,0,1-.21-.09l-.18-.15s-.06,0-.07.07a.36.36,0,0,0,0,.1s0,0,0,0a1.54,1.54,0,0,0,.31.21.28.28,0,0,0,0,.2v0a.48.48,0,0,1-.64,0s-.08.2,0,.24a.57.57,0,0,0,.8-.12l0,0a4.59,4.59,0,0,0-.27.6.29.29,0,0,0,0,.16s0,0,0,0c.08-.25.2-.47.3-.71.21.11.46.17.56.3s0,.42.12.57.13.18.12.18a1.86,1.86,0,0,0,.09,1c.2.44.31.43.31.43s0,.17.08.36l-.09,0-.1,0,0,0,0,0s0,0,0,0,0,.06,0,.08l0,.06.21.12.14.06.09.19c.15.23.36.25.36.31a.55.55,0,0,0,.08.38l-.12,0h-.2s0,0,0,.08,0,.1.08.1a.86.86,0,0,0,.42,0,.34.34,0,0,0,.08.09,1.23,1.23,0,0,0,.61.34s-.08.17.32.41.53.14.53.14-.09.12.36.38a1.33,1.33,0,0,0,.83.16.94.94,0,0,0,.31.19s0,0,0,.05a1.85,1.85,0,0,1,0,.23v0l.05,0s.07.06.07,0a1,1,0,0,0,0-.35.65.65,0,0,0,.33,0,.77.77,0,0,0,.19.1l.29.1a.38.38,0,0,0-.14.35,1.51,1.51,0,0,0-.42.27s.1.16.15.12a1.78,1.78,0,0,1,.31-.23,1,1,0,0,0,.19.39.83.83,0,0,0-.29.44c0,.06.17.15.18.09a.71.71,0,0,1,.26-.41l.08.05a2.15,2.15,0,0,0,.89.19s-.3.36,0,.59a1.59,1.59,0,0,0,.72.2.25.25,0,0,0,0,.12.33.33,0,0,0,.11.22,2.62,2.62,0,0,0,.5.35.25.25,0,0,0,.16.05s0,0,0,0a2.73,2.73,0,0,1-.47-.31.35.35,0,0,1-.12-.21.34.34,0,0,1,0-.17,1.69,1.69,0,0,0,.91-.17.84.84,0,0,0,.3-.71,2.08,2.08,0,0,1,.43,0,4.53,4.53,0,0,1,.53.05s.11,0,.12,0,0-.05-.08-.05a4.34,4.34,0,0,0-.63-.07,2.54,2.54,0,0,0-.39,0,.41.41,0,0,0-.31-.3,4.82,4.82,0,0,0-.77-.18.53.53,0,0,0,0-.45,1,1,0,0,0-.34-.4s-.07-.08-.12-.14h.16s0,0,0,0h0l.11,0s.08,0,.07,0,0-.06-.08-.07a2.23,2.23,0,0,0-.27,0,.29.29,0,0,0-.13,0l.71-.16s0,0,0-.08a.09.09,0,0,0-.1,0c-.29.06-.59.1-.88.19h0l-.27-.07s-.64-.43-.86-.51h-.06l.17-.12a0,0,0,0,0,0,0l0-.05,0,0h0a1.57,1.57,0,0,0-.26.19l-.22,0a.9.9,0,0,0-.43-.23l-.14,0a1.25,1.25,0,0,1,0-.19s0-.07-.06-.09,0,0,0,0a1.37,1.37,0,0,0,0,.28,1.35,1.35,0,0,0-.28,0,.87.87,0,0,0-.46-.25l-.52-.08a.65.65,0,0,0-.33-.31l-.45-.18a1.73,1.73,0,0,0-.35-.51,1.88,1.88,0,0,0-.42-.24,2.8,2.8,0,0,0-.26-.61l0,0a1,1,0,0,1,.09-.49.19.19,0,0,0,0-.13s0-.06,0,0a1.09,1.09,0,0,0-.11.54,2.65,2.65,0,0,0-.24-.33s-.07-.45-.14-.65a1.55,1.55,0,0,0-.22-.36,2,2,0,0,0,0-.54,1.08,1.08,0,0,1,0-.34,12.3,12.3,0,0,1,1.66-2.43c.09-.06.3-.11.26-.18S1103.48,662.72,1103.42,662.87Zm4.58,8.42Z" transform="translate(-3.44 -13.93)"/><path class="cls-4" d="M1111.24,652.21l-.08.23a15.87,15.87,0,0,0-1.86,2.37.77.77,0,0,1-.29.17s-.54-.59-.75-.52l-.06,0a.26.26,0,0,0,0-.15v-.06h0s0-.06,0-.09v-.11h0V654s0-.1,0-.09,0,0-.05.05a.24.24,0,0,0,0,.09,1.44,1.44,0,0,0,0,.42h0l-.08,0s0,0,0,0a.36.36,0,0,1-.21-.09l-.18-.16s-.06,0-.07.08a.15.15,0,0,0,0,.09.06.06,0,0,0,0,.06,2.11,2.11,0,0,0,.31.21.28.28,0,0,0,0,.2v0a.49.49,0,0,1-.64,0s-.08.2,0,.23a.58.58,0,0,0,.8-.11l0,0a6.46,6.46,0,0,0-.27.6.29.29,0,0,0,0,.16s0,0,0,0a6.36,6.36,0,0,1,.31-.71,2,2,0,0,1,.56.29c.15.2,0,.43.11.57a1,1,0,0,0,.13.19,1.71,1.71,0,0,0,.08,1c.2.44.32.43.31.43s0,.17.08.36l-.09,0-.1,0,0,0,0,0s0,0,0,.05a.12.12,0,0,0,0,.08.11.11,0,0,0,0,.05,1.2,1.2,0,0,0,.21.13l.14,0a1.72,1.72,0,0,0,.09.19c.15.23.36.26.36.31a.57.57,0,0,0,.08.39l-.12,0a.45.45,0,0,1-.2,0s0,.05,0,.09,0,.1.08.1a1,1,0,0,0,.42,0,.65.65,0,0,0,.08.09,1.58,1.58,0,0,0,.61.34s-.07.16.32.4.53.14.53.14-.09.13.36.38a1.25,1.25,0,0,0,.83.16.78.78,0,0,0,.31.19V661a1.7,1.7,0,0,1,0,.22l0,0,0,0s.07,0,.08,0a1.45,1.45,0,0,0,0-.36.6.6,0,0,0,.33,0,.66.66,0,0,0,.19.09l.3.1a.38.38,0,0,0-.15.36,1.32,1.32,0,0,0-.42.27s.1.15.15.12a2.55,2.55,0,0,1,.31-.24,1.14,1.14,0,0,0,.19.4.76.76,0,0,0-.29.44s.17.15.18.09a.71.71,0,0,1,.26-.41l.09.05a2.09,2.09,0,0,0,.88.19s-.3.36,0,.59a1.61,1.61,0,0,0,.72.19.25.25,0,0,0,0,.12.33.33,0,0,0,.11.23,3.16,3.16,0,0,0,.5.35.34.34,0,0,0,.16,0s0,0,0,0a3.5,3.5,0,0,1-.47-.32.33.33,0,0,1-.12-.2.47.47,0,0,1,0-.17,1.69,1.69,0,0,0,.91-.17.84.84,0,0,0,.3-.71,1.56,1.56,0,0,1,.43,0,3.29,3.29,0,0,1,.54.05s.1,0,.11,0,0,0-.08-.06a4.34,4.34,0,0,0-.63-.06,1.7,1.7,0,0,0-.39,0,.41.41,0,0,0-.31-.3,3.5,3.5,0,0,0-.77-.18.56.56,0,0,0,0-.45,1,1,0,0,0-.35-.4s-.07-.08-.12-.14h.3s.08,0,.08,0a.11.11,0,0,0-.09-.07l-.27,0-.13,0,.71-.17s0-.05,0-.07a.09.09,0,0,0-.1,0c-.29.07-.59.11-.88.2h0l-.27-.07s-.64-.43-.86-.51h0l.16-.13s0,0,0,0l0,0a.09.09,0,0,0,0,0h0a1.64,1.64,0,0,0-.26.2l-.22,0a.81.81,0,0,0-.43-.23l-.14,0a1.25,1.25,0,0,1,0-.19.15.15,0,0,0-.06-.1s0,0,0,0a1.28,1.28,0,0,0,0,.27l-.28,0a.89.89,0,0,0-.46-.25l-.52-.07a.65.65,0,0,0-.33-.32l-.45-.17a1.54,1.54,0,0,0-.35-.51,3,3,0,0,0-.42-.25,3.11,3.11,0,0,0-.26-.6l0,0a1.16,1.16,0,0,1,.09-.49.19.19,0,0,0,0-.13s0-.06,0,0a1.14,1.14,0,0,0-.11.54,1.79,1.79,0,0,0-.24-.33s-.07-.45-.14-.64a1.48,1.48,0,0,0-.22-.37,1.9,1.9,0,0,0,0-.53,1.08,1.08,0,0,1,0-.34,12,12,0,0,1,1.66-2.43c.09-.07.3-.11.26-.18S1111.3,652.06,1111.24,652.21Zm4.58,8.42Z" transform="translate(-3.44 -13.93)"/><path class="cls-30" d="M1470.84,612.25s16.2,106.37,4.87,135.15c-15.24,38.7-58.41,93.49-58.41,93.49l9.59-247.45" transform="translate(-3.44 -13.93)"/><path class="cls-34" d="M1391.08,487.26s53.8,40.32,66,69.07S1488.92,636,1488.92,636s-18.71,27.18-51.9,19.9" transform="translate(-3.44 -13.93)"/><path class="cls-41" d="M1444.39,657.78s1.85-29.48,5.53-40.54,5.53-35,6.45-32.25,7.37,26.72,3.69,36.86-7.37,22.11-7.37,22.11,22.11-27.64,16.58-13.82-10.13,24-14.74,25.8A31.6,31.6,0,0,1,1444.39,657.78Z" transform="translate(-3.44 -13.93)"/><path class="cls-30" d="M1281.11,427.67l3.26-13.49s-6,5.11-13.95,4.18a11.66,11.66,0,0,1-4.61-1.52c-4.94-24-.85-33.74,1-41.38l2.15-27.09c.71-19.05.5-30.86,7.69-42.61,22.12-36.16,76.37-45.4,110-26.11,80.29,46-29.73,143.37,11,228.8l-80.83,13.16c7.77-15.54,23.35-46.05,5-53.3-15.59-6.18-31.72,0-41-6.17-4.56-3-4.94-10.27-9.51-24.64-.56-1.74-1.07-3.42-1.55-5.07A19.45,19.45,0,0,0,1281.11,427.67Z" transform="translate(-3.44 -13.93)"/><path class="cls-42" d="M1258.48,1437.57s-38.91-10-53.57-9.22-44.55,7.09-27.9,20.18,51,13.72,74.64,20.67,63,9.64,74.72-.2-5.13-26.41-5.13-26.41" transform="translate(-3.44 -13.93)"/><path class="cls-43" d="M1260.94,1432s-38.92-9.94-53.58-9.22-44.55,7.09-27.9,20.18,51,13.72,74.64,20.67,63,9.64,74.72-.2-5.13-26.4-5.13-26.4" transform="translate(-3.44 -13.93)"/><path class="cls-44" d="M1231.87,1429a39.91,39.91,0,0,0-17.35,8.29c-3.18,2.68-9.54,10.42-7.85,1.38,1.19-6.4,26.2-16.57,30.11-11.75" transform="translate(-3.44 -13.93)"/><path class="cls-44" d="M1220.43,1426.27a39.93,39.93,0,0,0-17.35,8.3c-3.18,2.67-9.54,10.42-7.85,1.38,1.19-6.4,26.2-16.58,30.11-11.75" transform="translate(-3.44 -13.93)"/><path class="cls-42" d="M1408.78,1398.86s-35.06-7.59-49-6.87-41.29,7.17-25.44,20.18,49.52,10.13,72,17,59,13.1,70.16,3.31-4.88-26.24-4.88-26.24" transform="translate(-3.44 -13.93)"/><path class="cls-43" d="M1408.78,1392s-35.06-7.59-49-6.87-41.29,7.17-25.44,20.18,49.52,10.13,72,17,59,13.1,70.16,3.31-4.88-26.24-4.88-26.24" transform="translate(-3.44 -13.93)"/><path class="cls-44" d="M1379.21,1392a37.39,37.39,0,0,0-16.52,8.24c-3,2.66-9.09,10.36-7.48,1.38,1.14-6.37,25-16.48,28.67-11.68" transform="translate(-3.44 -13.93)"/><path class="cls-44" d="M1368.32,1389.24a37.39,37.39,0,0,0-16.52,8.24c-3,2.67-9.09,10.37-7.48,1.38,1.14-6.36,25-16.48,28.67-11.68" transform="translate(-3.44 -13.93)"/><path class="cls-13" d="M1256.2,872.41s-12.3,222.25-15.7,242c-4.71,27.4-1.14,49.53-1.14,54.8s9.13,124.43,10.27,143.83c.82,13.83,4.88,53.9,2,65.49s-10.36,9.48-6.59,20,3.77,16.86,3.77,16.86l-9,19.84s4.84,20.73,43.85,24.41c35.71,3.37,50.87-13.7,50.87-13.7s-7.12-131.24-.94-171.74c6.6-43.2-11.3-72.7-13.19-96.94s25.44-192.82,33.92-216,27.32-83.24,27.32-83.24" transform="translate(-3.44 -13.93)"/><path class="cls-13" d="M1450.46,846.44c8,4.26,3.23,43,4.67,54.22,2.08,16.29-7.52,47.8-16,56.23,0,24.23-.65,48.71-4.57,71.92-4.69,27.84-6.71,73.64-13.31,99-.47-.32-1.55-20.5-2-20.74.38,19.59,6.52,35.1,8.55,54.46s4.54,28.5,14.56,44.29c19.37,30.51,18.95,72.57,21.17,108.51,1.7,27.56,4.5,52.15,11.8,78.4,3.45,12.42-2.73,15.15-13.62,19.35-12.86,5-27.62,4-40.93,2.61-10.68-1.12-30.53-5-35.2-18.2-3.33-9.37,2.81-27,4.7-36.55a36.31,36.31,0,0,1,3.32,2.52c-3.49-5.14-20.84-26.38-7.59-28-2.81-9.91-9.74-15.71-11.7-26.6-2.77-15.47-2.44-31.71-4.66-47.35-2-14.13-12.93-56.44-2.47-68.66-7-18.58-16.68-28.67-16.63-49.49.12-46.58-5-92.45-7.54-138.85l1.89-113.8" transform="translate(-3.44 -13.93)"/><path class="cls-45" d="M1342.75,1010.21c-.23.8-.45,1.61-.68,2.42l.72-1.45Z" transform="translate(-3.44 -13.93)"/><path class="cls-46" d="M1403.79,890.37a197.22,197.22,0,0,0,1.17,23.56l-1.58-1.4c10.38,4,15.91,14.15,24.71,20.34l-1.55-.34c6.91-5.82,13.93-11.66,20-18.37,2.36-2.6,4.86-5.39,5.34-9,.6-4.5,0-9.21-.51-13.69-.46-4.11-1.37-8.37-1.24-12.52,0-1.1,2.71.22,2.68,1.29-.12,3.9.72,7.89,1.16,11.76.51,4.47,1.09,9.09.68,13.6-.33,3.67-2.18,6.33-4.54,9.07a116,116,0,0,1-10.61,10.54c-3.51,3.17-7.11,6.23-10.73,9.28-.37.31-1.24-.12-1.54-.33-8.2-5.77-13.73-16-23.31-19.66-.55-.22-1.49-.71-1.58-1.4a200.93,200.93,0,0,1-1.22-24c0-1.09,2.67.21,2.68,1.28Z" transform="translate(-3.44 -13.93)"/><path class="cls-46" d="M1374.86,894.21a179.57,179.57,0,0,1-1.59,26,.53.53,0,0,1-.28.42c-12.65,4-20.64,15.4-31.82,21.87-.54.31-1.42-.1-1.86-.41-8.94-6.22-18-12.45-26.14-19.68-3-2.65-6.75-5.77-8.21-9.61-1.75-4.59-.83-10.34-.26-15.07.63-5.27,2.17-10.81,2-16.14-.05-1.27,3.17.26,3.22,1.54.17,4.22-.94,8.6-1.52,12.75-.7,5.07-1.66,10.61-.81,15.72.65,3.87,3.87,6.61,6.65,9.13a166.08,166.08,0,0,0,13.29,10.65c4.23,3.12,8.54,6.14,12.86,9.14l-1.86-.41c8.52-4.92,15-12.55,23.27-17.83a37.45,37.45,0,0,1,6.29-3.25c1.76-.69,2.09-1,2.35-2.95.19-1.43.35-2.87.48-4.3.6-6.36.71-12.75.74-19.14,0-1.3,3.23.27,3.23,1.55Z" transform="translate(-3.44 -13.93)"/><path class="cls-46" d="M1283.63,894.21c-2.6,7.65-1.63,15.87-1.39,23.78.27,9.24-.37,18.53-1,27.74-1.25,19.12-2.43,38.24-3.73,57.35s-2.79,38.39-3.92,57.61c-.48,8-1,16-.82,24.07.14,7.23.55,14.45.67,21.69.24,15.25-.46,32.09-9.92,44.82l-1.43-2c4.77,2.55,11.19,6.73,9,13-2,5.67-7.22,9.57-9.23,15.32l-2.58-2.29c4.36-.81,9.36-.22,11.72,4.06,2.14,3.88,1.2,9,.41,13.14-.91,4.73-2.51,9.42-2.92,14.23-.8,9.44,0,19.22.8,28.63,1.72,20.43,5.3,40.63,7.8,61,2.56,20.79,4,41.7,5.12,62.63.21,4.14.79,8.26,1,12.4.16,3.33.25,7-1.74,9.84-1.76,2.52-4.54,4-7,5.69a12.23,12.23,0,0,0-5.71,9.16l-1.93-2c5.29,1.9,15.72,6,13.56,13.47-.83,2.88-3,5.27-5,7.4-2.73,2.94-5.67,5.66-8.31,8.69l-2.58-2.3c18.51-.91,9,23.19,11.9,33.43l-3.12-1.5a4.73,4.73,0,0,0,.25-3.29c-.31-1.67,3-.22,3.17,1a7.51,7.51,0,0,1-.36,4.37c-.46,1.24-2.94-.86-3.12-1.51-1.55-5.58-.29-11.75,0-17.42a27.11,27.11,0,0,0-.55-8.57c-.9-3.17-2.85-4.07-6-3.92-.7,0-3.49-1.25-2.59-2.29,3.82-4.38,8.71-8.11,11.86-13,1.14-1.8,2.14-4.08,1.16-6.18-1.56-3.31-6.47-4.8-9.58-5.92-.71-.25-2-1-1.94-2,.72-6.27,4.77-8.79,9.49-12.15,2.31-1.64,4.24-3.64,4.75-6.52.6-3.38.2-7-.11-10.36-1.72-18.94-2.31-38-4.24-56.87-2-19.09-5.11-38-7.47-57-1.14-9.28-2.1-18.59-2.57-27.93-.35-7.11-1-14.69.39-21.73,1-5.3,2.68-10.5,3.15-15.89.19-2.22.37-5-.81-7-1.32-2.22-4.59-1.57-6.71-1.18-1.05.19-3-1.12-2.59-2.3,1.63-4.64,5-8.13,7.64-12.2,1-1.61,2.08-3.49,1.92-5.47-.26-3.29-3.89-5.23-6.44-6.6-.46-.24-2-1.28-1.43-2,8.42-11.33,9.72-26,9.78-39.67.06-14.83-1-29.51-.23-44.34,1-19,2.48-38,3.81-57.05s2.35-37.92,3.7-56.86c.76-10.56,1.5-21.16,1.52-31.75,0-8.93-1.6-18.25,1.34-26.91.49-1.42,3.62.42,3.23,1.55Z" transform="translate(-3.44 -13.93)"/><path class="cls-46" d="M1258,886.63c5.15,10.65,13.22,19.82,23.92,23.7.6.22,1.59.82,1.68,1.6s-.55.88-1.12.67c-12-4.33-21.25-14.33-27-26.28-.31-.65,0-1.1.65-1.06a2.63,2.63,0,0,1,1.9,1.37Z" transform="translate(-3.44 -13.93)"/><path class="cls-30" d="M1271.88,344.6s-5.93,23.19-13.29,36.49c-6.71,12.11-8.39,14-8.39,14s1.06,8.65,20.7,3.7" transform="translate(-3.44 -13.93)"/><path class="cls-27" d="M1322.09,386.76a14.19,14.19,0,0,1,4-6.9l-4,.47c3,5.05,3.34,11,2.61,16.66a12.63,12.63,0,0,1-2,5.45,11.11,11.11,0,0,1-.79,1c-.21.25-.12,0-.23.24s-.09.05.21-.08c.51-.22,1.16,0,1.61-.23.22-.1,0,.22-.1-.11s-.28-.74-.36-1.08c-.37-1.62-5.13.13-4.7,2,.75,3.22,4.25,2.4,6.3.81a14,14,0,0,0,4.27-6.48,26.17,26.17,0,0,0,.88-9.77,23.64,23.64,0,0,0-3-10.45c-.76-1.3-3.18-.25-4,.47a18.64,18.64,0,0,0-5.51,9.26c-.29,1.11,1.75.92,2.27.78a3.34,3.34,0,0,0,2.53-2.07Z" transform="translate(-3.44 -13.93)"/><path class="cls-22" d="M1285.82,370.65c-.81-1.36-14.2-13-14.29-11.26s1.84,15,1.84,15Z" transform="translate(-3.44 -13.93)"/><path class="cls-17" d="M1271.53,359.39c0-.7,2.21.76,4.85,2.83,1.23,2,2.13,4.34,1.67,6.27a25,25,0,0,1-1.92,5.05l-2.76.83S1271.44,361.14,1271.53,359.39Z" transform="translate(-3.44 -13.93)"/><path class="cls-47" d="M1285.82,370.65,1273.53,360" transform="translate(-3.44 -13.93)"/><path class="cls-34" d="M1259,775.49c5.53-82.93-18.65-210.29,23.9-247.83,8.2-7.24,18.2-12.85,28.88-17.23,6-6.91,14.69-16,21-18.91,10.58-4.82,48.19-9.84,55.89-7,5.58,2.09,12.17,7.71,15.39,10.67l1.06,0s68.06,36.33,47.92,151c-16.11,91.73,4.81,175.23,8.1,228.3-12.33,10.54-39.17,21.61-97.55,23-61.77,1.49-95.9-8.37-121.63-22.11C1249.65,846.21,1256.27,816.16,1259,775.49Z" transform="translate(-3.44 -13.93)"/><path class="cls-48" d="M1369.7,1260.44c-2-14.13-12.93-56.44-2.47-68.66-7-18.58-16.68-28.67-16.63-49.49.11-43.2-4.29-85.82-6.93-128.79,4.38-8.61,6.45-18.38,11.55-26.69,7-11.47,17.76-24.28,28.54-32.66-23.11,36.93-16.17,80.38-11.66,122.7,2,18.62,3.2,37.34,5.84,55.82,1,7.42,1.31,16.52,2.87,23.82,3,13.94,8.52,8.31.22,23.26,14.87,2.07,3.36,11.85,4.49,17.6.44,2.3,6.71,3.92,7.25,7.52.85,5.62-1.32,10.9-1.61,16.38-.89,17.13.57,35.42,3,52,2.51,17.36,7.27,34.67,10,52.23,2,13.18,13.14,35.36-1.47,41,10.35.42,14.13,7.24,13,17.42-2.63,0-5.11,1.76-6.67,1.91,1.89,6.35,8,9.59,10.26,16.18,1.06,3.13.59,8.06.19,12.42-10.92-1.32-29.3-5.42-33.77-18-3.33-9.37,2.81-27,4.7-36.55a36.31,36.31,0,0,1,3.32,2.52c-3.49-5.14-20.84-26.38-7.59-28-2.81-9.91-9.74-15.71-11.7-26.6C1371.59,1292.32,1371.92,1276.08,1369.7,1260.44Z" transform="translate(-3.44 -13.93)"/><path class="cls-48" d="M1361.26,981s29.49-31.33,28.57-24-21.19,24.88-21.19,24.88,24.88-7.37,13.82.92-23,26.72-23,26.72" transform="translate(-3.44 -13.93)"/><path class="cls-49" d="M1421.78,1412.08c.21.36.22.26,0,0Z" transform="translate(-3.44 -13.93)"/><path class="cls-49" d="M1419.24,1411.39c-.09.08,0,.11,0,0Z" transform="translate(-3.44 -13.93)"/><path class="cls-27" d="M1334.14,391.85s-2.32,16.75-8.84,21.86-11.16,2.33-11.16,2.33,7,6.51,12.09,3.72S1334.14,391.85,1334.14,391.85Z" transform="translate(-3.44 -13.93)"/><path class="cls-17" d="M1285.28,348.73s-17.36-16.9-18.24-12.19,2,10.15,2,10.15l16.88,9Z" transform="translate(-3.44 -13.93)"/><path class="cls-22" d="M1318.48,508.73a18.79,18.79,0,0,1,3.82,1.62C1394.22,550.61,1311,670.8,1311,670.8s-16.56,0-45.32-9.58-35.46-31.56-35.46-31.56,49.31-132.51,88.25-120.93" transform="translate(-3.44 -13.93)"/><path class="cls-30" d="M1111.82,532a6.26,6.26,0,0,0-.2-1.85c8.24,1.77,15.94,3.17,16.87-.07,2.21-7.75-17.71-3.32-23.25-12.17s27.68-3.32,41,4.42,31,44.28,31,47.6l-25.45,18.82s-25.08-5.19-40.08-10.22C1109,563.1,1110.92,547.52,1111.82,532Z" transform="translate(-3.44 -13.93)"/><path class="cls-30" d="M1141.22,530s-41-8.85-42.62-1.66S1108,540,1114.65,540" transform="translate(-3.44 -13.93)"/><path class="cls-30" d="M1124.62,543.32s-27.12-10.8-28.78-3.6,8.3,13.56,14.94,13.56" transform="translate(-3.44 -13.93)"/><path class="cls-30" d="M1128.49,557.15s-28.92-11.76-30.58-4.56,10.1,14.52,16.74,14.52" transform="translate(-3.44 -13.93)"/><path class="cls-30" d="M1131.26,569.88s-30.44-13.28-32.1-6.09,11.62,16.05,18.26,16.05" transform="translate(-3.44 -13.93)"/><path class="cls-22" d="M1129.77,527.83a41.79,41.79,0,0,0-4.57-.86,86.44,86.44,0,0,0-16.3-2.05" transform="translate(-3.44 -13.93)"/><path class="cls-38" d="M1130.53,527.19c-1.77-.42-3.57-.66-5.35-1s-3.42-.67-5.15-.93a82.49,82.49,0,0,0-10.65-1c-.48,0-1.38.18-1.63.66s.22.65.66.66a78.69,78.69,0,0,1,10.5,1c3.36.53,6.78,1.11,10.09,1.9a2.21,2.21,0,0,0,1.75-.47c.38-.36.28-.69-.22-.81Z" transform="translate(-3.44 -13.93)"/><g class="cls-37"><path class="cls-22" d="M1108.9,524.92q-2.91-5.07-5.88-10.1c-1-1.73-2.64-4.25-2.91-6.23,2.36-1.33,6.38-2,9.07-2.29,2.47-.24,4.43,2,6.07,3.7.54-1.89,3.65-3.09,5.29-2.67,1.82.47,3.07,2.4,4.65,3.28,1-4,6.34-1.1,8,.75,1.47-1.52,4.44-1.85,6.48-1.85.21,3.88-3.19,7.36-5,10.51-1.53,2.69-3.2,5.24-4.89,7.81" transform="translate(-3.44 -13.93)"/><path class="cls-38" d="M1110.1,524.6q-2.55-4.44-5.14-8.84c-1.37-2.34-3.18-4.76-3.65-7.49l-.46.64a20.4,20.4,0,0,1,7-1.86,4.51,4.51,0,0,1,3.55.82,20.83,20.83,0,0,1,2.72,2.59c.52.54,2.09,0,2.32-.62a3,3,0,0,1,3.63-1.78c1.59.63,2.69,2.23,4.15,3.11.54.32,2-.07,2.16-.72.13-.47.34-1.08.76-1.2a3.46,3.46,0,0,1,1.79.45,8.71,8.71,0,0,1,3.1,2.12c.45.49,1.68.08,2.07-.29,1.32-1.25,3.33-1.36,5.06-1.38l-.73-.32c.09,3.37-2.27,6.14-4,8.79-2,3-3.77,6.18-5.76,9.2-.58.88,1.82.64,2.23,0,2.13-3.23,4-6.63,6.18-9.83,1.82-2.67,3.87-5.43,3.78-8.81,0-.28-.55-.33-.72-.33-2.7,0-5.87.39-7.92,2.33l2.08-.29c-2.37-2.58-8.92-5-10.29-.13l2.16-.72c-2.27-1.37-3.61-3.74-6.59-3.4-2.12.23-4.75,1.35-5.51,3.51l2.32-.62a16.67,16.67,0,0,0-3.5-3.1,6.54,6.54,0,0,0-4.32-.68,25.56,25.56,0,0,0-9.17,2.51c-.23.12-.52.36-.47.65.47,2.72,2.27,5.14,3.65,7.48,1.72,2.94,3.44,5.89,5.13,8.84.45.77,2.75,0,2.41-.64Z" transform="translate(-3.44 -13.93)"/></g><path class="cls-39" d="M1112.87,525.12c-2.16-5.9-3.7-10.73-2.34-9.14a64.39,64.39,0,0,1,6,9.51C1115.29,525.34,1114.08,525.21,1112.87,525.12Z" transform="translate(-3.44 -13.93)"/><path class="cls-39" d="M1118.67,525.79c.66-5.16,2.09-14.53,3.24-10.32.58,2.13.35,6.36-.14,10.82C1120.74,526.1,1119.7,525.94,1118.67,525.79Z" transform="translate(-3.44 -13.93)"/><path class="cls-17" d="M1315.44,310.44c-4.38,5.55-12.88,7.29-21.59,7.92,3.5-20.9,7.73-42.21,20.14-59.55a80.44,80.44,0,0,1,18.73-1.95,88.91,88.91,0,0,1,12.25,1.29c12.63.53,26.43,4.81,41,15.94l-2.77-.67.93.63c12.53,4.05,25.28,10.32,34.61,20.47,23.75,25.84,18.42,58.85,3.16,88.55-3,5.86-8.29,16.39-13.2,24.37-.25,1.71-.48,3.42-.63,5.16-.76,8.3,1.44,16.75,2.69,25-3.73.4-7.28-3.29-9.89-5.65-.25,5-.46,9.77,2,14.27-4.45,4.35-14.11,4-19.83,3.25-8.59-1.09-15.17-6.19-19.53-13.11l-2.49-.14c-.38,5-1.1,10.2-5.42,13.57-2.67-2.51-6-4.63-8.33-7.57-1.93-2.49-2.62-5.51-4.07-8.12l-1.06-.26c.09,5,2,12.34-6,10-5.73-1.68-7.74-9.54-7.23-14.67.14-1.42.38-2.95.7-4.55a4.53,4.53,0,0,0-.58-.39,75.49,75.49,0,0,1,2.29-12.39c2.32-9.53,6.15-27.37,1.4-36.74-3.37-6.63-16.46-10.26-21.58-3.22a41.84,41.84,0,0,1,3.17-12.59c-3.14,5-10.09,10.81-11,16.64a64.83,64.83,0,0,1-2.92-28C1302.16,336,1310.42,320.24,1315.44,310.44Z" transform="translate(-3.44 -13.93)"/><path class="cls-17" d="M1281.85,318.81a84.68,84.68,0,0,0-9.39.56,106.72,106.72,0,0,1,10.78-8.7C1282.76,313.39,1282.31,316.11,1281.85,318.81Z" transform="translate(-3.44 -13.93)"/><path class="cls-41" d="M1327.9,517c1.71,3.42,34.25,24.83,24.83,76.2s-39.58,100.13-61,89.85,7.9-105.26,7.9-105.26" transform="translate(-3.44 -13.93)"/><path class="cls-50" d="M1268,304.09s47.93,12.83,78.45,21.92a146.28,146.28,0,0,0-31.42,1.2c-28,3.9-55.66,14.12-84.23,10.65a90.36,90.36,0,0,1-29.2-8.44,66.25,66.25,0,0,1-9.14-8.51c1.7.57,9.19.83,40.86-4.34C1277.67,309.33,1268,304.09,1268,304.09Z" transform="translate(-3.44 -13.93)"/><path class="cls-51" d="M1265.83,309.9s24.12,1.58,76.62,17.84,92,24.06,92,24.06,19-67.36-18.11-87.12c-31.41-16.7-101.15-23.91-122.53-2.9C1269,286.16,1265.83,309.9,1265.83,309.9Z" transform="translate(-3.44 -13.93)"/><path class="cls-50" d="M1311.24,321.84s-8.77-5.72,14.23-39.06c14.23-20.62,34.28-29.27,53.12-29.6-21.91-1.91-41.46,6.23-57.23,29.09-23,33.35-15.54,35.72-15.54,35.72" transform="translate(-3.44 -13.93)"/><path class="cls-52" d="M1434.46,351.8s19-67.36-18.11-87.12a118.72,118.72,0,0,0-24.19-9.12c13.09,6.35,29.14,17.6,31.33,35.3,2.66,21.59-1.1,45.92-3.4,57.82C1429.21,350.76,1434.46,351.8,1434.46,351.8Z" transform="translate(-3.44 -13.93)"/><path class="cls-17" d="M1433,328.34c-2.28-.19-34.11-10.2-35-5.7l-1.87,9s35.72,11.48,36,8.63Z" transform="translate(-3.44 -13.93)"/><path class="cls-30" d="M1158.26,581.34c6.08-4.47,12.55-8.29,18.69-12.51.16.68.24,1,.24,1l48,99.89,37-64.48,51.06,41.89s-53.12,104.29-90.76,113.15S1157.27,592,1151.74,588.7c-.29-.17-.73-.42-1.25-.7A61.29,61.29,0,0,1,1158.26,581.34Z" transform="translate(-3.44 -13.93)"/><path class="cls-34" d="M1318.48,508.73a18.79,18.79,0,0,1,3.82,1.62C1394.22,550.61,1311,670.8,1311,670.8s-16.56,0-45.32-9.58-35.46-31.56-35.46-31.56,49.31-132.51,88.25-120.93" transform="translate(-3.44 -13.93)"/><path class="cls-53" d="M502.56,1166.1s14-8.14,17.18-6.33-1.35,10-5.42,13.11" transform="translate(-3.44 -13.93)"/><path class="cls-27" d="M597.36,711.13c-3.26,3.24-6.27,7.56-10.43,9.77-3,1.59-9.23,1.52-11.53,3.48-3.55,3-.39,16.69,5,15.54" transform="translate(-3.44 -13.93)"/><polyline class="cls-17" points="596.15 705.81 588.87 692.94 589.08 704.68"/><path class="cls-30" d="M631,658.67S612.26,672.4,604,690.89c-5,11.18-10.85,25.24-10.85,25.24s-17.52,13.4-20.78,27.8c-3.9,17.29-.6,37.52-.6,37.52a27.64,27.64,0,0,0,13.69,25c7.32,4.4,27.2,7.34,27.2,7.34L611,876.7l69.95,23.94S655,834.57,666.71,814.73s116.67-57.44,60.93-122.21S631,658.67,631,658.67Z" transform="translate(-3.44 -13.93)"/><path class="cls-27" d="M627,744.2a7.66,7.66,0,0,1,6-5.27c.7-.13.3.06.08-.06a6.3,6.3,0,0,1,1.56,1.2,9.31,9.31,0,0,1,2.11,3.75c1.64,5.38-.32,11.89-2.77,16.73a82.35,82.35,0,0,1-7.46,12c-2.93,3.94-6.64,8.49-11.38,10.3a5.76,5.76,0,0,1-2.61.5c.44.1.07,0,0-.08a6.35,6.35,0,0,1-1-.77,8.24,8.24,0,0,1-1.53-1.94c-1.54-2.66-2-6.28,0-8.82.34-.43.34-.84-.68.45-2,2.59-6.37,4.5-4.86,7.23,2,3.7,6.19,5.58,10.26,6,6.2.67,11.06-3.89,14.78-8.29a80.74,80.74,0,0,0,9.75-14.71c2.91-5.55,5.37-13.83,2-19.71-2.2-3.87-6.85-5.81-11.15-5.92a8.71,8.71,0,0,0-8.64,6c-.36,1,5,2.69,5.48,1.44Z" transform="translate(-3.44 -13.93)"/><path class="cls-27" d="M621.2,750.21c9.92-6,4,9.28,2.22,12.88-1.23,2.42-3.59,8-6.86,8.47s-5.95-1.89-4.89-5.18c4.56,4.2,8.3-5.63,10.11-8.8-1.37,3.08-3.93,3.35-4.29-.23-.18-1.74,2.23-4.58,3.12-6.11" transform="translate(-3.44 -13.93)"/><path class="cls-17" d="M611.25,679.05c-14.57,8.26-.26,14.59.79,16.76l.44.26C615.66,687,613.78,677.62,611.25,679.05Z" transform="translate(-3.44 -13.93)"/><path class="cls-17" d="M716.47,668.8c-17.77-10.42-59.4-28.15-77.91-10.25-7.56,7.31-11.66,20-14.22,29.94-2.88,11.26-10.09,21.09-12.17,32.44,4.11-3.32,10.65-7.24,15.8-8.4-1.22,4.83-6.07,9.13-8,14.2-1.83,4.77-3.81,10.89-3.82,16,4.65-6.16,10-7.57,17.43-4.44,8.38,3.54,8.6,10.31,7.66,18.28-2.23,19-14.56,36.48,1.47,54,.42-3.27,3.22-5,5.85-6.65,4.61,5.14,4.93,13.77,12.27,17.18.79-3.26,3.45-5.42,4.43-8.5,6.84,1.67,4.84,11.58,13.67,10.15,8-1.29,17.87-7.73,25.17-11.33a10.27,10.27,0,0,0-4.79,4.27c4.73,6.21,20.15-5.85,25.56-8.37,16.59-7.73,27.08-19.39,32.86-37,8.64-26.26,8.39-47.83-5.72-71.86-7.33-12.49-20.3-23-34.49-26.25" transform="translate(-3.44 -13.93)"/><path class="cls-54" d="M741.34,785s-16-9.9-26.21-16.36c-14-8.87-25.26-21.4-25.26-21.4L679.34,763.5s19.4,17,34.43,26,24,12.39,24,12.39" transform="translate(-3.44 -13.93)"/><path class="cls-13" d="M715.13,768.68c10.21,6.46,26.21,16.36,26.21,16.36l-1.52,7.24-3.12,9.21a178,178,0,0,1-22.93-12,203.34,203.34,0,0,1-18-12.57,15.22,15.22,0,0,1,1.69-7.79c2.91-5.66,6-7.07,8.14-7.29A110.05,110.05,0,0,0,715.13,768.68Z" transform="translate(-3.44 -13.93)"/><path class="cls-55" d="M752.67,731.55a2.37,2.37,0,0,0,1.8-.89c.24-.29.57-1.14-.13-1.14a2.38,2.38,0,0,0-1.81.88c-.24.3-.57,1.15.14,1.15Z" transform="translate(-3.44 -13.93)"/><path class="cls-13" d="M631.94,694.31s-70.13-58.77-55.54-81.12c13.18-20.18,16.46,19.35,53.12,40.15" transform="translate(-3.44 -13.93)"/><path class="cls-13" d="M617.77,647c.26-.53.51-1.07.79-1.6,11.92-8.32,40.73-22.58,83.39-6.36,57.22,21.77,72.11,75.92,66.9,102.15-6.31,31.69-27.49,63.5-27.49,63.5s-3.3-1.47-8.72-4.32c3.63-4.51,12.93-16.32,14.42-20.73,1.86-5.51-28.2-23.62-36.45-26.41-6-2-18.93,8.72-25.52,14.72-4.6-4-9.18-8.35-13.58-13C651.69,734,632.32,697.57,621,674.3A66.55,66.55,0,0,1,617.77,647Z" transform="translate(-3.44 -13.93)"/><path class="cls-56" d="M618.75,665.43c6.88-3.84,36.32-18.8,69.8-14.29,22.46,3,42.46,10,55.16,15.26,0-.1,0-.21,0-.31,1.81,1.82,3.56,3.66,5.21,5.55-1.15-.48-2.37-1-3.64-1.48a129.1,129.1,0,0,1-6.34,32.12c-7.59,23-46.07,53.78-57.36,62.43-.88-.81-1.77-1.59-2.65-2.42,12-9.56,41.05-34.32,53.89-60,8-16,10.48-26.21,10.87-32.72-16.3-6.38-40.94-14.19-63.72-14.13-35.56.09-56.91,13.53-59.92,15.55C619.53,669.12,619.11,667.28,618.75,665.43Z" transform="translate(-3.44 -13.93)"/><path class="cls-30" d="M727.3,924.31c3.84,3,21.7,63.83,19.91,91.2-2.53,38.56-47,116.67-47,116.67L682,934.55" transform="translate(-3.44 -13.93)"/><path class="cls-34" d="M666.68,837.2s24.82,11.44,36.6,28.91S738.94,934,738.94,934s-5.3,18.17-32.43,19.08c-15.41.51-19.87-22.62-19.87-22.62" transform="translate(-3.44 -13.93)"/><path class="cls-42" d="M703,1425.64c.53,1.67,5.72,13.88,6.31,19.46s-.18,20.12-.18,20.12a53.92,53.92,0,0,1-21.93,4.82,91.48,91.48,0,0,1-25.06-3.52s-23.66-9.69-35.23-14-33.36-22.39-5.49-30.65,54.1,5.29,54.1,5.29" transform="translate(-3.44 -13.93)"/><path class="cls-48" d="M702.9,1417.26c.53,1.67,5.72,13.88,6.31,19.46s-.19,20.12-.19,20.12a53.84,53.84,0,0,1-21.92,4.82,91.59,91.59,0,0,1-25.07-3.52s-23.66-9.69-35.23-14-29.3-19.1-1.43-27.36,50,2,50,2" transform="translate(-3.44 -13.93)"/><path class="cls-48" d="M702.9,1417.26c.53,1.67,5.72,13.88,6.31,19.46s-.19,20.12-.19,20.12a53.84,53.84,0,0,1-21.92,4.82,91.59,91.59,0,0,1-25.07-3.52s-23.66-9.69-35.23-14-29.3-19.1-1.43-27.36,50,2,50,2" transform="translate(-3.44 -13.93)"/><path class="cls-42" d="M672,1417.5c-2.13-.35-14.31-2.14-19.61,1.23-5.83,3.7-12,10.77-13.59,8.63s-2.08-1.56,5.07-8.69a18.28,18.28,0,0,1,5.7-3.73,16,16,0,0,0-7.18,1.6c-5.94,3.45-12.34,10.25-13.87,8s-2-1.64,5.36-8.47a16.52,16.52,0,0,1,2.22-1.67A78,78,0,0,1,672,1417.5Z" transform="translate(-3.44 -13.93)"/><path class="cls-42" d="M583,1433c.79,1.64,8.14,13.44,9.38,19s1.76,20.49,1.76,20.49-10.11,5.77-25.48,7.54a125.15,125.15,0,0,1-30-.56s-29-7-43.07-10-41.68-18.76-9.5-30.52,64.55-1.12,64.55-1.12" transform="translate(-3.44 -13.93)"/><path class="cls-48" d="M582.06,1424.47c.79,1.64,8.14,13.44,9.38,19S593.2,1464,593.2,1464s-10.11,5.77-25.48,7.54a124.84,124.84,0,0,1-30-.57s-29-7-43.07-10-36.56-15.9-4.38-27.66,59.42-4,59.42-4" transform="translate(-3.44 -13.93)"/><path class="cls-48" d="M582.06,1424.47c.79,1.64,8.14,13.44,9.38,19S593.2,1464,593.2,1464s-10.11,5.77-25.48,7.54a124.84,124.84,0,0,1-30-.57s-29-7-43.07-10-36.56-15.9-4.38-27.66,59.42-4,59.42-4" transform="translate(-3.44 -13.93)"/><path class="cls-42" d="M545.49,1428.43c-2.55-.1-17.15-.46-23.09,3.61-6.53,4.46-13.12,12.4-15.24,10.41s-2.61-1.33,5.15-9.45a22.29,22.29,0,0,1,6.38-4.47,21.65,21.65,0,0,0-8.34,2.48c-6.7,4.22-13.6,11.92-15.63,9.85s-2.56-1.43,5.52-9.26a18.24,18.24,0,0,1,2.46-2A107,107,0,0,1,545.49,1428.43Z" transform="translate(-3.44 -13.93)"/><path class="cls-30" d="M586.36,1430.09c.17.46.34.87.51,1.28a126.1,126.1,0,0,1-25.33,7l-.49,0a86.92,86.92,0,0,1-28.31-6.28l2.11-1c24.89-11.63-1.79-174.85-1.79-174.85l47.44-12.45s14.36,18.58,16.63,51.06S580,1413.56,586.36,1430.09Z" transform="translate(-3.44 -13.93)"/><path class="cls-30" d="M701.91,1421.55s1,1.44,2.46,3.72a64.38,64.38,0,0,1-26.06,3.72c-6.68-.34-16.25-1.37-22.71-3.16,16.3-7.41,2.21-177.18,2.21-177.18l44.88-19.56-.85,26.78s14.34,24,14.86,57.11S701.91,1421.55,701.91,1421.55Z" transform="translate(-3.44 -13.93)"/><path class="cls-25" d="M520.15,1240.72c.44-26.82,4.71-53.33,10.65-79.47a445.27,445.27,0,0,1,25.05-77.4c1-2.41,0-4.87-1.9-6.67,6.12-14.32,10.15-23.4,10.15-23.4l137.27-31.48s6.69,22.31,13.92,47.93a6.07,6.07,0,0,0,1.21,4.28c2.36,8.41,4.74,17,6.94,25.28.88,3.31,1.67,7.25,2.39,11.69a27.27,27.27,0,0,0-.9,4.08c-1.17,25.59-8.92,26.8-9.36,41-.5,15.93,2.59,31.88,4.53,47.64,1.65,13.48,2.89,27.33,4.94,41-13.78,6.5-44.61,19.27-66.81,15.19-29.4-5.4-20.93-5.53-20.93-5.53s10.91-71.82-3.74-71.59-35.27,76.11-35.27,76.11-47.37,1.89-78.8.29C519.94,1253.37,520.05,1247,520.15,1240.72Z" transform="translate(-3.44 -13.93)"/><path class="cls-45" d="M608.85,835.09l.1-.28C608.55,835,608.39,835.09,608.85,835.09Z" transform="translate(-3.44 -13.93)"/><path class="cls-34" d="M588.93,850.64s52.9-27.63,87.32-7.74a85.46,85.46,0,0,1,11.82,17.26c18.21,34.82,18.33,74.58,22.15,112.71,2.54,25.35,6.42,50.43,11,75.49,2.23,12.22,4.8,24.46,8.66,36.22-17.54,4.58-80.89,20.19-121,18.32-46.94-2.19-67.73-19.45-67.73-19.45S564.09,884.91,588.93,850.64Z" transform="translate(-3.44 -13.93)"/><path class="cls-57" d="M637.43,1180.61s55.84-11.3,44.18-7.21-28.29,23.9-28.29,23.9,53.34-4.75,31.28.81-24.64,6.9-32.15,26.56-15.15,30.2-15.15,30.2" transform="translate(-3.44 -13.93)"/><path class="cls-58" d="M514.69,1245.08l1.51,0c3,.88,40.5,11.5,80,2.13,6.82.17,11.5.27,12.32.26,0,0-1.12,15.43-6.24,17-44.08,13.72-88.59.1-88.59.1Z" transform="translate(-3.44 -13.93)"/><path class="cls-58" d="M632.25,1244.74l1.51-.09c3,.61,41.36,7.89,79.88-4.92,6.81-.43,11.48-.74,12.3-.83,0,0,7.51,13.79,2.55,15.83-42.7,17.55-95.51,9.58-95.51,9.58Z" transform="translate(-3.44 -13.93)"/><path class="cls-58" d="M552,1090.12s-9.08,33.85-3.81,37.67,7,6.73,7,6.73l-14.9,77.59-19.62-4.9s12.9-80.65,19.47-97.85c3.62-9.51,8.58-23.75,8.58-23.75" transform="translate(-3.44 -13.93)"/><polygon class="cls-58" points="711.36 1085.83 713.39 1121.46 690.21 1138.44 659.26 1127.69 657.56 1092.05 711.36 1085.83"/><polygon class="cls-58" points="632.38 1095.87 632.93 1130.55 606.29 1145.62 574.34 1132.94 579.12 1095.24 632.38 1095.87"/><path class="cls-58" d="M648.42,1103.25c1,1.45.43,27.35-.77,44s-8.3,31.4-8.3,31.4,13.76-26.11,13.49-42.72-1-32.71-1-32.71" transform="translate(-3.44 -13.93)"/><path class="cls-48" d="M591.74,1443.9s-.14-18.31-19.47-16.38-25,10.91-30.69,11.31" transform="translate(-3.44 -13.93)"/><path class="cls-48" d="M706.91,1433.4s2.51-17.36-16.39-16.5-27,14.39-32.61,14.48" transform="translate(-3.44 -13.93)"/><path class="cls-36" d="M706.51,953.11s4.52-52.46,5.42-41.61,2.72,26.23,2.72,26.23,10-15.38,7.23-5.43A167,167,0,0,1,713.74,954" transform="translate(-3.44 -13.93)"/><path class="cls-36" d="M588,969.38l7.35.59s12.17-55.32,16.16-50.33c7.24,9.05-9,53.36-9,53.36s23.51-26.23,17.18-10-13.56,31.66-26.23,62.41c-15,36.51-52.33,58-52.33,58" transform="translate(-3.44 -13.93)"/><path class="cls-30" d="M548.23,935.92s-11.75,69.64-14.47,76-43,107.18-47.48,113.51-19.9,37.53-13.57,45.67,24.87,16.28,34.82,13.57,18.54-11.31,18.54-14.92-15.37.45-15.37.45,10.4-20.8,11.3-26.23a25.54,25.54,0,0,0-.9-10.85s45.22-81.4,52.46-104,15.37-71.45,15.37-71.45" transform="translate(-3.44 -13.93)"/><path class="cls-34" d="M595.78,852c-2.63-.65-14.33-6.49-28.82,24.72s-35.83,61-35.83,61,9.43,16.11,25.57,26.43S595.38,970,595.38,970s7.49-13.85,15.49-40.57S620.13,858,595.78,852Z" transform="translate(-3.44 -13.93)"/><path class="cls-36" d="M601.59,845.48s32.56-10,47.94-9.05a77.16,77.16,0,0,1,26.72,6.47s.41-6.47-8.63-11-27.14-2.71-42.51,0A39.91,39.91,0,0,0,601.59,845.48Z" transform="translate(-3.44 -13.93)"/></g></g></svg>