<svg id="Capa_1" data-name="Capa 1" xmlns="http://www.w3.org/2000/svg" viewBox="0 0 584.52 568.9"><defs><style>.cls-1{fill:#efe0d2;}.cls-2{fill:#92755a;}.cls-3{fill:#6e863b;}.cls-4{fill:#a6bc43;}.cls-5{fill:#b45642;}.cls-6{fill:#c76f61;}.cls-7{fill:#bec83e;}.cls-8{fill:#ca945e;}.cls-9{fill:#d7d8d9;}.cls-10{fill:#c6c7c7;}.cls-11{fill:#9d9c9d;}.cls-12{fill:#a39f9f;}.cls-13{fill:#badcef;}.cls-14{fill:#cacace;}.cls-15{fill:#e5e5e5;}.cls-16{fill:#e1dddc;}.cls-17{fill:#3f79a3;}.cls-18{fill:#dca86d;}.cls-19{fill:#84bed7;}.cls-20{fill:#97ccf0;}.cls-21{fill:#ececed;}.cls-22{fill:none;}.cls-23{fill:#bd8c5c;}.cls-24{fill:#37375d;}.cls-25{fill:gray;}.cls-26{fill:#5492c3;}.cls-27{fill:#fff;}.cls-28{fill:#4780b6;}.cls-29{fill:#5391c3;}.cls-30{fill:#d9dcd2;}.cls-31{fill:#8e8889;}</style></defs><title>Ilustración 8</title><path class="cls-1" d="M575.22,292.25c-5.65-32.47-87.33-46.05-126.35-48.76-17.9-1.24-34.09.51-50.46,8.41-10.27,5-21.69,21.25-32.41,22.84-7.71,1.14-2.38-7.39-8.19-12.14-15.53-12.71-39.26-3.87-55.06-7.06-19.71-4-54.39-8.16-74.54-6.09-18,1.84-30.77,10.9-47.35,16.07-19,5.91-30-1.5-48.52-4-23-3.16-47.08,1.77-68.89,8.23-40.56,12-52.82,35.83-51.4,76.89,2.1,60.67-5.47,122.4,1.26,183.18,7.49,67.75,86.62,57.94,136.15,50.47,70.07-10.56,146.24,2.71,216.63,8.44,29.24,2.37,56.65,2.44,84.18-8.4,20.39-8,35.68-12.25,57.37-8.12,18,3.41,40.41,10.73,53.18-4.66,14-16.87,17-52,19-73.05,2.92-30.54,6.36-61.42,6.67-92.15.34-34.29,10.92-78.12-8.47-108.64" transform="translate(-5.17 -21.07)"/><rect class="cls-2" x="123.58" y="44.59" width="9.53" height="254.12"/><rect class="cls-2" x="461.34" y="19.45" width="10.96" height="279.25"/><path class="cls-3" d="M84.44,237.63c-25.31-17.22-39.8,26-59.14,30.27,8.68,6.9,20.32,11.53,30,5a65.89,65.89,0,0,0,13.2-12.3c3.9-4.62,9.51-16.53,15.16-17.64" transform="translate(-5.17 -21.07)"/><path class="cls-3" d="M157.2,118.63a20.72,20.72,0,0,0-1.13-23.89c-7.34-9.18-19.17-8.67-26.79-16.28-1,6.16,2.75,17.44,6.25,22.71,5.21,7.87,16.15,8.29,21.67,15.18" transform="translate(-5.17 -21.07)"/><path class="cls-3" d="M144.55,199.32l0,0v0a127.12,127.12,0,0,0-10.09-21.84,218.8,218.8,0,0,0-13.37-20.22,72.74,72.74,0,0,0-8-9.46c-3-2.9-6.27-5.5-9.52-8.09a94.7,94.7,0,0,0-10.24-7.47,42.71,42.71,0,0,0-11.13-4.56,121.94,121.94,0,0,0-12.14-2.31c-2-.31-4.08-.63-6.11-1L62.5,124a7.85,7.85,0,0,0-1.35-.26,2.33,2.33,0,0,0-1.41.62c-.29.25-.8.74-.68,1.18s1.38.55,1.82.64c2.07.41,4.16.74,6.24,1.07,4.18.65,8.37,1.25,12.47,2.28A42.79,42.79,0,0,1,91,134.11a90,90,0,0,1,10,7.32,121.5,121.5,0,0,1,9.81,8.3,79.32,79.32,0,0,1,7.87,9.48,205.49,205.49,0,0,1,13.81,21.21c2.05,3.64,4,7.36,5.68,11.17.86,1.89,1.66,3.79,2.4,5.72q.57,1.45,1.08,2.91c.2.57.26,1.06.95,1S144.76,200.25,144.55,199.32Z" transform="translate(-5.17 -21.07)"/><path class="cls-3" d="M135.77,205a69.3,69.3,0,0,0-45.52-39.27c-10.48-3-22.14-4.19-32.63-.61a33,33,0,0,0-13,8.08,34.8,34.8,0,0,0-7.87,13.34c-.23.68-.89,2,.35,1.94a2.34,2.34,0,0,0,2-1.49c.47-1.32.86-2.64,1.4-3.93a32.37,32.37,0,0,1,1.78-3.59,26.67,26.67,0,0,1,11.32-10.77c9.92-4.92,21.82-4.06,32.27-1.45a71.24,71.24,0,0,1,28.72,14.43A69.78,69.78,0,0,1,133,206.37,77.11,77.11,0,0,1,138,221.91a76.05,76.05,0,0,1,1.28,8.09c.15,1.35.26,2.7.33,4.06q.06,1.13.09,2.25a13.56,13.56,0,0,0,0,2.3c.28,1.26,2.66-.43,2.74-1.26v0s0,0,0-.05A80.15,80.15,0,0,0,135.77,205Z" transform="translate(-5.17 -21.07)"/><path class="cls-3" d="M138.92,233.13c-9.5-10-25.66-11.55-36.63-3.67a25.38,25.38,0,0,0-7.66,8.93c-.23.45,0,.77.44.76a1.74,1.74,0,0,0,1.27-.93c6.35-12.22,21.18-14.51,32.2-9.71a26.2,26.2,0,0,1,8.57,5.93c.61.64,2.32-.77,1.81-1.31Z" transform="translate(-5.17 -21.07)"/><path class="cls-4" d="M103.94,226.59c-13.26-1.12-27.89,7.23-36.07,17.13-10.68,12.94-13.39,25.26-11,41.58,1.12,7.74.86,15.28,1.26,23.06,2.84-3.49,4.38-7.07,7.87-10.2,4.29-3.85,9.1-7,13.32-10.92,5.75-5.35,14.13-9.15,18.52-15.78,5.41-8.2,4.73-17.21,4.34-26.42-.2-4.53-2.21-14.76,2.73-17" transform="translate(-5.17 -21.07)"/><path class="cls-4" d="M118.14,226.12c-10.66-2.08-8.2,20.85-7,26.09,1.36,6.13,3.42,12.1,3.73,18.4.5,10-2,18.18-5.17,27.42a76.82,76.82,0,0,0,18.92-16c5-6.2,8.53-14.5,8.53-22.67,0-6.73-3.11-13.88-7.12-18.95-3-3.82-11.49-9.31-11.37-14.33" transform="translate(-5.17 -21.07)"/><path class="cls-4" d="M68.92,163.27c-7.77-9.79-14-17.49-27.46-17.51a37.89,37.89,0,0,0-21.15,5.67c-4.1,2.49-9.94,9.19-15.14,7.19,9.45,7,21.19,9.71,33.06,9.86,7.15.08,12.35-1.5,18.88-3.79,3.5-1.23,8.35-2.69,11.81-.47" transform="translate(-5.17 -21.07)"/><path class="cls-3" d="M216.31,103.1c-4.89-.4-9.77-.8-14.68-.81-8.45,0-17.85.8-24.9,6S165,121.79,161.31,129.5a186.83,186.83,0,0,0-10.06,26.42c-2.86,9.37-5.11,18.9-7.19,28.47s-4.08,19.28-5.46,29a211.38,211.38,0,0,0-2,29.75c0,9.8.22,19.66,1.06,29.43.94,11,3.37,21.59,5.78,32.32a48.08,48.08,0,0,1,1.2,7.33c.16,2.65-.5,5.23-.37,7.87.09,1.84.41,3.72,2.64,3.41,1.22-.17,3-1,3.19-2.35a.61.61,0,0,0,0-.48c-.69-2-.33-4-.09-6a23.94,23.94,0,0,0-.05-5.86,119.09,119.09,0,0,0-2.66-12.52,173.86,173.86,0,0,1-4.18-24.72c-.78-8.87-1-17.78-1-26.68a233.62,233.62,0,0,1,1-25.65c.9-8.48,2.41-16.87,4.11-25.21s3.47-16.68,5.52-24.95A243.1,243.1,0,0,1,160,144.84a134.52,134.52,0,0,1,9.9-22.21,49.25,49.25,0,0,1,7.86-10.6,20.49,20.49,0,0,1,11.09-5.36,67.47,67.47,0,0,1,14.69-.69c2.46.1,4.92.28,7.37.47,1,.08,1.91.18,2.86.23H214a1.65,1.65,0,0,0,1.44.49,3.44,3.44,0,0,0,.89,0c1.17-.08,3.42-.79,3.69-2.2C220.42,103.05,217.46,103.19,216.31,103.1Z" transform="translate(-5.17 -21.07)"/><path class="cls-4" d="M201.44,104.48c8.19-5.43,19.59-3.93,27.57.47,9.2,5.06,22.36,9.09,32.8,6.22-13,5.42-24.12,18-39.82,12.45-8.11-2.88-16.5-11.29-20.08-18.66" transform="translate(-5.17 -21.07)"/><path class="cls-3" d="M181.52,106.16c1.72-3.32,1.74-7.29,1.24-10.9a29.4,29.4,0,0,0-3.51-10.65A26,26,0,0,0,173.32,78a35.2,35.2,0,0,0-8.88-5.57c-2.66-1.11-5.84-1.92-8.67-1a6.76,6.76,0,0,0-1,.41c-.58.28-.08,1.15.5.86,2.48-1.22,5.45-.61,7.92.29a31.52,31.52,0,0,1,8.56,5,28.15,28.15,0,0,1,6.06,6.22,26.38,26.38,0,0,1,3.67,9.67c.73,3.78,1,8.19-.86,11.72-.3.57.57,1.08.86.51Z" transform="translate(-5.17 -21.07)"/><path class="cls-4" d="M183.46,94.54c3.3-7.74-2.22-20.35-9.43-24.25-5.44-2.94-12.63-4.46-18.47-6.51-6.12-2.15-12.4-4.84-18.43-6.6,1.65,11.77,8.57,28.36,20.29,33.33,5.71,2.42,21.61-1.43,25.09,3.56" transform="translate(-5.17 -21.07)"/><path class="cls-3" d="M180.1,108.52c2.16-3.1,5.75-4.75,8.76-6.85a31.43,31.43,0,0,0,8.39-9A20.58,20.58,0,0,0,200,86.16c.14-.63-.83-.9-1-.27-.9,4.13-3.43,7.81-6.24,10.89a27.77,27.77,0,0,1-4.37,4c-1.52,1.07-3.12,2-4.65,3a17.07,17.07,0,0,0-4.56,4.24c-.37.53.5,1,.86.5Z" transform="translate(-5.17 -21.07)"/><path class="cls-4" d="M193.87,95.49c-2-6.62-4.3-13.58-1.32-20.46,4.61-10.65,16.88-15.42,21.23-26.66-.25,10.71,4.12,22.79,1.76,33.29-2.3,10.23-12.75,11.93-20.25,14.78" transform="translate(-5.17 -21.07)"/><path class="cls-3" d="M154.53,155.66c0-5,.38-10.08-.05-15.1a47.75,47.75,0,0,0-3.06-12.68A45.92,45.92,0,0,0,140,110.71a93.56,93.56,0,0,0-10.23-8.29c-.56-.41-2.13.81-1.47,1.29,5.94,4.27,11.72,8.93,16,14.93a44,44,0,0,1,4.89,8.93,48.24,48.24,0,0,1,3.34,12.06c.71,5.59.24,11.24.23,16.85,0,.74,1.78-.1,1.78-.82Z" transform="translate(-5.17 -21.07)"/><path class="cls-4" d="M146.54,118.21c-3.88-9-7.64-16.65-15.84-22.47-9.13-6.48-22.14-5.63-31.92-11.6,4.93,17.23,26.4,43.61,47.29,35.49" transform="translate(-5.17 -21.07)"/><path class="cls-3" d="M154,135.65c-7.14-6.91-18.18-7.83-27.41-5.39a33.16,33.16,0,0,0-7.57,3c-.31.17-.92.54-.83,1s.68.31,1,.16c7.92-4.36,18.36-5.43,26.77-1.84a21,21,0,0,1,6.4,4.18c.56.54,2.17-.64,1.69-1.09Z" transform="translate(-5.17 -21.07)"/><path class="cls-4" d="M140.86,130c-9.24-4.92-20.81-5.18-28.87,1.89-4.9,4.29-8.95,10.29-15.19,12.55s-14,1.79-20.69,3.19c13.78,3,31,7.72,44.87,2.75,4.84-1.74,10.09-4.68,13.26-8.78,2.57-3.33,2.87-8.84,7.09-10.65" transform="translate(-5.17 -21.07)"/><path class="cls-4" d="M86.91,129.57c-8.12-7-16.81-11.47-27.9-11.36-11.25.11-21.28,5.85-32.07,1,6.48,11.21,22.79,17.33,35,18.33,11.21.91,17-5.24,26.86-7.94" transform="translate(-5.17 -21.07)"/><path class="cls-3" d="M100.17,137.77c-1.62-2.92-1.94-6.33-2.69-9.53a49,49,0,0,0-2.71-7.83c-1.93-4.51-4.64-8.73-8.74-11.54a23.56,23.56,0,0,0-8.36-3.43c-.65-.14-2.09,1.2-1.17,1.4a21.21,21.21,0,0,1,12.71,7.79,31.32,31.32,0,0,1,3.59,6.22,48.73,48.73,0,0,1,2.81,7.83c.84,3.42,1.14,7.06,2.88,10.19.34.62,2.05-.43,1.68-1.1Z" transform="translate(-5.17 -21.07)"/><path class="cls-4" d="M95.07,121.28c-3.38-9.17-3.52-16.55-13.69-20.35s-20-7.14-29.83-12.08c2,8.84,6.59,21.26,15.15,25.46,5.06,2.48,10.89,3.67,16.55,4.5,2.92.43,8.24-.16,9.93,2.47" transform="translate(-5.17 -21.07)"/><path class="cls-3" d="M216.6,166.67c-.21-.36-.78-.58-1.12-.77s-1-.52-1.47-.75a23.84,23.84,0,0,0-13.41-1.45c-9.84,1.47-19.14,6.5-27.13,12.24A39.17,39.17,0,0,0,163,186.68a53.76,53.76,0,0,0-3.56,6.76c-.25.54-.49,1.08-.72,1.63a2.77,2.77,0,0,0-.42,1.26.63.63,0,0,0,.16.35c-1.49,1.16-2.93,2.37-4.29,3.65a57.56,57.56,0,0,0-11.68,15.44,49.85,49.85,0,0,0-4,10.11,32.71,32.71,0,0,0-1,5.46c0,.37-.05.73-.07,1.1a2.69,2.69,0,0,0,0,1c.17.31.59.29.89.25.74-.09,2-.63,2.07-1.47,0,0,0,0,0,0a.08.08,0,0,1,0,0c.11-7.28,3.15-14.32,6.94-20.42a54.28,54.28,0,0,1,13.9-15c11-8.16,25.33-12.1,38.74-8.19a39.41,39.41,0,0,1,4.94,1.8c.77.33,1.52.69,2.26,1.07a9.59,9.59,0,0,0,2.17,1.14,2.59,2.59,0,0,0,2.39-1.08.53.53,0,0,0-.07-.76,10.46,10.46,0,0,0-2.28-1.24A41.69,41.69,0,0,0,189.27,185a52.67,52.67,0,0,0-27.4,9.21A40.74,40.74,0,0,1,169,182.47a55.21,55.21,0,0,1,12.31-9.3,56.55,56.55,0,0,1,14.3-6.31c4.94-1.31,10.3-1.81,15.18,0,.54.21,1.08.44,1.61.69a16.94,16.94,0,0,0,1.71,1,2,2,0,0,0,1.86-.45C216.38,167.76,216.89,167.19,216.6,166.67Z" transform="translate(-5.17 -21.07)"/><path class="cls-4" d="M185.82,169.32c3.91-8.19,18.06-12.9,26.48-10.89,8.93,2.14,17.91,13.4,27.83,10.61-9.29,6.28-18.3,9.17-29.78,8.35-4.88-.34-9-1.81-13.43-3.51-3.27-1.27-8.14-4.34-11.57-2.66" transform="translate(-5.17 -21.07)"/><path class="cls-5" d="M183.47,211.48c-1.67-1-5.6-1.72-9.47-1.71a13.88,13.88,0,0,0-6.52-1.85c-5.57-.31-9,1.65-11.06,3.58-10.31-3.61-14.67,7.41-9,22.19,1.42,3.7-.65,28.93,11.18,22.13-1.18.59.16,3.59,3.25,4.44,3.25.88,7.86-.24,9.67-3.13l.57-1c1.34-1.06,3.78,3.79,7.57-.47,3.22-3.62,3.28-14.2,5-18.7C187.48,229.44,192.59,216.89,183.47,211.48Z" transform="translate(-5.17 -21.07)"/><path class="cls-3" d="M166.48,208.49c-3.29,1.1-7.69,2.82-9,6.19,2.15,1,4.36-.31,6.06-1.66-1.68,3.62,1.74,4.71,3.28,1.29,1.07,1.82,5.86,3.64,5.56,0-.18-2.16-5.08-4.72-6.89-4.91" transform="translate(-5.17 -21.07)"/><path class="cls-3" d="M165,211.21c0-3.54.44-7.65-2.63-10.16a7,7,0,0,0-8.17-.45,6.76,6.76,0,0,0-2.88,4.21A1,1,0,0,0,152,206a1,1,0,0,0,1.16-.66,6.45,6.45,0,0,1,.28-.95c.11-.29-.08.15.05-.12,0-.06,0-.12.08-.17a5.5,5.5,0,0,1,.28-.48c.08-.13.16-.26.25-.38-.08.11.16-.18.2-.22l.31-.32.16-.14s.26-.21.11-.1a5.66,5.66,0,0,1,.73-.47l.39-.2s.17-.06,0,0l.29-.11a7.79,7.79,0,0,1,.83-.22l.21,0c-.18,0,0,0,0,0l.51,0a4,4,0,0,1,1.64.22l.42.14c.17.07.05,0,0,0l.24.11a6.24,6.24,0,0,1,.85.52c-.11-.08.19.17.24.21a5.29,5.29,0,0,1,.41.41,4.62,4.62,0,0,1,.61.84,6.45,6.45,0,0,1,.72,2.1,30.92,30.92,0,0,1,.13,5.29.94.94,0,0,0,1.88,0Z" transform="translate(-5.17 -21.07)"/><path class="cls-6" d="M175.76,252c-1.85-5.31,2.61-10.8,4.8-15.31,2.4-4.92,4.42-10.49,3.19-16-.55-2.51-1.51-4.23-4.15-4.95-3.86-1-4.7,1.68-5.31,5-.84,4.5-.23,10.23,0,15,.14,2.93.5,6,.53,8.92,0,2.42-.87,5.14.95,7.17" transform="translate(-5.17 -21.07)"/><path class="cls-6" d="M163.93,222.41c2.26,6.45,0,15.86-1.33,22.36-.63,3.11-1.45,12.12,4.61,10.69,6.24-1.48.49-19.91.27-24.48-.11-2.23-.06-4.56-.3-6.8-.09-.91-.06-2.62-.82-3.28s-2-.85-1.84.92" transform="translate(-5.17 -21.07)"/><path class="cls-5" d="M201.8,126.32c-1.67-1-5.6-1.72-9.46-1.72a14.08,14.08,0,0,0-6.53-1.84c-5.57-.31-9,1.64-11.06,3.58-10.3-3.61-14.67,7.4-9,22.19,1.42,3.7-.65,28.93,11.18,22.13-1.18.59.17,3.59,3.26,4.43,3.25.89,7.86-.23,9.66-3.12l.57-1c1.35-1.07,3.79,3.79,7.57-.47,3.22-3.63,3.28-14.21,5-18.7C205.82,144.27,210.92,131.72,201.8,126.32Z" transform="translate(-5.17 -21.07)"/><path class="cls-3" d="M184.81,123.33c-3.29,1.1-7.69,2.81-8.95,6.18,2.14,1,4.35-.31,6-1.65-1.67,3.61,1.74,4.71,3.28,1.29,1.07,1.82,5.87,3.64,5.56,0-.18-2.15-5.08-4.71-6.89-4.91" transform="translate(-5.17 -21.07)"/><path class="cls-3" d="M183.33,126.05c0-3.54.43-7.65-2.64-10.16a6.94,6.94,0,0,0-8.17-.45,6.78,6.78,0,0,0-2.88,4.2.95.95,0,0,0,1.82.51,6.11,6.11,0,0,1,.28-1c.11-.29-.07.15.06-.13a1.19,1.19,0,0,1,.08-.16,4.67,4.67,0,0,1,.27-.49,4.17,4.17,0,0,1,.26-.37l.19-.22c.1-.11.2-.22.31-.32l.16-.14s.26-.22.12-.11a6.07,6.07,0,0,1,.73-.47l.38-.19s.17-.07,0,0l.28-.11a6,6,0,0,1,.83-.22l.22,0c-.18,0,0,0,0,0a4.53,4.53,0,0,1,.52,0,4.1,4.1,0,0,1,1.63.21l.42.15c.17.06.06,0,0,0l.24.11a5.69,5.69,0,0,1,.85.52c-.11-.08.2.16.24.2a5.44,5.44,0,0,1,.41.42,4.3,4.3,0,0,1,.61.84,6.17,6.17,0,0,1,.72,2.09,31,31,0,0,1,.13,5.3,1,1,0,0,0,1.89,0Z" transform="translate(-5.17 -21.07)"/><path class="cls-6" d="M194.09,166.81c-1.85-5.3,2.62-10.79,4.81-15.3,2.39-4.92,4.41-10.5,3.19-16-.56-2.51-1.51-4.23-4.16-4.95-3.85-1-4.7,1.68-5.31,5-.84,4.5-.23,10.23,0,15,.14,2.93.51,6,.53,8.92,0,2.42-.86,5.14,1,7.17" transform="translate(-5.17 -21.07)"/><path class="cls-6" d="M182.26,137.24c2.26,6.45,0,15.87-1.33,22.37-.62,3.11-1.45,12.12,4.61,10.69,6.24-1.48.5-19.91.27-24.48-.11-2.23-.06-4.57-.29-6.8-.1-.92-.07-2.62-.83-3.28s-2-.85-1.83.91" transform="translate(-5.17 -21.07)"/><path class="cls-5" d="M70.6,179.31c1.66-1,5.6-1.73,9.46-1.72a14,14,0,0,1,6.53-1.85c5.57-.31,9,1.65,11.06,3.59,10.3-3.62,14.67,7.4,9,22.18-1.43,3.71.65,28.93-11.18,22.13,1.18.6-.17,3.6-3.26,4.44-3.25.89-7.86-.24-9.67-3.13L82,224c-1.35-1.06-3.79,3.79-7.57-.47-3.23-3.62-3.28-14.2-5-18.69C66.58,197.26,61.48,184.71,70.6,179.31Z" transform="translate(-5.17 -21.07)"/><path class="cls-3" d="M87.59,176.31c3.28,1.1,7.69,2.82,9,6.19-2.14,1-4.35-.31-6.05-1.66,1.67,3.62-1.75,4.71-3.28,1.29-1.07,1.82-5.87,3.65-5.56,0,.18-2.15,5.08-4.72,6.89-4.91" transform="translate(-5.17 -21.07)"/><path class="cls-3" d="M89.07,179c0-3.53-.43-7.65,2.64-10.16a7,7,0,0,1,8.17-.45,6.8,6.8,0,0,1,2.88,4.21,1,1,0,0,1-.66,1.16,1,1,0,0,1-1.16-.66,6.45,6.45,0,0,0-.28-.95c-.11-.28.07.16-.06-.12a1.3,1.3,0,0,0-.08-.17,4.53,4.53,0,0,0-.27-.48c-.08-.13-.17-.26-.26-.38l-.19-.22c-.1-.11-.2-.21-.31-.31l-.16-.15-.12-.1a5,5,0,0,0-.73-.47l-.38-.19s-.17-.07,0,0l-.28-.1a6,6,0,0,0-.83-.23l-.22,0c.18,0,0,0,0,0a4.55,4.55,0,0,0-.52,0,4.18,4.18,0,0,0-1.64.22l-.41.14c-.17.07-.06,0,0,0l-.24.11a6.66,6.66,0,0,0-.85.52c.11-.08-.2.17-.24.21l-.42.41a5.83,5.83,0,0,0-.61.84,6.21,6.21,0,0,0-.71,2.1A31,31,0,0,0,91,179a1,1,0,0,1-1.89,0Z" transform="translate(-5.17 -21.07)"/><path class="cls-6" d="M78.31,219.8c1.85-5.31-2.62-10.8-4.81-15.3-2.39-4.93-4.41-10.5-3.19-16,.56-2.51,1.51-4.24,4.16-5,3.85-1,4.7,1.68,5.31,5,.84,4.5.23,10.23,0,14.95-.13,2.94-.5,6-.52,8.92,0,2.43.86,5.14-1,7.17" transform="translate(-5.17 -21.07)"/><path class="cls-6" d="M90.13,190.23c-2.25,6.45,0,15.86,1.34,22.36.62,3.11,1.45,12.12-4.61,10.69-6.24-1.48-.5-19.91-.27-24.48.1-2.23.06-4.56.29-6.8.1-.91.07-2.62.83-3.28s2-.85,1.83.92" transform="translate(-5.17 -21.07)"/><path class="cls-4" d="M55.67,168.38c-13.78.06-27.56,8-33.62,20.64-6.91,14.38-6.37,26.56-2.69,41.83,2,8.4,3.73,15.83,4.2,24.49,3.23-3.11,4.82-8,7.38-11.72s5.79-6.55,9-9.82C46.58,227,49.49,220.54,50,211c.35-6.51-3.5-40.17,8-40.7" transform="translate(-5.17 -21.07)"/><path class="cls-4" d="M187.24,186.36c7.88-7.76,21.25-3.38,28.68,2.59,5.14,4.13,7.31,10,12.5,13.87,4.92,3.67,11.86,7.69,18.21,7.67-13.53,2.87-27.18,9.81-40.45.95-5.15-3.43-8.52-8.18-11.39-13.62-2.14-4.06-3.25-10.9-9-10.51" transform="translate(-5.17 -21.07)"/><path class="cls-3" d="M157.47,198.9c5.85-5,13.75-4.7,20.6-2,7.15,2.78,13.77,8.15,17.32,15a18,18,0,0,1,1.93,11.48c-.28,1.51,2.9,1.1,3.15-.26,1.49-8.08-3.15-15.77-8.92-21-6.24-5.71-14.72-9.63-23.29-9.35a20.77,20.77,0,0,0-12.84,4.82c-1.6,1.37.89,2.36,2.05,1.37Z" transform="translate(-5.17 -21.07)"/><path class="cls-3" d="M195.86,206.55c11.2,3.08,11.94,12,9.95,21.1s-4.21,16.4-4.74,25.9c-8.26-5.56-13.49-14-13.55-23.52,0-6.81,7.47-17.41,5.31-22.78" transform="translate(-5.17 -21.07)"/><path class="cls-3" d="M155.73,144.74c-.5-5.85.86-11.74,1.64-17.5.73-5.47,1.28-11.39-.88-16.61-.54-1.3-3.63-.4-3.12.83,2.22,5.35,1.52,11.33.74,16.91s-2,11.43-1.49,17.2c.11,1.31,3.23.58,3.11-.83Z" transform="translate(-5.17 -21.07)"/><path class="cls-7" d="M140.53,136.26c-1.34,12.57-14.58,21.41-13.7,34.61.77,11.71,12.27,14.78,16.73,24.31l-.22,1.34a1.34,1.34,0,0,1,.28.18,1.49,1.49,0,0,1,.21.22c3.31-8.43,9.28-18.64,9.62-28.08C153.91,156.11,142.44,148,140.53,136.26Z" transform="translate(-5.17 -21.07)"/><path class="cls-7" d="M166.9,178.06c-11.05,3.08-16,11.18-22.15,21.06,0,.06,0,.11,0,.18-.19.58-.37,1.16-.56,1.74,7.9-3.13,21.51,1.36,29.07-.95,15.32-4.69,19.24-17.45,26.43-30.68C188.81,175.33,178.16,174.92,166.9,178.06Z" transform="translate(-5.17 -21.07)"/><path class="cls-3" d="M148.91,303.92c0-7.49.9-15.32,6.17-21.08a24.49,24.49,0,0,1,21-7.41,20.26,20.26,0,0,1,11.53,5.22c.69.66,3.59-.49,2.9-1.14-6.31-6-15.88-6.85-24-4.84s-15.82,7.56-18.77,15.75c-1.65,4.57-1.91,9.52-1.92,14.33,0,.76,3.11.24,3.12-.83Z" transform="translate(-5.17 -21.07)"/><path class="cls-4" d="M169.33,273.26c30.57-18.87,34.78,23.65,58.16,31.09-12.27-.63-25.25,4.06-37.38-1.12-6.05-2.58-12.36-10-15.28-15.55-2.28-4.39-2.74-13-9.29-12.91" transform="translate(-5.17 -21.07)"/><path class="cls-3" d="M147.35,302.06c.16-11.68,9.89-26.4,18.45-32.78a45.45,45.45,0,0,1,7.17-4.42,32.27,32.27,0,0,1,3.55-1.55l.87-.32.59-.2c-.06,0-.48.15-.11,0,.73-.23,1.47-.45,2.21-.65.19-.05.88-.23.33-.09.34-.09.69-.16,1-.24.69-.14,1.38-.28,2.08-.39.5-.08-.4.06.1,0l.45-.06,1-.11c.54-.06,1.43-.12,1.68-.13a29.42,29.42,0,0,1,7.77.69,26.2,26.2,0,0,1,14.93,9.74c1,1.25,6.89-1.15,6-2.32-8.07-10.51-21.23-12.37-33-9.81-12.48,2.71-24.77,9.76-32.56,20.93a34.23,34.23,0,0,0-6.38,19c0,1,4.52,4.61,4.55,2.67Z" transform="translate(-5.17 -21.07)"/><path class="cls-3" d="M191.31,258.1c10.32-6.2,20.94-2.76,27.46,5.89,7.79,10.32,14.21,18.5,24.63,26.76-12-.66-23.08,5-33.3-3.79-5.07-4.38-12.83-29.16-19.54-26.59" transform="translate(-5.17 -21.07)"/><path class="cls-3" d="M148.2,308.09c-3-10.77-13.51-18.7-24-21.31a41.52,41.52,0,0,0-14.49-.61,61.36,61.36,0,0,0-15.64,3.7c-5,1.93-10,4.64-13.35,8.93-.21.26.4.34.49.34a7.61,7.61,0,0,0,4.55-1.2c.51-.32.32-.56-.17-.64a3.43,3.43,0,0,0-2,.55l-.45.1.49.34c2.76-3.5,6.8-5.85,10.87-7.5a52.47,52.47,0,0,1,13.84-3.43,38.89,38.89,0,0,1,13.18.47,35.69,35.69,0,0,1,14.13,7,27.94,27.94,0,0,1,9.72,14c.18.66,3.08-.12,2.9-.78Z" transform="translate(-5.17 -21.07)"/><path class="cls-3" d="M122,287.31c.62-11.71-26.22-6.2-31.76-3-12,6.95-19.15,21.15-31.57,27.05,13.35,1.84,28.89,1.67,41.42-3.88,5.19-2.3,10-4.9,13.39-9.61,2.52-3.49,3.43-8.7,7.82-9.86" transform="translate(-5.17 -21.07)"/><path class="cls-3" d="M518.08,210.34c25.3-17.23,39.79,26,59.14,30.26-8.69,6.9-20.33,11.53-30,5A65.55,65.55,0,0,1,534,233.29c-3.9-4.63-9.51-16.54-15.16-17.65" transform="translate(-5.17 -21.07)"/><path class="cls-3" d="M445.31,91.33a20.71,20.71,0,0,1,1.13-23.88c7.34-9.19,19.17-8.67,26.8-16.29,1,6.17-2.76,17.44-6.26,22.72-5.21,7.87-16.15,8.28-21.67,15.18" transform="translate(-5.17 -21.07)"/><path class="cls-3" d="M458,172a.05.05,0,0,1,0,0v0a127.37,127.37,0,0,1,10.09-21.83,217.47,217.47,0,0,1,13.37-20.22,73.5,73.5,0,0,1,8-9.47c3-2.9,6.27-5.49,9.53-8.08a94.58,94.58,0,0,1,10.23-7.47,42.44,42.44,0,0,1,11.14-4.56A118.62,118.62,0,0,1,532.45,98c2-.32,4.07-.64,6.1-1l1.46-.28a7,7,0,0,1,1.35-.26,2.32,2.32,0,0,1,1.42.62c.29.24.8.73.68,1.17s-1.38.56-1.82.64c-2.08.41-4.16.75-6.25,1.08-4.18.65-8.37,1.25-12.47,2.27a42.82,42.82,0,0,0-11.42,4.58,89.62,89.62,0,0,0-10,7.32,119.35,119.35,0,0,0-9.8,8.3,77.62,77.62,0,0,0-7.87,9.48A204.87,204.87,0,0,0,470,153.12c-2.05,3.65-4,7.37-5.68,11.18-.85,1.88-1.66,3.79-2.4,5.72q-.56,1.44-1.08,2.91c-.2.57-.26,1-.95,1S457.76,173,458,172Z" transform="translate(-5.17 -21.07)"/><path class="cls-3" d="M466.74,177.74a69.29,69.29,0,0,1,45.53-39.27c10.47-3,22.13-4.19,32.62-.61a32.77,32.77,0,0,1,13,8.08,34.68,34.68,0,0,1,7.87,13.33c.23.69.89,2-.35,1.95a2.35,2.35,0,0,1-2-1.5c-.46-1.31-.85-2.63-1.4-3.92a34.3,34.3,0,0,0-1.77-3.6A26.76,26.76,0,0,0,549,141.44c-9.92-4.92-21.83-4.06-32.27-1.45A71.38,71.38,0,0,0,488,154.41a69.58,69.58,0,0,0-18.43,24.67,76.23,76.23,0,0,0-5.06,15.53,79.12,79.12,0,0,0-1.28,8.09c-.15,1.35-.26,2.71-.33,4.06q-.06,1.13-.09,2.25a13.54,13.54,0,0,1,0,2.3c-.28,1.26-2.66-.42-2.74-1.26,0,0,0,0,0,0a.14.14,0,0,1,0-.06A80.45,80.45,0,0,1,466.74,177.74Z" transform="translate(-5.17 -21.07)"/><path class="cls-3" d="M463.59,205.84c9.5-10,25.66-11.56,36.63-3.67a25.29,25.29,0,0,1,7.66,8.93c.23.44,0,.77-.44.75a1.7,1.7,0,0,1-1.27-.92c-6.35-12.23-21.17-14.51-32.2-9.71a26,26,0,0,0-8.57,5.93c-.61.64-2.32-.77-1.81-1.31Z" transform="translate(-5.17 -21.07)"/><path class="cls-4" d="M498.57,199.3c13.26-1.13,27.89,7.23,36.07,17.13,10.69,12.93,13.39,25.26,11,41.57-1.12,7.75-.86,15.29-1.26,23.06-2.83-3.48-4.38-7.06-7.87-10.19-4.29-3.85-9.09-7-13.32-10.92-5.74-5.36-14.13-9.16-18.51-15.79-5.42-8.19-4.74-17.2-4.34-26.42.19-4.52,2.2-14.76-2.74-17" transform="translate(-5.17 -21.07)"/><path class="cls-4" d="M484.37,198.82c10.66-2.07,8.2,20.86,7,26.09-1.35,6.14-3.42,12.11-3.73,18.41-.5,10,2,18.18,5.17,27.42a77,77,0,0,1-18.92-16c-5-6.2-8.53-14.5-8.53-22.67,0-6.73,3.11-13.89,7.12-19,3-3.81,11.49-9.3,11.38-14.33" transform="translate(-5.17 -21.07)"/><path class="cls-4" d="M524.05,136.46c6.71-10.55,12.09-18.86,25.49-20.29a38,38,0,0,1,21.62,3.41c4.34,2,10.85,8.11,15.81,5.58-8.67,7.91-20.05,11.87-31.85,13.26-7.1.84-12.44-.19-19.17-1.79-3.6-.86-8.58-1.79-11.8.77" transform="translate(-5.17 -21.07)"/><path class="cls-3" d="M386.2,75.8c4.89-.39,9.78-.79,14.68-.81,8.45,0,17.85.8,24.9,6S437.5,94.5,441.2,102.2a187.42,187.42,0,0,1,10.06,26.43c2.87,9.36,5.11,18.9,7.19,28.47s4.08,19.27,5.47,29a211.33,211.33,0,0,1,2,29.74c0,9.8-.21,19.66-1.06,29.43-.94,11-3.36,21.6-5.78,32.33a46.47,46.47,0,0,0-1.19,7.33c-.17,2.65.49,5.23.36,7.86-.09,1.85-.41,3.73-2.64,3.42-1.22-.17-3-1-3.19-2.35a.69.69,0,0,1,0-.49c.69-2,.34-4,.09-6a24.44,24.44,0,0,1,.05-5.86A119.81,119.81,0,0,1,455.16,269a173.48,173.48,0,0,0,4.18-24.71c.78-8.87,1-17.78,1-26.68a233.8,233.8,0,0,0-1-25.66c-.9-8.47-2.41-16.86-4.11-25.2s-3.47-16.69-5.51-25a249.36,249.36,0,0,0-7.22-24.22,134.93,134.93,0,0,0-9.91-22.2,49.54,49.54,0,0,0-7.85-10.6,20.42,20.42,0,0,0-11.1-5.36,67.45,67.45,0,0,0-14.69-.7c-2.46.11-4.92.28-7.37.48-.95.07-1.9.17-2.86.23h-.23a1.69,1.69,0,0,1-1.45.5,4,4,0,0,1-.89,0c-1.17-.08-3.41-.8-3.69-2.21C382.09,75.75,385.05,75.9,386.2,75.8Z" transform="translate(-5.17 -21.07)"/><path class="cls-3" d="M401.07,77.19c-8.19-5.44-19.58-3.93-27.57.46-9.2,5.07-22.36,9.09-32.8,6.23,13,5.42,24.12,18,39.82,12.44C388.63,93.45,397,85,400.6,77.66" transform="translate(-5.17 -21.07)"/><path class="cls-3" d="M421,78.86c-1.71-3.31-1.73-7.28-1.24-10.89a29.46,29.46,0,0,1,3.51-10.65,25.82,25.82,0,0,1,5.93-6.62,34.93,34.93,0,0,1,8.88-5.57c2.66-1.11,5.84-1.92,8.67-1a9,9,0,0,1,1,.4c.58.29.07,1.16-.51.87-2.48-1.23-5.45-.62-7.92.29a31.48,31.48,0,0,0-8.56,5A28.42,28.42,0,0,0,424.66,57,26.4,26.4,0,0,0,421,66.63c-.73,3.79-1,8.2.87,11.72.29.58-.57,1.09-.87.51Z" transform="translate(-5.17 -21.07)"/><path class="cls-3" d="M421.41,78.59a17.6,17.6,0,0,1-1.3-10.11,29.89,29.89,0,0,1,2.82-9.84A24.3,24.3,0,0,1,429.28,51a34.16,34.16,0,0,1,8.62-5.48,16.51,16.51,0,0,1,5-1.37,9,9,0,0,1,2.49.11,7.18,7.18,0,0,1,1.37.4,2.24,2.24,0,0,1,.57.25c.14.14.12.29.22.23a7,7,0,0,1-1.05-.41,6.85,6.85,0,0,0-1.11-.24,9.56,9.56,0,0,0-2.39,0,17.84,17.84,0,0,0-4.58,1.28A33.92,33.92,0,0,0,430,51a26,26,0,0,0-6.5,7.28,29.17,29.17,0,0,0-3.24,10.47,22.22,22.22,0,0,0-.11,5.28,13,13,0,0,0,.53,2.62,9.84,9.84,0,0,0,.36,1c.08.19.16.37.25.56s.41.72.15.33-1.05.24-.84.54a.84.84,0,0,0,1.22.13,1,1,0,0,0,.44-1.27,14.48,14.48,0,0,1-1.29-5.08,28.23,28.23,0,0,1,1.59-10.7,22,22,0,0,1,6.12-9.35A34.34,34.34,0,0,1,438,46.55a15.8,15.8,0,0,1,5.38-1.44,7.41,7.41,0,0,1,2.73.35c.63.21,1.1.58,1.74.19.36-.22.76-.75.49-1.18s-1.47-.73-2-.86a11.33,11.33,0,0,0-5.27.21,28.81,28.81,0,0,0-9.65,4.83A32.85,32.85,0,0,0,423.72,56a26.58,26.58,0,0,0-4.05,10,22.85,22.85,0,0,0,0,10.75,12.88,12.88,0,0,0,.92,2.35C420.73,79.45,421.58,78.93,421.41,78.59Z" transform="translate(-5.17 -21.07)"/><path class="cls-4" d="M419.06,67.25c-3.31-7.74,2.21-20.35,9.43-24.26,5.43-2.94,12.62-4.45,18.46-6.5,6.12-2.15,12.4-4.84,18.44-6.6-1.66,11.77-8.58,28.35-20.3,33.32-5.71,2.42-21.61-1.43-25.09,3.57" transform="translate(-5.17 -21.07)"/><path class="cls-3" d="M422.41,81.23c-2.16-3.1-5.75-4.75-8.76-6.86a31.3,31.3,0,0,1-8.39-9,20.48,20.48,0,0,1-2.78-6.48c-.14-.63.83-.9,1-.26.9,4.13,3.44,7.81,6.25,10.88a26.86,26.86,0,0,0,4.36,4c1.52,1.06,3.12,2,4.66,3a17.37,17.37,0,0,1,4.56,4.24c.37.53-.5,1-.87.51Z" transform="translate(-5.17 -21.07)"/><path class="cls-3" d="M422.83,81c-2.2-3.1-5.69-4.74-8.74-6.85a31,31,0,0,1-8.41-9,20.84,20.84,0,0,1-2.66-6,3,3,0,0,1-.07-.32l0-.11c0-.17,0-.21-.08-.12-.13-.17.08.22.06.09,0,.08.14.33.15.38.12.47.25,1,.4,1.42a18.73,18.73,0,0,0,1.12,2.7,30.71,30.71,0,0,0,7.57,9.42,68.76,68.76,0,0,0,6.11,4.19,22.08,22.08,0,0,1,2.7,2.09,14.11,14.11,0,0,1,1.2,1.25,8.38,8.38,0,0,1,.52.66,2.35,2.35,0,0,0,.19.25c0,.19.05.23.09.13s0-.12-.12-.16c-.26-.29-1.07.28-.84.54a1.08,1.08,0,0,0,1.66-.27c.49-.73-.55-1.59-1-2.08a26.15,26.15,0,0,0-5.51-4.25,31.44,31.44,0,0,1-10.41-10A22,22,0,0,1,405,61.72a16.61,16.61,0,0,1-.66-1.7c-.18-.54-.27-1.13-.46-1.66s-1-.53-1.46-.15c-.74.63-.19,1.7.05,2.46a28.7,28.7,0,0,0,7.86,11.63,40.9,40.9,0,0,0,6,4.37A19.19,19.19,0,0,1,422,81.5C422.2,81.8,423,81.25,422.83,81Z" transform="translate(-5.17 -21.07)"/><path class="cls-4" d="M408.64,68.2c2-6.62,4.3-13.58,1.33-20.46-4.62-10.65-16.89-15.43-21.24-26.67.25,10.72-4.12,22.8-1.76,33.3,2.3,10.22,12.76,11.93,20.25,14.77" transform="translate(-5.17 -21.07)"/><path class="cls-3" d="M448,128.37c0-5-.38-10.08,0-15.11a48.23,48.23,0,0,1,3.06-12.68,46.08,46.08,0,0,1,11.43-17.17,94.75,94.75,0,0,1,10.23-8.29c.56-.4,2.14.82,1.47,1.3-5.94,4.26-11.72,8.93-16,14.93a43.75,43.75,0,0,0-4.89,8.93A48.24,48.24,0,0,0,450,112.34c-.7,5.59-.24,11.24-.23,16.85,0,.74-1.78-.1-1.78-.82Z" transform="translate(-5.17 -21.07)"/><path class="cls-4" d="M456,90.91c3.89-9,7.64-16.64,15.84-22.46C480.94,62,494,62.82,503.73,56.84c-4.93,17.23-26.39,43.62-47.28,35.49" transform="translate(-5.17 -21.07)"/><path class="cls-3" d="M448.5,108.35c7.14-6.9,18.19-7.82,27.41-5.39a33.19,33.19,0,0,1,7.57,3c.31.17.92.54.83,1s-.67.32-.94.17c-7.93-4.36-18.37-5.44-26.78-1.85a21,21,0,0,0-6.4,4.19c-.56.54-2.16-.64-1.69-1.1Z" transform="translate(-5.17 -21.07)"/><path class="cls-4" d="M461.65,102.75c9.25-4.92,20.81-5.18,28.88,1.89,4.89,4.29,8.94,10.29,15.18,12.55,6.39,2.31,14,1.78,20.7,3.18-13.79,3-31,7.73-44.88,2.75-4.84-1.73-10.09-4.68-13.26-8.77-2.57-3.33-2.87-8.85-7.09-10.66" transform="translate(-5.17 -21.07)"/><path class="cls-4" d="M515.61,102.27c8.11-7,16.8-11.46,27.9-11.35s21.28,5.84,32.06,1c-6.47,11.21-22.79,17.33-35,18.32-11.21.92-17-5.23-26.86-7.94" transform="translate(-5.17 -21.07)"/><path class="cls-3" d="M502.34,110.48c1.62-2.93,1.94-6.33,2.69-9.54a49.66,49.66,0,0,1,2.71-7.83c1.93-4.5,4.64-8.73,8.74-11.53a23.38,23.38,0,0,1,8.36-3.43c.66-.15,2.09,1.19,1.17,1.39a21.3,21.3,0,0,0-12.71,7.8,31.53,31.53,0,0,0-3.59,6.22,47.1,47.1,0,0,0-2.8,7.83c-.85,3.41-1.15,7.06-2.88,10.19-.35.62-2.06-.44-1.69-1.1Z" transform="translate(-5.17 -21.07)"/><path class="cls-3" d="M507.44,94c3.38-9.18,3.52-16.56,13.69-20.35s21.15-4,31.5-2.1c-4.7,7.06-8.26,11.28-16.82,15.48-5.06,2.48-10.89,3.67-16.55,4.5-2.92.43-8.23-.16-9.93,2.47" transform="translate(-5.17 -21.07)"/><path class="cls-3" d="M385.91,139.37c.21-.36.78-.58,1.12-.77s1-.52,1.47-.75a23.92,23.92,0,0,1,13.41-1.45c9.84,1.48,19.14,6.5,27.13,12.25a39,39,0,0,1,10.46,10.74,51.84,51.84,0,0,1,3.56,6.76c.25.54.49,1.08.72,1.63a2.74,2.74,0,0,1,.42,1.26.63.63,0,0,1-.16.35c1.49,1.15,2.93,2.37,4.29,3.65A57.25,57.25,0,0,1,460,188.48a49.54,49.54,0,0,1,4,10.1,30.89,30.89,0,0,1,1,5.47c0,.36.05.73.07,1.09a2.68,2.68,0,0,1,0,1c-.17.31-.59.3-.89.26-.74-.1-2-.63-2.07-1.47,0,0,0,0,0,0v0c-.11-7.28-3.16-14.32-6.94-20.43a54.72,54.72,0,0,0-13.9-15c-11-8.15-25.34-12.09-38.75-8.19a42.84,42.84,0,0,0-4.94,1.8c-.77.34-1.52.7-2.26,1.08a9.79,9.79,0,0,1-2.17,1.14,2.55,2.55,0,0,1-2.38-1.09.53.53,0,0,1,.06-.76,10.46,10.46,0,0,1,2.28-1.24,41.79,41.79,0,0,1,20.19-4.44,52.75,52.75,0,0,1,27.4,9.2,41,41,0,0,0-7.14-11.74,54.89,54.89,0,0,0-12.32-9.3,56,56,0,0,0-14.3-6.31c-4.93-1.31-10.3-1.81-15.18,0a16.07,16.07,0,0,0-1.6.69c-.57.28-1.13.74-1.72,1a2,2,0,0,1-1.85-.45C386.14,140.47,385.62,139.89,385.91,139.37Z" transform="translate(-5.17 -21.07)"/><path class="cls-4" d="M416.69,142c-3.91-8.2-18.05-12.91-26.48-10.89-8.92,2.13-17.91,13.4-27.83,10.6,9.3,6.28,18.3,9.18,29.78,8.36,4.88-.35,9-1.82,13.43-3.52,3.27-1.26,8.15-4.34,11.57-2.66" transform="translate(-5.17 -21.07)"/><path class="cls-5" d="M419,184.19c1.67-1,5.61-1.72,9.47-1.72a14.12,14.12,0,0,1,6.52-1.85c5.58-.31,9,1.65,11.06,3.59,10.31-3.62,14.67,7.4,9,22.19-1.42,3.7.65,28.93-11.18,22.13,1.19.59-.16,3.59-3.25,4.43-3.25.89-7.86-.24-9.67-3.12l-.57-1c-1.34-1.07-3.78,3.78-7.57-.48-3.22-3.62-3.28-14.2-5-18.69C415,202.14,409.92,189.59,419,184.19Z" transform="translate(-5.17 -21.07)"/><path class="cls-3" d="M436,181.2c3.28,1.1,7.68,2.81,8.95,6.18-2.15,1-4.35-.31-6.05-1.65,1.67,3.61-1.75,4.7-3.29,1.29-1.07,1.82-5.86,3.64-5.56,0,.19-2.15,5.09-4.71,6.89-4.91" transform="translate(-5.17 -21.07)"/><path class="cls-3" d="M437.52,183.92c0-3.54-.44-7.65,2.64-10.16a7,7,0,0,1,8.17-.46,6.82,6.82,0,0,1,2.87,4.21.94.94,0,1,1-1.82.5,6.33,6.33,0,0,0-.28-.94c-.11-.29.08.15-.05-.13,0-.05-.05-.11-.08-.17s-.18-.32-.27-.48-.17-.25-.26-.37c.08.11-.16-.18-.19-.22l-.31-.32-.17-.15s-.26-.21-.11-.1a7,7,0,0,0-.73-.47l-.39-.19s-.17-.07,0,0l-.28-.1a6.1,6.1,0,0,0-.84-.22l-.21,0c.18,0,0,0,0,0l-.51,0a4.32,4.32,0,0,0-1.64.22c-.14.05-.28.09-.42.15s-.05,0,0,0l-.24.12a5.59,5.59,0,0,0-.84.52l-.24.2a5.44,5.44,0,0,0-.42.41,4.37,4.37,0,0,0-.61.85,6.4,6.4,0,0,0-.72,2.09,32.09,32.09,0,0,0-.13,5.3.94.94,0,0,1-1.88,0Z" transform="translate(-5.17 -21.07)"/><path class="cls-6" d="M426.75,224.68c1.85-5.31-2.61-10.8-4.8-15.3-2.4-4.92-4.42-10.5-3.19-16,.56-2.51,1.51-4.24,4.16-5,3.85-1,4.69,1.67,5.3,5,.84,4.51.23,10.24,0,15-.14,2.93-.5,6-.52,8.92,0,2.42.86,5.14-1,7.17" transform="translate(-5.17 -21.07)"/><path class="cls-6" d="M438.58,195.11c-2.25,6.45,0,15.86,1.33,22.36.63,3.11,1.46,12.13-4.6,10.69-6.24-1.47-.5-19.9-.28-24.47.11-2.24.07-4.57.3-6.8.09-.92.06-2.62.82-3.28s2-.85,1.84.91" transform="translate(-5.17 -21.07)"/><path class="cls-5" d="M400.71,99c1.67-1,5.6-1.73,9.46-1.72a14.2,14.2,0,0,1,6.53-1.85c5.57-.31,9,1.65,11.06,3.59,10.31-3.62,14.67,7.4,9,22.18-1.42,3.71.65,28.94-11.18,22.13,1.18.6-.16,3.6-3.25,4.44-3.26.89-7.87-.24-9.67-3.13l-.57-.95c-1.34-1.07-3.79,3.78-7.57-.48-3.22-3.62-3.28-14.2-5-18.69C396.69,117,391.59,104.43,400.71,99Z" transform="translate(-5.17 -21.07)"/><path class="cls-3" d="M417.7,96c3.29,1.1,7.69,2.82,9,6.19-2.15,1-4.36-.31-6.06-1.65,1.68,3.61-1.74,4.7-3.28,1.28-1.07,1.82-5.86,3.65-5.56,0,.18-2.15,5.08-4.71,6.89-4.91" transform="translate(-5.17 -21.07)"/><path class="cls-3" d="M419.18,98.75c0-3.53-.43-7.65,2.64-10.16a7,7,0,0,1,8.17-.45,6.8,6.8,0,0,1,2.88,4.21.94.94,0,1,1-1.82.5,6,6,0,0,0-.28-.94c-.11-.29.08.15,0-.13a1.3,1.3,0,0,1-.08-.17c-.09-.16-.18-.32-.28-.48s-.16-.25-.25-.37l-.2-.23-.31-.31-.16-.15-.12-.1a5,5,0,0,0-.72-.47l-.39-.19s-.17-.07,0,0l-.28-.1a6,6,0,0,0-.83-.23l-.21,0c.17,0,0,0,0,0l-.52,0a4.1,4.1,0,0,0-1.63.22l-.42.14c-.17.07-.05,0,0,0l-.24.11a6.66,6.66,0,0,0-.85.52c.11-.08-.19.17-.24.21l-.41.41a4.62,4.62,0,0,0-.61.84,6.23,6.23,0,0,0-.72,2.1,31,31,0,0,0-.13,5.29,1,1,0,0,1-1.89,0Z" transform="translate(-5.17 -21.07)"/><path class="cls-6" d="M408.42,139.52c1.85-5.31-2.61-10.8-4.81-15.3-2.39-4.93-4.41-10.5-3.18-16,.55-2.51,1.5-4.24,4.15-5,3.85-1,4.7,1.68,5.31,5,.84,4.51.23,10.24,0,15-.14,2.93-.5,6-.53,8.91,0,2.43.86,5.15-.95,7.18" transform="translate(-5.17 -21.07)"/><path class="cls-6" d="M420.25,110c-2.26,6.45,0,15.86,1.33,22.36.62,3.11,1.45,12.12-4.61,10.69-6.24-1.47-.49-19.9-.27-24.47.11-2.24.06-4.57.3-6.81.09-.91.06-2.62.82-3.28s2-.84,1.84.92" transform="translate(-5.17 -21.07)"/><path class="cls-5" d="M531.91,152c-1.66-1-5.6-1.72-9.46-1.72a14,14,0,0,0-6.52-1.84c-5.58-.31-9,1.65-11.07,3.58-10.3-3.61-14.67,7.4-9,22.19,1.43,3.7-.64,28.93,11.18,22.13-1.18.59.17,3.59,3.26,4.44,3.25.88,7.86-.24,9.67-3.13l.56-1c1.35-1.07,3.79,3.79,7.58-.47,3.22-3.63,3.28-14.21,5-18.7C535.93,170,541,157.42,531.91,152Z" transform="translate(-5.17 -21.07)"/><path class="cls-3" d="M514.92,149c-3.28,1.1-7.69,2.81-8.95,6.18,2.14,1,4.35-.31,6-1.65-1.67,3.62,1.75,4.71,3.29,1.29,1.06,1.82,5.86,3.64,5.55,0-.18-2.15-5.08-4.71-6.88-4.91" transform="translate(-5.17 -21.07)"/><path class="cls-3" d="M513.44,151.74c0-3.54.43-7.65-2.64-10.16a6.94,6.94,0,0,0-8.17-.45,6.79,6.79,0,0,0-2.87,4.21,1,1,0,0,0,.65,1.15.94.94,0,0,0,1.16-.65,9.5,9.5,0,0,1,.28-1c.11-.29-.07.15.06-.12a.89.89,0,0,1,.08-.17,4.67,4.67,0,0,1,.27-.49l.26-.37c-.08.11.15-.18.19-.22s.2-.22.31-.32l.16-.14.12-.1a4.76,4.76,0,0,1,.73-.47l.39-.2s.16-.06,0,0l.28-.11a5.75,5.75,0,0,1,.84-.22l.21,0c-.18,0,0,0,0,0l.52,0a4,4,0,0,1,1.64.22l.41.14c.18.07.06,0,0,0l.24.11a5.22,5.22,0,0,1,.85.52c-.11-.08.2.17.24.2a5.55,5.55,0,0,1,.42.42,5.16,5.16,0,0,1,.61.84,6.37,6.37,0,0,1,.72,2.1,30.91,30.91,0,0,1,.12,5.29,1,1,0,0,0,1.89,0Z" transform="translate(-5.17 -21.07)"/><path class="cls-6" d="M524.21,192.51c-1.85-5.31,2.61-10.8,4.8-15.31,2.4-4.92,4.41-10.49,3.19-16-.56-2.51-1.51-4.23-4.16-4.95-3.85-1-4.69,1.68-5.3,5-.84,4.5-.24,10.23,0,15,.14,2.93.5,6,.52,8.92,0,2.42-.86,5.14,1,7.17" transform="translate(-5.17 -21.07)"/><path class="cls-6" d="M512.38,162.94c2.25,6.44,0,15.86-1.34,22.36-.62,3.11-1.45,12.12,4.61,10.69,6.24-1.48.5-19.91.28-24.48-.11-2.23-.07-4.56-.3-6.8-.1-.92-.06-2.62-.82-3.28s-2-.85-1.84.91" transform="translate(-5.17 -21.07)"/><path class="cls-4" d="M415.27,159.07c-7.88-7.77-21.25-3.39-28.67,2.58-5.15,4.14-7.32,10-12.51,13.88-4.92,3.67-11.86,7.69-18.21,7.66,13.53,2.87,27.18,9.82,40.45,1,5.15-3.43,8.52-8.18,11.39-13.63,2.14-4.06,3.25-10.9,9-10.51" transform="translate(-5.17 -21.07)"/><path class="cls-3" d="M445,171.61c-5.85-5-13.75-4.7-20.6-2-7.14,2.77-13.77,8.14-17.31,15a17.89,17.89,0,0,0-1.94,11.47c.28,1.52-2.9,1.11-3.15-.25-1.49-8.09,3.15-15.78,8.92-21.05,6.25-5.7,14.73-9.62,23.3-9.35a20.78,20.78,0,0,1,12.83,4.83c1.6,1.36-.89,2.36-2,1.37Z" transform="translate(-5.17 -21.07)"/><path class="cls-3" d="M406.65,179.26c-11.19,3.08-11.94,12-9.95,21.1s4.21,16.4,4.74,25.9c8.27-5.56,13.49-14,13.55-23.53,0-6.81-7.47-17.41-5.31-22.78" transform="translate(-5.17 -21.07)"/><path class="cls-3" d="M446.78,117.44c.5-5.84-.86-11.73-1.64-17.49-.73-5.47-1.28-11.39.89-16.62.54-1.3,3.62-.4,3.11.84-2.22,5.35-1.52,11.33-.74,16.9s2,11.43,1.5,17.21c-.12,1.3-3.24.58-3.12-.84Z" transform="translate(-5.17 -21.07)"/><path class="cls-7" d="M482.93,120.3c-3.33,12.2,5.79,25.25.17,37.23-5,10.63-16.81,9.31-24.43,16.56l-.28,1.33a1.61,1.61,0,0,0-.33.06,1.66,1.66,0,0,0-.27.13c0-9.05-1.87-20.74,1.24-29.65C463.24,133.93,476.89,130.51,482.93,120.3Z" transform="translate(-5.17 -21.07)"/><path class="cls-7" d="M435.61,150.77c11.05,3.08,16,11.18,22.16,21a1.13,1.13,0,0,0,0,.18c.19.58.38,1.16.56,1.74-7.9-3.12-21.51,1.37-29.07-1-15.32-4.69-19.23-17.45-26.43-30.67C413.7,148,424.35,147.63,435.61,150.77Z" transform="translate(-5.17 -21.07)"/><path class="cls-3" d="M453.61,276.63c0-7.5-.9-15.32-6.18-21.08a24.49,24.49,0,0,0-21-7.42,20.28,20.28,0,0,0-11.52,5.23c-.7.66-3.6-.5-2.91-1.15,6.32-6,15.88-6.84,24-4.83s15.82,7.56,18.78,15.75c1.65,4.57,1.9,9.51,1.91,14.33,0,.76-3.11.24-3.11-.83Z" transform="translate(-5.17 -21.07)"/><path class="cls-4" d="M433.18,246c-30.57-18.86-34.78,23.65-58.16,31.1,12.27-.63,25.25,4.05,37.39-1.13,6-2.58,12.35-9.94,15.27-15.55,2.29-4.38,2.74-13,9.29-12.9" transform="translate(-5.17 -21.07)"/><path class="cls-3" d="M455.16,274.77c-.16-11.69-9.89-26.41-18.45-32.79a45.38,45.38,0,0,0-7.17-4.41A30.47,30.47,0,0,0,426,236l-.87-.32-.58-.21s.47.16.1,0c-.73-.23-1.47-.46-2.21-.66-.19-.05-.88-.22-.32-.09l-1-.23c-.69-.15-1.38-.28-2.08-.39-.5-.08.4.05-.1,0l-.45-.06c-.34-.05-.69-.08-1-.12l-1.68-.13a29.42,29.42,0,0,0-7.77.7A26.18,26.18,0,0,0,393,244.28c-1,1.24-6.89-1.15-6-2.32,8.07-10.51,21.23-12.37,33-9.82,12.48,2.71,24.78,9.77,32.56,20.94a34.23,34.23,0,0,1,6.38,19c0,1-4.52,4.6-4.55,2.67Z" transform="translate(-5.17 -21.07)"/><path class="cls-3" d="M411.2,230.8c-10.32-6.19-20.93-2.75-27.46,5.9C376,247,369.53,255.2,359.11,263.45c11.95-.65,23.08,5,33.3-3.78,5.08-4.38,12.84-29.16,19.55-26.59" transform="translate(-5.17 -21.07)"/><path class="cls-3" d="M454.31,280.8c3-10.78,13.52-18.7,24-21.31a41.45,41.45,0,0,1,14.48-.62,62.22,62.22,0,0,1,15.64,3.7c5,1.94,10,4.65,13.35,8.93.21.27-.4.34-.49.35a7.63,7.63,0,0,1-4.55-1.2c-.51-.32-.32-.56.17-.65a3.47,3.47,0,0,1,2,.55l.45.1L519,271c-2.75-3.5-6.8-5.85-10.87-7.51a52.45,52.45,0,0,0-13.84-3.42,38.89,38.89,0,0,0-13.18.46,35.71,35.71,0,0,0-14.13,7.05,27.9,27.9,0,0,0-9.72,14c-.18.65-3.08-.12-2.9-.78Z" transform="translate(-5.17 -21.07)"/><path class="cls-3" d="M480.47,260c-.62-11.7,26.22-6.19,31.76-3,12,6.95,19.15,21.16,31.57,27.06-13.35,1.84-28.89,1.66-41.42-3.88-5.19-2.3-10-4.9-13.39-9.62-2.52-3.48-3.43-8.7-7.82-9.85" transform="translate(-5.17 -21.07)"/><path class="cls-3" d="M275.8,298.93c1.66,2.89,1.75,6.24,2.38,9.53.49-.18,1-.33,1.48-.46.11-9.52.67-20.35,4.61-28.2,3.43-6.85,8.86-11.36,8.37-20.5-5.82-1.95-7.45,6.34-11.16,9.79,2.2-13.75,9.66-27.53,10.42-41.76.93-17.22-9.67,7-12.33,12.36.14-7.27,2-35.43-3.16-39.82-7.44-6.35-6.74,27.11-7.1,32-2.75-7.84-9.1-20.52-17.4-18.81-5.65,15.48,10.27,29.35,16.4,40.63-2.7-.27-25-10.7-18.46,2.33,3.61,7.19,16.14,6.11,21.06,14.17-5-1.87-15.06-4.12-18.87,1.64,4,10.26,15.3,7,21,15.84-4-.83-7.93-2.46-12-.75C264.47,292.05,272.57,293.27,275.8,298.93Z" transform="translate(-5.17 -21.07)"/><path class="cls-4" d="M301.65,258.2c2.43-5.39,13.05-25.74,9.69-31-4.85-7.64-14.79,17.67-16.68,21.21-.05-6.93-1.89-18.89-10.08-20.84-10.1,9.39.18,26,2.26,36.78-2.4-1.25-19.65-17.73-17.74-5.44,1,6.79,12.93,10.86,14.92,18.8-4-3.33-12.57-8.94-17.9-6.11.45,9.23,11.89,11.17,14.3,20-3.38-2.15-6.52-4.92-10.8-5.22,1.57,5.15,8.64,9.21,9.83,14.71.55,2.5-.17,4.8-.65,7.18a18.05,18.05,0,0,1,2.05-.51c3-6.64,6.8-13.68,12.45-17.7,5.33-3.78,11.75-5,14.19-12.08-4.74-3.72-8.87,1.85-13.37,3,6.37-9.43,17.6-16.85,22.8-27.2C323.22,241.22,305.79,255.23,301.65,258.2Z" transform="translate(-5.17 -21.07)"/><path class="cls-7" d="M273.15,302.39c2.1,1.72,2.94,4.13,4.14,6.42a15.51,15.51,0,0,1,1.48-.56c-1.93-7.43-3.68-16-1.6-23.09,1.83-6.27,6.08-11.25,3.63-18.28-6,0-5.81,6.95-8.63,10.64-.85-11.35,3.35-24.13,1-35.47-2.84-13.73-7.81,8.07-9.21,13-1.44-5.73-5.74-28.27-11.66-30.34-8.55-3-.63,23,.08,27-4.34-5.4-13.21-13.64-20.84-10.09-2.1,13.62,16.25,20.24,24.59,27.44-2.65.51-26.41-1.72-17.29,6.74,5,4.67,16.89.49,23.37,5.49-5.17-.15-15.4.79-17.83,6.31,6.08,7,16.25,1.38,23.63,6.82-4,.4-8.17.18-11.71,2.6C260.74,300,268.8,298.82,273.15,302.39Z" transform="translate(-5.17 -21.07)"/><path class="cls-3" d="M557.91,145.94s9.31,1.84,15,14.07-2.36,28.71-2.83,34.82a29,29,0,0,1-2.35,9.89s-5.18-11.3-10.35-26.83S557.91,145.94,557.91,145.94Z" transform="translate(-5.17 -21.07)"/><path class="cls-3" d="M237.77,452.16c-10.74-6.38-11.38-19.67-11.91-30.45-.47-9.44-3.2-20.86-14.85-20.35,1.34-6.67-7.95-17.05-15.08-13.33-1.3-7.48-15.06-7.11-18.65-2-2.07,3-2.23,7.69-.88,11,1.93,4.67,7.65,5.85,9.49,10,1.31,3-.69,6.56-.66,9.55,0,4.2,1.83,7.59,4.64,10.59,7.7,8.2,18,9,27.07,14.77,6.89,4.39,12.66,13.55,20.45,16,.75-.25.07-.43.38-1" transform="translate(-5.17 -21.07)"/><path class="cls-3" d="M248.59,446.76c2.5-2.5,6.17-3.56,8.94-5.71s4.17-4.65,5.79-7.52c2.95-5.27,5.15-10.54,5.82-16.6.46-4.18-1.08-7.93-2.58-11.86-.87-2.29-2.48-4.24-1.77-6.64.66-2.24,3.53-4.64,4.64-6.82s2.35-5.21,1.69-7.81c-.77-3-3.91-3.61-5.31-5.88,6.2-5.64,5-14.48-.75-19.88-6.43-6-18.49-2-19.83,6.59-10.61-5-18.44,16.46-18.2,23.59.25,7.29,5.67,14,9,20.17,7.74,14.45,4.22,27-2,41.35" transform="translate(-5.17 -21.07)"/><path class="cls-7" d="M327.36,400.42c-6.56-7.5-21.25-4.06-28.16,1.24,5.73-5.52-7.93-4.23-10.35-3.23-6.06,2.49-5.94,6.64-8.93,11.5-1.29-4.69-7.18-3.62-10.6-2.21-4.56,1.87-6.67,5.09-9.58,8.87-3.24,4.22-6.26,9-7.8,14.17-1.13,3.79-1.31,7.79-2.7,11.54-1.45,3.91-5.89,8.29-4.74,12.73l3,5.54c1.43-.33,2.86-.7,4.28-1.07,4.5-5,14.21-5.91,19.91-6.74,8.59-1.26,19.56-4.14,22.22-13.82,6-.93,11,.18,16.83-2.61,2.75-1.31,5.82-3.42,6.26-6.79.35-2.66-1.45-4.27-2.51-6.54C321.69,418.35,336.57,410.93,327.36,400.42Z" transform="translate(-5.17 -21.07)"/><path class="cls-4" d="M241.12,461.59c.56,0,1.13-.09,1.71-.16a59.89,59.89,0,0,0,6.73-1.37c-8.32-24.07-18.41-49.47-44.31-54.48-3.82-.74-2.75.63-6.95-1.17-2.57-1.09-5-4.69-8-6-6.26-2.82-14.24-2.67-20,1.19-13.16,8.78-5.87,26.12,9.1,24.81-6.45,6.18-4.51,13,1.94,17.69,8.15,5.88,14.11-1.18,21.84,1.95-6.55,15,10.45,7.78,15.55,8.49,2.77.38,9.68,4.35,13.33,5.5A70.07,70.07,0,0,1,241.12,461.59Z" transform="translate(-5.17 -21.07)"/><path class="cls-7" d="M243.9,456.59c-13.29-.7-23.4-11.28-29.61-22.19-1.41-2.47-2.5-5.08-3.85-7.57a51.4,51.4,0,0,0-4.63-7,47.86,47.86,0,0,0-13.42-12.1c-5.66-3.26-12.16-4.52-18.4-2.18-.43.16-1.82.64-1.83,1.23s1.13.24,1.41.14c5.27-2,11-.31,15.7,2.38a46.89,46.89,0,0,1,13.42,12.07,50.43,50.43,0,0,1,4.53,6.85c1.33,2.44,2.4,5,3.77,7.43a55.14,55.14,0,0,0,11.59,14.54c5.28,4.6,11.71,7.74,18.77,8.11a3.86,3.86,0,0,0,2.28-.79c.25-.17,1.06-.91.27-1Z" transform="translate(-5.17 -21.07)"/><path class="cls-7" d="M245.94,394.42c14.28-4.68-9.41-32.75-20.64-18.41-10.21-20.38-43.75,6.47-8.46,22.34-18.86,11.61-6,21,7.17,27.76-13.08,14.78,7,25.31,18.44,35.36l.38,0a59.57,59.57,0,0,0,6.46-1.3c1.76-13.41,9.42-22.51,12.59-36.21C264.23,413.75,261.7,390,245.94,394.42Z" transform="translate(-5.17 -21.07)"/><path class="cls-4" d="M305,381.48c4.83-6,4.92-13.33-3.38-16.59-9.61-3.78-15.48,4.13-18,11.69-5.4-8.4-19.7,2.24-23.42,7.3-5,6.76-1.9,13.83-2.53,21.52-.38,4.69-4,7.53-6.74,11a43.58,43.58,0,0,0-7.84,14c-1.83,5.91-.81,10.58.88,16.34.49,1.67.48,10.73,1.28,14.26,2.33-.45,4.64-1.05,6.94-1.64,5-3.73,10.67-10.19,13-12.09,5.12-4.17,6-11.28,10.78-15.2,5-4.1,12.4-3.33,17.77-7.75,6.21-5.11,6.88-10.52,4.21-17.59,7.31-2.72,16.61-7,18.85-15.35C319.29,382.06,312.41,381.93,305,381.48Z" transform="translate(-5.17 -21.07)"/><path class="cls-7" d="M250.85,457.74c0-7.54,0-15.79,5.18-21.86,4.17-4.88,10.6-6.85,15.24-11.16,4.37-4.07,5.67-9.86,6.8-15.48,1.22-6,2.76-11.86,7.53-16.06,2.93-2.58,6.41-4.63,8.76-7.82,2.53-3.44,2-7.61,3.27-11.48,0-.09-2.11-.29-2.32.33-1.21,3.61-.68,7.6-2.9,10.88-1.94,2.86-4.88,4.85-7.54,7a21.24,21.24,0,0,0-6.09,7.23,34.4,34.4,0,0,0-2.56,8c-1.22,5.67-2,11.74-6,16.28-4.18,4.82-10.67,6.74-15.23,11.13-6.34,6.11-6.5,15.14-6.5,23.36,0,.32,2.32.17,2.32-.33Z" transform="translate(-5.17 -21.07)"/><path class="cls-4" d="M241.61,456.06c-9.78-5.28-9.22-19-5.88-28.25,2.11-5.83,4.29-11.63,4.23-17.93a21.15,21.15,0,0,0-8.22-16.31,38.5,38.5,0,0,0-5-3.34,11.37,11.37,0,0,1-3.82-2.9c-1.68-2.43-.81-5.85-2.81-8.18-.57-.66-1.94-1.54-2.84-1s-.21,1.76.27,2.31c-.23-.25-.26-.5-.17-.08,0,.2.11.4.15.6.15.71.27,1.43.42,2.14a13.5,13.5,0,0,0,1.54,4.4c1.92,3.07,5.32,4.73,8.31,6.55a15.81,15.81,0,0,1,8.18,14.42c.06,6.31-2.52,12.07-4.48,17.92A34.79,34.79,0,0,0,229.9,443,21.83,21.83,0,0,0,241,458.86c.69.37,2,.74,2.31-.28s-1-2.13-1.69-2.52Z" transform="translate(-5.17 -21.07)"/><path class="cls-8" d="M364.87,242.83s-7.06,28.24-18.36,40.95S331,303.54,331,303.54l46.59-28.23,4.24-31.06" transform="translate(-5.17 -21.07)"/><path class="cls-8" d="M340.87,295.07c-8.2-5.83-11.7-16.88-22.7-16.49A35.2,35.2,0,0,0,315.46,296c.81-6.86-4-11.58-10.84-10.74-4.69,5.53-.43,11.65-.36,17.5-6.05-18.27-15.35,6.51-7.16,9.21" transform="translate(-5.17 -21.07)"/><path class="cls-9" d="M39.26,334.84,42.83,487.4s17,31.23,72.27,25.88,65.13-23.2,65.13-23.2l5.35-155.24Z" transform="translate(-5.17 -21.07)"/><path class="cls-10" d="M37.72,335.18l.18,7.93.49,20.56.66,28.5.73,31.24.7,29.65L41,475.91c.09,3.78.13,7.57.27,11.36a1.82,1.82,0,0,0,.4,1.13,33.78,33.78,0,0,0,3.2,4.23,57.32,57.32,0,0,0,17.86,13.53c11.41,5.67,24.22,8,36.88,8.21a166.73,166.73,0,0,0,26.77-2A181.62,181.62,0,0,0,149,507.67c9-2.49,18-5.81,25.71-11.17a34.13,34.13,0,0,0,5.24-4.43,8,8,0,0,0,1.72-2.16,4,4,0,0,0,.12-1.42l.18-5,.65-19.12,1-27.46,1.08-31.18,1-30.34.85-24.55.5-14.47.06-1.9c0-.15-.48-.15-.5-.15H58.23c-5.9,0-11.8-.07-17.69,0h-.25a4.58,4.58,0,0,0-2.18.49c-.43.25-.52.5.12.5H178.56a44,44,0,0,0,5.74,0h.25l-.51-.15-.26,7.67-.69,20-1,27.66-1.07,31-1,29.76-.83,23.88-.47,13.68c0,.43,0,.85,0,1.28,0,.18,0,.35,0,.23a7.38,7.38,0,0,1-1.5,1.93c-3.84,4.22-9.09,7.16-14.21,9.53-11.93,5.5-25.11,8.18-38.06,9.93-15.48,2.09-31.27,2.64-46.46-1.56a65.81,65.81,0,0,1-25.23-13,48.36,48.36,0,0,1-6.11-6.2,20.79,20.79,0,0,1-2.59-3.6,2.35,2.35,0,0,1-.19-1.16l-.1-4.49-.43-18.39-.64-27-.72-30.78-.7-30.11-.58-24.61-.33-14.41-.05-1.91C40.79,334.13,37.7,334.48,37.72,335.18Z" transform="translate(-5.17 -21.07)"/><ellipse class="cls-9" cx="108.14" cy="312.43" rx="73.16" ry="20.07"/><path class="cls-11" d="M184.9,333.58c0,2.41-1.71,4.38-3.48,5.83a34,34,0,0,1-9.69,5.14c-10.74,4.06-22.41,5.85-33.79,7a252.21,252.21,0,0,1-44.14.43c-12-.92-24.19-2.58-35.68-6.31a46.88,46.88,0,0,1-11-4.95c-2.11-1.37-4.44-3.27-5.15-5.8-1.58-5.63,6-9.43,10-11.21,9.93-4.4,21-6.32,31.74-7.63a248.57,248.57,0,0,1,43.81-1.35c12.59.7,25.3,2.17,37.46,5.59A62,62,0,0,1,177.35,325c2.5,1.34,5.2,3.05,6.67,5.56a6,6,0,0,1,.88,3c0,1.2,3.17,1.08,3.15-.16,0-2.66-1.76-4.89-3.7-6.56a34.36,34.36,0,0,0-10-5.57c-11.2-4.38-23.39-6.3-35.29-7.51a256.87,256.87,0,0,0-46.07-.46c-12.55,1-25.3,2.76-37.27,6.8a46.58,46.58,0,0,0-11.52,5.39c-2.22,1.54-4.59,3.61-5.33,6.32-1.7,6.29,6,10.52,10.58,12.64,10.28,4.72,21.85,6.74,33,8.15A252.78,252.78,0,0,0,128.33,354c13.08-.75,26.31-2.34,38.92-6a61.43,61.43,0,0,0,12.94-5.13c2.68-1.51,5.46-3.45,7-6.2a6.88,6.88,0,0,0,.88-3.28C188.07,332.23,184.91,332.33,184.9,333.58Z" transform="translate(-5.17 -21.07)"/><ellipse class="cls-12" cx="108.14" cy="312.43" rx="73.16" ry="20.07"/><path class="cls-10" d="M184.93,333.18c0,2.49-1.63,4.54-3.46,6.09a33.75,33.75,0,0,1-9.6,5.3c-10.6,4.17-22.2,6-33.48,7.19a251.71,251.71,0,0,1-44.35.68c-12-.87-24.32-2.42-35.83-6.17a45.5,45.5,0,0,1-11.11-5c-2.14-1.41-4.44-3.32-5.18-5.9-1.67-5.8,5.72-9.77,9.92-11.71,9.77-4.52,20.81-6.47,31.41-7.85a245.23,245.23,0,0,1,43.93-1.59c12.65.63,25.46,2,37.69,5.44a59.64,59.64,0,0,1,12.41,4.71c2.55,1.36,5.24,3.13,6.74,5.68a6.36,6.36,0,0,1,.91,3.12c0,.72,3.1,1,3.09.64,0-2.62-1.73-4.73-3.63-6.36a35.38,35.38,0,0,0-10.07-5.55c-11.13-4.41-23.33-6.37-35.18-7.61a257.45,257.45,0,0,0-45.87-.68c-12.61.93-25.44,2.61-37.49,6.57a47.32,47.32,0,0,0-11.61,5.26c-2.2,1.47-4.55,3.45-5.33,6.1-1.77,6.08,6.12,10.27,10.5,12.28,10.27,4.71,21.82,6.8,33,8.25A252.58,252.58,0,0,0,128,353.72c13.15-.68,26.47-2.19,39.17-5.78a62.85,62.85,0,0,0,13-5c2.65-1.44,5.46-3.29,7-6a6.42,6.42,0,0,0,.9-3.16C188,333.12,184.93,332.78,184.93,333.18Z" transform="translate(-5.17 -21.07)"/><path class="cls-13" d="M113.76,338c-23.89,0-44.67,3-55.32,7.48,13.41,4.17,33,6.8,54.87,6.8,22.13,0,42-2.7,55.38-7C157.94,341,137.37,338,113.76,338Z" transform="translate(-5.17 -21.07)"/><path class="cls-14" d="M63.56,487.89c-7.62-16.66-6.08-128.19-5.87-141.22-10.45-3.2-17.15-7.31-18.25-11.83H38.37L42,486.12s17.09,31,72.88,25.65a209.81,209.81,0,0,0,30.05-4.86C120.64,508.49,70.52,503.09,63.56,487.89Z" transform="translate(-5.17 -21.07)"/><path class="cls-15" d="M128.28,365.93a6.94,6.94,0,0,0-12.64.33h-2.73c-42.16,0-76.33-8.68-76.33-19.39v6c0,10.71,34.17,19.4,76.33,19.4l3,0a6.93,6.93,0,0,0,12.31-.32c34.39-1.57,59.1-8.4,59.1-17.76v-6C187.37,357.54,162.66,364.37,128.28,365.93Z" transform="translate(-5.17 -21.07)"/><path class="cls-10" d="M129.6,365.3c-3.22-6.26-12.58-5.35-15.35.81l1.52-.89A255.3,255.3,0,0,1,71.07,362a125.6,125.6,0,0,1-16.7-3.88,45.68,45.68,0,0,1-11.48-5c-2.17-1.41-4.81-3.59-4.84-6.33,0-1.49-2.93-1-2.93.24v5.53a7.25,7.25,0,0,0,.85,3.68c1.78,3.26,5.53,5.27,8.76,6.8a79.73,79.73,0,0,0,16.8,5.4A191.09,191.09,0,0,0,84.7,372a294.08,294.08,0,0,0,31.13,1.31l-1.19-.41c3.39,5.79,12,4.91,15-.81l-1.52.89c13.54-.63,27.28-1.89,40.42-5.35a56.75,56.75,0,0,0,12.94-4.81c2.6-1.43,5.42-3.33,6.71-6.12a7.73,7.73,0,0,0,.63-3.45v-5.22c0-1.49-2.91-1.05-2.93.23-.06,4.73-6.18,7.33-9.92,8.84-8.51,3.41-17.84,4.91-26.89,6.05-6.86.86-13.77,1.39-20.68,1.71-1.63.08-2.25,2.18-.27,2.08A213.94,213.94,0,0,0,164,362.72,86,86,0,0,0,176.76,359a29.83,29.83,0,0,0,8.36-4.57c1.92-1.6,3.68-3.74,3.71-6.36l-2.93.23v5.14a6.72,6.72,0,0,1-.52,3.12c-1.42,2.89-4.92,4.65-7.77,5.92a76.28,76.28,0,0,1-15.88,4.7,191.18,191.18,0,0,1-22.37,3.05q-3.57.3-7.14.51c-1.25.07-2.58,0-3.82.19s-1.38.82-2,1.66c-2.46,3.54-7.17,2.46-9.15-.92-.23-.39-.81-.41-1.19-.41-16.69.14-33.55-.85-49.95-4.14a94.43,94.43,0,0,1-17.37-5c-3.37-1.38-7.19-3.15-9.47-6.13a5.75,5.75,0,0,1-1.26-3.4c0-1.94,0-3.89,0-5.84l-2.93.24c0,2.78,1.85,4.93,3.92,6.59A37.16,37.16,0,0,0,50,359.12c12.11,4.3,25.21,6.08,38,7.17,9.17.79,18.37,1.08,27.57,1a1.83,1.83,0,0,0,1.52-.88,5.26,5.26,0,0,1,4.88-3.37,6,6,0,0,1,5,3.52C127.52,367.69,130.29,366.64,129.6,365.3Z" transform="translate(-5.17 -21.07)"/><path class="cls-11" d="M120.67,368.66l-.12.5c0,.1,0,.19-.07.28-.09.36.1-.38,0,.05s-.15.58-.23.86c-.49,1.84-1,3.66-1.62,5.48a156.22,156.22,0,0,1-7,18A126.32,126.32,0,0,1,99,415.56a82.41,82.41,0,0,1-19.36,19.37,58.8,58.8,0,0,1-26.73,10.16,57.84,57.84,0,0,1-16-.34,28.23,28.23,0,0,1-11.31-4.19c-5.43-3.7-7.75-9.9-7.81-16.3-.06-7.52,2.16-14.94,4.89-21.86a143.05,143.05,0,0,1,9.73-19.7c2.17-3.72,4.46-7.37,6.92-10.9l.35-.51c1.18-1.64-1.5-3-2.57-1.54-1.85,2.58-3.55,5.28-5.22,8a164.71,164.71,0,0,0-10.2,19.14c-3.23,7.25-6,15-6.81,22.91-.72,6.91.24,14.25,4.93,19.67,5.91,6.83,15.78,8.59,24.35,8.82a62,62,0,0,0,30.35-6.89,76,76,0,0,0,22.23-18.13,117.28,117.28,0,0,0,14.93-22.55,154.42,154.42,0,0,0,8.62-20.11c1.3-3.71,2.48-7.46,3.42-11.27l.12-.5c.43-1.83-2.73-1.9-3.13-.16Z" transform="translate(-5.17 -21.07)"/><path class="cls-16" d="M354.87,197.75c5-27.55,24.12-30.38,24.12-30.38l11.86,72.42s8.9,22-7.63,23.52c-22.78,2.07-29.65-12-29.65-12S349.87,225.3,354.87,197.75Z" transform="translate(-5.17 -21.07)"/><path class="cls-8" d="M371.22,449c-1.54.19-5.67,2.82-7.22,3a148.56,148.56,0,0,1-15.79.64c-9,0-18-.23-27,.18,8.39-3.79,15.31-7.31,16.44-9.79,2.5-5.49-39.17-111.19-25.89-134.59,10.54-18.56,93.18-9.32,93.18-9.32l-2.07,43.49-37.33-.19S366.69,404.46,371.22,449Z" transform="translate(-5.17 -21.07)"/><path class="cls-17" d="M363,472.46c-2,.11-4.08.15-6.17.15-8.56,0-16.55.39-24.9,2.44-4.18,1-8.5,1.88-12.87,2.52a140.77,140.77,0,0,1-24.15-.77c-18.12-2.59-14-11.91-3.62-13.46,5.2-.78,13.94-4.18,22.37-8.44,1.14-.58,2.28-1.17,3.4-1.78q2.07-1.11,4-2.27c1.09-.64,2.15-1.28,3.18-1.93s2.05-1.32,3-2,2-1.39,2.88-2.08a35.27,35.27,0,0,0,3.92-3.44c6.19-6.45,9.84,9.84,17.09,8.28s21.22-9.83,21.22-9.83l-1.55,30S369.1,471,363,472.46Z" transform="translate(-5.17 -21.07)"/><path class="cls-8" d="M378.06,470.93,405,461.61s93.86-59.72,126.32-74.89c4.92,15.54,14,40.34-2.59,53.1-1.42,1.08-2.89,2.11-4.38,3.12,1.89-5.11,2.2-9.27-1.32-10.32-10.35-3.11-84.89,65.23-132.52,60.05C361.37,489.51,378.06,470.93,378.06,470.93Z" transform="translate(-5.17 -21.07)"/><path class="cls-17" d="M541.64,386.55s13.8,11.9,10.35,63.67C551.48,458,550.79,473,533.7,473s-25.19,0-25.19-7.25,15-26.92,11.39-31.06-5.7-5.17-3.11-9.83,13.12-6.73,16.57-.87c2.11,3.6,3.62-15.35-1-21.05s-9.32-6-9.32-6Z" transform="translate(-5.17 -21.07)"/><path class="cls-18" d="M403.94,410.88s-50.73,35.2-42.45,59,21.74,24.85,36.24,18.64,54.87-42.45,54.87-42.45" transform="translate(-5.17 -21.07)"/><polyline class="cls-19" points="445.36 267.64 339.75 269.71 365.63 350.12 468.13 334.93"/><path class="cls-20" d="M455.71,343.58,438.11,357l-53.84,54.87s28,20.71,49.69,33.14,39.35,10.35,39.35,10.35l47.62-49.7s46.59-33.13,47.63-62.12S544.75,298,544.75,298" transform="translate(-5.17 -21.07)"/><path class="cls-21" d="M388.2,154s46.49-7.83,97.75,34,92.68,124.13,92.68,124.13-11.31,25-56.5,35.91c-99.1,24-96.86-45.38-96.86-45.38s-7-4.41-9.58-7.61c-6.35-7.76-53.9-58.9-61.47-84.69S388.2,154,388.2,154Z" transform="translate(-5.17 -21.07)"/><path class="cls-16" d="M414.86,295c12.7,14.38,45.41,15.48,62.66,14.29a131.58,131.58,0,0,0,46-12.11c-14.33,18.75-61.08,25.8-81.26,13.72,23,13.82,43.59,14.7,69.81,16.41-22.06,6.84-46.44,7.33-68.13-2.6-8.91-4.08-22.59-19.06-22.86-24.53" transform="translate(-5.17 -21.07)"/><path class="cls-19" d="M441.9,349.79c4.14,0,74.55,28.3,57.29,22.78S455,362.22,455,362.22s44.86,31.06,23.46,22.78-40.37-28-40.37-28" transform="translate(-5.17 -21.07)"/><path class="cls-16" d="M282.62,471c1.7,1.87,5.26,3.54,11.41,4.42a139.61,139.61,0,0,0,24.41.79c4.42-.65,8.79-1.51,13-2.56,8.43-2.1,16.51-2.49,25.17-2.49.89,0,3.25.07,5.37.12q1.15,3.09,2.41,5.66c-2.74,0-6.31-.15-7.78-.15-8.66,0-16.74.4-25.17,2.49-4.23,1-8.6,1.92-13,2.57A140.6,140.6,0,0,1,294,481C281.81,479.25,279.63,474.44,282.62,471Z" transform="translate(-5.17 -21.07)"/><path class="cls-16" d="M520,439.08a7.13,7.13,0,0,0,.33-3.5c7.51.29,13.55-.1,21.64.15C542.76,438.77,528,440,520,439.08Z" transform="translate(-5.17 -21.07)"/><path class="cls-16" d="M516.61,447c.57-1.11,1.08-2.18,1.56-3.22,8.34.35,16.43,0,24.84.22C543.86,447.36,524.2,448.51,516.61,447Z" transform="translate(-5.17 -21.07)"/><path class="cls-16" d="M512.61,454.73c.46-.9.94-1.82,1.42-2.74,9.07.53,17.81,0,26.9.3C541.88,456,517.82,457,512.61,454.73Z" transform="translate(-5.17 -21.07)"/><path class="cls-16" d="M548.2,444.7c2.14-32.11-2.36-48.86-6.08-57,.1-.11.21-.22.32-.32,2.89,3.5,12.5,18.64,9.55,62.8C551.48,458,550.79,473,533.7,473s-25.12,0-25.18-7.16c3.94,1.63,11,1.64,21.39,1.64C547,467.48,547.68,452.45,548.2,444.7Z" transform="translate(-5.17 -21.07)"/><path class="cls-16" d="M338,451.6c3.45,4.49,6.56,8.28,3.45,7.59s-5.17-6.55-9.31-9c-1.68-1-3.69-2-5.5-2.89l.59-.39c1-.69,2-1.39,2.88-2.08a1.27,1.27,0,0,0,.13-.11A35.05,35.05,0,0,1,338,451.6Z" transform="translate(-5.17 -21.07)"/><path class="cls-16" d="M322.15,452.29c-.58-.33-1.2-.68-1.84-1l.75-.42c.88-.51,1.71-1,2.54-1.54a27.16,27.16,0,0,1,4.41,4.36c3.46,4.49,6.56,8.29,3.46,7.6S326.29,454.71,322.15,452.29Z" transform="translate(-5.17 -21.07)"/><path class="cls-16" d="M313.23,455.09l.4-.19c.89-.45,1.78-.92,2.66-1.39a23.53,23.53,0,0,1,2.75,2.92c3.45,4.49,6.56,8.29,3.45,7.6S317.33,457.53,313.23,455.09Z" transform="translate(-5.17 -21.07)"/><path class="cls-22" d="M387.35,99.76a6.24,6.24,0,0,0-4.69-1.55c5,4.25,9.49,9.19,10,16.13a4.18,4.18,0,0,1,0,.51,18.75,18.75,0,0,0-.79-7.27A16.47,16.47,0,0,0,387.35,99.76Z" transform="translate(-5.17 -21.07)"/><path class="cls-18" d="M366.76,123.4a11.44,11.44,0,0,0,2.67,1.7Z" transform="translate(-5.17 -21.07)"/><path class="cls-18" d="M369.1,144.48c-2.61-2.67-2.09,10.69-5.47,7.81-3.09-2.62-.25-12.46-3.7-12.51.37-4.7-1.36-19.45-4.12-23.34l10.95,7c-4.29-3.27-11.61-10.17-12.75-11.76L337.58,115c-1.73,2.16-18.19,31.16-20.81,32.9-5.48-4.66-7.37-6.13-5.79-11.95a16.4,16.4,0,0,0-3.16.65c-1.58.79-2.68-17.88-5.11-26.33-.62-2.13-13.56-14.76-13.13-17-23.25-11.51-39.26,9.08-39,13.94a21.92,21.92,0,0,1-2.32,2.76c.63,6.63-2.95,8.22-.07,15.26,2,4.81,8.25,16,11.14,21.44,9.77,18.42-1,23.59,1.45,31.26,0,0,2.12,6.71,14.47,2.12,1-.38-.54-.59,0-.7,2.53,4.72.46,1.76,3.77,6.11l.49-.13c-.17.17-.36.32-.53.51.84.86,1.77,1.71,2.76,2.55,4.64.39,8-2.69,10.8-3.4,1.06,4.59-.7,6-2.82,8.83,12.32,7,29.8,13,36.75,9.6,12.67-6.27,13.83-12.95,23.86-16.76,1.92-.74,17.14,16.95,21.28,17.19,21.76,9.77,20.79-42.71,21.1-47.25C389.91,157.34,370.24,145.65,369.1,144.48Z" transform="translate(-5.17 -21.07)"/><path class="cls-18" d="M392.68,156.56l.13,0C392.74,156.13,392.71,156.16,392.68,156.56Z" transform="translate(-5.17 -21.07)"/><path class="cls-23" d="M344.83,140.37c6.52,7.82,6.91,21.37-2.23,28.44a11.43,11.43,0,0,1-8.32,2.18c-.22-.05-.41-.16-.62-.22a7.61,7.61,0,0,0,2.07.78c2.74.56,8.22.37,10.47-1.27,8.13-6.29,6.55-18.59,2-26.54A13.66,13.66,0,0,0,344.83,140.37Z" transform="translate(-5.17 -21.07)"/><path class="cls-18" d="M342.6,168.81c9.14-7.07,8.75-20.62,2.23-28.44a11.61,11.61,0,0,0-6.77-2.1c-6.84,0-9.69,3.47-12.69,7.22l2.47,20.56a11.92,11.92,0,0,0,5.82,4.72c.21.06.4.17.62.22A11.43,11.43,0,0,0,342.6,168.81Zm.39-16.4c.15,7.11-7.52,13.46-12.84,6.65,3.74.6,5.24.63,6.12-3.37.63-2.88-.63-6.67-3.54-7.06,1,8.73-2.42,4.75-3.9-1.18l.56-.54C334.1,143.06,342.78,142.07,343,152.41Z" transform="translate(-5.17 -21.07)"/><path class="cls-23" d="M332.73,148.63c2.91.39,4.17,4.18,3.54,7.06-.88,4-2.38,4-6.12,3.37,5.32,6.81,13,.46,12.84-6.65-.21-10.34-8.89-9.35-13.6-5.5l-.56.54C330.31,153.38,333.71,157.36,332.73,148.63Z" transform="translate(-5.17 -21.07)"/><path class="cls-24" d="M281.35,100.16c-10.36,8-21.13,14-32.37,19.46a123.37,123.37,0,0,1,8-32.17,172.76,172.76,0,0,1,32.22-52.14,32.35,32.35,0,0,1,10-4.22c11.8-2.28,17.36,4.49,24.69,16,12.94-13,42,3.52,46.65,12.84,3.33,6.63,11,22.81,9.82,30.45-1.16,7.44-1.67.7-5.19-4.14,6.37,10.35,11.15,27,9.42,39.44-1.47,10.67-1.69,25.41-13.26,29.51-1.2-2.53-.38-5.17-.41-7.83-1.12,4.79-7.34,18.56-14.56,11.73-4-3.79-5.2-11-8.54-16.22-9.77-15.39-28.39-2.18-30.05,12.55-9.49-4.65-22.56-18.57-22.27-29.84-1.34,4.08-3.58,8.2-3.79,12.47C280.17,130.47,270,111.85,281.35,100.16Z" transform="translate(-5.17 -21.07)"/><path class="cls-25" d="M325.54,36.36a1.8,1.8,0,0,0,1.39-.68c.18-.22.44-.88-.1-.88a1.8,1.8,0,0,0-1.39.68c-.18.23-.44.88.1.88Z" transform="translate(-5.17 -21.07)"/><path class="cls-26" d="M274.16,120s-59.31,40-72.78,24c-12.16-14.5,18.06-8.15,41.66-31.3" transform="translate(-5.17 -21.07)"/><path class="cls-13" d="M391.69,399.54s21.18,14.12,53.65,29.65,39.53,16.94,39.53,16.94l-11.56,9.27s-37.85-2.21-59-14.92A201.45,201.45,0,0,1,379,413.66" transform="translate(-5.17 -21.07)"/><path class="cls-13" d="M390.28,372.72c0-5.65-24-87.53-29.65-86.12s-15.71,4.18-15.71,4.18,17.71,73.24,25.89,80.41S390.28,372.72,390.28,372.72Z" transform="translate(-5.17 -21.07)"/><path class="cls-13" d="M513.1,353c-4.23,1.41-42.35,50.83-33.88,55.06s18.35,9.88,26.82,2.82S528.63,384,528.63,384s-15.53,2.82-12.7-8.47,15.53-25.41,15.53-25.41" transform="translate(-5.17 -21.07)"/><path class="cls-27" d="M281.1,146.83l-16.47,3.3s3.77,8.94,12.24,7.06S281.1,146.83,281.1,146.83Z" transform="translate(-5.17 -21.07)"/><path class="cls-24" d="M274,134.36s-19.76-6.11-16.47,1.89C259.2,140.19,274,134.36,274,134.36Z" transform="translate(-5.17 -21.07)"/><path class="cls-24" d="M264.64,150.15c.19.44,4,8.87,12.23,7,.33-.08.63-.16.92-.25a1.8,1.8,0,0,0,0-.22c0-3.9-4.32-7.06-9.65-7.06a13.71,13.71,0,0,0-1.83.13l-1.35.27Z" transform="translate(-5.17 -21.07)"/><path class="cls-24" d="M374.75,90.36c3.59,7.52,6.22,5.44,7.76,13.42,1.18,6.07,4.33,26.47,12.51,26.06-5.78,2.12-10,5.85-16.58,4.92,4.24,2.73,9.23,3.15,13.81,4.4-3.82,3.94-7.59,8.58-13.54,8.76-5.42.16-9.33-3.89-14.55-5.32" transform="translate(-5.17 -21.07)"/><path class="cls-28" d="M377.19,64.23a90.26,90.26,0,0,0-5.87-7.8l-10,7.82a85.31,85.31,0,0,1-4.24-8.47c-.89-2.24,3-5.89,6-8.26-5.73-5.62-9.36-8.31-18-12.92-18.43-9.82-68-18.57-96.81,19.95-21.5,28.72-17.2,53.76-13.61,64.65.33.33.68.64,1,1a51.07,51.07,0,0,0,21.12,3.63c19.85-3.35,51.32-9.89,71.29-20.24,4.44-2.3,8.67-4.8,12.69-7.4l34.66-28.8C378.79,63.88,377.19,64.23,377.19,64.23Z" transform="translate(-5.17 -21.07)"/><path class="cls-29" d="M279.54,30.68c-1.45.59-2.9,1.19-4.33,1.83a178.19,178.19,0,0,0-20.82,34.91c-10.73,24.38-6,50.05-4.7,56.13,1.47.13,2.93.23,4.41.25-.85-2.73-6.18-21.93,1.58-48.91C260.51,58.08,271.27,41.63,279.54,30.68Z" transform="translate(-5.17 -21.07)"/><path class="cls-29" d="M303.65,40.65a99.93,99.93,0,0,0-20.84-11.31l-1.74.71c4.75,1.92,11.57,6.12,21.22,15.24,16.37,15.49,28.46,43,32.95,54.28.81-.48,1.59-1,2.39-1.47C333.65,87.61,319.15,51.55,303.65,40.65Z" transform="translate(-5.17 -21.07)"/><path class="cls-16" d="M398,154.6c-4.31-2.59-9.93-2-13.66-1.18,3.89,2,7.27,3.43,8.3,3.14-.31,4.54.66,57-21.1,47.25-2-.12-6.78-4.48-11.28-8.78,2.22,8.86,7.56,21.93,18.33,20.28C401.57,211.78,405.1,158.83,398,154.6Z" transform="translate(-5.17 -21.07)"/><path class="cls-4" d="M547.81,140.25c-9.59-2.5-13.4,15.25-12.45,19.76,1.08,5.07,3.92,9.94,4.88,15.05,1.09,5.84-.3,11.18-1.24,16.84,9.3-8.69,16.55-14.82,19.16-26.15,1.74-7.56-1.4-19.95-10.35-25" transform="translate(-5.17 -21.07)"/><ellipse class="cls-21" cx="408.01" cy="261.47" rx="15.12" ry="40.5" transform="translate(-77.32 305.89) rotate(-40.42)"/><path class="cls-5" d="M418.41,252.61c1.17,1.37,2.31,2.78,3.4,4.2l-.63-.83a98.12,98.12,0,0,1,5.89,8.53l-.49-.8a75.84,75.84,0,0,1,4.35,8.14l-.34-.74a46.93,46.93,0,0,1,2.68,7.36l-.17-.65A23.65,23.65,0,0,1,434,284v-.53a9.72,9.72,0,0,1-1.12,4.64l.21-.36a6,6,0,0,1-3.08,2.62l.39-.15a9.6,9.6,0,0,1-4.75.36l.52.08a23.64,23.64,0,0,1-6-1.83l.62.27a46.65,46.65,0,0,1-6.85-3.81l.69.46a76.28,76.28,0,0,1-7.35-5.6l.72.62a100.12,100.12,0,0,1-7.49-7.17l.71.75a107.81,107.81,0,0,1-7-8.23l.63.82a95.16,95.16,0,0,1-5.89-8.53l.49.81a75,75,0,0,1-4.35-8.15l.34.75a46.93,46.93,0,0,1-2.68-7.36l.18.65a23.28,23.28,0,0,1-.86-6.19v.52a9.68,9.68,0,0,1,1.12-4.63l-.21.36a6,6,0,0,1,3.08-2.62l-.39.15a9.6,9.6,0,0,1,4.75-.36l-.52-.08a23.24,23.24,0,0,1,6,1.83l-.62-.28a48.58,48.58,0,0,1,6.85,3.81l-.69-.45a76.11,76.11,0,0,1,7.35,5.59l-.72-.61a100.12,100.12,0,0,1,7.49,7.17l-.71-.75q1.85,2,3.6,4a8.59,8.59,0,0,0,2.11,1.82c.63.35,1.28.47,1.52.2.54-.58,0-2.25-1.41-3.91a113.92,113.92,0,0,0-9.4-9.81,88,88,0,0,0-9.36-7.6c-1.63-1.13-3.25-2.17-4.81-3.06a43,43,0,0,0-4.51-2.25,22.54,22.54,0,0,0-7.38-2,8.41,8.41,0,0,0-5.48,1.29,7.17,7.17,0,0,0-2.83,4.56A17.88,17.88,0,0,0,377,239a43.56,43.56,0,0,0,2.87,9c.75,1.73,1.58,3.51,2.53,5.32s2.08,3.73,3.26,5.63a109.82,109.82,0,0,0,7.71,10.8A117.61,117.61,0,0,0,402.63,280a96.46,96.46,0,0,0,9.43,8.14,61.71,61.71,0,0,0,9,5.69,29.28,29.28,0,0,0,7.81,2.83,15,15,0,0,0,3.5.28,9.13,9.13,0,0,0,2.93-.72,6.5,6.5,0,0,0,3.5-3.87,14.15,14.15,0,0,0,.53-6.59,36.66,36.66,0,0,0-2.27-8.66,69.93,69.93,0,0,0-4.8-10,101.75,101.75,0,0,0-7.1-10.72c-1.45-1.91-2.94-3.8-4.5-5.64a8.78,8.78,0,0,0-2.11-1.82c-.63-.35-1.28-.47-1.53-.2C416.45,249.28,417,250.94,418.41,252.61Z" transform="translate(-5.17 -21.07)"/><path class="cls-22" d="M403.41,259.41l0,0,0,0c-.15-.09-.23-.08-.23,0C403.18,259.33,403.26,259.32,403.41,259.41Z" transform="translate(-5.17 -21.07)"/><path class="cls-22" d="M403.6,260.35a1.63,1.63,0,0,0-.11-.23,1.63,1.63,0,0,1,.11.23,1.24,1.24,0,0,0,.33.44A1.24,1.24,0,0,1,403.6,260.35Z" transform="translate(-5.17 -21.07)"/><path class="cls-22" d="M401.3,253.6l-.84-1h0l.84,1Z" transform="translate(-5.17 -21.07)"/><path class="cls-22" d="M401.52,255.94l.16-.05a.54.54,0,0,1-.2,0Z" transform="translate(-5.17 -21.07)"/><path class="cls-22" d="M403.7,259.55l.07,0Z" transform="translate(-5.17 -21.07)"/><path class="cls-22" d="M403.18,259.46v0Z" transform="translate(-5.17 -21.07)"/><path class="cls-22" d="M403.52,259.46l.18.09Z" transform="translate(-5.17 -21.07)"/><path class="cls-22" d="M400.64,253.35l-.14-.58Z" transform="translate(-5.17 -21.07)"/><path class="cls-22" d="M403,256l-.06,0Z" transform="translate(-5.17 -21.07)"/><path class="cls-22" d="M402.3,255.18l0-.08Z" transform="translate(-5.17 -21.07)"/><path class="cls-22" d="M402.82,255.92l-.08-.06Z" transform="translate(-5.17 -21.07)"/><path class="cls-22" d="M403.59,256.3Z" transform="translate(-5.17 -21.07)"/><path class="cls-22" d="M402.37,254.74l.11,0Z" transform="translate(-5.17 -21.07)"/><path class="cls-22" d="M403.46,255.19v0Z" transform="translate(-5.17 -21.07)"/><path class="cls-22" d="M402.9,256a.13.13,0,0,1-.08,0A.13.13,0,0,0,402.9,256Z" transform="translate(-5.17 -21.07)"/><path class="cls-22" d="M402.53,257.21v0Z" transform="translate(-5.17 -21.07)"/><path class="cls-22" d="M403.46,258.46l0,0Z" transform="translate(-5.17 -21.07)"/><path class="cls-22" d="M403.38,258.43l0,0Z" transform="translate(-5.17 -21.07)"/><path class="cls-22" d="M402.62,257.55a.11.11,0,0,1,0-.07A.11.11,0,0,0,402.62,257.55Z" transform="translate(-5.17 -21.07)"/><path class="cls-22" d="M402.92,258l-.06-.06Z" transform="translate(-5.17 -21.07)"/><path class="cls-22" d="M402.55,257.29v.06l0,.12,0-.12Z" transform="translate(-5.17 -21.07)"/><path class="cls-22" d="M403.74,258.58l.05,0,.07.06-.07-.06Z" transform="translate(-5.17 -21.07)"/><path class="cls-22" d="M403.69,257.45a4.18,4.18,0,0,0-.31-.34h0A4.18,4.18,0,0,1,403.69,257.45Z" transform="translate(-5.17 -21.07)"/><path class="cls-22" d="M403.34,258.41l-.07,0Z" transform="translate(-5.17 -21.07)"/><path class="cls-22" d="M402.79,257.05a.72.72,0,0,0,.39.07.72.72,0,0,1-.39-.07c-.21-.1-.26-.05-.26.06C402.53,257,402.58,257,402.79,257.05Z" transform="translate(-5.17 -21.07)"/><path class="cls-22" d="M403.13,258.22l-.05-.07Z" transform="translate(-5.17 -21.07)"/><path class="cls-22" d="M403.08,258.15l-.06-.07Z" transform="translate(-5.17 -21.07)"/><path class="cls-22" d="M401.45,258l0-.12Z" transform="translate(-5.17 -21.07)"/><path class="cls-22" d="M400.23,252.19c0-.06,0-.13,0-.2a.05.05,0,0,1,0-.05c.05,0,.07-.06.09-.12-.19.16-.39.33-.61.5l.79,1.58C400.43,253.34,400.31,252.75,400.23,252.19Z" transform="translate(-5.17 -21.07)"/><path class="cls-22" d="M401.37,257.74l-.05-.14Z" transform="translate(-5.17 -21.07)"/><path class="cls-22" d="M409.15,254.53l-.54-.55,1.14,1.42c0-.1,0-.19,0-.26C409.54,254.94,409.35,254.73,409.15,254.53Z" transform="translate(-5.17 -21.07)"/><path class="cls-22" d="M401.54,258.28l0-.11,0,.11h0Z" transform="translate(-5.17 -21.07)"/><path class="cls-22" d="M403,256Z" transform="translate(-5.17 -21.07)"/><path class="cls-22" d="M401.72,258.25h0Z" transform="translate(-5.17 -21.07)"/><path class="cls-22" d="M402.26,260.65l-.07-.06Z" transform="translate(-5.17 -21.07)"/><path class="cls-22" d="M401.82,258.24Z" transform="translate(-5.17 -21.07)"/><path class="cls-22" d="M401.72,257.91l-.47-.55h0l.47.55Z" transform="translate(-5.17 -21.07)"/><path class="cls-22" d="M402.49,260.81h0a1.07,1.07,0,0,1-.19-.13A1.07,1.07,0,0,0,402.49,260.81Z" transform="translate(-5.17 -21.07)"/><path class="cls-22" d="M402,260.21a2.45,2.45,0,0,0,.12.31l0,0,0,0A2.45,2.45,0,0,1,402,260.21Z" transform="translate(-5.17 -21.07)"/><path class="cls-22" d="M409.09,251.61c-.6-.71-8.92-10.3-8.92-10.3l2.43,4.83a8.68,8.68,0,0,1,2.69,2c.42.5.72.89.94,1.19a3.93,3.93,0,0,1,.92,1.64,3.26,3.26,0,0,0,.25.49,1.63,1.63,0,0,0,.37.09,3.54,3.54,0,0,1,.6-.12.58.58,0,0,1,.25.09,1.8,1.8,0,0,1,.87.63,6.42,6.42,0,0,1,.62.57c.21.22.32.27.37.15s.11-.27.16-.41A5.75,5.75,0,0,1,409.09,251.61Z" transform="translate(-5.17 -21.07)"/><path class="cls-22" d="M402.25,254.8c-.06,0,0,.16,0,.29C402.21,255,402.19,254.85,402.25,254.8Z" transform="translate(-5.17 -21.07)"/><path class="cls-22" d="M403.07,254.78l-.07,0-.1,0,.1,0Z" transform="translate(-5.17 -21.07)"/><path class="cls-22" d="M402.41,250a1.13,1.13,0,0,0-.36,0s0,.16.06.25.2.13.23.11.12-.13.17-.2Z" transform="translate(-5.17 -21.07)"/><path class="cls-22" d="M396.92,248a1.52,1.52,0,0,1-.46-.72s0,0,.15,0,0-.11,0-.12.57.36,1.11.87l.08,0,.36-.39c-1.51-1.43-5.22-4.94-5.25-4.7s1.77,3.6,3.43,6.77c.31-.38.63-.75.94-1.1Z" transform="translate(-5.17 -21.07)"/><path class="cls-22" d="M402.51,260.65h0c-.15-.24-.34-.47-.52-.71l-.07,0h0l.07,0C402.17,260.18,402.36,260.41,402.51,260.65Z" transform="translate(-5.17 -21.07)"/><path class="cls-22" d="M403.37,255.06l-.13-.14Z" transform="translate(-5.17 -21.07)"/><path class="cls-30" d="M400.3,251a1.21,1.21,0,0,1,.42-.75c.1,0,.19,0,.24-.09h0a.64.64,0,0,1,.24,0,2.79,2.79,0,0,0,.44-.59,4.62,4.62,0,0,0-.6-.29,1.21,1.21,0,0,1-.39-.26,9.34,9.34,0,0,0-1.05,1.67,14.2,14.2,0,0,1-1.33,2l.33-.29C399.28,251.82,399.84,251.36,400.3,251Z" transform="translate(-5.17 -21.07)"/><path class="cls-30" d="M399.14,247.53l.19.08-.12-.15,0,0-.23.24Z" transform="translate(-5.17 -21.07)"/><path class="cls-30" d="M401.11,248.67c-.25-.27-.47-.5-.67-.74a4.71,4.71,0,0,1-.67-.94l0-.07h0l-.16.17a3.64,3.64,0,0,0,.6.8l.05,0A4,4,0,0,0,401.11,248.67Z" transform="translate(-5.17 -21.07)"/><path class="cls-30" d="M399.26,250.14c.59-1.12.94-1.44,1.16-1.48l-.13-.18a1.3,1.3,0,0,1-.1-.15c-.16.21-.59.75-1.2,1.5a55.59,55.59,0,0,0-2.9,4.82,14.19,14.19,0,0,1,1.65-3.72c.21-.36.44-.72.69-1.1a7.74,7.74,0,0,1,1.51-1.9l-.06-.1-.27.08h0a29.18,29.18,0,0,0-2.74,2.82c0,.21-.07.48-.1.76a33.69,33.69,0,0,1-2,4.08s.37-.8,1-2.28a6.68,6.68,0,0,0,.6-2c-1.05,1.39-2.6,3.61-2.6,3.61s.35-.69,1.74-3.11c.13-.22.26-.44.4-.64a12,12,0,0,0-1.45,2.11c-.73,1.63-1.4,2-.34,2.76s2.21-1.39,3.69-3C398,252.66,398.41,251.77,399.26,250.14Z" transform="translate(-5.17 -21.07)"/><path class="cls-30" d="M403.08,258.15l.05.07a.44.44,0,0,1,.08.11l0,0,0,0,.07,0h0l0,0h0l0,0,.14.05.14.07.05,0,.07.06c.27.19.26,0,.2-.19a2.23,2.23,0,0,1-.12-.41,1,1,0,0,0-.25-.62,4.18,4.18,0,0,0-.31-.34h-.2a.72.72,0,0,1-.39-.07c-.21-.1-.26-.05-.26.06v.1l0,.08v.06l0,.12h0a.11.11,0,0,0,0,.07,3.14,3.14,0,0,0,.24.35l.06.06.1.12Z" transform="translate(-5.17 -21.07)"/><path class="cls-30" d="M402.74,255.86l.08.06a.13.13,0,0,0,.08,0h0l.06,0,0,0h0l0,0,.35.21.16.06h0a.56.56,0,0,0,0-.15c0-.25-.05-.5-.09-.77a.34.34,0,0,0-.07-.17v0l-.09-.13-.13-.14a1,1,0,0,0-.17-.14l-.07,0-.1,0-.2,0h-.22l-.11,0-.1,0a0,0,0,0,0,0,0c-.06,0,0,.16,0,.29h0l0,.08.13.24c0,.07.09.14.13.22A1.17,1.17,0,0,0,402.74,255.86Z" transform="translate(-5.17 -21.07)"/><path class="cls-30" d="M404.1,259.94a1.25,1.25,0,0,0-.33-.35l-.07,0h0l-.18-.09-.06,0,0,0c-.15-.09-.23-.08-.23,0v0a.84.84,0,0,0,.09.22l.22.44a1.63,1.63,0,0,1,.11.23,1.24,1.24,0,0,0,.33.44c.19.16.38.23.48.19S404.3,260.27,404.1,259.94Z" transform="translate(-5.17 -21.07)"/><path class="cls-27" d="M400.5,252.77l.14.58v0l.65.22h0l-.84-1h0Z" transform="translate(-5.17 -21.07)"/><path class="cls-27" d="M401.61,258.27l.09,0h.12l.15,0-.25-.3-.47-.55h0l.07.24.05.14,0,.15,0,.12.05.16,0,.11Z" transform="translate(-5.17 -21.07)"/><path class="cls-27" d="M402.19,260.59l.07.06,0,0a1.07,1.07,0,0,0,.19.13h0s.06-.09,0-.15h0c-.15-.24-.34-.47-.52-.71l-.07,0h0s0,.1.05.15a.83.83,0,0,0,0,.15,2.45,2.45,0,0,0,.12.31l0,0Z" transform="translate(-5.17 -21.07)"/><path class="cls-27" d="M401.06,255.81a1,1,0,0,1,.42.06.54.54,0,0,0,.2,0h0l-.64-.75H401C401.11,255.41,400.89,255.5,401.06,255.81Z" transform="translate(-5.17 -21.07)"/><path class="cls-30" d="M409.88,253.78c-.06.05,0,.24.15.41s.32.27.38.22,0-.24-.15-.42S409.94,253.72,409.88,253.78Z" transform="translate(-5.17 -21.07)"/><path class="cls-30" d="M404.37,262a.94.94,0,0,0-.5-.35s-.41.22-.29.55a1.08,1.08,0,0,0,.94.58C404.76,262.65,404.64,262.27,404.37,262Z" transform="translate(-5.17 -21.07)"/><path class="cls-22" d="M398.28,252.64l.33-.29.12-.09-.06-.14Z" transform="translate(-5.17 -21.07)"/><path class="cls-22" d="M400.42,248.66l-.13-.18a1.3,1.3,0,0,1-.1-.15c-.16.2-.54.69-1.1,1.37l.27.26C399.89,249,400.21,248.7,400.42,248.66Z" transform="translate(-5.17 -21.07)"/><path class="cls-22" d="M396.9,248a1.53,1.53,0,0,1-.44-.7s0,0,.15,0,0-.11,0-.12.57.36,1.11.87l.08,0,.36-.39c-1.51-1.43-5.22-4.94-5.25-4.7s1.77,3.6,3.43,6.77c.3-.36.61-.72.91-1.06C397.09,248.47,397,248.22,396.9,248Z" transform="translate(-5.17 -21.07)"/><path class="cls-22" d="M400.21,252a.05.05,0,0,1,0-.05c.05,0,.07-.06.09-.12-.19.16-.39.33-.61.5l.79,1.58c-.08-.56-.2-1.15-.28-1.71C400.22,252.13,400.22,252.06,400.21,252Z" transform="translate(-5.17 -21.07)"/><path class="cls-22" d="M400.65,253.38l.65.22-.84-1h0l0,.16.14.58Z" transform="translate(-5.17 -21.07)"/><path class="cls-22" d="M400.17,247.94a4,4,0,0,0,.94.73c-.25-.27-.47-.5-.67-.74a4.71,4.71,0,0,1-.67-.94l0-.07h0l-.16.17a3.64,3.64,0,0,0,.6.8Z" transform="translate(-5.17 -21.07)"/><path class="cls-22" d="M399.14,247.53l.19.08-.12-.15,0,0-.23.24Z" transform="translate(-5.17 -21.07)"/><path class="cls-22" d="M401.83,258.05l.06.18.08,0Z" transform="translate(-5.17 -21.07)"/><path class="cls-22" d="M398.39,249.88l0,0,0-.05a3.14,3.14,0,0,1-.25-.29C398.16,249.4,398.23,249.55,398.39,249.88Z" transform="translate(-5.17 -21.07)"/><path class="cls-22" d="M398.75,249.36a5.85,5.85,0,0,1,1.19-1.43l-.06-.1-.27.08h0c-.23.2-.68.63-1.18,1.13Z" transform="translate(-5.17 -21.07)"/><path class="cls-22" d="M399.11,250.43l-.32-.33-.17.25c.07.17.16.35.25.54C399,250.75,399,250.59,399.11,250.43Z" transform="translate(-5.17 -21.07)"/><path class="cls-22" d="M398.19,251c-.91,1.46-2.07,3.56-2.1,3.63a14.19,14.19,0,0,1,1.65-3.72l.24-.4-.31-.73c-.29.32-.57.63-.81.93,0,.21-.07.48-.1.76a33.69,33.69,0,0,1-2,4.08s.37-.8,1-2.28a6.68,6.68,0,0,0,.6-2c-1.05,1.39-2.6,3.61-2.6,3.61s.35-.69,1.74-3.11c.13-.22.26-.44.4-.64a12,12,0,0,0-1.45,2.11c-.73,1.63-1.4,2-.34,2.76s2.21-1.39,3.69-3c.1-.23.27-.66.6-1.34Z" transform="translate(-5.17 -21.07)"/><path class="cls-22" d="M408.61,254l1.14,1.42c0-.1,0-.19,0-.26-.19-.2-.38-.41-.58-.61Z" transform="translate(-5.17 -21.07)"/><path class="cls-22" d="M409.88,253.78c-.06.05,0,.24.15.41s.32.27.38.22,0-.24-.15-.42S409.94,253.72,409.88,253.78Z" transform="translate(-5.17 -21.07)"/><path class="cls-22" d="M402.11,250.23c.08,0,.2.13.23.11s.12-.13.17-.2l-.1-.14a1.13,1.13,0,0,0-.36,0S402.08,250.14,402.11,250.23Z" transform="translate(-5.17 -21.07)"/><path class="cls-22" d="M401.05,249.22a1.21,1.21,0,0,1-.39-.26,9.53,9.53,0,0,0-.91,1.39l.56.56a1.23,1.23,0,0,1,.41-.7c.1,0,.19,0,.24-.09h0a.64.64,0,0,1,.24,0,2.79,2.79,0,0,0,.44-.59A4.62,4.62,0,0,0,401.05,249.22Z" transform="translate(-5.17 -21.07)"/><path class="cls-22" d="M409.09,251.61c-.6-.71-8.92-10.3-8.92-10.3l2.43,4.83a8.68,8.68,0,0,1,2.69,2c.42.5.72.89.94,1.19a3.93,3.93,0,0,1,.92,1.64,3.26,3.26,0,0,0,.25.49,1.63,1.63,0,0,0,.37.09,3.54,3.54,0,0,1,.6-.12.58.58,0,0,1,.25.09,1.8,1.8,0,0,1,.87.63,6.42,6.42,0,0,1,.62.57c.21.22.32.27.37.15s.11-.27.16-.41A5.75,5.75,0,0,1,409.09,251.61Z" transform="translate(-5.17 -21.07)"/><path class="cls-22" d="M402.26,260.65l0,0,.09.07-.28-.66-.12-.15-.07,0h0s0,.1.05.15a.83.83,0,0,0,0,.15,2.45,2.45,0,0,0,.12.31l0,0,0,0Z" transform="translate(-5.17 -21.07)"/><path class="cls-22" d="M401.52,255.94l.16-.05h0l-.64-.75H401c.14.27-.08.36.09.67a1,1,0,0,1,.42.06Z" transform="translate(-5.17 -21.07)"/><path class="cls-22" d="M403.7,259.55h0l-.18-.09-.06,0,0,0c-.15-.09-.23-.08-.23,0v0a.84.84,0,0,0,.09.22l.22.44a1.63,1.63,0,0,1,.11.23,1.24,1.24,0,0,0,.33.44c.19.16.38.23.48.19s-.11-.71-.31-1a1.25,1.25,0,0,0-.33-.35Z" transform="translate(-5.17 -21.07)"/><path class="cls-22" d="M403.87,261.61s-.41.22-.29.55a1.08,1.08,0,0,0,.94.58c.24-.09.12-.47-.15-.78A.94.94,0,0,0,403.87,261.61Z" transform="translate(-5.17 -21.07)"/><path class="cls-22" d="M403.07,254.78l-.07,0-.1,0-.2,0h-.22l-.11,0-.1,0a0,0,0,0,0,0,0c-.06,0,0,.16,0,.29h0l0,.08.13.24c0,.07.09.14.13.22a1.17,1.17,0,0,0,.18.22l.08.06a.13.13,0,0,0,.08,0h0l.06,0,0,0h0l0,0,.35.21.16.06h0a.56.56,0,0,0,0-.15c0-.25-.05-.5-.09-.77a.34.34,0,0,0-.07-.17v0l-.09-.13-.13-.14A1,1,0,0,0,403.07,254.78Z" transform="translate(-5.17 -21.07)"/><path class="cls-22" d="M399.14,251.44l.17.35.65-.53-.45-.44C399.41,251,399.28,251.22,399.14,251.44Z" transform="translate(-5.17 -21.07)"/><path class="cls-22" d="M403.24,257.11h-.06a.72.72,0,0,1-.39-.07c-.21-.1-.26-.05-.26.06v.1l0,.08v.06l0,.12h0a.11.11,0,0,0,0,.07,3.14,3.14,0,0,0,.24.35l.06.06.1.12.06.07.05.07a.44.44,0,0,1,.08.11l0,0,0,0,.07,0h0l0,0h0l0,0,.14.05.14.07.05,0,.07.06c.27.19.26,0,.2-.19a2.23,2.23,0,0,1-.12-.41,1,1,0,0,0-.25-.62,4.18,4.18,0,0,0-.31-.34Z" transform="translate(-5.17 -21.07)"/><path class="cls-24" d="M418.72,254a6.08,6.08,0,0,1-2,.18,39,39,0,0,1-5.55-2l.49,0-.58-.1c.05-.21.11-.4.17-.59l.63,0-.61-.1c.06-.2.13-.4.19-.59l.63,0-.6-.1c.06-.2.13-.39.19-.59l.63,0-.61-.11.18-.58.65,0-.63-.11a8.39,8.39,0,0,0,.22-1l-.36,1-.21-.71c0,.1,0,.35.1.59l.07.23h0l-.18.53-.21-.69a5,5,0,0,0,.11.6c0,.1,0,.19.06.21-.06.18-.13.35-.19.52l-.19-.66a3.23,3.23,0,0,0,.1.59l.05.18c-.06.17-.13.34-.19.5l-.18-.6c0,.1,0,.35.1.59l0,.12-.2.48-.16-.53a5,5,0,0,0,.11.6v0l0,0c-.81-.33-1.39-.59-1.47-.64-.26-.18-10-11.44-10-11.44s-.39-.35-.6-.3a66.12,66.12,0,0,0,3.06,6.17c-.85-.32-1.59-.42-1.92-.16a1.7,1.7,0,0,0-.3.3c-1-1.09-4-4.17-4.54-4.79s-1.54-1.81-1.55-1.52.59,1,.88,1.27,3.61,3.92,5,5.44a.31.31,0,0,0,0,.08c-.22.21-.55.55-.94,1l-6.3-5.64s-.81-.66-.89-.45,2.58,5.06,4.65,9A11.87,11.87,0,0,0,394,253.2c-.59,1.86-1.47,2.14-.13,3.23s2.51-.91,4-2.49c.33.64.53,1.05.54,1.09a40.29,40.29,0,0,1-3,3.51s-4.85-.07-5.58-.27-4-1.46-4-1.46,4.22,1.83,4.82,2,5.46.36,5.65.06,3.11-3.05,2.81-3.75c-.06-.14-.37-.74-.81-1.59a5.53,5.53,0,0,1,.52-.46l.22-.17,2.38,5.51c.12.47.25.95.39,1.43s.41,1.27.64,1.91l.06.18a1.15,1.15,0,0,1-.1.23,2.75,2.75,0,0,0-.22.47.25.25,0,0,0-.12.35h0l0,0a1.66,1.66,0,0,0,.19.32c.43.58,1,1,1.33,1l-.13-.11.16,0a21.19,21.19,0,0,1,.79,4.17c0,2.2-.59,5.65-1.54,7.14a10.87,10.87,0,0,1-1.42,1.69l.26.59a7,7,0,0,0,2-2.49c.39-.74,1.68-6.32,1.24-8-.15-.55-.52-1.86-1-3.4.22-.22.4-.52.61-.7l0,0,.07,0c.23,0,1.08-.06.91-2.53a16.93,16.93,0,0,0-1.14-5c2.58,2.66,5.43,5.56,6.32,6.36,1.45,1.9,7.52,9.73,7.52,9.73s3,3.92,4.06,5.48,2.89,4.46,2.86,4.07-6.17-9-7-10-6.84-9.09-6.84-9.09l0,0c.05,0,0-.12-.21-.35l-7.26-7.26-.07-.08a13,13,0,0,0,1.25,1.07,2.43,2.43,0,0,0,.5.35l.32.19a.58.58,0,0,0,.15.1h0a2.2,2.2,0,0,0,1.89.31.67.67,0,0,0,.25-.22s.06-.05.06-.11a.16.16,0,0,0,0-.09c.07,0,.11-.15.05-.37a.61.61,0,0,0,0-.11,5.94,5.94,0,0,0-1.2-2.34c0-.06.1-.07.19,0h.11c1.77,2.24,5.84,7.37,6.26,7.86s8.51,6.44,9.16,7,7,5,7,5l.05-.3-7.35-5.13-8.3-6.49-3.48-4.32a17.77,17.77,0,0,1,4.23,2.06c2,1.43,7.54,6.18,7.54,6.18a3.25,3.25,0,0,0-.48-.67c-.23-.22-7.06-6.05-7.77-6.53a26.49,26.49,0,0,0-3.74-1.42l-.1-.53.08.06c.21,0,.42.1.61.12a.74.74,0,0,0,.34-.08s.06,0,.11,0a4.43,4.43,0,0,1,.46.29h0s.07,0,.11.08c.26.17.52.37.8.59s.59.37.87.51a1.59,1.59,0,0,0,.27.12,1.16,1.16,0,0,0-.51-.48c-.22-.15-.43-.25-.65-.41s-.44-.33-.66-.5l0-.14a8.9,8.9,0,0,1,.88.43c.76.44.77.45.84.35-.54-.31-1-.6-1.51-.85a.72.72,0,0,1-.41-.36c-.15-.27-.33-.54-.53-.87l.67.23.86.7-.75-.65c.32.11.65.24,1,.37l.74.59-.63-.55.56.23,1,.81-.86-.76.81.32,1,.8-.87-.76c.31.12.62.22.92.31l1,.77-.85-.73a8.88,8.88,0,0,0,1.24.26,13.46,13.46,0,0,1-1.42-.43l.35-.19a1.35,1.35,0,0,0-.4.07l-.12.06c-.26-.09-.51-.19-.77-.3l.28-.15a1.4,1.4,0,0,0-.4.07l0,0-.76-.33.24-.13a1.8,1.8,0,0,0-.39.07l-.87-.38.31-.18a1.41,1.41,0,0,0-.4.08l-.07,0-.69-.3.21-.12a2.31,2.31,0,0,0-.35.06l-.78-.32c-.11-.35-.57-.75-.56-.93a1.78,1.78,0,0,1,.24-.66,54.15,54.15,0,0,0,5.37,1.93,4.58,4.58,0,0,0,2.73-.16c.38-.33.49-2,.51-2.2S419.14,253.75,418.72,254Zm-16.57,6.58,0,0a2.45,2.45,0,0,1-.12-.31.83.83,0,0,1,0-.15c0-.05,0-.1-.05-.15l.07,0,.12.15.28.66-.09-.07,0,0-.07-.06Zm2.37,2.19a1.08,1.08,0,0,1-.94-.58c-.12-.33.25-.52.29-.55a.94.94,0,0,1,.5.35C404.64,262.27,404.76,262.65,404.52,262.74Zm-5-15.64.16-.17h0l0,.07a4.71,4.71,0,0,0,.67.94c.2.24.42.47.67.74a4,4,0,0,1-.94-.73l-.05,0A3.64,3.64,0,0,1,399.52,247.1Zm-.33.34,0,0,.12.15-.19-.08-.18.15Zm-6.31-4.39c0-.24,3.74,3.27,5.25,4.7l-.36.39-.08,0c-.54-.51-1.08-1-1.11-.87s0,.05,0,.12-.16-.06-.15,0a1.53,1.53,0,0,0,.44.7c.09.2.19.45.32.74-.3.34-.61.7-.91,1.06C394.65,246.65,392.85,243.22,392.88,243.05Zm7.63,10.85-.79-1.58c.22-.17.42-.34.61-.5,0,.06,0,.1-.09.12a.05.05,0,0,0,0,.05c0,.07,0,.14,0,.2C400.31,252.75,400.43,253.34,400.51,253.9Zm-.05-1.29.84,1-.65-.22v0l-.14-.58Zm-1.15-.82-.17-.35c.14-.22.27-.43.37-.62l.45.44Zm-.85-2,0,.05,0,0c-.16-.33-.23-.48-.18-.39A3.14,3.14,0,0,0,398.46,249.78Zm.33.32.32.33c-.08.16-.16.32-.24.46-.09-.19-.18-.37-.25-.54Zm-4.6,5.9c-1.06-.77-.39-1.13.34-2.76a12,12,0,0,1,1.45-2.11c-.14.2-.27.42-.4.64-1.39,2.42-1.74,3.11-1.74,3.11s1.55-2.22,2.6-3.61a6.68,6.68,0,0,1-.6,2c-.67,1.48-1,2.28-1,2.28a33.69,33.69,0,0,0,2-4.08c0-.28.07-.55.1-.76.24-.3.52-.61.81-.93l.31.73-.24.4a14.19,14.19,0,0,0-1.65,3.72c0-.07,1.19-2.17,2.1-3.63l.29.67c-.33.68-.5,1.11-.6,1.34C396.4,254.61,395.3,256.8,394.19,256Zm4.09-3.36.39-.52.06.14-.12.09Zm5.82,7.3c.2.33.4,1,.31,1s-.29,0-.48-.19a1.24,1.24,0,0,1-.33-.44,1.63,1.63,0,0,0-.11-.23l-.22-.44a.84.84,0,0,1-.09-.22v0c0-.09.08-.1.23,0l0,0,.06,0,.18.09h0l.07,0A1.25,1.25,0,0,1,404.1,259.94Zm-.41-2.49a1,1,0,0,1,.25.62,2.23,2.23,0,0,0,.12.41c.06.22.07.38-.2.19l-.07-.06-.05,0-.14-.07-.14-.05,0,0h0l0,0h0l-.07,0,0,0,0,0a.44.44,0,0,0-.08-.11l-.05-.07-.06-.07-.1-.12-.06-.06a3.14,3.14,0,0,1-.24-.35.11.11,0,0,1,0-.07h0l0-.12v-.06s0-.05,0-.08v-.1c0-.11.05-.16.26-.06a.72.72,0,0,0,.39.07h.2A4.18,4.18,0,0,1,403.69,257.45Zm-.23-2.26v0a.34.34,0,0,1,.07.17c0,.27.07.52.09.77a.56.56,0,0,1,0,.15h0l-.16-.06L403,256l0,0h0l0,0-.06,0h0a.13.13,0,0,1-.08,0l-.08-.06a1.17,1.17,0,0,1-.18-.22c0-.08-.09-.15-.13-.22l-.13-.24,0-.08h0c-.05-.13-.07-.24,0-.29a0,0,0,0,1,0,0l.1,0,.11,0h.22l.2,0,.1,0,.07,0a1,1,0,0,1,.17.14l.13.14Zm-5-6.15c.5-.5.95-.93,1.18-1.13h0l.27-.08.06.1a5.85,5.85,0,0,0-1.19,1.43Zm.67.66c.56-.68.94-1.17,1.1-1.37a1.3,1.3,0,0,0,.1.15l.13.18c-.21,0-.53.32-1.06,1.3Zm1.88.41h0c0,.09-.14.1-.24.09a1.23,1.23,0,0,0-.41.7l-.56-.56a9.53,9.53,0,0,1,.91-1.39,1.21,1.21,0,0,0,.39.26,4.62,4.62,0,0,1,.6.29,2.79,2.79,0,0,1-.44.59A.64.64,0,0,0,401,250.11Zm1.54,0c-.05.07-.09.16-.17.2s-.15-.07-.23-.11-.1-.24-.06-.25a1.13,1.13,0,0,1,.36,0Zm7.24,5.26L408.61,254l.54.55c.2.2.39.41.58.61C409.73,255.22,409.74,255.3,409.75,255.4Zm.66-1c-.06.05-.23,0-.38-.22s-.22-.36-.15-.41.24,0,.38.21S410.48,254.35,410.41,254.41Zm.07-1.54c-.05.12-.16.07-.37-.15a6.42,6.42,0,0,0-.62-.57,1.8,1.8,0,0,0-.87-.63.58.58,0,0,0-.25-.09,3.54,3.54,0,0,0-.6.12,1.63,1.63,0,0,1-.37-.09,3.26,3.26,0,0,1-.25-.49,3.93,3.93,0,0,0-.92-1.64c-.22-.3-.52-.69-.94-1.19a8.68,8.68,0,0,0-2.69-2l-2.43-4.83s8.32,9.59,8.92,10.3a5.75,5.75,0,0,0,1.55.85C410.59,252.6,410.53,252.73,410.48,252.87Z" transform="translate(-5.17 -21.07)"/><path class="cls-5" d="M383.09,247.3c.4.38,49,23.85,49,23.85l1.69,5.49L385.7,253.75" transform="translate(-5.17 -21.07)"/><path class="cls-16" d="M462.71,181.73s17,11.8,7.28,48.66c-8,30.54-34,39.43-34,39.43" transform="translate(-5.17 -21.07)"/><path class="cls-18" d="M216.7,320.62c12.05,1.44,25.19,5.51,33,5.27S342,289.62,351.94,282.54s41.48-51.87,41.48-51.87l58.81,11.76s-35.92,43.43-62.33,66-158,52.22-158,52.22-11.42,8.71-21.76,7.94c-8.23-.61,3.63-10.74,8.81-14.84-5,3.69-16.74,11.63-19.54,6.22-3.58-6.91,13.9-16.52,13.9-16.52s-16.42,9.47-20.83,5c-4.62-4.69,16.78-16.49,16.78-16.49s-28.49,12.13-33.55,6.84S204.65,319.18,216.7,320.62Z" transform="translate(-5.17 -21.07)"/><path class="cls-27" d="M465.3,183.06s-29.31-26.89-46.79-5.17C408,191,383.93,236.48,383.93,236.48l3.61,3.31a63.28,63.28,0,0,1,24.63,13.63c7.88,7.07,14.14,15.76,19.7,24.74,4.57-6,23.17-31.23,32.14-51.62C476.4,198.36,465.3,183.06,465.3,183.06Z" transform="translate(-5.17 -21.07)"/><path class="cls-12" d="M192.28,439.42l.52,3.7.54,53.48s8.47,8.47,27.53,7.41c14.8-.82,29.64-6.35,29.64-6.35l5.3-58.24" transform="translate(-5.17 -21.07)"/><ellipse class="cls-31" cx="218.87" cy="418.35" rx="31.76" ry="10.59"/><path class="cls-3" d="M101.34,572.25c-11.45-6.81-12.14-21-12.71-32.47-.5-10.07-3.4-22.25-15.82-21.7,1.42-7.12-8.48-18.18-16.09-14.21-1.38-8-16-7.59-19.89-2.09-2.2,3.16-2.36,8.19-.92,11.7,2.05,5,8.15,6.24,10.11,10.71,1.39,3.14-.73,7-.7,10.18,0,4.47,1.94,8.09,4.94,11.29,8.22,8.74,19.22,9.61,28.87,15.75,7.35,4.68,13.5,14.44,21.8,17,.8-.26.08-.45.41-1" transform="translate(-5.17 -21.07)"/><path class="cls-3" d="M112.87,566.48c2.67-2.66,6.58-3.79,9.54-6.09s4.44-5,6.16-8c3.16-5.61,5.5-11.23,6.21-17.7.5-4.45-1.15-8.45-2.75-12.64-.93-2.44-2.64-4.51-1.89-7.08.71-2.39,3.77-5,5-7.27s2.5-5.56,1.79-8.32c-.82-3.22-4.17-3.86-5.66-6.27,6.61-6,5.36-15.45-.79-21.21-6.86-6.42-19.73-2.13-21.16,7-11.3-5.33-19.66,17.54-19.4,25.15.27,7.77,6.05,14.94,9.57,21.51,8.25,15.4,4.49,28.81-2.11,44.08" transform="translate(-5.17 -21.07)"/><path class="cls-7" d="M196.86,517.07c-7-8-22.66-4.33-30,1.33,6.1-5.89-8.46-4.51-11-3.45-6.46,2.66-6.34,7.08-9.52,12.26-1.38-5-7.66-3.85-11.3-2.36-4.87,2-7.12,5.44-10.22,9.47-3.45,4.49-6.67,9.57-8.32,15.11-1.2,4-1.39,8.3-2.87,12.3-1.55,4.16-6.29,8.84-5.06,13.57l3.17,5.9c1.52-.35,3-.74,4.56-1.13,4.8-5.38,15.16-6.3,21.23-7.19,9.16-1.34,20.86-4.41,23.69-14.74,6.43-1,11.7.2,18-2.78,2.93-1.4,6.2-3.65,6.67-7.24.37-2.84-1.55-4.55-2.68-7C190.81,536.19,206.68,528.28,196.86,517.07Z" transform="translate(-5.17 -21.07)"/><path class="cls-4" d="M104.91,582.29c.6,0,1.21-.09,1.82-.17a62.78,62.78,0,0,0,7.17-1.45C105,555,94.28,527.92,66.66,522.57c-4.07-.78-2.93.67-7.41-1.24-2.74-1.17-5.32-5-8.5-6.43-6.67-3-15.18-2.85-21.35,1.27-14,9.36-6.26,27.85,9.7,26.45-6.87,6.59-4.81,13.89,2.07,18.86,8.69,6.28,15-1.25,23.29,2.08-7,16,11.14,8.3,16.57,9.05,3,.41,10.33,4.64,14.22,5.87A76.82,76.82,0,0,1,104.91,582.29Z" transform="translate(-5.17 -21.07)"/><path class="cls-7" d="M107.87,577c-14.17-.74-25-12-31.57-23.65-1.5-2.63-2.66-5.42-4.11-8.08a54.08,54.08,0,0,0-4.93-7.43A51,51,0,0,0,53,524.9c-6-3.47-13-4.82-19.62-2.32-.46.17-1.94.68-1.94,1.31s1.19.25,1.49.14c5.62-2.11,11.73-.32,16.74,2.54a49.75,49.75,0,0,1,14.31,12.88,53,53,0,0,1,4.83,7.3c1.42,2.6,2.56,5.34,4,7.92a59.08,59.08,0,0,0,12.36,15.5c5.62,4.9,12.49,8.26,20,8.65a4.09,4.09,0,0,0,2.43-.84c.26-.19,1.12-1,.28-1Z" transform="translate(-5.17 -21.07)"/><path class="cls-7" d="M110.05,510.67c15.22-5-10-34.91-22-19.63-10.89-21.72-46.65,6.91-9,23.82-20.12,12.39-6.4,22.37,7.65,29.6-14,15.76,7.44,27,19.66,37.7l.4,0a62.68,62.68,0,0,0,6.89-1.38c1.87-14.3,10-24,13.42-38.61C129.55,531.28,126.85,505.91,110.05,510.67Z" transform="translate(-5.17 -21.07)"/><path class="cls-4" d="M173,496.88c5.15-6.42,5.25-14.21-3.6-17.69-10.25-4-16.51,4.4-19.21,12.47-5.76-9-21,2.38-25,7.78-5.3,7.21-2,14.74-2.69,22.95-.42,5-4.24,8-7.19,11.75a46.51,46.51,0,0,0-8.37,15c-1.94,6.29-.86,11.27,1,17.41.52,1.78.5,11.45,1.36,15.21,2.48-.48,4.94-1.12,7.4-1.75,5.31-4,11.38-10.86,13.87-12.89C136,562.63,137,555,142,550.86c5.32-4.37,13.23-3.54,19-8.26,6.62-5.45,7.33-11.22,4.48-18.75,7.8-2.91,17.71-7.47,20.1-16.37C188.26,497.49,180.92,497.36,173,496.88Z" transform="translate(-5.17 -21.07)"/><path class="cls-7" d="M115.28,578.19c0-8,0-16.84,5.53-23.31,4.44-5.2,11.29-7.3,16.24-11.9,4.67-4.33,6-10.51,7.26-16.5,1.29-6.39,2.94-12.65,8-17.13,3.12-2.75,6.84-4.94,9.34-8.33,2.71-3.67,2.11-8.12,3.49-12.24,0-.1-2.25-.31-2.47.35-1.29,3.85-.73,8.1-3.1,11.6-2.06,3-5.2,5.17-8,7.44a22.74,22.74,0,0,0-6.48,7.71,36.45,36.45,0,0,0-2.74,8.53c-1.3,6.05-2.13,12.51-6.35,17.36-4.46,5.13-11.38,7.18-16.24,11.87-6.76,6.51-6.94,16.14-6.93,24.9,0,.34,2.47.18,2.47-.35Z" transform="translate(-5.17 -21.07)"/><path class="cls-4" d="M105.43,576.4c-10.43-5.63-9.83-20.3-6.27-30.13,2.25-6.21,4.57-12.4,4.51-19.11a22.58,22.58,0,0,0-8.76-17.39,42,42,0,0,0-5.37-3.56c-1.42-.83-3.11-1.7-4.07-3.09-1.79-2.59-.86-6.24-3-8.72-.61-.71-2.08-1.64-3-1.12s-.22,1.87.29,2.46c-.24-.27-.28-.54-.18-.08,0,.21.11.42.16.63.17.76.29,1.52.45,2.28a14.24,14.24,0,0,0,1.65,4.7c2,3.27,5.67,5,8.85,7a16.87,16.87,0,0,1,8.73,15.38c.06,6.72-2.69,12.87-4.79,19.1A37.1,37.1,0,0,0,93,562.49a23.3,23.3,0,0,0,11.82,16.9c.74.39,2.13.78,2.46-.31s-1-2.27-1.8-2.68Z" transform="translate(-5.17 -21.07)"/><path class="cls-3" d="M281.52,572.25c-11.45-6.81-12.14-21-12.71-32.47-.5-10.07-3.4-22.25-15.82-21.7,1.42-7.12-8.48-18.18-16.09-14.21-1.38-8-16.05-7.59-19.88-2.09-2.21,3.16-2.37,8.19-.93,11.7,2,5,8.15,6.24,10.12,10.71,1.38,3.14-.74,7-.71,10.18,0,4.47,1.94,8.09,4.94,11.29,8.22,8.74,19.22,9.61,28.87,15.75,7.35,4.68,13.5,14.44,21.8,17,.8-.26.08-.45.41-1" transform="translate(-5.17 -21.07)"/><path class="cls-3" d="M293.05,566.48c2.67-2.66,6.58-3.79,9.54-6.09s4.44-5,6.16-8c3.16-5.61,5.5-11.23,6.21-17.7.5-4.45-1.15-8.45-2.75-12.64-.93-2.44-2.64-4.51-1.88-7.08.7-2.39,3.76-5,4.95-7.27s2.5-5.56,1.79-8.32c-.82-3.22-4.17-3.86-5.66-6.27,6.61-6,5.36-15.45-.79-21.21-6.86-6.42-19.73-2.13-21.15,7-11.31-5.33-19.67,17.54-19.4,25.15.26,7.77,6,14.94,9.56,21.51,8.25,15.4,4.49,28.81-2.11,44.08" transform="translate(-5.17 -21.07)"/><path class="cls-7" d="M377,517.07c-7-8-22.66-4.33-30,1.33,6.1-5.89-8.46-4.51-11-3.45-6.46,2.66-6.34,7.08-9.52,12.26-1.37-5-7.66-3.85-11.3-2.36-4.86,2-7.11,5.44-10.22,9.47-3.45,4.49-6.67,9.57-8.32,15.11-1.2,4-1.39,8.3-2.87,12.3-1.55,4.16-6.28,8.84-5.05,13.57l3.16,5.9c1.53-.35,3.05-.74,4.57-1.13,4.79-5.38,15.15-6.3,21.22-7.19,9.16-1.34,20.86-4.41,23.7-14.74,6.42-1,11.69.2,17.94-2.78,2.93-1.4,6.2-3.65,6.67-7.24.38-2.84-1.55-4.55-2.68-7C371,536.19,386.86,528.28,377,517.07Z" transform="translate(-5.17 -21.07)"/><path class="cls-4" d="M285.09,582.29c.6,0,1.21-.09,1.82-.17a63.39,63.39,0,0,0,7.18-1.45c-8.88-25.67-19.63-52.75-47.25-58.1-4.07-.78-2.93.67-7.41-1.24-2.74-1.17-5.32-5-8.5-6.43-6.67-3-15.18-2.85-21.35,1.27-14,9.36-6.26,27.85,9.7,26.45-6.87,6.59-4.81,13.89,2.07,18.86,8.69,6.28,15-1.25,23.29,2.08-7,16,11.14,8.3,16.57,9.05,3,.41,10.33,4.64,14.22,5.87A76.82,76.82,0,0,1,285.09,582.29Z" transform="translate(-5.17 -21.07)"/><path class="cls-7" d="M288.06,577c-14.17-.74-24.95-12-31.58-23.65-1.5-2.63-2.66-5.42-4.11-8.08a53.18,53.18,0,0,0-4.93-7.43,51,51,0,0,0-14.31-12.9c-6-3.47-13-4.82-19.62-2.32-.46.17-1.94.68-1.94,1.31s1.19.25,1.49.14c5.63-2.11,11.73-.32,16.74,2.54a49.92,49.92,0,0,1,14.32,12.88,53,53,0,0,1,4.82,7.3c1.42,2.6,2.56,5.34,4,7.92a59.08,59.08,0,0,0,12.36,15.5c5.63,4.9,12.49,8.26,20,8.65a4.09,4.09,0,0,0,2.43-.84c.26-.19,1.12-1,.29-1Z" transform="translate(-5.17 -21.07)"/><path class="cls-7" d="M290.23,510.67c15.22-5-10-34.91-22-19.63-10.9-21.72-46.66,6.91-9,23.82-20.11,12.39-6.4,22.37,7.65,29.6-14,15.76,7.44,27,19.66,37.7l.4,0a62.68,62.68,0,0,0,6.89-1.38c1.88-14.3,10.05-24,13.42-38.61C309.73,531.28,307,505.91,290.23,510.67Z" transform="translate(-5.17 -21.07)"/><path class="cls-4" d="M353.19,496.88c5.15-6.42,5.25-14.21-3.6-17.69-10.25-4-16.51,4.4-19.21,12.47-5.76-9-21,2.38-25,7.78-5.3,7.21-2,14.74-2.69,22.95-.41,5-4.24,8-7.19,11.75a46.29,46.29,0,0,0-8.36,15c-2,6.29-.87,11.27.94,17.41.52,1.78.51,11.45,1.36,15.21,2.49-.48,4.94-1.12,7.4-1.75,5.32-4,11.38-10.86,13.87-12.89,5.46-4.44,6.42-12,11.49-16.21,5.32-4.37,13.23-3.54,19-8.26,6.62-5.45,7.33-11.22,4.48-18.75,7.8-2.91,17.71-7.47,20.1-16.37C368.44,497.49,361.1,497.36,353.19,496.88Z" transform="translate(-5.17 -21.07)"/><path class="cls-7" d="M295.46,578.19c0-8,0-16.84,5.53-23.31,4.44-5.2,11.29-7.3,16.24-11.9,4.67-4.33,6-10.51,7.26-16.5,1.29-6.39,2.94-12.65,8-17.13,3.12-2.75,6.84-4.94,9.34-8.33,2.71-3.67,2.11-8.12,3.5-12.24,0-.1-2.26-.31-2.48.35-1.29,3.85-.73,8.1-3.09,11.6-2.07,3-5.2,5.17-8,7.44a22.74,22.74,0,0,0-6.48,7.71,36.93,36.93,0,0,0-2.74,8.53c-1.3,6.05-2.13,12.51-6.35,17.36-4.46,5.13-11.38,7.18-16.24,11.87-6.76,6.51-6.93,16.14-6.93,24.9,0,.34,2.47.18,2.47-.35Z" transform="translate(-5.17 -21.07)"/><path class="cls-4" d="M285.61,576.4c-10.43-5.63-9.83-20.3-6.27-30.13,2.25-6.21,4.57-12.4,4.51-19.11a22.58,22.58,0,0,0-8.76-17.39,42,42,0,0,0-5.37-3.56c-1.42-.83-3.11-1.7-4.07-3.09-1.79-2.59-.86-6.24-3-8.72-.61-.71-2.08-1.64-3-1.12s-.22,1.87.29,2.46c-.24-.27-.28-.54-.18-.08,0,.21.12.42.16.63.17.76.29,1.52.45,2.28a14.24,14.24,0,0,0,1.65,4.7c2,3.27,5.67,5,8.85,7a16.87,16.87,0,0,1,8.73,15.38c.06,6.72-2.69,12.87-4.78,19.1a37,37,0,0,0-1.66,17.76A23.3,23.3,0,0,0,285,579.39c.74.39,2.13.78,2.46-.31s-1-2.27-1.8-2.68Z" transform="translate(-5.17 -21.07)"/><path class="cls-3" d="M473.58,575.17c-11.45-6.81-12.13-21-12.7-32.47-.5-10.06-3.4-22.24-15.83-21.7,1.43-7.11-8.48-18.17-16.08-14.21-1.38-8-16.06-7.59-19.89-2.09-2.2,3.16-2.37,8.2-.93,11.7,2.05,5,8.15,6.25,10.12,10.71,1.39,3.15-.74,7-.71,10.18,0,4.48,1.95,8.1,4.95,11.29,8.21,8.75,19.22,9.62,28.86,15.76,7.35,4.68,13.5,14.44,21.8,17,.8-.27.09-.45.41-1" transform="translate(-5.17 -21.07)"/><path class="cls-3" d="M485.11,569.41c2.68-2.67,6.58-3.79,9.54-6.09s4.45-5,6.17-8c3.15-5.61,5.49-11.24,6.21-17.7.49-4.45-1.16-8.45-2.75-12.65-.93-2.44-2.64-4.51-1.89-7.07.7-2.4,3.76-5,4.95-7.27s2.51-5.56,1.8-8.33c-.82-3.22-4.17-3.85-5.66-6.27,6.61-6,5.35-15.44-.8-21.2-6.86-6.42-19.72-2.13-21.15,7-11.31-5.33-19.66,17.55-19.4,25.15.27,7.78,6,15,9.56,21.51,8.25,15.41,4.5,28.82-2.11,44.08" transform="translate(-5.17 -21.07)"/><path class="cls-7" d="M569.11,520c-7-8-22.66-4.32-30,1.34,6.1-5.89-8.46-4.52-11.05-3.45-6.45,2.65-6.33,7.08-9.51,12.26-1.38-5-7.66-3.86-11.31-2.36-4.86,2-7.11,5.43-10.21,9.46-3.46,4.5-6.67,9.57-8.32,15.11-1.2,4-1.39,8.31-2.88,12.3-1.54,4.17-6.28,8.85-5.05,13.58l3.16,5.9c1.53-.35,3.05-.74,4.57-1.14,4.8-5.37,15.15-6.3,21.22-7.19,9.16-1.34,20.87-4.41,23.7-14.73,6.43-1,11.7.19,18-2.79,2.92-1.39,6.2-3.64,6.67-7.23.37-2.84-1.55-4.55-2.68-7C563.06,539.11,578.92,531.2,569.11,520Z" transform="translate(-5.17 -21.07)"/><path class="cls-4" d="M477.15,585.22c.61,0,1.21-.09,1.82-.17a62.55,62.55,0,0,0,7.18-1.46c-8.87-25.67-19.63-52.74-47.24-58.09-4.07-.79-2.93.67-7.41-1.24-2.74-1.17-5.32-5-8.5-6.44-6.67-3-15.19-2.84-21.36,1.28-14,9.36-6.26,27.84,9.71,26.44-6.88,6.6-4.81,13.9,2.06,18.87,8.69,6.27,15-1.26,23.29,2.07-7,16,11.15,8.3,16.58,9.06,3,.4,10.32,4.63,14.22,5.87A73.74,73.74,0,0,1,477.15,585.22Z" transform="translate(-5.17 -21.07)"/><path class="cls-7" d="M480.12,579.89c-14.17-.75-24.95-12-31.57-23.66-1.5-2.63-2.67-5.42-4.11-8.07a54.39,54.39,0,0,0-4.93-7.43,50.84,50.84,0,0,0-14.32-12.9c-6-3.48-13-4.82-19.62-2.33-.45.17-1.93.68-1.94,1.31s1.2.26,1.49.15c5.63-2.11,11.73-.33,16.75,2.54a49.85,49.85,0,0,1,14.31,12.87,55.22,55.22,0,0,1,4.83,7.3c1.41,2.6,2.56,5.34,4,7.92a58.93,58.93,0,0,0,12.35,15.51c5.63,4.9,12.5,8.25,20,8.65a4.2,4.2,0,0,0,2.43-.84c.27-.19,1.13-1,.29-1Z" transform="translate(-5.17 -21.07)"/><path class="cls-7" d="M482.29,513.6c15.22-5-10-34.91-22-19.63-10.89-21.73-46.65,6.9-9,23.82-20.11,12.38-6.39,22.36,7.65,29.6-14,15.76,7.44,27,19.66,37.7l.4,0a62.25,62.25,0,0,0,6.89-1.39c1.88-14.29,10.05-24,13.43-38.61C501.79,534.21,499.1,508.84,482.29,513.6Z" transform="translate(-5.17 -21.07)"/><path class="cls-4" d="M545.26,499.8c5.15-6.42,5.24-14.21-3.61-17.69-10.25-4-16.5,4.4-19.21,12.47-5.76-8.95-21,2.39-25,7.78-5.3,7.22-2,14.75-2.7,22.95-.41,5-4.23,8-7.18,11.76A46.17,46.17,0,0,0,479.22,552c-2,6.3-.87,11.27.94,17.42.53,1.78.51,11.44,1.36,15.2,2.49-.47,5-1.12,7.4-1.75,5.32-4,11.39-10.86,13.88-12.89,5.45-4.44,6.41-12,11.49-16.2,5.32-4.37,13.22-3.55,19-8.26,6.62-5.45,7.34-11.22,4.49-18.76,7.8-2.9,17.7-7.47,20.09-16.37C560.5,500.42,553.16,500.29,545.26,499.8Z" transform="translate(-5.17 -21.07)"/><path class="cls-7" d="M487.53,581.11c0-8,0-16.83,5.52-23.3,4.44-5.21,11.3-7.31,16.25-11.91,4.66-4.33,6-10.5,7.25-16.5,1.3-6.39,2.94-12.64,8-17.12,3.12-2.75,6.84-4.94,9.34-8.33,2.7-3.68,2.11-8.12,3.49-12.25,0-.09-2.26-.3-2.48.35-1.28,3.85-.73,8.11-3.09,11.6-2.07,3.06-5.2,5.17-8,7.45a22.64,22.64,0,0,0-6.49,7.7,36.9,36.9,0,0,0-2.73,8.53c-1.31,6-2.14,12.52-6.35,17.37-4.47,5.13-11.39,7.18-16.25,11.86-6.76,6.52-6.93,16.15-6.93,24.9,0,.34,2.48.19,2.48-.35Z" transform="translate(-5.17 -21.07)"/><path class="cls-4" d="M477.68,579.32c-10.44-5.63-9.83-20.29-6.28-30.12,2.25-6.21,4.58-12.4,4.52-19.11a22.6,22.6,0,0,0-8.76-17.4,42.26,42.26,0,0,0-5.37-3.55c-1.42-.83-3.12-1.71-4.07-3.1-1.8-2.59-.86-6.23-3-8.72-.61-.71-2.07-1.64-3-1.11s-.22,1.87.28,2.46c-.23-.28-.27-.54-.17-.09,0,.21.11.42.16.64.16.75.29,1.52.45,2.28a13.87,13.87,0,0,0,1.64,4.69c2,3.28,5.67,5.05,8.86,7a18.46,18.46,0,0,1,6.76,6.86,18.22,18.22,0,0,1,2,8.52c.06,6.72-2.68,12.87-4.78,19.11a37.06,37.06,0,0,0-1.65,17.75A23.26,23.26,0,0,0,477,582.31c.73.4,2.13.79,2.46-.3s-1-2.27-1.8-2.69Z" transform="translate(-5.17 -21.07)"/></svg>