<svg id="Capa_1" data-name="Capa 1" xmlns="http://www.w3.org/2000/svg" viewBox="0 0 1466.67 1277.76"><defs><style>.cls-1{fill:#efe0d2;}.cls-2{fill:#ded0c4;}.cls-3{fill:#a6bc43;}.cls-4{fill:#6e863b;}.cls-5{fill:#214758;}.cls-6{fill:#285164;}.cls-7{fill:#fff;}.cls-8{fill:#0e3746;}.cls-9{fill:#424647;}.cls-10{fill:#cb955f;}.cls-11{fill:#d6d9dc;}.cls-12{fill:#dca86e;}.cls-13{fill:#97bdda;}.cls-14{fill:#37375d;}.cls-15{fill:#397599;}.cls-16{fill:#4882b6;}.cls-17{fill:#ececed;}.cls-18{fill:#6db8da;}.cls-19{fill:#b97945;}.cls-20{fill:#2b241d;}.cls-21{fill:#8fc7e0;}.cls-22{fill:#c3bfbe;}.cls-23{fill:#e2dfdc;}.cls-24{fill:#9a966f;}.cls-25{fill:#b97c47;}.cls-26{fill:#4b5052;}.cls-27{fill:#326d88;}.cls-28{fill:#b45642;}.cls-29{fill:none;}.cls-30{fill:#d9dcd2;}</style></defs><title>Ilustración 3</title><path class="cls-1" d="M1102.94,1029.46c-66.74-28.55-138.51-33.77-207.62-46.57C791.26,963.61,687.88,958,583,957.82c-139-.22-297.73,24.45-428.22,92.95-54.93,28.83-128.66,79.51-135.8,162.07-3.65,42.23,7.12,57.45,39.14,67.47,51.23,16,113,10.79,165.35,10.66,84.33-.21,168.67,0,253,0,106,0,234.17-14.36,335.76,29.64-17.13,4.13-46.42,7.43-50.51,34,47.47,37.55,118.25,38.09,171.42,40.71,107.21,5.28,210.54,1.28,317.07-17.46,74.52-13.1,222.19-20.87,234.14-156.36,11.16-126.67-131.4-223.46-206.5-250.63C1137.27,920,974.52,947.06,829.74,947.06" transform="translate(-18.26 -119.66)"/><ellipse class="cls-2" cx="1132.07" cy="1120.56" rx="305.73" ry="110.43"/><path class="cls-2" d="M669,1177c-131.62-31-276.26-33.75-411.39-28.86-36.69,1.33-78.68,5.16-113.27,18.37-11.63,4.44-68.93,31.85-62.84,49.82,9.73,28.73,131.42-1.92,151.34-4.57,35.51-4.71,74.11-6.53,108.7,5.18,40.8,13.82,70.16,25.39,116,25.65,43.25.24,86-5.18,129-7.74,49.13-2.92,117.89,16.76,164-2.11,93.77-38.4-88-60-105.14-63.62" transform="translate(-18.26 -119.66)"/><path class="cls-3" d="M466.18,843.33c1.24-.89-129.15-82.89-84.74-87.66,45.72-5.37,100.68,31.86,100.45,31.92,1.49-.82-127.17-104.61-79.13-119.74,50.39-15.75,115.18,96.43,114.46,96.54.34,0-38.18-94.65-7.12-95.41,31.72-.79,70.89,89.55,70.56,89.59.17,0-26.26-68.82,1.28-64.75,27.71,4.16,45.38,47.85,45.32,47.84q8.19-14.4,16.55-28.75c1.1-.64-74.72-69.76-36.09-98.24,40.72-29.24,84.88,40.8,84.08,41.07.75-.18-68.88-91.46-24.44-116.36,46.6-25,100.87,143.48,100,138.37.36-5.11-10.6-113,30.75-114.07,41.54-.76,32.29,125.92,32.33,125.86.14.13,3.2-162.06,60.34-165.93,57.26-3.39,50.81,119.91,50.74,119.77-.19,0,33.45-98.42,80.52-105.88,46.64-7.27.43,117.39.79,117.41-.35-.09,58.11-65.75,100.65-56.26,41.36,9.19-54.49,109.18-53.59,109.59-.19-.17,60-27.61,79.87-18.69,19.38,8.53-47.83,56.1-47.49,56.33-.13,0,36.36-21.72,62.33-1.14,25.76,20.55,28.64,31.79,28.67,31.76s-1.44-75.42,23.6-67.83c25.26,7.69,33.67,75.76,33.54,75.72s24.74-67.56,64.33-67.54c39.42.21-4.91,87.95-4.7,88-.56-.19,44.26-70.53,88.3-60.7,42.46,9.25-39.08,88.93-38,89.52-.31-.22,69.63-37.44,99-20.21,28.53,16.57-72.9,56.43-72.37,57-.12-.21,59.81-8.36,65.54,13.9,5.52,21.77-62.47,12.21-62.44,12.49.49-.22,95.72,45,3,95.7-40.22,22-139.62-41.07-139.94-40.23,0,0-64.17-14.44-92.7-21-28.27-7.1-37-67-37.21-66.5,0,.08,9,14.55-32.36,6.34-41.2-9-153.26-29.92-153.42-29.29-.36-.91-125.28,22.11-108.1,9.59,17-13.27,32-17.38,32-17.38-.46-1.46-170,71.8-188.95,60.51-19.45-12.94,26.25-66.82,26.28-66.76-.5-1.94-183.08,29.39-176.7,21.8,5.94-9.52,38.26-16.42,38.28-16.37-.29-.47-78.8,121.11-104.75,119C429.18,949.57,466.09,843.2,466.18,843.33Z" transform="translate(-18.26 -119.66)"/><path class="cls-4" d="M1459,959.9c-44.83-10.47-103.62,20.35-103.41,20.44-1.38-1,138.12-89.67,92.08-110.1-47.33-20.88-122.19,78.74-124.51,82.92,1.34-3.13,48-89.68,17.72-93.85-31.43-4.34-80.49,81-80.17,81.1-.17,0,33.82-65.44,6-64.48-28,1-50.47,42.45-50.41,42.44q-6.51-15.23-13.21-30.42c-1-.76,121.15-71.46,86-104.09-37.17-33.63-128,41.54-127.24,41.9-.72-.27,78.72-83.15,37.36-112.88-43.5-30.08-116.34,131.24-114.91,126.26.22-5.12,23.23-111.12-17.74-116.8C1033.44,718,1023.68,799,1021.1,831c2.11-38.34,4.45-150.4-42.17-158.89-56.52-9.8-63.95,113.44-63.87,113.31.19.06-22.19-101.55-68.12-114.25-45.53-12.46-13.6,116.6-14,116.58.37,0-50.36-71.86-93.69-67.21-42.13,4.49,41.88,114.61,40.94,114.92.21-.15-56.49-34.17-77.27-27.54-20.21,6.3,41.24,61.11,40.88,61.3.13,0-33.7-25.66-61.82-8.13-27.9,17.53-32,28.38-32,28.34s9.9-74.77-15.83-70.05c-26,4.8-42,71.5-41.83,71.48S575.3,821,536,816.54c-39.19-4.23-5,87.93-5.21,87.93.59-.13-65.14-106.41-110-101.59-43.23,4.43,57.93,124.11,56.82,124.58.34-.18-65-45-96.15-31.2-30.2,13.26,66.11,64.25,65.52,64.74.15-.19-58.49-15-66.68,6.45-7.94,21,60.7,19.16,60.64,19.43-.46-.28-78.14,59.92-33.66,47.85,43.9-13.22,173.55-42.08,173.77-41.21,0,0-26,17.27,3.11,14,28.89-3.88,125.37-23,125.52-22.46,0,.08-10.59,13.45,31.44,9.93,13.67-1.38,34.95-3.2,57.43-5-12,8.63-15.4,16.46,3.38,19.15,41.24,5.89,89.92-10.54,129.33-20.06,31.87,5.53,72.95,11.62,63.08,2.57a59,59,0,0,0-5-4.39c40.42,9.38,144.5,34.5,160.69,27.19,20.78-10.67-14.34-18.54-14.38-18.49.72-1.88,178.62,49.75,173.14,41.5-1.59-3.34-6.06-6.7-11.33-9.73,28.67,12.46,74.06,31.26,91.34,31.84,26.5.29-23.72-22.17-23.82-22C1363.81,1036.47,1502.59,969.62,1459,959.9ZM1020.28,843.51a1.46,1.46,0,0,1,0,.26S1020.27,843.67,1020.28,843.51Zm252.38,173.39a1.57,1.57,0,0,1,.29.09Z" transform="translate(-18.26 -119.66)"/><path class="cls-5" d="M819.7,1102.09c0,.18,0,.36,0,.54,0,56.88,136.88,103,305.73,103,166.94,0,302.54-45.08,305.58-101.07,11.43,37,.15,110.71.15,127.49,0,57.54-135.74,104.18-303.19,104.18S824.75,1289.58,824.75,1232C824.75,1213.48,804.54,1134.41,819.7,1102.09Z" transform="translate(-18.26 -119.66)"/><path class="cls-6" d="M1431,1104.55c0-.64.15-1.28.15-1.92,0-56.88-136.88-103-305.73-103-168.3,0-304.81,45.82-305.69,102.45,0,.18,0,.36,0,.54,0,56.88,136.88,103,305.73,103C1292.33,1205.62,1427.93,1160.54,1431,1104.55Zm-82.66.61c0,.36-.08.71-.1,1.07h0a16.84,16.84,0,0,1-1,4.46c-.09.24-.16.48-.26.73a22.16,22.16,0,0,1-2.32,4.2c-.16.23-.34.46-.51.69a33.67,33.67,0,0,1-3.75,4.26l-.07.06a51.64,51.64,0,0,1-5.26,4.31l-.29.21a76.75,76.75,0,0,1-6.49,4.12l-.49.28a154.71,154.71,0,0,1-27.49,11.66h0c-39.65,13-100.28,21.38-168.32,21.38s-128.68-8.34-168.34-21.37h0a179.63,179.63,0,0,1-19.82-7.72l-.54-.26c-2.76-1.3-5.32-2.63-7.7-4l-.68-.4a76.81,76.81,0,0,1-6.49-4.21l-.1-.08a48.87,48.87,0,0,1-5.13-4.35l-.37-.35a30.67,30.67,0,0,1-3.58-4.3c-.17-.25-.34-.49-.5-.74a20.85,20.85,0,0,1-2.15-4.34c-.08-.23-.13-.46-.2-.69a16.08,16.08,0,0,1-.76-4.63c0-.05,0-.1,0-.16a.77.77,0,0,0,0-.15c.09-4.93,2.53-9.72,7-14.28,8.1-8.22,22.89-15.72,42.74-22.07q6.61-2.12,14-4,3.67-1,7.51-1.89c38.38-9.22,89.27-14.83,145.1-14.83h0c41.08,0,79.48,3,112.2,8.31C1306.59,1066.11,1348.31,1084.34,1348.31,1105.16Z" transform="translate(-18.26 -119.66)"/><path class="cls-7" d="M916.53,1110.48a20.36,20.36,0,0,0,2.15,4.34A20.85,20.85,0,0,1,916.53,1110.48Z" transform="translate(-18.26 -119.66)"/><path class="cls-7" d="M1328.24,1129.27a76.75,76.75,0,0,0,6.49-4.12A76.75,76.75,0,0,1,1328.24,1129.27Z" transform="translate(-18.26 -119.66)"/><path class="cls-7" d="M1335,1124.94a51.64,51.64,0,0,0,5.26-4.31A51.64,51.64,0,0,1,1335,1124.94Z" transform="translate(-18.26 -119.66)"/><path class="cls-7" d="M1300.26,1141.21a155.77,155.77,0,0,0,27.49-11.66A154.71,154.71,0,0,1,1300.26,1141.21Z" transform="translate(-18.26 -119.66)"/><path class="cls-7" d="M1131.94,1047.73h0c-55.83,0-106.72,5.61-145.1,14.83C1025.22,1053.34,1076.11,1047.73,1131.94,1047.73Z" transform="translate(-18.26 -119.66)"/><path class="cls-7" d="M1347.19,1110.69a16.84,16.84,0,0,0,1-4.46A16.84,16.84,0,0,1,1347.19,1110.69Z" transform="translate(-18.26 -119.66)"/><path class="cls-7" d="M916.33,1109.79a16.08,16.08,0,0,1-.76-4.63c0-.05,0-.1,0-.16s0,.11,0,.16A16.08,16.08,0,0,0,916.33,1109.79Z" transform="translate(-18.26 -119.66)"/><path class="cls-7" d="M1344.61,1115.62a22.16,22.16,0,0,0,2.32-4.2A22.16,22.16,0,0,1,1344.61,1115.62Z" transform="translate(-18.26 -119.66)"/><path class="cls-7" d="M943.77,1133.5a179.63,179.63,0,0,0,19.82,7.72A179.63,179.63,0,0,1,943.77,1133.5Z" transform="translate(-18.26 -119.66)"/><path class="cls-7" d="M1340.35,1120.57a33.67,33.67,0,0,0,3.75-4.26A33.67,33.67,0,0,1,1340.35,1120.57Z" transform="translate(-18.26 -119.66)"/><path class="cls-7" d="M923.13,1120.21a49.91,49.91,0,0,0,5.13,4.35A48.87,48.87,0,0,1,923.13,1120.21Z" transform="translate(-18.26 -119.66)"/><path class="cls-7" d="M928.36,1124.64a76.81,76.81,0,0,0,6.49,4.21A76.81,76.81,0,0,1,928.36,1124.64Z" transform="translate(-18.26 -119.66)"/><path class="cls-7" d="M919.18,1115.56a30.67,30.67,0,0,0,3.58,4.3A30.67,30.67,0,0,1,919.18,1115.56Z" transform="translate(-18.26 -119.66)"/><path class="cls-7" d="M979.33,1064.45q-7.33,1.93-14,4Q972,1066.38,979.33,1064.45Z" transform="translate(-18.26 -119.66)"/><path class="cls-7" d="M935.53,1129.25c2.38,1.36,4.94,2.69,7.7,4C940.47,1131.94,937.91,1130.61,935.53,1129.25Z" transform="translate(-18.26 -119.66)"/><path class="cls-8" d="M1348.21,1106.23a16.84,16.84,0,0,1-1,4.46c-.09.24-.16.48-.26.73a22.16,22.16,0,0,1-2.32,4.2c-.16.23-.34.46-.51.69a33.67,33.67,0,0,1-3.75,4.26l-.07.06a51.64,51.64,0,0,1-5.26,4.31l-.29.21a76.75,76.75,0,0,1-6.49,4.12l-.49.28a155.77,155.77,0,0,1-27.49,11.66h0c-39.67-13-100.31-21.36-168.32-21.36s-128.68,8.34-168.34,21.37h0a179.63,179.63,0,0,1-19.82-7.72l-.54-.26c-2.76-1.3-5.32-2.63-7.7-4l-.68-.4a76.81,76.81,0,0,1-6.49-4.21l-.1-.08a49.91,49.91,0,0,1-5.13-4.35l-.37-.35a30.67,30.67,0,0,1-3.58-4.3c-.17-.25-.34-.49-.5-.74a20.36,20.36,0,0,1-2.15-4.34c-.08-.23-.13-.46-.2-.69a16.08,16.08,0,0,1-.76-4.63c0-.05,0-.1,0-.16a.77.77,0,0,0,0-.15c.09-4.93,2.53-9.72,7-14.28,8.1-8.22,22.89-15.72,42.74-22.07q6.61-2.12,14-4,3.67-1,7.51-1.89c38.38-9.22,89.27-14.83,145.1-14.83h0c41.08,0,79.48,3,112.2,8.31,62.45,10.07,104.17,28.3,104.17,49.12,0,.36-.08.71-.1,1.07Z" transform="translate(-18.26 -119.66)"/><path class="cls-6" d="M1351.56,1107.77c-1.83,14.23-16.87,22.6-28.61,28.1-3.83,1.79-7.74,3.4-11.7,4.89-2.73,1-6.52,3.16-9.52,3.09-2.73-.06-6-1.8-8.64-2.58q-4.74-1.39-9.53-2.63c-31.76-8.21-64.61-12.24-97.29-14.42A784.57,784.57,0,0,0,1071,1125c-31.38,2.54-62.94,6.84-93.32,15.29-2.89.81-5.77,1.65-8.63,2.55-3.76,1.17-5.28.8-9-.5a157.17,157.17,0,0,1-22.57-9.66c-10.65-5.74-25.43-15.3-25.3-29.1.13-13.07,14.39-21.88,24.62-27.14,15-7.7,31.48-12.55,47.81-16.47,32.12-7.72,65.19-11.54,98.13-13.48a795,795,0,0,1,113.72,1.35c33.78,2.87,68,7.68,100.41,17.91,12,3.78,23.91,8.33,34.66,14.9,7.11,4.34,14.53,10.05,18.15,17.79,1.21,2.58,2.61,6.47,1.84,9.37s-7.37-.58-6.7-3.08c1.55-5.81-4.26-12.19-8.17-15.54-7.37-6.3-16.6-10.42-25.54-13.93-26.93-10.58-56.14-15.67-84.72-19.28a734.26,734.26,0,0,0-193.6,1.09c-28.13,4-57.09,9.38-83.25,20.83-10.61,4.64-24.23,11.21-29.25,22.42-6.44,14.38,10.78,24.76,21.48,30,2.79,1.37,5.64,2.63,8.51,3.81,3.5,1.44,8.79,4.47,12.61,4.63,1.64.07-.1.15.22-.08l-.65-.41,1.09-.35a17,17,0,0,1,3.93-1.21c2.92-.88,5.86-1.72,8.81-2.5,12.11-3.24,24.39-5.78,36.74-7.89a667.34,667.34,0,0,1,92-8.7c59.38-1.79,120.71,1.23,178.4,16.39q8.14,2.13,16.14,4.73l-2.11.06c9.56-3.58,19.08-6.84,28-11.93,8.52-4.88,18-11.68,19.39-22.15C1345.24,1101.74,1351.9,1105.13,1351.56,1107.77Z" transform="translate(-18.26 -119.66)"/><path class="cls-6" d="M1369.69,1177.32c-2.85,16.57-9.33,34.11-17.19,51.06,3.77-1.92,7.58-3.72,11.29-5.71a234.83,234.83,0,0,0,9.55-24.65c1.29-4.07,2.33-8.19,3.21-12.16.42-3.75,2.1-8.47-.13-10.64,0-.11.48-.5.09-.33l-.79.26-1.79.64Z" transform="translate(-18.26 -119.66)"/><path class="cls-6" d="M1365.64,1230.91a275.28,275.28,0,0,0,28.26,9.86c4.92,1.5,10,2.52,15.25,3.65,5.49.77,10.37,2,17.57,1.26l-2.29,1.49-1.89,1.17c-1.32.83-2.4,1.43-3.53,2.07-2.25,1.26-4.57,2.6-6.69,3.64-19.78-3.3-37.2-9-54-16Z" transform="translate(-18.26 -119.66)"/><path class="cls-6" d="M1328.24,1195.12a378.24,378.24,0,0,1-26,48.64l12-4.18q7.13-11.68,13.47-23.15c4.06-8,8-15.55,11.34-23.45C1335.59,1193.86,1331.84,1194.41,1328.24,1195.12Z" transform="translate(-18.26 -119.66)"/><path class="cls-6" d="M1315,1247.94c8.45,4.87,17.15,9.41,26.18,14,9,4.24,18.28,8.53,27.91,12.27-4.22,1.58-8.44,2.69-12.66,4-8.73-3.43-17.2-7.36-25.45-11.41-8.22-3.9-16.25-8.25-24.07-12.71Z" transform="translate(-18.26 -119.66)"/><path class="cls-6" d="M1281.85,1208q-7.08,11.54-14.86,23.23-7.9,11.28-16.42,22.67l12.34-3.16c5.56-7,10.82-14.42,15.89-21.71s9.93-14.51,14.4-22.06C1289.41,1207.35,1285.71,1207.87,1281.85,1208Z" transform="translate(-18.26 -119.66)"/><path class="cls-6" d="M1262.84,1259.17c8,5.83,16.12,11.26,24.5,16.55s17,10.71,25.89,15.51c-4.22.89-8.45,1.9-12.67,2.56q-12.16-7-23.72-14.06c-7.71-4.92-15.25-10-22.6-15.07Z" transform="translate(-18.26 -119.66)"/><path class="cls-6" d="M1233.28,1216.49q-8.21,10.92-17,21.93c-5.86,7.27-12,14.2-18.18,21.34l12.56-2.14c6.11-6.48,12-13.65,17.68-20.41s11.29-13.54,16.53-20.73Q1239.13,1216.69,1233.28,1216.49Z" transform="translate(-18.26 -119.66)"/><path class="cls-6" d="M1210,1266c7.5,6.48,15.14,12.35,23,18.43s15.92,12.23,24.2,17.77c-4.23.6-8.44,1-12.66,1.35-15.17-10.57-29.64-21.27-43.54-32.79Z" transform="translate(-18.26 -119.66)"/><path class="cls-6" d="M1183.53,1221.31c-12.09,13.66-24.83,27.53-38.19,40.86,4.24-.31,8.46-.89,12.69-1.44,13-12.8,25.48-25.28,37.18-38.72Z" transform="translate(-18.26 -119.66)"/><path class="cls-6" d="M1156.77,1269.07c14.13,13.24,28.87,26.89,44.38,39.32l-12.6.57c-14.24-11.76-27.91-23.52-41-35.6C1150.61,1272.07,1153.7,1270.52,1156.77,1269.07Z" transform="translate(-18.26 -119.66)"/><path class="cls-6" d="M1133.05,1222.67c-6.48,6.57-13.11,13.18-19.87,19.72l-20.71,19,12.76-.66c13.7-11.63,26.9-24.31,39.57-36.4Z" transform="translate(-18.26 -119.66)"/><path class="cls-6" d="M1103.51,1268.94c13.33,14.57,27.29,27.93,41.83,41.94l-12.49-.42-19.8-18.57-19-19.26Z" transform="translate(-18.26 -119.66)"/><path class="cls-6" d="M1082.33,1221.47q-20.44,18.57-42.59,36.39c4.24.18,8.52,0,12.77-.06,14.35-11.16,28.1-22.32,41.5-34.27Z" transform="translate(-18.26 -119.66)"/><path class="cls-6" d="M1050.32,1266c12.53,14.84,25.74,29.9,39.49,44.07l-12.44-.9c-12.77-13.11-25-26.57-36.74-39.89Z" transform="translate(-18.26 -119.66)"/><path class="cls-6" d="M1032.13,1217.23c-14.33,11.82-29.09,22.71-44.71,33.57l12.73.84c15-9.79,29.51-20.85,43.34-31.46Z" transform="translate(-18.26 -119.66)"/><path class="cls-6" d="M997.41,1259.6c11.45,16.07,23.8,31.16,36.81,46.65l-12.49-1.85c-12.06-13.63-23.51-28-34.23-42.26Z" transform="translate(-18.26 -119.66)"/><path class="cls-6" d="M983,1209.77a536.25,536.25,0,0,1-47,29.77l12.57,2c15.77-8.52,31-18.3,45.37-28C990.16,1212.45,986.59,1211,983,1209.77Z" transform="translate(-18.26 -119.66)"/><path class="cls-6" d="M945.1,1249.19c10,17,21.26,33.11,33.3,49.5-4.16-.75-8.33-1.88-12.49-2.8-11.15-14.62-21.51-29.9-30.94-45Z" transform="translate(-18.26 -119.66)"/><path class="cls-6" d="M935.62,1198.3a375.12,375.12,0,0,1-49.4,24.43l12.15,3.56c8.34-3.39,16.53-7.23,24.35-11,8-4,15.7-8.16,23.15-12.33Z" transform="translate(-18.26 -119.66)"/><path class="cls-6" d="M894.06,1233.5c4,9,8.45,17.65,13.17,26.66,4.78,8.77,9.88,17.38,15.27,26.19l-12.43-4.06a411.6,411.6,0,0,1-26.27-48.48Z" transform="translate(-18.26 -119.66)"/><path class="cls-6" d="M891.88,1182c-15.86,7-33,13.09-50.72,15.83a102.3,102.3,0,0,0,10.47,6c17.46-3.47,33.77-9.38,49.21-16Z" transform="translate(-18.26 -119.66)"/><path class="cls-6" d="M845.9,1210c4.3,19.24,11.88,38.44,20.83,57.37l-12.33-6c-8.14-17.57-15.09-35.35-18.8-53.69A85.82,85.82,0,0,0,845.9,1210Z" transform="translate(-18.26 -119.66)"/><path class="cls-1" d="M721.47,1320.86l18.32,5.72c-48.68-32-148.93-23.56-204.7-21.13-20.09.88-112.21.13-117.67,29.52-6.37,34.29,183.36,38.41,203.11,38.9,38,.94,80.07.49,116.63-13.18C762.75,1351.11,745.9,1331.92,721.47,1320.86Z" transform="translate(-18.26 -119.66)"/><path class="cls-1" d="M380.33,1313.46c-24-2.44-49-7-71.21,3.91-24.49,12-27,22.58-.25,31,14.42,4.52,111.29-3.21,74.09-34.88" transform="translate(-18.26 -119.66)"/><circle class="cls-9" cx="864.08" cy="491.51" r="6.56"/><path class="cls-10" d="M592,598.93s57.72,96.2,80.46,99.7S866.6,661.9,866.6,661.9l15.74,40.23s-127.69,63-208.15,75.21S520.27,649.66,520.27,649.66" transform="translate(-18.26 -119.66)"/><path class="cls-11" d="M592.46,494.57c-12.41-68.51-60-75.56-60-75.56L503,599.09s-22.17,66.42,18.94,70.16c56.63,5.15,107.49-34,107.49-34S604.87,563.07,592.46,494.57Z" transform="translate(-18.26 -119.66)"/><path class="cls-12" d="M558.24,1125.27c3.83.46,7.67.92,11.51,1.35,13.06,1.43,26.13,1.57,39.25,1.59,22.35,0,44.74-.56,67.06.46-20.84-9.44-38.06-18.19-40.86-24.34-6.21-13.67,80.25-308.55,73.38-336-12.87-51.49-240.72-21.82-240.72-21.82L473,854.61H576S569.51,1014.63,558.24,1125.27Z" transform="translate(-18.26 -119.66)"/><path class="cls-13" d="M572.32,1177.63c5,.29,10.14.4,15.34.4,21.28,0,41.15,1,61.9,6.07,10.4,2.55,21.13,4.67,32,6.24,21.45.85,42.71.56,60.05-1.91,45-6.44,34.76-29.61,9-33.47C737.68,1153,716,1144.57,695,1134q-4.28-2.16-8.47-4.43c-3.42-1.84-6.75-3.73-10-5.64q-4.07-2.39-7.89-4.79c-2.6-1.64-5.11-3.28-7.49-4.92s-4.94-3.47-7.15-5.17a89.73,89.73,0,0,1-9.77-8.56c-15.38-16-24.46,24.45-42.48,20.59S549,1096.61,549,1096.61l3.86,74.65S557.08,1174.08,572.32,1177.63Z" transform="translate(-18.26 -119.66)"/><path class="cls-10" d="M534.8,1173.84l-66.94-23.17s-233.37-148.5-314.08-186.22c-12.25,38.64-34.93,100.3,6.44,132,3.51,2.69,7.18,5.24,10.88,7.75-4.7-12.7-5.46-23,3.28-25.65,25.74-7.72,211.1,162.19,329.52,149.32C576.29,1220,534.8,1173.84,534.8,1173.84Z" transform="translate(-18.26 -119.66)"/><path class="cls-14" d="M516.78,227.73c-11.2,16.76-31.53,32-53.1,29.51,11.6,9.15,19.73,13.06,34.81,13.1-7.89,8.5-19,13.57-30.52,13,5.12,11.61,11.46,16.14,24,19.05a131.7,131.7,0,0,1-13.44,2.74c14.9,36.5,43.87,48.17,79.2,26.61,20.29-12.38,37.15-26.65,44-50.12,2.19-7.45,8.68-54.27-.07-53.89" transform="translate(-18.26 -119.66)"/><path class="cls-12" d="M470.44,1024.52S596.58,1112.05,576,1171.26s-54.06,61.79-90.11,46.34-136.44-105.55-136.44-105.55" transform="translate(-18.26 -119.66)"/><polyline class="cls-15" points="336.33 601.08 598.92 606.23 534.56 806.17 279.69 768.41"/><path class="cls-16" d="M341.72,857.18l43.76,33.47L519.35,1027.1s-69.51,51.48-123.57,82.38S298,1135.22,298,1135.22L179.53,1011.65S63.68,929.27,61.1,857.18s59.21-113.27,59.21-113.27" transform="translate(-18.26 -119.66)"/><path class="cls-17" d="M506.48,383.49s-115.85-18-242,87.53S37.93,782.52,37.93,782.52s28.9,61.71,141.6,87.53C426.67,926.69,419,754.2,419,754.2s2.57-5.14,2.57-15.44S574.7,586.87,592.72,522.51,506.48,383.49,506.48,383.49Z" transform="translate(-18.26 -119.66)"/><path class="cls-12" d="M539.92,334.07l-40.54,53s-13.5,78.79,20,104.53,58.32,6.95,57.47-24c-.54-19.6,27.49-45.54,27.49-45.54" transform="translate(-18.26 -119.66)"/><path class="cls-11" d="M429.25,725.89c-31.58,35.73-112.93,38.48-155.81,35.52-38.75-2.68-79.62-13.63-114.36-30.12C194.7,777.93,311,795.45,361.14,765.42c-57.21,34.36-108.39,36.55-173.6,40.8,54.87,17,116.68,23,170.62-1.72,22.13-10.14,66-43.28,55.64-65.74" transform="translate(-18.26 -119.66)"/><path class="cls-12" d="M550.67,290.35l3.54,18.14.87-.28c75-35.43,41.24-96.17,93-102.36,35.37-4.23,78.68,2.1,85.9,44.62l.78-.25s-1.5,214.82-112,207.58c-114.15-7.49-88-118.08-88-118.08s-36.45,5.32-29.17-42.21S547.13,272.21,550.67,290.35Z" transform="translate(-18.26 -119.66)"/><path class="cls-18" d="M503.91,234.17l247.14,51.49s47.83-131.56-97-162.19C520.21,95.15,503.91,234.17,503.91,234.17Z" transform="translate(-18.26 -119.66)"/><path class="cls-15" d="M385.48,890.65s-47.2,48.91-100.4,69.51,58.35-56.64,58.35-56.64-66.93,12-109.84,25.75S365.74,872.63,376,872.63" transform="translate(-18.26 -119.66)"/><path class="cls-19" d="M543.81,303.68c.87-19.1-22.06-28.2-27-7.73-4.49,18.51,8.6,26,23.08,29.32-15,1.9-18.58-23.61-6.8-29.18-6.43,8.72,5.47,13.8,9.45,6.3" transform="translate(-18.26 -119.66)"/><path class="cls-14" d="M604.31,294.67s38.61-6.44,41.19-1.29,5.15,15.45,1.29,15.45-38.62-6.44-38.62-6.44" transform="translate(-18.26 -119.66)"/><path class="cls-7" d="M653.22,329.42c-5.15,0-48.91-6.43-48.91-6.43s6.26,15,16.73,16.73C644.21,343.58,653.22,329.42,653.22,329.42Z" transform="translate(-18.26 -119.66)"/><path class="cls-20" d="M642.14,328.25c-3-.38-6.36-.82-9.83-1.29-8.51.51-15.26,5-16.21,10.75a13.85,13.85,0,0,0,4.94,2c15.07,2.51,24.12-2.59,28.63-6.47A16.78,16.78,0,0,0,642.14,328.25Z" transform="translate(-18.26 -119.66)"/><path class="cls-7" d="M721.87,341.44c-4.42,0-42-6.44-42-6.44s5.38,15,14.38,16.73C714.13,355.6,721.87,341.44,721.87,341.44Z" transform="translate(-18.26 -119.66)"/><path class="cls-20" d="M712.35,340.27c-2.59-.38-5.47-.83-8.45-1.3-7.32.52-13.12,5-13.94,10.76a11.06,11.06,0,0,0,4.25,2c12.95,2.52,20.73-2.59,24.61-6.47A14.39,14.39,0,0,0,712.35,340.27Z" transform="translate(-18.26 -119.66)"/><path class="cls-19" d="M678.68,314.34a119.2,119.2,0,0,0-5.34,12.93,56.36,56.36,0,0,0-2.51,10.62,45,45,0,0,0-.23,9.35,84.76,84.76,0,0,0,1.53,10.39c.38,1.9.79,3.8,1.21,5.69s.83,3.87,1.35,5.78c.39,1.42.84,2.82,1.25,4.23.18.59.34,1.19.48,1.79.06.27.12.55.16.82s0,.51,0,0c0,.13,0,.26,0,.4a6.1,6.1,0,0,1,0,.74c0,.11,0,.22,0,.33s0,.13,0,.19a2.45,2.45,0,0,0,0-.36s0,.08,0,.12a4.88,4.88,0,0,1-.16.66c0,.11-.09.22-.12.33,0-.08.23-.5.1-.24l-.09.19a6.18,6.18,0,0,1-.4.64s-.06.07-.06.09.29-.36.2-.26l-.13.15c-.09.11-.19.22-.29.32a7.81,7.81,0,0,1-.67.62l-.19.15c-.13.12.28-.2.23-.18l-.11.09-.45.32a19.31,19.31,0,0,1-2.12,1.21q-.66.33-1.35.63l-.35.15c.61-.27.33-.13.19-.08l-.44.17a20.43,20.43,0,0,1-3.93,1l-.53.08.18,0-.31,0c-.39.05-.79.09-1.18.12-.78.05-1.56.07-2.33.06s-1.63-.06-2.44-.14l-.59-.07.28,0a.47.47,0,0,1-.17,0l-.34-.05c-.41-.07-.82-.14-1.22-.23a23.45,23.45,0,0,1-2.36-.64c-.39-.14-.78-.28-1.17-.44s.35.16.08,0l-.27-.12-.59-.28a15.38,15.38,0,0,1-2.14-1.26c-.17-.11-.33-.23-.49-.35s.37.3.06.05l-.27-.22a12.64,12.64,0,0,1-.94-.85c-.28-.28-.56-.57-.81-.87-.14-.15-.27-.32-.4-.48s.25.33.12.16l-.09-.11-.21-.29a1.94,1.94,0,0,0-1.09-.84,1.82,1.82,0,0,0-2.06,2.68,17.63,17.63,0,0,0,4.16,4.15,19.31,19.31,0,0,0,4.82,2.43,25.82,25.82,0,0,0,10.14,1.32,27.16,27.16,0,0,0,4.83-.69,23.14,23.14,0,0,0,4.42-1.61c2.67-1.25,5.59-3,6.45-6.05.71-2.47-.15-5.1-.87-7.46-.47-1.53-.94-3.07-1.31-4.62-.49-2-.92-4.05-1.37-6.08q-.62-2.82-1.16-5.65-.24-1.29-.45-2.58c-.07-.42-.13-.83-.19-1.25l-.09-.6a1.11,1.11,0,0,0,0-.17c0-.19,0,.32,0,.28a2.65,2.65,0,0,1-.05-.38,50.44,50.44,0,0,1-.37-9.51c0-.79.12-1.58.22-2.36l0-.29c0-.09.06-.44,0-.09s0,0,0-.09,0-.22,0-.33c.06-.42.13-.84.2-1.26.31-1.72.72-3.43,1.2-5.12.54-1.9,1.17-3.78,1.87-5.63.38-1,.78-2,1.19-3.05.11-.25.21-.5.32-.76s0,.07,0,.11a1.22,1.22,0,0,1,.07-.17l.21-.5.72-1.65c.51-1.15,1-2.28,1.57-3.42a1.94,1.94,0,0,0,.18-1.4,1.82,1.82,0,0,0-3.33-.44Z" transform="translate(-18.26 -119.66)"/><path class="cls-21" d="M614.61,257.34s22.52,53.31,61.78,71.22c48.92,22.32,162.82,22,144.17,10.3-61.79-38.61-69.51-53.2-69.51-53.2" transform="translate(-18.26 -119.66)"/><path class="cls-22" d="M772.09,1173.9c-4.21,4.65-13.07,8.79-28.35,11-17.53,2.53-39,2.82-60.71,2-11-1.61-21.85-3.77-32.36-6.38-21-5.2-41.07-6.18-62.58-6.19-2.24,0-8.09.18-13.38.32a150.9,150.9,0,0,1-6,14.06c6.81-.08,15.7-.37,19.36-.37,21.51,0,41.61,1,62.58,6.2,10.51,2.6,21.37,4.77,32.36,6.37,21.68.86,43.18.57,60.71-1.95C774.13,1194.52,779.54,1182.56,772.09,1173.9Z" transform="translate(-18.26 -119.66)"/><path class="cls-23" d="M634.34,1125.78c-8.58,11.16-16.3,20.6-8.58,18.88s12.87-16.3,23.17-22.31c4.18-2.44,9.16-5,13.66-7.19-.47-.32-1-.64-1.46-1-2.52-1.74-4.94-3.47-7.15-5.17l-.34-.28C648.11,1112.49,639.71,1118.8,634.34,1125.78Z" transform="translate(-18.26 -119.66)"/><path class="cls-23" d="M673.82,1127.5c1.43-.84,3-1.69,4.56-2.54-.62-.35-1.26-.69-1.87-1-2.17-1.27-4.24-2.55-6.31-3.83a68.67,68.67,0,0,0-11,10.85c-8.58,11.16-16.31,20.6-8.58,18.88S663.52,1133.51,673.82,1127.5Z" transform="translate(-18.26 -119.66)"/><path class="cls-23" d="M696,1134.47l-1-.49c-2.23-1.13-4.43-2.29-6.62-3.46a58.38,58.38,0,0,0-6.84,7.28c-8.58,11.15-16.3,20.59-8.58,18.88S685.79,1140.53,696,1134.47Z" transform="translate(-18.26 -119.66)"/><path class="cls-24" d="M489.87,600.11h0C489.57,600.42,489.87,600.11,489.87,600.11Z" transform="translate(-18.26 -119.66)"/><path class="cls-24" d="M417.62,780.72c.31-.5.42-.59,0,0Z" transform="translate(-18.26 -119.66)"/><path class="cls-10" d="M532.53,370.11c-.36,10.28.54,24,4.27,41.92,5.07,24.35,23,42.49,40.07,54.71.1-6.24,3-13.05,6.78-19.44C543.66,429.35,533.83,395.17,532.53,370.11Z" transform="translate(-18.26 -119.66)"/><path class="cls-25" d="M659.45,406.83c-5.2-1-18.71-1-32.22-8.31S608.52,385,608.52,385s3.12,21.83,16.63,26,28.06,4.16,28.06,4.16" transform="translate(-18.26 -119.66)"/><path class="cls-10" d="M859.22,690.4s2.9,20.65,26.62,10c35-15.74,54.92-62.38,47.66-88.45C929.78,598.57,917,601.34,917,601.34" transform="translate(-18.26 -119.66)"/><path class="cls-9" d="M867.18,678.79,710.34,689.53c-5.4.09-20.25-12-18.91-17.1l20.9-79.59c1.34-5.1,6.84-9.35,12.24-9.44l168.37-2.75c5.39-.09,20.31,8.94,19,14l-32.5,74.66C878.07,674.45,872.57,678.7,867.18,678.79Z" transform="translate(-18.26 -119.66)"/><path class="cls-26" d="M887.6,677.45,713.12,690.63c-5.39.09-8.71-4-7.37-9.11l20.89-79.59c1.34-5.1,6.85-9.34,12.24-9.43l168.38-2.76c5.39-.08,8.7,4,7.37,9.12L899.83,668C898.49,673.12,893,677.37,887.6,677.45Z" transform="translate(-18.26 -119.66)"/><path class="cls-12" d="M928.28,588.52s-11.09-24.2-20.33-26.64-47.11,5.93-47,14.31,37.47,3.53,37.47,3.53L910,590.85" transform="translate(-18.26 -119.66)"/><path class="cls-12" d="M935.25,619.48s11.5-26.09,1.4-31-51.16-3.62-49.06,7.42,36.73,12.24,36.73,12.24Z" transform="translate(-18.26 -119.66)"/><path class="cls-12" d="M936.5,643s15.11-16.37-3-23.09c-13.73-5.1-40.43-3.88-38.91,5.25C896.35,635.76,936.5,643,936.5,643Z" transform="translate(-18.26 -119.66)"/><path class="cls-12" d="M931,648.64c-4.54-1.81-38.81-13.58-40.39-1.84s33.49,17.64,33.49,17.64a12.79,12.79,0,0,0,10.49-7C937.85,650.76,931,648.64,931,648.64Z" transform="translate(-18.26 -119.66)"/><path class="cls-21" d="M684.92,272.22a4.76,4.76,0,0,1,.52.1c.64.21,1.29.37,1.94.53a24,24,0,0,1,3,.85c7.53-31.91,27-138.59-47.68-150.54-76.43-12.23-116.58,86.25-126.88,113.92a6.24,6.24,0,0,1,2.57.26c.71.23,1.44.42,2.17.62C533.81,200.52,571.28,112.89,641,124,710.19,135.11,694.48,232.22,684.92,272.22Z" transform="translate(-18.26 -119.66)"/><path class="cls-13" d="M111.74,1117.42c-.09-2.74-.17-5.44-.22-8.08C111.57,1112,111.65,1114.68,111.74,1117.42Z" transform="translate(-18.26 -119.66)"/><path class="cls-13" d="M158.27,1194.73c-24.59,0-35.51-12.53-40.61-26.82,5.1,14.29,16,26.82,40.61,26.82,42.3,0,62.46,0,62.63-17.81C220.73,1194.72,200.57,1194.73,158.27,1194.73Z" transform="translate(-18.26 -119.66)"/><path class="cls-13" d="M133.19,986.58c.31-.49.62-1,.91-1.38C133.8,985.63,133.5,986.09,133.19,986.58Z" transform="translate(-18.26 -119.66)"/><path class="cls-13" d="M132.18,988.21c.32-.53.62-1,.92-1.49C132.8,987.19,132.5,987.68,132.18,988.21Z" transform="translate(-18.26 -119.66)"/><path class="cls-13" d="M113.71,1054.12c.17-1.51.34-3,.53-4.45C114.05,1051.13,113.88,1052.61,113.71,1054.12Z" transform="translate(-18.26 -119.66)"/><path class="cls-13" d="M119.45,1021.2c.23-.91.47-1.81.7-2.69C119.92,1019.39,119.68,1020.29,119.45,1021.2Z" transform="translate(-18.26 -119.66)"/><path class="cls-13" d="M114.43,1048.14c.21-1.58.43-3.12.65-4.63C114.86,1045,114.64,1046.56,114.43,1048.14Z" transform="translate(-18.26 -119.66)"/><path class="cls-13" d="M111.68,1082.71q.12-3.12.25-6.12Q111.8,1079.59,111.68,1082.71Z" transform="translate(-18.26 -119.66)"/><path class="cls-13" d="M112,1075.72c.11-2.11.24-4.17.37-6.2C112.21,1071.55,112.08,1073.61,112,1075.72Z" transform="translate(-18.26 -119.66)"/><path class="cls-13" d="M121.69,1013.09c.28-.94.57-1.86.86-2.76C122.26,1011.23,122,1012.15,121.69,1013.09Z" transform="translate(-18.26 -119.66)"/><path class="cls-13" d="M128.9,994.3c.29-.6.58-1.17.86-1.72C129.48,993.13,129.19,993.7,128.9,994.3Z" transform="translate(-18.26 -119.66)"/><path class="cls-13" d="M126.57,999.43q.45-1.06.9-2.07Q127,998.37,126.57,999.43Z" transform="translate(-18.26 -119.66)"/><path class="cls-13" d="M120.59,1016.88c.24-.85.47-1.68.71-2.49C121.06,1015.2,120.83,1016,120.59,1016.88Z" transform="translate(-18.26 -119.66)"/><path class="cls-13" d="M112.45,1067.92q.21-2.88.45-5.65Q112.66,1065,112.45,1067.92Z" transform="translate(-18.26 -119.66)"/><path class="cls-13" d="M130.06,992q.45-.87.9-1.68Q130.51,991.14,130.06,992Z" transform="translate(-18.26 -119.66)"/><path class="cls-13" d="M131.2,989.91c.31-.56.62-1.09.92-1.6C131.82,988.82,131.51,989.35,131.2,989.91Z" transform="translate(-18.26 -119.66)"/><path class="cls-13" d="M113,1060.65c.17-1.8.34-3.58.53-5.31C113.38,1057.07,113.21,1058.85,113,1060.65Z" transform="translate(-18.26 -119.66)"/><path class="cls-13" d="M111.48,1090.94c0-2.31.09-4.58.15-6.8C111.57,1086.36,111.51,1088.63,111.48,1090.94Z" transform="translate(-18.26 -119.66)"/><path class="cls-13" d="M138.53,979.76a30.47,30.47,0,0,0-4.39,5.38c.92-1.35,1.73-2.41,2.4-3.22l.8.8c-9.26,20.16-20.44,61.8-15.11,141.64,1.28,19.27,3,56.64,45.48,56.64,25.84,0,43.38,0,53.19-4.08,0-.08,0-.14,0-.21,0-10-11.46-29.47-20.15-46.61-18.88,3.74-67.74.88-65.62-7.45,20.88-.63,41,.33,61.72-.55a85.81,85.81,0,0,1-4.59-11.72c-19.85,2.27-56.52-.78-54.6-8.33,20.12-.61,35.15.36,53.81-.36a5.37,5.37,0,0,1,1.11-2.21c9-10.3,14.16-12.88,7.73-24.46s-32.61-16.74-41.19-2.15c-5.26,9-9-38.18,2.57-52.34a46.52,46.52,0,0,1,13.87-11.79c-5.9-4.42-17.84-13.66-31.88-26.11Zm1.75,163.48c22.63-.68,44.34.58,66.91-.75q1.8,3.43,3.52,6.81C197.76,1155,137.94,1152.45,140.28,1143.24Z" transform="translate(-18.26 -119.66)"/><path class="cls-13" d="M115.33,1041.87c.23-1.48.46-2.93.7-4.34C115.79,1038.94,115.56,1040.39,115.33,1041.87Z" transform="translate(-18.26 -119.66)"/><path class="cls-13" d="M116.29,1036.1c.2-1.14.41-2.26.62-3.37C116.7,1033.84,116.49,1035,116.29,1036.1Z" transform="translate(-18.26 -119.66)"/><path class="cls-13" d="M118.29,1026.1c.27-1.18.53-2.34.81-3.47C118.82,1023.76,118.56,1024.92,118.29,1026.1Z" transform="translate(-18.26 -119.66)"/><path class="cls-13" d="M125.28,1002.61c.3-.77.6-1.51.9-2.24C125.88,1001.1,125.58,1001.84,125.28,1002.61Z" transform="translate(-18.26 -119.66)"/><path class="cls-13" d="M117.18,1031.36c.25-1.28.51-2.52.78-3.74C117.69,1028.84,117.43,1030.08,117.18,1031.36Z" transform="translate(-18.26 -119.66)"/><path class="cls-13" d="M124.21,1005.47c.23-.64.46-1.27.7-1.88C124.67,1004.2,124.44,1004.83,124.21,1005.47Z" transform="translate(-18.26 -119.66)"/><path class="cls-13" d="M112.17,1127.43q-.23-4.26-.37-8.35Q112,1123.18,112.17,1127.43Z" transform="translate(-18.26 -119.66)"/><path class="cls-13" d="M111.5,1108.38q-.06-3.74-.08-7.33Q111.44,1104.65,111.5,1108.38Z" transform="translate(-18.26 -119.66)"/><path class="cls-13" d="M123,1009.07q.41-1.22.81-2.37Q123.37,1007.86,123,1009.07Z" transform="translate(-18.26 -119.66)"/><path class="cls-13" d="M127.81,996.6c.26-.56.51-1.11.77-1.64C128.32,995.49,128.07,996,127.81,996.6Z" transform="translate(-18.26 -119.66)"/><path class="cls-13" d="M111.41,1099.83c0-2.47,0-4.87,0-7.24C111.42,1095,111.41,1097.36,111.41,1099.83Z" transform="translate(-18.26 -119.66)"/><path class="cls-13" d="M112.78,1138c-.2-3.08-.38-6.1-.53-9.08C112.4,1131.94,112.58,1135,112.78,1138Z" transform="translate(-18.26 -119.66)"/><path class="cls-23" d="M137.67,1102.05c-1.92,7.55,34.75,10.6,54.6,8.33h0c-1-3.5-1.4-6.5-.82-8.69h0C172.82,1102.41,157.79,1101.44,137.67,1102.05Z" transform="translate(-18.26 -119.66)"/><path class="cls-23" d="M135.14,1122.65c-2.12,8.33,46.74,11.19,65.62,7.45h0q-2.1-4.12-3.88-8h0C176.14,1123,156,1122,135.14,1122.65Z" transform="translate(-18.26 -119.66)"/><path class="cls-23" d="M210.71,1149.3q-1.72-3.37-3.52-6.81c-22.57,1.33-44.28.07-66.91.75C137.94,1152.45,197.76,1155,210.71,1149.3Z" transform="translate(-18.26 -119.66)"/><path class="cls-22" d="M122.23,1124.36c-5.33-79.84,5.85-121.48,15.11-141.64l-.8-.8c-.67.81-1.48,1.87-2.4,3.22l0,.06c-.29.43-.6.89-.91,1.38l-.09.14c-.3.47-.6,1-.92,1.49l-.06.1c-.3.51-.61,1-.92,1.6l-.24.42q-.45.81-.9,1.68l-.3.57c-.28.55-.57,1.12-.86,1.72-.11.22-.22.44-.32.66-.26.53-.51,1.08-.77,1.64-.11.25-.23.5-.34.76q-.45,1-.9,2.07l-.39.94c-.3.73-.6,1.47-.9,2.24-.13.32-.25.66-.37,1-.24.61-.47,1.24-.7,1.88-.15.4-.29.81-.44,1.23q-.4,1.15-.81,2.37c-.14.41-.27.83-.41,1.26-.29.9-.58,1.82-.86,2.76l-.39,1.3c-.24.81-.47,1.64-.71,2.49-.14.53-.29,1.08-.44,1.63-.23.88-.47,1.78-.7,2.69-.11.48-.23.95-.35,1.43-.28,1.13-.54,2.29-.81,3.47l-.33,1.52c-.27,1.22-.53,2.46-.78,3.74l-.27,1.37c-.21,1.11-.42,2.23-.62,3.37-.09.48-.17.94-.26,1.43-.24,1.41-.47,2.86-.7,4.34-.08.54-.17,1.09-.25,1.64-.22,1.51-.44,3-.65,4.63-.07.51-.13,1-.19,1.53-.19,1.46-.36,2.94-.53,4.45,0,.41-.1.81-.14,1.22-.19,1.73-.36,3.51-.53,5.31,0,.54-.09,1.07-.14,1.62q-.24,2.77-.45,5.65c0,.53-.07,1.07-.11,1.6-.13,2-.26,4.09-.37,6.2,0,.29,0,.59,0,.87q-.14,3-.25,6.12c0,.48,0,1-.05,1.43-.06,2.22-.12,4.49-.15,6.8l0,1.65c0,2.37,0,4.77,0,7.24,0,.4,0,.82,0,1.22q0,3.6.08,7.33c0,.32,0,.64,0,1,0,2.64.13,5.34.22,8.08l.06,1.66q.15,4.1.37,8.35c0,.51,0,1,.08,1.53.15,3,.33,6,.53,9.08v0c.54,8.11,1.17,19.43,4.87,29.82,5.1,14.29,16,26.82,40.61,26.82,42.3,0,62.46,0,62.63-17.81h0c-9.81,4-27.35,4.08-53.19,4.08C125.23,1181,123.51,1143.63,122.23,1124.36Z" transform="translate(-18.26 -119.66)"/><path class="cls-27" d="M362,864.8s102.32-68.22,81.33-44.6-28.86,47.23-28.86,47.23,105-52.48,70.84-23.62-73.46,23.62-28.86,44.61,107.58,34.1,94.46,34.1L401.32,904.16" transform="translate(-18.26 -119.66)"/><path class="cls-12" d="M665.79,691.91S692.2,584.3,715.06,574.23s70.08-8,61.46,2.84-47.14,6.25-51.29,10.47-9.34,25-9.34,25,37.81-5.67,47.27,4-.64,19.12-.64,19.12L722.44,635s41.57,2,45.47,8.5-1.89,15.8-1.89,15.8l-40.39-3.55s42.74,2.15,44.68,14.36-4.88,36.4-15.45,35-.68-21.61-6.24-24.74-22.62-.65-22.62-.65S705.85,714,696.53,721.14s-20.91,4.37-20.91,4.37" transform="translate(-18.26 -119.66)"/><path class="cls-10" d="M762.52,635.66,722.44,635s30.79,1.48,41.85,6a52,52,0,0,0-1.32-5.81C762.7,635.5,762.52,635.66,762.52,635.66Z" transform="translate(-18.26 -119.66)"/><path class="cls-10" d="M735.74,656.61c9.7,1.12,23.84,3.5,30.66,8.25,0-1.44-.12-3.45-.24-5.81l-.14.23Z" transform="translate(-18.26 -119.66)"/><path class="cls-11" d="M576.82,467.64c.85,30.92-24,49.72-57.47,24s-20-104.53-20-104.53l8.37-10.94c-6.67-.23-16.07.51-19.84,5.89-6.12,8.75-23.26,133.29,47.22,140.81,57.38,6.12,46.5-49.32,42.87-63.31A26.46,26.46,0,0,0,576.82,467.64Z" transform="translate(-18.26 -119.66)"/><ellipse class="cls-7" cx="456.4" cy="628.4" rx="95.58" ry="43.68" transform="translate(-338.03 481.28) rotate(-51.98)"/><path class="cls-28" d="M487.51,652.72c-2.63,3.36-5.36,6.63-8.16,9.81l1.62-1.84A191.55,191.55,0,0,1,463.6,678l1.69-1.47A150.25,150.25,0,0,1,447.7,689.8l1.67-1.06a100,100,0,0,1-16.9,8.77l1.55-.61a55,55,0,0,1-15.32,3.8l1.36-.11A28.53,28.53,0,0,1,407.23,699l1.08.43a20.62,20.62,0,0,1-9.19-7.18l.68.95a28.53,28.53,0,0,1-4.68-12.06l.22,1.35a55.14,55.14,0,0,1,0-15.79l-.22,1.66a100,100,0,0,1,4.43-18.52l-.63,1.87a150.54,150.54,0,0,1,8.64-20.27l-1,2a193.31,193.31,0,0,1,12.6-21l-1.38,2a211.37,211.37,0,0,1,15.7-20.09l-1.62,1.83A192.85,192.85,0,0,1,449.2,578.8l-1.68,1.47A149.34,149.34,0,0,1,465.1,567l-1.66,1.06a99.21,99.21,0,0,1,16.9-8.77l-1.56.61a55.1,55.1,0,0,1,15.32-3.8l-1.36.11a28.59,28.59,0,0,1,12.84,1.64l-1.09-.43a20.69,20.69,0,0,1,9.19,7.18l-.68-1a28.53,28.53,0,0,1,4.69,12.07l-.22-1.35a55.8,55.8,0,0,1,0,15.78l.21-1.66A99.85,99.85,0,0,1,513.26,607l.63-1.87a149.9,149.9,0,0,1-8.63,20.27l1-2a191,191,0,0,1-12.6,21l1.39-2c-2.41,3.49-4.93,6.93-7.55,10.29a16.65,16.65,0,0,0-3,5.88c-.4,1.7-.2,3.38.68,3.95,1.93,1.22,5.8-.6,9-4.66A220.55,220.55,0,0,0,512,631.28a173.25,173.25,0,0,0,12.23-26,134.85,134.85,0,0,0,4.11-13.09,97.66,97.66,0,0,0,2.24-12.14,54.54,54.54,0,0,0-.74-19.41A26.62,26.62,0,0,0,522.24,547a24.09,24.09,0,0,0-14-6.05A45.87,45.87,0,0,0,490,543.12a94.32,94.32,0,0,0-21.06,9.72c-3.89,2.36-7.81,4.95-11.75,7.88s-8,6.3-11.94,9.79a211.77,211.77,0,0,0-21.8,22.58,225.84,225.84,0,0,0-19.07,26.41,188.29,188.29,0,0,0-13.56,26.27,127,127,0,0,0-7.59,24.43c-1.45,7.62-1.94,14.71-1.16,20.74a40.69,40.69,0,0,0,2.07,9,27.71,27.71,0,0,0,4.16,7.29,22.55,22.55,0,0,0,12.75,8c5,1.25,11,1.06,17.43-.38A81.7,81.7,0,0,0,439,706.79a143.26,143.26,0,0,0,22.05-14.91,199.11,199.11,0,0,0,22.07-21c3.79-4.2,7.47-8.5,11-13a16.65,16.65,0,0,0,3-5.88c.4-1.7.2-3.38-.68-4C494.54,646.84,490.68,648.66,487.51,652.72Z" transform="translate(-18.26 -119.66)"/><path class="cls-29" d="M458.1,616.1l0,.13,0-.13c.1-.4,0-.61-.22-.59C458.12,615.49,458.2,615.7,458.1,616.1Z" transform="translate(-18.26 -119.66)"/><path class="cls-29" d="M455.83,616.84l.5-.34-.5.34a2.39,2.39,0,0,0-.89,1A2.39,2.39,0,0,1,455.83,616.84Z" transform="translate(-18.26 -119.66)"/><path class="cls-29" d="M471.43,609.17l1.89-2.41h0l-1.89,2.41Z" transform="translate(-18.26 -119.66)"/><path class="cls-29" d="M465.55,610.35l.25.39a1.57,1.57,0,0,1-.09-.5Z" transform="translate(-18.26 -119.66)"/><path class="cls-29" d="M458,616.87a.83.83,0,0,1-.06.21A.83.83,0,0,0,458,616.87Z" transform="translate(-18.26 -119.66)"/><path class="cls-29" d="M457.78,615.54l.1,0Z" transform="translate(-18.26 -119.66)"/><path class="cls-29" d="M458,616.41a4,4,0,0,1-.08.46A4,4,0,0,0,458,616.41Z" transform="translate(-18.26 -119.66)"/><path class="cls-29" d="M471.53,607.42l1.4-.52Z" transform="translate(-18.26 -119.66)"/><path class="cls-29" d="M466.59,614.07c0-.05,0-.1,0-.15S466.59,614,466.59,614.07Z" transform="translate(-18.26 -119.66)"/><path class="cls-29" d="M468.14,612.16l.17-.11Z" transform="translate(-18.26 -119.66)"/><path class="cls-29" d="M466.63,613.69a1.44,1.44,0,0,1,.09-.24A1.44,1.44,0,0,0,466.63,613.69Z" transform="translate(-18.26 -119.66)"/><path class="cls-29" d="M466.26,615.74h0v0Z" transform="translate(-18.26 -119.66)"/><path class="cls-29" d="M469.33,612.23a2.1,2.1,0,0,1,.13.26A2.1,2.1,0,0,0,469.33,612.23Z" transform="translate(-18.26 -119.66)"/><path class="cls-29" d="M469,615.12l0,0Z" transform="translate(-18.26 -119.66)"/><path class="cls-29" d="M466.6,613.88l0-.19Z" transform="translate(-18.26 -119.66)"/><path class="cls-29" d="M463.08,613.28l.09,0Z" transform="translate(-18.26 -119.66)"/><path class="cls-29" d="M460.59,616v0Z" transform="translate(-18.26 -119.66)"/><path class="cls-29" d="M460.61,615.77a.19.19,0,0,1,0-.08A.19.19,0,0,0,460.61,615.77Z" transform="translate(-18.26 -119.66)"/><path class="cls-29" d="M462.26,613.58l.16-.1Z" transform="translate(-18.26 -119.66)"/><path class="cls-29" d="M461.44,614.46c0-.05.09-.1.13-.16S461.48,614.41,461.44,614.46Z" transform="translate(-18.26 -119.66)"/><path class="cls-29" d="M462.87,613.33l-.14,0a.94.94,0,0,0-.28.1.94.94,0,0,1,.28-.1Z" transform="translate(-18.26 -119.66)"/><path class="cls-29" d="M460.49,616.73a.93.93,0,0,1,0,.13,1,1,0,0,0-.09.21,1,1,0,0,1,.09-.21A.93.93,0,0,0,460.49,616.73Z" transform="translate(-18.26 -119.66)"/><path class="cls-29" d="M463.36,616.31a5.55,5.55,0,0,0,.64-.9,3.38,3.38,0,0,0-.11-.34,3.38,3.38,0,0,1,.11.34A5.55,5.55,0,0,1,463.36,616.31Z" transform="translate(-18.26 -119.66)"/><path class="cls-29" d="M460.62,615.65l0-.18Z" transform="translate(-18.26 -119.66)"/><path class="cls-29" d="M463.69,613.91a1.75,1.75,0,0,0,.13,1,1.75,1.75,0,0,1-.13-1c.11-.58-.08-.69-.35-.67C463.61,613.22,463.8,613.33,463.69,613.91Z" transform="translate(-18.26 -119.66)"/><path class="cls-29" d="M461,615.07l.14-.16Z" transform="translate(-18.26 -119.66)"/><path class="cls-29" d="M461.09,614.91l.12-.15Z" transform="translate(-18.26 -119.66)"/><path class="cls-29" d="M460.17,610.72l.27-.13Z" transform="translate(-18.26 -119.66)"/><path class="cls-29" d="M474.21,606.08l.5-.12a.26.26,0,0,1,.15.07.52.52,0,0,0,.39.19c-.56-.43-1.15-.91-1.77-1.41L470,607.25C471.41,606.87,472.83,606.42,474.21,606.08Z" transform="translate(-18.26 -119.66)"/><path class="cls-29" d="M460.78,610.43l.34-.15Z" transform="translate(-18.26 -119.66)"/><path class="cls-29" d="M475.21,629.52c.35-.5.68-1,1-1.54l-2.76,3.3.67-.12C474.47,630.61,474.85,630.07,475.21,629.52Z" transform="translate(-18.26 -119.66)"/><path class="cls-29" d="M459.53,611l.26-.12-.26.12.09.19Z" transform="translate(-18.26 -119.66)"/><path class="cls-29" d="M466.57,614.18h0Z" transform="translate(-18.26 -119.66)"/><path class="cls-29" d="M459.75,611.47l0-.05Z" transform="translate(-18.26 -119.66)"/><path class="cls-29" d="M454,613.48c0-.07.07-.13.1-.19S454,613.41,454,613.48Z" transform="translate(-18.26 -119.66)"/><path class="cls-29" d="M459.87,611.74h0l0,0Z" transform="translate(-18.26 -119.66)"/><path class="cls-29" d="M460.62,611.37l1.05-1.34h0l-1.05,1.34Z" transform="translate(-18.26 -119.66)"/><path class="cls-29" d="M453.73,614.1h0a5.31,5.31,0,0,1,.2-.52A5.31,5.31,0,0,0,453.73,614.1Z" transform="translate(-18.26 -119.66)"/><path class="cls-29" d="M454.92,612.73a4.09,4.09,0,0,0-.71.38l-.06,0,.06,0A4.09,4.09,0,0,1,454.92,612.73Z" transform="translate(-18.26 -119.66)"/><path class="cls-29" d="M482.72,628.59c1.35-1.72,19.53-25.52,19.53-25.52l-10.54,7.48a17.35,17.35,0,0,1-3,7.41c-1,1.2-1.73,2.08-2.33,2.72a7.75,7.75,0,0,1-3.49,2.79,5.64,5.64,0,0,0-1.07.76,3.77,3.77,0,0,0,.06,1,9.1,9.1,0,0,1,.77,1.49,1.26,1.26,0,0,1,0,.67,3.59,3.59,0,0,1-.94,2.38,11.54,11.54,0,0,1-1,1.75c-.41.6-.45.89-.1,1l1.19.31A12.41,12.41,0,0,1,482.72,628.59Z" transform="translate(-18.26 -119.66)"/><path class="cls-29" d="M469.08,611.91c-.18-.12-.44,0-.75.12C468.64,611.86,468.9,611.79,469.08,611.91Z" transform="translate(-18.26 -119.66)"/><path class="cls-29" d="M469.77,614a.62.62,0,0,0,0-.19c0-.09,0-.18,0-.26,0,.08,0,.17,0,.26A.62.62,0,0,1,469.77,614Z" transform="translate(-18.26 -119.66)"/><path class="cls-29" d="M481.59,611.08a3.6,3.6,0,0,0-.23-.94c-.05-.09-.39.14-.6.22,0,.22-.17.54-.1.63a1.9,1.9,0,0,0,.64.39Z" transform="translate(-18.26 -119.66)"/><path class="cls-29" d="M482.32,596.52a2.93,2.93,0,0,1,1.5-1.37c.1,0,.11.1.05.38a.74.74,0,0,1,.29-.11c.28.07-.48,1.55-1.35,3.08l-.09.21,1.29.82c2.51-4.23,8.65-14.65,8-14.67-.45,0-7.89,5.47-14.75,10.55,1.21.7,2.42,1.42,3.58,2.13C481.38,597.16,481.88,596.81,482.32,596.52Z" transform="translate(-18.26 -119.66)"/><path class="cls-29" d="M454.19,614.13l0,0,0,0c.48-.46.94-1,1.4-1.51l0-.2h0l0,.2C455.13,613.13,454.67,613.67,454.19,614.13Z" transform="translate(-18.26 -119.66)"/><path class="cls-29" d="M469.3,614.85l.26-.36Z" transform="translate(-18.26 -119.66)"/><path class="cls-30" d="M477.44,605.93a4,4,0,0,1,2.27.88.79.79,0,0,0,.42.6l.05,0a2.19,2.19,0,0,1,.2.61,10.25,10.25,0,0,0,1.87,1,9.48,9.48,0,0,0,.29-1.61,2.06,2.06,0,0,1,.37-1.07,33.1,33.1,0,0,0-5.16-2.26,46,46,0,0,1-6.23-2.87c.35.25.68.51,1,.78C474.41,603.53,476,604.86,477.44,605.93Z" transform="translate(-18.26 -119.66)"/><path class="cls-30" d="M485.38,602.07l0,.49a3,3,0,0,1,.28-.33l.05-.05-.82-.53Z" transform="translate(-18.26 -119.66)"/><path class="cls-30" d="M484,607.39c.51-.71.92-1.32,1.38-1.9a9.1,9.1,0,0,1,1.91-2l.13-.15,0-.1-.56-.37a6.76,6.76,0,0,0-1.6,1.75.2.2,0,0,1-.08.12A8.82,8.82,0,0,0,484,607.39Z" transform="translate(-18.26 -119.66)"/><path class="cls-30" d="M478.73,603.05c3.38,1.22,4.47,2,4.74,2.58l.37-.38.31-.3c-.67-.36-2.41-1.31-4.82-2.67-3.13-1.76-14.45-6.08-14.75-6.17s4.16.52,10.94,3.27c1.07.43,2.19.92,3.37,1.46,4,1.86,5.56,2.85,6.09,3.38l.22-.19-.44-.68h0a106.66,106.66,0,0,0-9.44-6.28c-.58,0-1.32,0-2.07-.07-1.61,0-12.06-3.93-12.06-3.93l6.69,2.08a21.28,21.28,0,0,0,5.71,1c-4.45-2.34-11.4-5.72-11.4-5.72s2.07.71,9.41,3.65q1,.41,2,.84a41.78,41.78,0,0,0-6.6-3.15c-4.77-1.42-6.25-3-7.39-.15s5.34,5.3,10.58,8.69C471.27,600.56,473.86,601.3,478.73,603.05Z" transform="translate(-18.26 -119.66)"/><path class="cls-30" d="M461.09,614.91l-.14.16a2.66,2.66,0,0,1-.23.24.16.16,0,0,0,0,.07l0,.09,0,.18v0a.19.19,0,0,0,0,.08V616c0,.13,0,.26,0,.37a2.5,2.5,0,0,1-.06.38.93.93,0,0,1,0,.13,1,1,0,0,0-.09.21c-.28.73.13.65.64.45a4.5,4.5,0,0,1,1-.4,2.07,2.07,0,0,0,1.38-.81,5.55,5.55,0,0,0,.64-.9,3.38,3.38,0,0,0-.11-.34c0-.06-.05-.11-.07-.17a1.75,1.75,0,0,1-.13-1c.11-.58-.08-.69-.35-.67l-.17,0-.09,0-.21.05-.14,0a.94.94,0,0,0-.28.1h0l-.16.1a4,4,0,0,0-.69.72c0,.06-.09.11-.13.16l-.23.3Z" transform="translate(-18.26 -119.66)"/><path class="cls-30" d="M466.72,613.45a1.44,1.44,0,0,0-.09.24l0,.19v0c0,.05,0,.1,0,.15s0,.07,0,.11h0s0,0,0,.07a7.8,7.8,0,0,0-.26,1,1.45,1.45,0,0,0,0,.4v.11h0c.18,0,.28.09.41.06.64-.12,1.27-.24,1.93-.41a1.16,1.16,0,0,0,.39-.23l0,0,.27-.27.26-.36a2.07,2.07,0,0,0,.21-.47.62.62,0,0,0,0-.19c0-.09,0-.18,0-.26s-.07-.35-.11-.52a3.06,3.06,0,0,0-.17-.56,2.1,2.1,0,0,0-.13-.26,1.56,1.56,0,0,0-.17-.25l-.08-.07c-.18-.12-.44,0-.75.12l0,0-.17.11a5.41,5.41,0,0,0-.52.39l-.46.39A2.18,2.18,0,0,0,466.72,613.45Z" transform="translate(-18.26 -119.66)"/><path class="cls-30" d="M457.26,618a2.06,2.06,0,0,0,.64-.91.83.83,0,0,0,.06-.21h0a4,4,0,0,0,.08-.46l0-.18,0-.13c.1-.4,0-.61-.22-.59l-.1,0a1.64,1.64,0,0,0-.49.27l-1,.69-.5.34a2.39,2.39,0,0,0-.89,1,1.33,1.33,0,0,0-.12,1.26C455.05,619.29,456.57,618.62,457.26,618Z" transform="translate(-18.26 -119.66)"/><path class="cls-7" d="M472.93,606.9l-1.4.52-.06,0c0,.59,0,1,0,1.72h0l1.89-2.41h0Z" transform="translate(-18.26 -119.66)"/><path class="cls-7" d="M459.62,611.2l.1.22,0,.05.1.22,0,0,.17.37.58-.74,1.05-1.34h0l-.55.25-.34.15-.34.16-.27.13-.38.17-.26.12Z" transform="translate(-18.26 -119.66)"/><path class="cls-7" d="M454.07,613.29c0,.06-.07.12-.1.19l0,.1a5.31,5.31,0,0,0-.2.52h0c0,.1.29.15.43,0l0,0c.48-.46.94-1,1.4-1.51l0-.2h0l-.35.16a2.17,2.17,0,0,0-.35.15,4.09,4.09,0,0,0-.71.38l-.06,0Z" transform="translate(-18.26 -119.66)"/><path class="cls-7" d="M465.53,609.15a3.23,3.23,0,0,1,.18,1.09,1.57,1.57,0,0,0,.09.5h0l1.43-1.82-.06-.19C466.61,609.17,466.19,608.64,465.53,609.15Z" transform="translate(-18.26 -119.66)"/><path class="cls-30" d="M477.74,631.19c-.19-.16-.62.07-.95.49s-.44.89-.25,1,.62-.07.95-.49S477.93,631.34,477.74,631.19Z" transform="translate(-18.26 -119.66)"/><path class="cls-30" d="M452.27,619.24a2,2,0,0,0,.51-1.38c-.11-.1-.91-1-1.65-.61a2.27,2.27,0,0,0-.76,2.57C450.78,620.41,451.67,620,452.27,619.24Z" transform="translate(-18.26 -119.66)"/><path class="cls-29" d="M471.52,601.2c.35.25.68.51,1,.78l.31.26.32-.19Z" transform="translate(-18.26 -119.66)"/><path class="cls-29" d="M483.47,605.63l.37-.38.31-.3c-.63-.34-2.21-1.2-4.41-2.44l-.47.74C482.23,604.36,483.22,605.12,483.47,605.63Z" transform="translate(-18.26 -119.66)"/><path class="cls-29" d="M482.36,596.45a2.89,2.89,0,0,1,1.46-1.3c.1,0,.11.1.05.38a.74.74,0,0,1,.29-.11c.28.07-.48,1.55-1.35,3.08l-.09.21,1.29.82c2.51-4.23,8.65-14.65,8-14.67-.45,0-7.89,5.47-14.75,10.55,1.16.68,2.32,1.37,3.44,2.05Z" transform="translate(-18.26 -119.66)"/><path class="cls-29" d="M474.71,606a.26.26,0,0,1,.15.07.52.52,0,0,0,.39.19c-.56-.43-1.15-.91-1.77-1.41L470,607.25c1.39-.38,2.81-.83,4.19-1.17Z" transform="translate(-18.26 -119.66)"/><path class="cls-29" d="M471.47,607.45c0,.59,0,1,0,1.72l1.89-2.41h0l-.39.14-1.4.52Z" transform="translate(-18.26 -119.66)"/><path class="cls-29" d="M485.13,604.79a8.82,8.82,0,0,0-1.14,2.6c.51-.71.92-1.32,1.38-1.9a9.1,9.1,0,0,1,1.91-2l.13-.15,0-.1-.56-.37a6.76,6.76,0,0,0-1.6,1.75A.2.2,0,0,1,485.13,604.79Z" transform="translate(-18.26 -119.66)"/><path class="cls-29" d="M485.38,602.07l0,.49a3,3,0,0,1,.28-.33l.05-.05-.82-.53Z" transform="translate(-18.26 -119.66)"/><path class="cls-29" d="M460.36,611.7l-.41.21.09.2Z" transform="translate(-18.26 -119.66)"/><path class="cls-29" d="M478.72,600.76l.17.08.16.08a4.73,4.73,0,0,1,.54-.73C479.8,600,479.45,600.27,478.72,600.76Z" transform="translate(-18.26 -119.66)"/><path class="cls-29" d="M480.35,601.53a20,20,0,0,1,4.63,2.69l.22-.19-.44-.68h0c-.72-.53-2.17-1.58-3.86-2.74Z" transform="translate(-18.26 -119.66)"/><path class="cls-29" d="M477.88,602.75l.58-.92-.77-.37-1.2.8Z" transform="translate(-18.26 -119.66)"/><path class="cls-29" d="M475.63,600.54c-4.51-1.95-10.83-4.36-11.05-4.43s4.16.52,10.94,3.27l1.2.5,1.63-1c-1-.67-2.07-1.3-3-1.83-.58,0-1.32,0-2.07-.07-1.61,0-12.06-3.93-12.06-3.93l6.69,2.08a21.28,21.28,0,0,0,5.71,1c-4.45-2.34-11.4-5.72-11.4-5.72s2.07.71,9.41,3.65q1,.41,2,.84a41.78,41.78,0,0,0-6.6-3.15c-4.77-1.42-6.25-3-7.39-.15s5.34,5.3,10.58,8.69c.67.17,1.92.52,3.93,1.17Z" transform="translate(-18.26 -119.66)"/><path class="cls-29" d="M476.21,628l-2.76,3.3.67-.12c.35-.55.73-1.09,1.09-1.64S475.89,628.5,476.21,628Z" transform="translate(-18.26 -119.66)"/><path class="cls-29" d="M477.74,631.19c-.19-.16-.62.07-.95.49s-.44.89-.25,1,.62-.07.95-.49S477.93,631.34,477.74,631.19Z" transform="translate(-18.26 -119.66)"/><path class="cls-29" d="M480.76,610.36c0,.22-.17.54-.1.63a1.9,1.9,0,0,0,.64.39l.29-.3a3.6,3.6,0,0,0-.23-.94C481.31,610.05,481,610.28,480.76,610.36Z" transform="translate(-18.26 -119.66)"/><path class="cls-29" d="M482.54,607.4a2.06,2.06,0,0,1,.37-1.07,36.73,36.73,0,0,0-4.33-2l-1,1.6a3.81,3.81,0,0,1,2.13.86.79.79,0,0,0,.42.6l.05,0a2.19,2.19,0,0,1,.2.61,10.25,10.25,0,0,0,1.87,1A9.48,9.48,0,0,0,482.54,607.4Z" transform="translate(-18.26 -119.66)"/><path class="cls-29" d="M482.72,628.59c1.35-1.72,19.53-25.52,19.53-25.52l-10.54,7.48a17.35,17.35,0,0,1-3,7.41c-1,1.2-1.73,2.08-2.33,2.72a7.75,7.75,0,0,1-3.49,2.79,5.64,5.64,0,0,0-1.07.76,3.77,3.77,0,0,0,.06,1,9.1,9.1,0,0,1,.77,1.49,1.26,1.26,0,0,1,0,.67,3.59,3.59,0,0,1-.94,2.38,11.54,11.54,0,0,1-1,1.75c-.41.6-.45.89-.1,1l1.19.31A12.41,12.41,0,0,1,482.72,628.59Z" transform="translate(-18.26 -119.66)"/><path class="cls-29" d="M454,613.48l0,.1c0,.09-.08.18-.11.27l1.48-.9.29-.33,0-.2h0l-.35.16a2.17,2.17,0,0,0-.35.15,4.09,4.09,0,0,0-.71.38l-.06,0-.08.13C454,613.35,454,613.41,454,613.48Z" transform="translate(-18.26 -119.66)"/><path class="cls-29" d="M465.55,610.35l.25.39h0l1.43-1.82-.06-.19c-.56.44-1-.09-1.64.42a3.23,3.23,0,0,1,.18,1.09Z" transform="translate(-18.26 -119.66)"/><path class="cls-29" d="M458,616.87h0a4,4,0,0,0,.08-.46l0-.18,0-.13c.1-.4,0-.61-.22-.59l-.1,0a1.64,1.64,0,0,0-.49.27l-1,.69-.5.34a2.39,2.39,0,0,0-.89,1,1.33,1.33,0,0,0-.12,1.26c.23.23,1.75-.44,2.44-1.07a2.06,2.06,0,0,0,.64-.91A.83.83,0,0,0,458,616.87Z" transform="translate(-18.26 -119.66)"/><path class="cls-29" d="M452.78,617.86c-.11-.1-.91-1-1.65-.61a2.27,2.27,0,0,0-.76,2.57c.41.59,1.3.18,1.9-.58A2,2,0,0,0,452.78,617.86Z" transform="translate(-18.26 -119.66)"/><path class="cls-29" d="M469.77,614a.62.62,0,0,0,0-.19c0-.09,0-.18,0-.26s-.07-.35-.11-.52a3.06,3.06,0,0,0-.17-.56,2.1,2.1,0,0,0-.13-.26,1.56,1.56,0,0,0-.17-.25l-.08-.07c-.18-.12-.44,0-.75.12l0,0-.17.11a5.41,5.41,0,0,0-.52.39l-.46.39a2.18,2.18,0,0,0-.44.51,1.44,1.44,0,0,0-.09.24l0,.19v0c0,.05,0,.1,0,.15s0,.07,0,.11h0s0,0,0,.07a7.8,7.8,0,0,0-.26,1,1.45,1.45,0,0,0,0,.4v.11c.18,0,.28.09.41.06.64-.12,1.27-.24,1.93-.41a1.16,1.16,0,0,0,.39-.23l0,0,.27-.27.26-.36A2.07,2.07,0,0,0,469.77,614Z" transform="translate(-18.26 -119.66)"/><path class="cls-29" d="M475.29,603.08l-.78.52c.67.55,1.3,1.06,1.9,1.53l.77-1.26C476.62,603.67,476,603.39,475.29,603.08Z" transform="translate(-18.26 -119.66)"/><path class="cls-29" d="M463.89,615.07c0-.06-.05-.11-.07-.17a1.75,1.75,0,0,1-.13-1c.11-.58-.08-.69-.35-.67l-.17,0-.09,0-.21.05-.14,0a.94.94,0,0,0-.28.1h0l-.16.1a4,4,0,0,0-.69.72c0,.06-.09.11-.13.16l-.23.3-.12.15-.14.16a2.66,2.66,0,0,1-.23.24.16.16,0,0,0,0,.07l0,.09,0,.18v0a.19.19,0,0,0,0,.08V616c0,.13,0,.26,0,.37a2.5,2.5,0,0,1-.06.38.93.93,0,0,1,0,.13,1,1,0,0,0-.09.21c-.28.73.13.65.64.45a4.5,4.5,0,0,1,1-.4,2.07,2.07,0,0,0,1.38-.81,5.55,5.55,0,0,0,.64-.9A3.38,3.38,0,0,0,463.89,615.07Z" transform="translate(-18.26 -119.66)"/><path class="cls-14" d="M484.22,653.86c-.9-1-1.4-3.25-2-5-.42-1.16.19-9.28.72-14.73l.34,1.27-.2-1.52,1.66.28.43,1.62-.21-1.57c.56.1,1.12.21,1.67.33l.43,1.62-.2-1.58,1.66.34.43,1.62-.2-1.58c.55.11,1.09.2,1.65.29l.45,1.67-.22-1.63c.92.14,1.86.25,2.83.3-.94-.23-1.9-.45-2.86-.66l1.68-.73a11.4,11.4,0,0,0-1.45.42c-.32.12-.54.22-.54.22v0l-1.52-.34,1.62-.7a11.4,11.4,0,0,0-1.45.42l-.52.21-1.47-.34,1.55-.67a10.33,10.33,0,0,0-1.46.42l-.42.17c-.48-.11-1-.23-1.43-.36l1.42-.61a10,10,0,0,0-1.46.42l-.28.11-1.4-.37,1.25-.54a10,10,0,0,0-1.46.42l-.1,0-.12,0c.22-2.16.41-3.72.49-3.92.27-.72,21.69-28.47,21.69-28.47s.58-1.1.29-1.63S496,605.55,492,608.57c.16-2.26-.18-4.18-1.1-5a6,6,0,0,0-1-.69c2-2.95,7.61-11.24,8.77-12.87,1.41-2,3.45-4.41,2.71-4.37s-2.09,1.77-2.6,2.6c-.4.67-7.26,10.26-10.09,14.21l-.23,0c-.72-.51-1.84-1.27-3.22-2.16l9.59-17.58s1.06-2.26.47-2.41c-.35-.09-11,7.92-19.52,14.25-3.67-2.06-7.15-3.78-9.06-4.15-5.26-1-6.68-3.2-8.43.52s4.32,6.18,9.56,9.51a27.23,27.23,0,0,1-2.39,1.66c-.65.11-11.44-6.79-11.44-6.79s-3.66-12.43-3.72-14.33.6-10.67.6-10.67-1.37,11.3-1.33,12.87,3.36,14.06,4.29,14.49,10.33,7.14,11.9,6.2c.33-.19,1.63-1.13,3.48-2.5a19.89,19.89,0,0,1,1.6,1.23l.61.51-12.36,7.54c-1.12.44-2.24.88-3.37,1.37-1.46.61-3,1.39-4.45,2.12l-.41.21a4,4,0,0,1-.66-.19,12.47,12.47,0,0,0-1.38-.44.77.77,0,0,0-1-.21h0l-.06.06a3.31,3.31,0,0,0-.67.59c-1.15,1.24-1.82,2.91-1.46,3.65l.19-.37a1.76,1.76,0,0,0,.19.39c-4.27,1.67-8.13,2.95-10.15,3.12-5.72.47-15,0-19.64-2.07a36.45,36.45,0,0,1-5.49-3.19l-1.33.83a24.13,24.13,0,0,0,8.06,4.57c2.19.79,17.62,2.65,21.53,1.07,1.31-.53,4.41-1.82,8-3.35.75.5,1.66.87,2.29,1.36l.09.06a.91.91,0,0,0,.11.16c.13.61,1,2.74,7.24,1.68a37.67,37.67,0,0,0,12.14-4.25c-4.82,7.31-10.05,15.36-11.43,17.84-3.77,4.21-19.17,21.8-19.17,21.8s-7.72,8.79-10.95,11.84-9.22,8.55-8.24,8.38,18.27-18.16,20.4-20.51,18.06-19.87,18.06-19.87l0-.12c.13.11.32,0,.73-.62l13-20.5.17-.18a24.45,24.45,0,0,0-1.78,3.46,5.24,5.24,0,0,0-.51,1.37c-.09.29-.18.58-.25.88a1.14,1.14,0,0,0-.14.41.64.64,0,0,0,0,.07c-.39,1.81-.36,3.64.72,4.93a2.15,2.15,0,0,0,.74.59.35.35,0,0,0,.34.12l.26.06c.17.16.47.22,1,0l.25-.12a11.88,11.88,0,0,0,5.1-3.68c.17,0,.26.22.25.48a.65.65,0,0,1,.12.28c-4.38,5.12-14.42,16.86-15.35,18.06-1.2,1.54-9.91,23.47-10.76,25.28s-7.34,19.29-7.34,19.29l.83,0,7.44-20.14,10.19-22.94,8.39-10c-.19,2.57-.35,7.26-2,11.36-2.14,5.43-10,20.91-10,20.91a6.23,6.23,0,0,0,1.38-1.4c.36-.64,10-19.66,10.7-21.61s.73-9.93.73-9.93l1.27-.41-.09.24c.05.53.09,1.08.18,1.58a2.64,2.64,0,0,0,.47.86c.05.09.18.15.15.28-.11.41-.24.83-.38,1.25h0c0,.08,0,.21-.12.32-.25.7-.55,1.43-.91,2.19-.2.78-.47,1.6-.62,2.36a3.78,3.78,0,0,0-.08.72,2.33,2.33,0,0,0,.83-1.41c.22-.61.31-1.18.53-1.79s.51-1.21.77-1.82l.33-.12c-.13.78-.19,1.53-.4,2.35-.54,2.07-.57,2.09-.24,2.25.36-1.47.72-2.8,1-4.09a1.48,1.48,0,0,1,.61-1.15c.57-.47,1.14-1,1.82-1.58,0,.58,0,1.17-.07,1.76l-1.12,2.41,1.1-2.1c0,.85-.12,1.71-.2,2.58l-.94,2,.92-1.75c0,.5-.09,1-.13,1.51l-1.3,2.8,1.27-2.42c-.07.73-.12,1.46-.17,2.18l-1.29,2.78,1.27-2.43c0,.83-.07,1.64-.07,2.43l-1.23,2.66,1.24-2.36a18.5,18.5,0,0,0,.29,3.24,31.09,31.09,0,0,1,0-3.74l.78.84a4.42,4.42,0,0,0-.52-1l-.24-.29c0-.67.1-1.35.17-2l.62.67a4.42,4.42,0,0,0-.52-1l-.06-.08c.07-.67.15-1.34.24-2l.53.57a5.65,5.65,0,0,0-.48-1c.09-.78.2-1.56.3-2.34l.69.74a4.64,4.64,0,0,0-.52-1l-.12-.15c.08-.61.15-1.22.22-1.84l.46.49a5.23,5.23,0,0,0-.41-.87c.07-.69.14-1.39.2-2.09.83-.38,1.49-1.66,2-1.67a5.46,5.46,0,0,1,1.89.44,124,124,0,0,0-.75,14.24c.17,2.3,1.44,6.08,2.58,7s5.64.71,6.06.72S485.12,654.88,484.22,653.86Zm-30.07-40.7.06,0a4.09,4.09,0,0,1,.71-.38,2.17,2.17,0,0,1,.35-.15l.35-.16,0,.2-.29.33-1.48.9c0-.09.07-.18.11-.27l0-.1c0-.07.07-.13.1-.19Zm-3.78,6.66a2.27,2.27,0,0,1,.76-2.57c.74-.38,1.54.51,1.65.61a2,2,0,0,1-.51,1.38C451.67,620,450.78,620.41,450.37,619.82Zm36.44-16.9.56.37,0,.1-.13.15a9.1,9.1,0,0,0-1.91,2c-.46.58-.87,1.19-1.38,1.9a8.82,8.82,0,0,1,1.14-2.6.2.2,0,0,0,.08-.12A6.76,6.76,0,0,1,486.81,602.92Zm-1.14-.74-.05.05a3,3,0,0,0-.28.33l0-.49-.53-.42ZM492,584.86c.66,0-5.48,10.44-8,14.67l-1.29-.82.09-.21c.87-1.53,1.63-3,1.35-3.08a.74.74,0,0,0-.29.11c.06-.28.05-.42-.05-.38a2.89,2.89,0,0,0-1.46,1.3l-1.67,1c-1.12-.68-2.28-1.37-3.44-2.05C484.11,590.33,491.55,584.84,492,584.86Zm-22,22.39,3.46-2.44c.62.5,1.21,1,1.77,1.41a.52.52,0,0,1-.39-.19.26.26,0,0,0-.15-.07l-.5.12C472.83,606.42,471.41,606.87,470,607.25Zm3.3-.49-1.89,2.41c0-.7,0-1.13,0-1.72l.06,0,1.4-.52Zm1.19-3.16.78-.52c.67.31,1.33.59,1.89.79l-.77,1.26C475.81,604.66,475.18,604.15,474.51,603.6Zm4.54-2.68-.16-.08-.17-.08c.73-.49,1.08-.72.87-.57A4.73,4.73,0,0,0,479.05,600.92Zm-.59.91-.58.92-1.39-.49,1.2-.8ZM459.61,591.6c1.14-2.9,2.62-1.27,7.39.15a41.78,41.78,0,0,1,6.6,3.15q-1-.43-2-.84c-7.34-2.94-9.41-3.65-9.41-3.65s7,3.38,11.4,5.72a21.28,21.28,0,0,1-5.71-1l-6.69-2.08S471.66,597,473.27,597c.75,0,1.49,0,2.07.07.94.53,2,1.16,3,1.83l-1.63,1-1.2-.5c-6.78-2.75-11.2-3.36-10.94-3.27s6.54,2.48,11.05,4.43l-1.51.92c-2-.65-3.26-1-3.93-1.17C465,596.9,458.41,594.65,459.61,591.6Zm11.91,9.6,1.64.85-.32.19-.31-.26C472.2,601.71,471.87,601.45,471.52,601.2ZM457.26,618c-.69.63-2.21,1.3-2.44,1.07a1.33,1.33,0,0,1,.12-1.26,2.39,2.39,0,0,1,.89-1l.5-.34,1-.69a1.64,1.64,0,0,1,.49-.27l.1,0c.24,0,.32.19.22.59l0,.13,0,.18a4,4,0,0,1-.08.46h0a.83.83,0,0,1-.06.21A2.06,2.06,0,0,1,457.26,618Zm6.1-1.68a2.07,2.07,0,0,1-1.38.81,4.5,4.5,0,0,0-1,.4c-.51.2-.92.28-.64-.45a1,1,0,0,1,.09-.21.93.93,0,0,0,0-.13,2.5,2.5,0,0,0,.06-.38c0-.11,0-.24,0-.37v-.33l0-.18,0-.09a.16.16,0,0,1,0-.07,2.66,2.66,0,0,0,.23-.24l.14-.16.12-.15.23-.3c0-.05.09-.1.13-.16a4,4,0,0,1,.69-.72l.16-.1h0a.94.94,0,0,1,.28-.1l.14,0,.21-.05.09,0,.17,0c.27,0,.46.09.35.67a1.75,1.75,0,0,0,.13,1c0,.06.05.11.07.17a3.38,3.38,0,0,1,.11.34A5.55,5.55,0,0,1,463.36,616.31Zm5.67-1.19,0,0a1.16,1.16,0,0,1-.39.23c-.66.17-1.29.29-1.93.41-.13,0-.23,0-.41-.06v-.11a1.45,1.45,0,0,1,0-.4,7.8,7.8,0,0,1,.26-1s0,0,0-.07h0s0-.07,0-.11,0-.1,0-.15v0l0-.19a1.44,1.44,0,0,1,.09-.24,2.18,2.18,0,0,1,.44-.51l.46-.39a5.41,5.41,0,0,1,.52-.39l.17-.11,0,0c.31-.17.57-.24.75-.12l.08.07a1.56,1.56,0,0,1,.17.25,2.1,2.1,0,0,1,.13.26,3.06,3.06,0,0,1,.17.56c0,.17.08.34.11.52s0,.17,0,.26a.62.62,0,0,1,0,.19,2.07,2.07,0,0,1-.21.47l-.26.36Zm11.89-14.52c1.69,1.16,3.14,2.21,3.86,2.74h0l.44.68-.22.19a20,20,0,0,0-4.63-2.69Zm-1.18,1.91c2.2,1.24,3.78,2.1,4.41,2.44l-.31.3-.37.38c-.25-.51-1.24-1.27-4.2-2.38Zm.44,4.92-.05,0a.79.79,0,0,1-.42-.6,3.81,3.81,0,0,0-2.13-.86l1-1.6a36.73,36.73,0,0,1,4.33,2,2.06,2.06,0,0,0-.37,1.07,9.48,9.48,0,0,1-.29,1.61,10.25,10.25,0,0,1-1.87-1A2.19,2.19,0,0,0,480.18,607.43Zm1.12,4a1.9,1.9,0,0,1-.64-.39c-.07-.09.06-.41.1-.63.21-.08.55-.31.6-.22a3.6,3.6,0,0,1,.23.94Zm-7.85,19.9,2.76-3.3c-.32.52-.65,1-1,1.54s-.74,1.09-1.09,1.64Zm3.09,1.44c-.19-.15-.08-.62.25-1s.76-.65.95-.49.08.61-.25,1S476.73,632.87,476.54,632.72Zm4-.24c-.35-.09-.31-.38.1-1a11.54,11.54,0,0,0,1-1.75,3.59,3.59,0,0,0,.94-2.38,1.26,1.26,0,0,0,0-.67,9.1,9.1,0,0,0-.77-1.49,3.77,3.77,0,0,1-.06-1,5.64,5.64,0,0,1,1.07-.76,7.75,7.75,0,0,0,3.49-2.79c.6-.64,1.37-1.52,2.33-2.72a17.35,17.35,0,0,0,3-7.41l10.54-7.48s-18.18,23.8-19.53,25.52a12.41,12.41,0,0,0-1,4.2Z" transform="translate(-18.26 -119.66)"/><path class="cls-28" d="M473.29,560.91c-.65,1.14-22.83,131.78-22.83,131.78l-12.84,5.76,21.1-129.17" transform="translate(-18.26 -119.66)"/><path class="cls-11" d="M357.38,449.66s-54.44,10.18-56.52,89.17,52.07,151.93,52.07,151.93" transform="translate(-18.26 -119.66)"/><path class="cls-12" d="M673.61,684.06s-174.92,18.65-187.74,23.32-29.16-180.75-57.14-181.91-79.3,2.27-79.3,14c0,139.93,78.13,253,124.78,268.2S679.44,726,679.44,726" transform="translate(-18.26 -119.66)"/><path class="cls-7" d="M452.05,472.7s-3.5-40.81-49-47.81-61.86,17.55-61.86,17.55c-11.3,11.95-26.9,38-20.93,93.23,6.92,64,47.18,154.17,47.18,154.17l121.91-43.39S472.43,525.44,452.05,472.7Z" transform="translate(-18.26 -119.66)"/><path class="cls-17" d="M442.72,476.2s-3.5-40.82-49-47.81-61.86,17.55-61.86,17.55C320.58,457.89,305,484,311,539.17c6.92,64,47.18,154.17,47.18,154.17L480,650S463.1,528.94,442.72,476.2Z" transform="translate(-18.26 -119.66)"/></svg>