<svg id="Capa_1" data-name="Capa 1" xmlns="http://www.w3.org/2000/svg" viewBox="0 0 1470.37 1341.85"><defs><style>.cls-1{fill:#efe0d2;}.cls-2{fill:#f5d759;}.cls-3{fill:#929a9f;}.cls-4{fill:#dcb827;}.cls-5{fill:#6e863b;}.cls-6{fill:#7f634a;}.cls-7{fill:#92755a;}.cls-8{fill:#fff;}.cls-9{fill:#b45642;}.cls-10{fill:none;}.cls-11{fill:#d9dcd2;}.cls-12{fill:#37375d;}.cls-13{fill:#4b4c71;}.cls-14{fill:#a6bc43;}</style></defs><title>Ilustración 5</title><path class="cls-1" d="M185.34,1253.75s-293.76,97.92-126.93,130.56c167.88,32.85,362.66-3.62,707.19-7.25s696.32,18.13,710.82-21.76-119.68-83.41-119.68-83.41" transform="translate(-7.15 -151.26)"/><polygon class="cls-2" points="118.95 205.46 120.19 1131.51 764.8 1131.51 764.8 50.45 118.95 205.46"/><polygon class="cls-3" points="51.37 211.85 68.73 232.56 769.74 48.73 762.91 26.3 51.37 211.85"/><polygon class="cls-2" points="1400.79 205.46 1399.56 1131.51 760.3 1131.51 760.3 50.45 1400.79 205.46"/><polygon class="cls-3" points="1468.37 211.85 1451.01 232.56 763.77 50.45 756.83 26.3 1468.37 211.85"/><polyline class="cls-4" points="116.34 223.07 763.77 50.45 1407.52 225.66 1402.31 248.95 767.14 79.79 121.55 233.42"/><rect class="cls-4" x="991.58" y="236.64" width="130.56" height="39.89"/><rect class="cls-4" x="1132.11" y="236.64" width="130.56" height="39.89"/><rect class="cls-4" x="1064.11" y="291.04" width="130.56" height="39.89"/><rect class="cls-4" x="1216.32" y="286.5" width="130.56" height="39.89"/><rect class="cls-4" x="1159.2" y="343.62" width="130.56" height="39.89"/><rect class="cls-4" x="608.06" y="904.84" width="130.56" height="39.89"/><rect class="cls-4" x="748.59" y="904.84" width="130.56" height="39.89"/><rect class="cls-4" x="680.59" y="959.24" width="130.56" height="39.89"/><rect class="cls-4" x="594.46" y="155.04" width="130.56" height="39.89"/><rect class="cls-4" x="734.99" y="155.04" width="130.56" height="39.89"/><rect class="cls-4" x="666.99" y="209.44" width="130.56" height="39.89"/><path class="cls-5" d="M1380,1320.63s94.61-70.62,59.61-70.62-75.17,30.54-75.17,30.54,107.57-99.26,70-106.89-98.5,91.62-98.5,91.62,24.63-71.58,1.3-70.62-50.55,68.71-50.55,68.71,18.15-51.54-2.59-47.72-33.7,36.27-33.7,36.27l-13-21s83-64.89,53.14-84.94-89.43,43-89.43,43,50.55-67.76,18.15-85.89-75.17,105-75.17,101.16,10.37-83-19.44-84.94-28.51,91.62-28.51,91.62,3.88-119.29-36.29-125-44.07,84.94-44.07,84.94-23.33-99.25-55.73-108.8-5.18,110.71-5.18,110.71-36.29-53.45-67.39-51.54,27.21,85.89,27.21,85.89-41.47-26.72-57-22.9,28.51,46.76,28.51,46.76-24.62-20-46.66-8.59-25.92,19.09-25.92,19.09,11.67-54.4-7.77-52.49-36.29,49.63-36.29,49.63-7.78-52.49-36.29-59.17-11.66,63.94-11.66,63.94-38.88-84-71.29-85.89,28.52,97.34,28.52,97.34-44.07-40.08-68.69-34.36,41.47,55.35,41.47,55.35-42.77-18.13-51.84-3.81,44.06,22,44.06,22-68.68,33.4-32.4,30.54S752.75,1313,752.75,1313s-22,10.5,1.3,10.5,101.09-8.59,101.09-8.59-9.08,9.55,24.62,8.59,124.42-6.68,124.42-6.68,98.5,23.86,85.54,13.36-24.63-14.31-24.63-14.31,127,22,142.56,12.4-13-12.4-13-12.4,146.46,19.08,141.27,12.4-31.1-10.49-31.1-10.49,76.46,19.08,97.2,15.26S1380,1320.63,1380,1320.63Z" transform="translate(-7.15 -151.26)"/><rect class="cls-4" x="214.46" y="406.06" width="318.24" height="721.82"/><rect class="cls-6" x="236.22" y="406.06" width="318.24" height="721.82"/><rect class="cls-7" x="248.76" y="421.84" width="289.52" height="706.05"/><ellipse class="cls-8" cx="851.88" cy="572.21" rx="235.18" ry="234.4"/><path class="cls-9" d="M1071.6,723.46a242.37,242.37,0,0,1-2.08,31.28l.81-6A234.57,234.57,0,0,1,1054,808.42l2.28-5.38a235.88,235.88,0,0,1-30.58,52.2l3.54-4.56a238.58,238.58,0,0,1-42.61,42.47l4.58-3.52a237.44,237.44,0,0,1-52.38,30.47l5.4-2.27a236.28,236.28,0,0,1-59.88,16.23l6-.8a240.61,240.61,0,0,1-62.76,0l6,.8a236.4,236.4,0,0,1-59.88-16.23l5.4,2.27a237.38,237.38,0,0,1-52.37-30.47l4.58,3.52a238.31,238.31,0,0,1-42.62-42.47l3.54,4.56A236.66,236.66,0,0,1,661.73,803l2.28,5.38a235,235,0,0,1-16.29-59.67l.81,6a239,239,0,0,1,0-62.55l-.81,6A235.17,235.17,0,0,1,664,638.5l-2.28,5.39a237,237,0,0,1,30.58-52.21l-3.54,4.57a238.31,238.31,0,0,1,42.62-42.47l-4.58,3.52a237.81,237.81,0,0,1,52.37-30.48l-5.4,2.27a237.23,237.23,0,0,1,59.88-16.23l-6,.81a240.61,240.61,0,0,1,62.76,0l-6-.81a237.12,237.12,0,0,1,59.88,16.23l-5.4-2.27a237.88,237.88,0,0,1,52.38,30.48l-4.58-3.52a238.58,238.58,0,0,1,42.61,42.47l-3.54-4.57a236.18,236.18,0,0,1,30.58,52.21L1054,638.5a234.75,234.75,0,0,1,16.29,59.68l-.81-6a242.22,242.22,0,0,1,2.08,31.27,23.16,23.16,0,0,0,6.62,15.94c3.92,3.91,10.36,6.85,16,6.6,12.24-.54,22.63-9.9,22.61-22.54a254.59,254.59,0,0,0-46.51-147.11,273.79,273.79,0,0,0-26-31.5A270.86,270.86,0,0,0,1013.58,518c-20.46-15.62-43.32-27.54-67.49-36.38a257.72,257.72,0,0,0-284.68,77,274.84,274.84,0,0,0-23.67,33,269.57,269.57,0,0,0-18.18,37c-10,24.37-15.57,50.31-17.62,76.54a256.85,256.85,0,0,0,149,251.58,247.68,247.68,0,0,0,80.59,22.16c26.79,3.11,54,1.44,80.46-3.89a257.74,257.74,0,0,0,177.29-135.85c11.62-23.28,20.09-48.16,24-73.89a276.56,276.56,0,0,0,3.52-41.73,23.16,23.16,0,0,0-6.62-15.93c-3.92-3.91-10.36-6.86-16-6.61C1081.94,701.47,1071.61,710.83,1071.6,723.46Z" transform="translate(-7.15 -151.26)"/><path class="cls-10" d="M825.44,697.14a3.83,3.83,0,0,0,.29.28,3.83,3.83,0,0,1-.29-.28,2.51,2.51,0,0,0-2.86-.82A2.51,2.51,0,0,1,825.44,697.14Z" transform="translate(-7.15 -151.26)"/><path class="cls-10" d="M818.23,702a16.26,16.26,0,0,0,1-1.42,16.26,16.26,0,0,1-1,1.42,2.92,2.92,0,0,0-.56,3.19A2.92,2.92,0,0,1,818.23,702Z" transform="translate(-7.15 -151.26)"/><path class="cls-10" d="M859,663.6v-7.51h0v7.51Z" transform="translate(-7.15 -151.26)"/><path class="cls-10" d="M838,674.77l2.37.38a10,10,0,0,1-2-.85Z" transform="translate(-7.15 -151.26)"/><path class="cls-10" d="M827.41,698.83a3.89,3.89,0,0,1,.43.48A3.89,3.89,0,0,0,827.41,698.83Z" transform="translate(-7.15 -151.26)"/><path class="cls-10" d="M822.22,696.53l.36-.21Z" transform="translate(-7.15 -151.26)"/><path class="cls-10" d="M826.2,697.81c.4.33.83.65,1.2,1C827,698.46,826.6,698.14,826.2,697.81Z" transform="translate(-7.15 -151.26)"/><path class="cls-10" d="M853.64,660.07l4.21-3.12Z" transform="translate(-7.15 -151.26)"/><path class="cls-10" d="M854.71,680.39l-.43-.31Z" transform="translate(-7.15 -151.26)"/><path class="cls-10" d="M854.94,674.34l.36-.46Z" transform="translate(-7.15 -151.26)"/><path class="cls-10" d="M853.63,679.58a1.48,1.48,0,0,1-.4-.59A1.48,1.48,0,0,0,853.63,679.58Z" transform="translate(-7.15 -151.26)"/><path class="cls-10" d="M858.84,684.11h0l-.35-.2Z" transform="translate(-7.15 -151.26)"/><path class="cls-10" d="M860.22,672.68c.48.09,1,.2,1.43.32C861.18,672.88,860.7,672.77,860.22,672.68Z" transform="translate(-7.15 -151.26)"/><path class="cls-10" d="M868.56,678.72l0,.14Z" transform="translate(-7.15 -151.26)"/><path class="cls-10" d="M854.15,680a3,3,0,0,1-.52-.41A3,3,0,0,0,854.15,680Z" transform="translate(-7.15 -151.26)"/><path class="cls-10" d="M837.22,684.16l.3-.17Z" transform="translate(-7.15 -151.26)"/><path class="cls-10" d="M835.59,693.12l-.33-.22Z" transform="translate(-7.15 -151.26)"/><path class="cls-10" d="M835,692.71l-.24-.18Z" transform="translate(-7.15 -151.26)"/><path class="cls-10" d="M834.76,686a2.73,2.73,0,0,1,.33-.43A2.73,2.73,0,0,0,834.76,686Z" transform="translate(-7.15 -151.26)"/><path class="cls-10" d="M834.19,688.91v0Z" transform="translate(-7.15 -151.26)"/><path class="cls-10" d="M836.5,684.58l-.48.27a3.55,3.55,0,0,0-.87.63,3.55,3.55,0,0,1,.87-.63Z" transform="translate(-7.15 -151.26)"/><path class="cls-10" d="M837.67,694.72a1.72,1.72,0,0,1,.23.32c.11.21.21.38.32.55-.11-.17-.21-.34-.32-.55A1.72,1.72,0,0,0,837.67,694.72Z" transform="translate(-7.15 -151.26)"/><path class="cls-10" d="M848.46,689.6a7.18,7.18,0,0,0-.29-2.72c-.5-.18-1-.34-1.6-.49.56.15,1.1.31,1.6.49A7.18,7.18,0,0,1,848.46,689.6Z" transform="translate(-7.15 -151.26)"/><path class="cls-10" d="M834.64,692.45c-.18-.14-.34-.27-.46-.38C834.3,692.18,834.46,692.31,834.64,692.45Z" transform="translate(-7.15 -151.26)"/><path class="cls-10" d="M841.89,684.45a9.68,9.68,0,0,0,3.84,1.71,9.68,9.68,0,0,1-3.84-1.71,3.24,3.24,0,0,0-3.72-.77A3.24,3.24,0,0,1,841.89,684.45Z" transform="translate(-7.15 -151.26)"/><path class="cls-10" d="M834.12,690.84a4.36,4.36,0,0,0,0-.52A4.36,4.36,0,0,1,834.12,690.84Z" transform="translate(-7.15 -151.26)"/><path class="cls-10" d="M834.17,690.32c0-.15,0-.31,0-.47C834.19,690,834.18,690.17,834.17,690.32Z" transform="translate(-7.15 -151.26)"/><path class="cls-10" d="M816.35,683.61l.73-.65Z" transform="translate(-7.15 -151.26)"/><path class="cls-10" d="M860.56,653.44c.57-.34,1.14-.67,1.72-1a2.87,2.87,0,0,1,.87-.09,6.35,6.35,0,0,0,2.28-.22q-5.71,0-12.21-.06c-2.18,3.32-4.43,6.73-6.56,9.93C851.32,659.19,855.85,656.17,860.56,653.44Z" transform="translate(-7.15 -151.26)"/><path class="cls-10" d="M818,682.13l.91-.8Z" transform="translate(-7.15 -151.26)"/><path class="cls-10" d="M942.55,697.21c-.24-1.49-.51-3-.88-4.48l-.76,10.54c.82-.46,1.65-.87,2.4-1.23C943,700.44,942.8,698.82,942.55,697.21Z" transform="translate(-7.15 -151.26)"/><path class="cls-10" d="M814.63,685.13l.71-.63-.71.63,1,.23Z" transform="translate(-7.15 -151.26)"/><path class="cls-10" d="M855,680.64h0Z" transform="translate(-7.15 -151.26)"/><path class="cls-10" d="M817.09,685.7l-.3-.07Z" transform="translate(-7.15 -151.26)"/><path class="cls-10" d="M799.24,698.3a3.57,3.57,0,0,1-.22-.51A3.57,3.57,0,0,0,799.24,698.3Z" transform="translate(-7.15 -151.26)"/><path class="cls-10" d="M818.47,686h0l-.25,0Z" transform="translate(-7.15 -151.26)"/><path class="cls-10" d="M820.45,684.18V680h0v4.18Z" transform="translate(-7.15 -151.26)"/><path class="cls-10" d="M800.31,699.87h0a7.48,7.48,0,0,1-.93-1.3A7.48,7.48,0,0,0,800.31,699.87Z" transform="translate(-7.15 -151.26)"/><path class="cls-10" d="M800.75,695.42a10.68,10.68,0,0,0-1.75,1.81.37.37,0,0,0,0,.2.37.37,0,0,1,0-.2A10.68,10.68,0,0,1,800.75,695.42Z" transform="translate(-7.15 -151.26)"/><path class="cls-10" d="M971.31,684.07c0-5.37-1.79-78.81-1.79-78.81l-19.89,30.38c6.84,5.9,11.72,13,11.59,18.91a51.93,51.93,0,0,1-.82,8.79c0,4.51-1.79,7.91-5.61,10.66-.92.66-1.33,2-2,3.09a17.54,17.54,0,0,0,3.5,1.79c2.71.7,5.6.78,8.2,1.73a4.83,4.83,0,0,1,2.14,1.32,6.36,6.36,0,0,1,3.91,6,14.34,14.34,0,0,1,1.58,4.88c.29,1.78,1,2.4,2.86,2l6-1.18C975.24,689.22,971.31,685.61,971.31,684.07Z" transform="translate(-7.15 -151.26)"/><path class="cls-10" d="M858.15,672.45a3.78,3.78,0,0,0-2.79,1.36A3.78,3.78,0,0,1,858.15,672.45Z" transform="translate(-7.15 -151.26)"/><path class="cls-10" d="M868,675.49a1.88,1.88,0,0,0-.58-.38l-1.06-.45,1.06.45A1.88,1.88,0,0,1,868,675.49Z" transform="translate(-7.15 -151.26)"/><path class="cls-10" d="M908.43,652a23.18,23.18,0,0,0-4.07-1.49c-.51-.09-1.22.86-1.84,1.34.56.48,1.09,1.31,1.69,1.37a23.27,23.27,0,0,0,4-.22Z" transform="translate(-7.15 -151.26)"/><path class="cls-10" d="M863.23,622.72a4.15,4.15,0,0,1,1.8-4.92c.32-.23.84,0,1.53.66a2.3,2.3,0,0,1,.86-.66c1.41-.28,3.09,3.72,4.47,8l.34.54,8.15-.38c-3.35-12-11.89-41.36-14.75-40.41-2,.66-15.35,22.49-27.57,42.67,7.46-.47,15-.9,22.25-1.29C861.37,625.37,862.35,624,863.23,622.72Z" transform="translate(-7.15 -151.26)"/><path class="cls-10" d="M802.33,699.24a.25.25,0,0,1-.05.08.25.25,0,0,0,.05-.08,38.56,38.56,0,0,0,.93-5.06l-.54-.41h0l.54.41A38.56,38.56,0,0,1,802.33,699.24Z" transform="translate(-7.15 -151.26)"/><path class="cls-10" d="M868.78,677.8a3.31,3.31,0,0,0-.09-1.09A3.31,3.31,0,0,1,868.78,677.8Z" transform="translate(-7.15 -151.26)"/><path class="cls-11" d="M873.76,648.28a41.08,41.08,0,0,1,12.52-1.74,7.92,7.92,0,0,0,3.79.51l.28,0a17.8,17.8,0,0,1,2.86.87,109.28,109.28,0,0,0,11.18-.95,28.24,28.24,0,0,0-4.12-3.53,4,4,0,0,1-2-2.63c-5.21.41-18.55,1.55-29.4,3.42-8.52,1.48-24.74,2.95-35.9,3.87q3.45-.06,6.82,0C852.94,648.21,864.25,648.31,873.76,648.28Z" transform="translate(-7.15 -151.26)"/><path class="cls-11" d="M894.62,628.81l1.48,1a6.29,6.29,0,0,1,0-1.07,1.21,1.21,0,0,1,.05-.18l-5.18.22Z" transform="translate(-7.15 -151.26)"/><path class="cls-11" d="M906.39,641.2c-.19-2.15-.5-4-.48-5.76,0-2.45.28-4.81,1.66-6.65l0-.51-.5-.1-3.61.12a8.14,8.14,0,0,0-1,5.8.26.26,0,0,1,.07.35A13.71,13.71,0,0,0,906.39,641.2Z" transform="translate(-7.15 -151.26)"/><path class="cls-11" d="M869.68,640.75c18.36-2.75,25.72-2.81,28.65-2.17.08-.43.19-.86.31-1.3s.2-.69.32-1c-4,.3-14.54,1.09-29.28,2.11-19.11,1.33-81.47,10.09-83.06,10.35-1.38.23,19.41-5.28,57.23-10.2q9-1.17,19.19-2.27c23.17-2.46,33-2.9,37-2.65l.3-.72-4.08-.64v-.06c-9.8.13-40.14.65-60.85,2.14-2.52.81-5.76,1.87-9,3-6.9,2.39-64.21,10.62-64.21,10.62s12.47-2.13,35.29-6.11A184.47,184.47,0,0,0,825,635.12c-26.61,2.2-67.31,6.16-67.31,6.16s11.14-1.74,52-7.16c3.76-.5,7.5-1,11.19-1.36-16.67,1.21-31,2.55-38.46,3.88-25,4.46-36.62,3.55-31.84,10.88,5,7.7,40.23,2.15,73.69.79C829.81,647.21,843.21,644.72,869.68,640.75Z" transform="translate(-7.15 -151.26)"/><path class="cls-11" d="M834.17,690.32a4.36,4.36,0,0,1,0,.52,3.75,3.75,0,0,1-.18.82.22.22,0,0,0,0,.18,1.69,1.69,0,0,0,.2.23c.12.11.28.24.46.38l.11.08.24.18.27.19.33.22c.4.28.79.55,1.09.8a9.61,9.61,0,0,1,1,.8,1.72,1.72,0,0,1,.23.32c.11.21.21.38.32.55,1.25,1.84,2.72,1.07,4.22-.09,1-.74,1.76-1.81,2.83-2.27,1.85-.8,3-1.9,3.19-3.63a7.18,7.18,0,0,0-.29-2.72c-.5-.18-1-.34-1.6-.49l-.84-.23a9.68,9.68,0,0,1-3.84-1.71,3.24,3.24,0,0,0-3.72-.77c-.22.09-.44.2-.65.31l-.3.17-.72.42-.48.27a3.55,3.55,0,0,0-.87.63l-.06.07a2.73,2.73,0,0,0-.33.43,4.5,4.5,0,0,0-.57,2.44v.49c0,.31,0,.63,0,.94C834.19,690,834.18,690.17,834.17,690.32Z" transform="translate(-7.15 -151.26)"/><path class="cls-11" d="M853.23,679a1.48,1.48,0,0,0,.4.59,3,3,0,0,0,.52.41l.13.09.43.31a3.47,3.47,0,0,1,.29.25h0l.14.17a19.55,19.55,0,0,0,2.11,2.26,7.13,7.13,0,0,0,1.22.83l.35.2h0a9.53,9.53,0,0,0,2-.51c2.29-1.19,4.59-2.38,6.81-3.71a2.22,2.22,0,0,0,.88-1l0-.14a3.53,3.53,0,0,0,.22-.92,3.31,3.31,0,0,0-.09-1.09,2.47,2.47,0,0,0-.66-1.22,1.88,1.88,0,0,0-.58-.38l-1.06-.45c-.71-.3-1.43-.59-2.16-.85s-1.71-.58-2.58-.81c-.47-.12-.95-.23-1.43-.32s-1-.17-1.55-.21a4.61,4.61,0,0,0-.52,0,3.78,3.78,0,0,0-2.79,1.36l-.06.07-.36.46a11,11,0,0,0-.89,1.55c-.23.47-.44,1-.64,1.45A2.3,2.3,0,0,0,853.23,679Z" transform="translate(-7.15 -151.26)"/><path class="cls-11" d="M828.14,702.06a2.64,2.64,0,0,0-.3-2.75,3.89,3.89,0,0,0-.43-.48h0c-.37-.36-.8-.68-1.2-1l-.47-.39a3.83,3.83,0,0,1-.29-.28,2.51,2.51,0,0,0-2.86-.82l-.36.21a3.88,3.88,0,0,0-1.19,1.25c-.59.93-1.14,1.88-1.75,2.79a16.26,16.26,0,0,1-1,1.42,2.92,2.92,0,0,0-.56,3.19,4.7,4.7,0,0,0,3.68,2.62C823.08,707.9,827.3,704.3,828.14,702.06Z" transform="translate(-7.15 -151.26)"/><path class="cls-8" d="M857.85,657l-4.21,3.12-.17.14L859,663.6h0v-7.51h0Z" transform="translate(-7.15 -151.26)"/><path class="cls-8" d="M815.63,685.36l1.16.27.3.07,1.13.27.25,0,2,.47V680h0l-1.5,1.33-.91.8-.95.83-.73.65-1,.89-.71.63Z" transform="translate(-7.15 -151.26)"/><path class="cls-8" d="M799,697.79a3.57,3.57,0,0,0,.22.51c0,.09.09.18.14.27a7.48,7.48,0,0,0,.93,1.3h0c.2.22,1.68-.16,2-.55a.25.25,0,0,0,.05-.08,38.56,38.56,0,0,0,.93-5.06l-.54-.41h0l-1,.83c-.33.27-.67.54-1,.82a10.68,10.68,0,0,0-1.75,1.81.37.37,0,0,0,0,.2A1.34,1.34,0,0,0,799,697.79Z" transform="translate(-7.15 -151.26)"/><path class="cls-8" d="M833.92,672.46a21.58,21.58,0,0,1,4.38,1.84,10,10,0,0,0,2,.85h0v-5.69l-.83-.27C838.56,670.89,835,670.5,833.92,672.46Z" transform="translate(-7.15 -151.26)"/><path class="cls-11" d="M958.77,696.61a2.39,2.39,0,1,0,2.39,2.39A2.39,2.39,0,0,0,958.77,696.61Z" transform="translate(-7.15 -151.26)"/><path class="cls-11" d="M811.1,712a4.1,4.1,0,0,0-2.39-3.45c-.8,0-7.16-.53-9,1.33s1.59,5.57,5.31,6.1S811.1,714.39,811.1,712Z" transform="translate(-7.15 -151.26)"/><path class="cls-10" d="M833,648.07q3.45-.06,6.82,0l2.22,0,.7-.85C839.28,647.54,836,647.82,833,648.07Z" transform="translate(-7.15 -151.26)"/><path class="cls-10" d="M898.33,638.58c.08-.43.19-.86.31-1.3s.2-.69.32-1c-3.8.29-13.36,1-26.81,1.94.17.7.33,1.41.49,2.13C888.84,638,895.56,638,898.33,638.58Z" transform="translate(-7.15 -151.26)"/><path class="cls-10" d="M863.17,622.52A4.13,4.13,0,0,1,865,617.8c.32-.23.84,0,1.53.66a2.3,2.3,0,0,1,.86-.66c1.41-.28,3.09,3.72,4.47,8l.34.54,8.15-.38c-3.35-12-11.89-41.36-14.75-40.41-2,.66-15.35,22.49-27.57,42.67,7.17-.45,14.4-.87,21.41-1.24Z" transform="translate(-7.15 -151.26)"/><path class="cls-10" d="M862.28,652.45a2.87,2.87,0,0,1,.87-.09,6.35,6.35,0,0,0,2.28-.22q-5.71,0-12.21-.06c-2.18,3.32-4.43,6.73-6.56,9.93,4.66-2.82,9.19-5.84,13.9-8.57C861.13,653.1,861.7,652.77,862.28,652.45Z" transform="translate(-7.15 -151.26)"/><path class="cls-10" d="M853.47,660.21,859,663.6v-7.51h0l-1.17.86-4.21,3.12Z" transform="translate(-7.15 -151.26)"/><path class="cls-10" d="M902.6,634.45a13.71,13.71,0,0,0,3.79,6.75c-.19-2.15-.5-4-.48-5.76,0-2.45.28-4.81,1.66-6.65l0-.51-.5-.1-3.61.12a8.14,8.14,0,0,0-1,5.8A.26.26,0,0,1,902.6,634.45Z" transform="translate(-7.15 -151.26)"/><path class="cls-10" d="M894.62,628.81l1.48,1a6.29,6.29,0,0,1,0-1.07,1.21,1.21,0,0,1,.05-.18l-5.18.22Z" transform="translate(-7.15 -151.26)"/><path class="cls-10" d="M820.44,685.22l-1.07,1,1.07.25Z" transform="translate(-7.15 -151.26)"/><path class="cls-10" d="M862.05,636.35l1-.11.92-.1a5.15,5.15,0,0,1-.12-2.22C864.23,633.33,863.52,634.29,862.05,636.35Z" transform="translate(-7.15 -151.26)"/><path class="cls-10" d="M871.49,635.37c17.2-1.69,25.09-2,28.57-1.78l.3-.72-4.08-.64v-.06c-4.77.06-14.4.22-25.41.54C871.07,633.57,871.28,634.46,871.49,635.37Z" transform="translate(-7.15 -151.26)"/><path class="cls-10" d="M865.06,641.45c-.22-1-.42-1.84-.59-2.65-1.39.13-2.91.29-4.51.46l-2.39,3.35Z" transform="translate(-7.15 -151.26)"/><path class="cls-10" d="M848.22,640.58c-25.62,3-60.42,7.94-61.6,8.13-1.38.23,19.41-5.28,57.23-10.2,2.21-.29,4.47-.57,6.79-.86l3.62-4.37c-6.59.28-13.09.62-18.84,1-2.52.81-5.76,1.87-9,3-6.9,2.39-64.21,10.62-64.21,10.62s12.47-2.13,35.29-6.11A184.47,184.47,0,0,0,825,635.12c-26.61,2.2-67.31,6.16-67.31,6.16s11.14-1.74,52-7.16c3.76-.5,7.5-1,11.19-1.36-16.67,1.21-31,2.55-38.46,3.88-25,4.46-36.62,3.55-31.84,10.88,5,7.7,40.23,2.15,73.69.79,3.42-.68,9.86-1.89,20.57-3.66Z" transform="translate(-7.15 -151.26)"/><path class="cls-10" d="M941.67,692.73l-.76,10.54c.82-.46,1.65-.87,2.4-1.23-.32-1.6-.51-3.22-.76-4.83S942,694.21,941.67,692.73Z" transform="translate(-7.15 -151.26)"/><path class="cls-10" d="M958.77,696.61a2.39,2.39,0,1,0,2.39,2.39A2.39,2.39,0,0,0,958.77,696.61Z" transform="translate(-7.15 -151.26)"/><path class="cls-10" d="M902.52,651.81c.56.48,1.09,1.31,1.69,1.37a23.27,23.27,0,0,0,4-.22l.24-1a23.18,23.18,0,0,0-4.07-1.49C903.85,650.38,903.14,651.33,902.52,651.81Z" transform="translate(-7.15 -151.26)"/><path class="cls-10" d="M900.27,643.41a4,4,0,0,1-2-2.63c-4.51.35-15.11,1.25-24.92,2.71.35,1.53.7,3.08,1,4.62a40,40,0,0,1,11.88-1.57,7.92,7.92,0,0,0,3.79.51l.28,0a17.8,17.8,0,0,1,2.86.87,109.28,109.28,0,0,0,11.18-.95A28.24,28.24,0,0,0,900.27,643.41Z" transform="translate(-7.15 -151.26)"/><path class="cls-10" d="M971.31,684.07c0-5.37-1.79-78.81-1.79-78.81l-19.89,30.38c6.84,5.9,11.72,13,11.59,18.91a51.93,51.93,0,0,1-.82,8.79c0,4.51-1.79,7.91-5.61,10.66-.92.66-1.33,2-2,3.09a17.54,17.54,0,0,0,3.5,1.79c2.71.7,5.6.78,8.2,1.73a4.83,4.83,0,0,1,2.14,1.32,6.36,6.36,0,0,1,3.91,6,14.34,14.34,0,0,1,1.58,4.88c.29,1.78,1,2.4,2.86,2l6-1.18C975.24,689.22,971.31,685.61,971.31,684.07Z" transform="translate(-7.15 -151.26)"/><path class="cls-10" d="M799.24,698.3c0,.09.09.18.14.27s.29.47.44.69l3.28-4c0-.36.1-.73.16-1.09l-.54-.41h0l-1,.83c-.33.27-.67.54-1,.82a10.68,10.68,0,0,0-1.75,1.81.37.37,0,0,0,0,.2,1.34,1.34,0,0,0,.07.36A3.57,3.57,0,0,0,799.24,698.3Z" transform="translate(-7.15 -151.26)"/><path class="cls-10" d="M838,674.77l2.37.38h0v-5.69l-.83-.27c-.94,1.7-4.5,1.31-5.58,3.27a21.58,21.58,0,0,1,4.38,1.84Z" transform="translate(-7.15 -151.26)"/><path class="cls-10" d="M827.41,698.83h0c-.37-.36-.8-.68-1.2-1l-.47-.39a3.83,3.83,0,0,1-.29-.28,2.51,2.51,0,0,0-2.86-.82l-.36.21a3.88,3.88,0,0,0-1.19,1.25c-.59.93-1.14,1.88-1.75,2.79a16.26,16.26,0,0,1-1,1.42,2.92,2.92,0,0,0-.56,3.19,4.7,4.7,0,0,0,3.68,2.62c1.73.1,5.95-3.5,6.79-5.74a2.64,2.64,0,0,0-.3-2.75A3.89,3.89,0,0,0,827.41,698.83Z" transform="translate(-7.15 -151.26)"/><path class="cls-10" d="M808.71,708.55c-.8,0-7.16-.53-9,1.33s1.59,5.57,5.31,6.1,6.1-1.59,6.1-4A4.1,4.1,0,0,0,808.71,708.55Z" transform="translate(-7.15 -151.26)"/><path class="cls-10" d="M868,675.49a1.88,1.88,0,0,0-.58-.38l-1.06-.45c-.71-.3-1.43-.59-2.16-.85s-1.71-.58-2.58-.81c-.47-.12-.95-.23-1.43-.32s-1-.17-1.55-.21a4.61,4.61,0,0,0-.52,0,3.78,3.78,0,0,0-2.79,1.36l-.06.07-.36.46a11,11,0,0,0-.89,1.55c-.23.47-.44,1-.64,1.45a2.3,2.3,0,0,0-.18,1.65,1.48,1.48,0,0,0,.4.59,3,3,0,0,0,.52.41l.13.09.43.31a3.47,3.47,0,0,1,.29.25h0l.14.17a19.55,19.55,0,0,0,2.11,2.26,7.13,7.13,0,0,0,1.22.83l.35.2a9.53,9.53,0,0,0,2-.51c2.29-1.19,4.59-2.38,6.81-3.71a2.22,2.22,0,0,0,.88-1l0-.14a3.53,3.53,0,0,0,.22-.92,3.31,3.31,0,0,0-.09-1.09A2.47,2.47,0,0,0,868,675.49Z" transform="translate(-7.15 -151.26)"/><path class="cls-10" d="M855.15,646l-1.56,2.2q7,.06,13.13.08c-.31-1.25-.61-2.45-.89-3.6C862.74,645.14,859.06,645.58,855.15,646Z" transform="translate(-7.15 -151.26)"/><path class="cls-10" d="M846.57,686.39l-.84-.23a9.68,9.68,0,0,1-3.84-1.71,3.24,3.24,0,0,0-3.72-.77c-.22.09-.44.2-.65.31l-.3.17-.72.42-.48.27a3.55,3.55,0,0,0-.87.63l-.06.07a2.73,2.73,0,0,0-.33.43,4.5,4.5,0,0,0-.57,2.44v.49c0,.31,0,.63,0,.94,0,.16,0,.32,0,.47a4.36,4.36,0,0,1,0,.52,3.75,3.75,0,0,1-.18.82.22.22,0,0,0,0,.18,1.69,1.69,0,0,0,.2.23c.12.11.28.24.46.38l.11.08.24.18.27.19.33.22c.4.28.79.55,1.09.8a9.61,9.61,0,0,1,1,.8,1.72,1.72,0,0,1,.23.32c.11.21.21.38.32.55,1.25,1.84,2.72,1.07,4.22-.09,1-.74,1.76-1.81,2.83-2.27,1.85-.8,3-1.9,3.19-3.63a7.18,7.18,0,0,0-.29-2.72C847.67,686.7,847.13,686.54,846.57,686.39Z" transform="translate(-7.15 -151.26)"/><path class="cls-12" d="M1061.46,730.64c-7.16-.59-16.71-4.18-25.07-6.57-5.6-1.6-30-18.2-45.79-29.53l5.65,1.94-5.89-2.64q4-1,8-2l7.21,2.47-6.1-2.73q4.09-1,8.14-1.87l7.25,2.48-6.11-2.74c2.73-.62,5.45-1.23,8.16-1.86l7.23,2.48-6.11-2.74c2.67-.63,5.32-1.27,8-1.93l7.43,2.55-6.32-2.84c4.38-1.12,8.72-2.32,13-3.68-4.79,1-9.57,2-14.35,3l4.74-4a40.61,40.61,0,0,0-4.8,3l-1.57,1.24.11,0-7.59,1.65,4.56-3.81a44.44,44.44,0,0,0-4.8,3l-1.48,1.18-7.36,1.57,4.36-3.63a43.21,43.21,0,0,0-4.81,3l-1.23,1c-2.42.5-4.83,1-7.25,1.47l4-3.34a42.36,42.36,0,0,0-4.8,3l-.82.65-7.19,1.4,3.52-2.93a40.61,40.61,0,0,0-4.8,3l-.3.23-.6.12c-6.25-4.51-10.61-7.81-11-8.33-1.19-1.79-2.39-87.76-2.39-87.76a6.25,6.25,0,0,0-4.18-3.59c-2.33-.46-18.87,26.76-26,38.7-6.82-4.61-14.58-7.8-21.1-7.92-2.45,0-4.61,0-6.5.18-1.32-8.71-5-33.23-5.5-38.12-.6-6,0-13.73-3-12.54s-3,6.57-2.39,9c.47,1.89,3.2,30.78,4.31,42.68l-1.11.3c-4.71.1-12,.33-20.81.69L870.41,577.2s-3-6-6-5.37c-1.82.36-20.57,32-35.56,57-22.38,1.55-42.85,3.49-52.21,5.67-25.67,6-38.94,3.91-34,13.73s38.84,5.41,72.09,4c-2.54,4.07-4.23,6.6-4.63,6.8-2.38,1.19-71.05,4.18-71.05,4.18s-56.72-18.51-63.28-22.1-32.84-21.49-32.84-21.49,31.64,23.88,37,26.87,60.9,22.09,66.27,21.49,67.47-1.79,71-6c.74-.87,3.13-4.65,6.46-10.09,3.67-.09,7.3-.11,10.85-.06l4.29.07c-9,10.92-18.91,22.9-27.45,33.26-3.29,2.53-6.56,5.08-9.76,7.72-4.11,3.39-7.92,7.15-11.8,10.83l-1,1c-1,.24-2.15.46-3.46.64-2.88.39-5.34.83-7.31,1.22-2.47-.18-4,.16-5,1.13l-.14,0s0,.07-.07.19a4.7,4.7,0,0,0-.91,2.16,8.08,8.08,0,0,0,5.93,9.25c-.16-.37-.29-.7-.41-1a16.94,16.94,0,0,0,2.1.48c-12.56,9.67-24.69,18-32.71,21.36-22.69,9.55-63.89,22.68-90.16,25.67-10.53,1.19-22.87,1.81-33.89,2.13q-1.39,1.83-2.85,3.6a276.81,276.81,0,0,0,49.28-3.34c11.94-1.79,83.59-21.5,94.93-30.45,3.81-3,12.66-10.18,22.91-18.61,4.84-.17,10-.83,14.24-.83h.57l1,.14c2.53,1,13.37,3.77,36.29-7.69,18.38-9.19,31-19.27,37.36-26.55,3.8,21.4,8.3,44.85,10.69,51.74-2,13.81-9,71.07-9,71.07s-3.58,28.65-7.17,39.4-10.74,30.45-7.16,28.66,17.31-62.69,18.51-70.45S893.09,739,893.09,739l-.25-.28c.93,0,1.42-.47,1-2.31-.47-2.35-7.32-33.84-12.86-59.24a3.61,3.61,0,0,0,.13-.6,31.8,31.8,0,0,0,3.94,9.36,8.91,8.91,0,0,0,2.4,3.43c.55.69,1.16,1.39,1.81,2.08a2.54,2.54,0,0,0,.8,1l.32.12c4.31,4.08,10.52,7.57,19.38,8.44a25.47,25.47,0,0,0,5.09,0,3.58,3.58,0,0,0,1.84-.28c.44-.08.87-.17,1.29-.28a6.53,6.53,0,0,0,4.32-1.44,5.07,5.07,0,0,0,.65-.6,20,20,0,0,0,9.44-14.81,3.84,3.84,0,0,1,2.68.54,5.23,5.23,0,0,1,1.42.38c-1.6,16.48-5.23,54.35-5.23,58.07,0,4.78,35.82,60.31,38.21,65.08S1002.35,856,1002.35,856l3.59-1.19-35.23-50.15L937.87,745l2.34-32.08c7.69,5.25,22.56,14.58,29.31,24.92,9,13.73,26.86,55.52,26.86,55.52s1.8-3,1.2-4.77-22.69-53.14-26.27-57.92-29.85-20.3-29.85-20.3l4-2.7c.13.2.27.4.41.59,2,.95,4,2,6,2.79a25.71,25.71,0,0,0,4.85,1c.52.09,1.25,0,1.54.31a38.12,38.12,0,0,1,2.56,3l.06,0a.7.7,0,0,1,.53.78,39.21,39.21,0,0,1,3.4,5.62c1.74,1.82,3.29,3.8,5.17,5.49a12.17,12.17,0,0,0,2.06,1.52c1.18-1.63-.3-2.81-1.16-4-1.1-1.51-2.57-2.74-3.67-4.25a50.93,50.93,0,0,1-2.77-4.68l1-.74a69.37,69.37,0,0,1,6.13,5.16c4.57,4.82,4.49,4.89,6.42,4.7-3.33-3.38-6.23-6.5-9.34-9.4-1-1-2.09-1.48-1.25-3.14s1.59-3.63,2.51-5.79c1.87,1.12,3.71,2.29,5.53,3.49l3.25,6.35-2.3-5.72c2.59,1.72,5.16,3.5,7.72,5.29l2.74,5.35L985,716.56l4.44,3.12,3.78,7.37-2.65-6.58c2.16,1.5,4.33,3,6.52,4.44l3.75,7.33-2.65-6.6c2.55,1.66,5.13,3.27,7.76,4.79l3.58,7L1006.9,731a98.49,98.49,0,0,0,12,5.81,132.13,132.13,0,0,1-12.49-7.2l6.12.44a42.66,42.66,0,0,0-5.54-1.17l-2-.19q-3.07-2.06-6-4.18l4.86.36a42.36,42.36,0,0,0-5.54-1.18l-.52-.05q-2.88-2.1-5.71-4.26l4.14.3a44.87,44.87,0,0,0-5.24-1.14l-6.48-5,5.42.39a42.29,42.29,0,0,0-5.54-1.17l-1-.1q-2.55-2-5.17-3.91l3.59.26c-.85-.19-2.79-.76-4.67-1.06-2-1.45-4-2.9-6.06-4.34,2.25-2,.83-5.46,2.88-6.2a48,48,0,0,1,9.45-2c14.74,11,38.41,25.82,44.06,28.64,8.36,4.18,26.27,9.56,34,9.56s26.27-7.17,28.06-7.76S1068.63,731.24,1061.46,730.64ZM799,697.42a.36.36,0,0,1,0-.19,10.68,10.68,0,0,1,1.75-1.81c.32-.28.66-.55,1-.82l1-.83.54.41c-.06.36-.11.73-.16,1.09l-3.28,4c-.15-.22-.31-.46-.44-.69s-.1-.18-.14-.27a3.57,3.57,0,0,1-.22-.51A1.33,1.33,0,0,1,799,697.42ZM805,716c-3.72-.53-7.17-4.24-5.31-6.1s8.22-1.33,9-1.33A4.1,4.1,0,0,1,811.1,712C811.1,714.39,808.71,716.51,805,716Zm98.51-87.68,3.61-.12.5.1,0,.51c-1.38,1.84-1.63,4.2-1.66,6.65,0,1.8.29,3.61.48,5.76a13.71,13.71,0,0,1-3.79-6.75.26.26,0,0,0-.07-.35A8.14,8.14,0,0,1,903.51,628.3Zm-7.31.28a1.21,1.21,0,0,0-.05.18,6.29,6.29,0,0,0,0,1.07l-1.48-1H891Zm-30.57-43c2.86-.95,11.4,28.44,14.75,40.41l-8.15.38-.34-.54c-1.38-4.29-3.06-8.29-4.47-8a2.3,2.3,0,0,0-.86.66c-.69-.64-1.21-.89-1.53-.66a4.13,4.13,0,0,0-1.86,4.72l-3.7,4.47c-7,.37-14.24.79-21.41,1.24C850.28,608.05,863.66,586.22,865.63,585.56Zm-19,76.45c2.13-3.2,4.38-6.61,6.56-9.93q6.49.06,12.21.06a6.35,6.35,0,0,1-2.28.22,2.87,2.87,0,0,0-.87.09c-.58.32-1.15.65-1.72,1C855.85,656.17,851.32,659.19,846.66,662ZM859,656.09v7.51l-5.54-3.4a1.09,1.09,0,0,0,.17-.13l4.21-3.12Zm-5.42-7.89,1.56-2.2c3.91-.42,7.59-.86,10.68-1.32.28,1.15.58,2.35.89,3.6Q860.59,648.27,853.59,648.2ZM864,636.14l-.92.1-1,.11c1.47-2.06,2.18-3,1.79-2.43A5.15,5.15,0,0,0,864,636.14Zm.51,2.66c.18.81.37,1.69.59,2.65l-7.49,1.16,2.39-3.35C861.56,639.09,863.08,638.93,864.47,638.8ZM750.6,647.52c-4.78-7.33,6.87-6.42,31.84-10.88,7.44-1.33,21.79-2.67,38.46-3.88-3.69.41-7.43.86-11.19,1.36-40.87,5.42-52,7.16-52,7.16s40.7-4,67.31-6.16a184.47,184.47,0,0,1-27.51,6.69c-22.82,4-35.29,6.11-35.29,6.11s57.31-8.23,64.21-10.62c3.24-1.12,6.48-2.18,9-3,5.75-.41,12.25-.75,18.84-1l-3.62,4.37c-2.32.29-4.58.57-6.79.86-37.82,4.92-58.61,10.43-57.23,10.2,1.18-.19,36-5.09,61.6-8.13l-3.36,4.07c-10.71,1.77-17.15,3-20.57,3.66C790.83,649.67,755.62,655.22,750.6,647.52Zm82.38.55c3-.25,6.3-.53,9.74-.84l-.7.85-2.23,0Q836.43,648,833,648.07Zm-4.84,54c-.84,2.24-5.06,5.84-6.79,5.74a4.69,4.69,0,0,1-3.68-2.63,2.9,2.9,0,0,1,.56-3.18,16.26,16.26,0,0,0,1-1.42c.61-.91,1.16-1.86,1.75-2.79a3.88,3.88,0,0,1,1.19-1.25l.36-.21a2.51,2.51,0,0,1,2.86.82,3.83,3.83,0,0,0,.29.28l.47.39c.4.33.83.65,1.2,1h0a3.89,3.89,0,0,1,.43.48A2.64,2.64,0,0,1,828.14,702.06Zm20.32-12.46c-.21,1.73-1.34,2.83-3.19,3.63-1.07.46-1.87,1.53-2.83,2.27-1.5,1.16-3,1.93-4.22.09-.11-.17-.21-.34-.32-.55a1.72,1.72,0,0,0-.23-.32,9.61,9.61,0,0,0-1-.8c-.3-.25-.69-.52-1.09-.8l-.33-.22-.27-.19-.24-.18-.11-.08c-.18-.14-.34-.27-.46-.38a1.69,1.69,0,0,1-.2-.23.22.22,0,0,1,0-.18,3.75,3.75,0,0,0,.18-.82,4.36,4.36,0,0,0,0-.52c0-.15,0-.31,0-.47,0-.31,0-.63,0-.94v-.49a4.5,4.5,0,0,1,.57-2.44,2.73,2.73,0,0,1,.33-.43l.06-.07a3.55,3.55,0,0,1,.87-.63l.48-.27.72-.42.3-.17c.21-.11.43-.22.65-.31a3.24,3.24,0,0,1,3.72.77,9.68,9.68,0,0,0,3.84,1.71l.84.23c.56.15,1.1.31,1.6.49A7.18,7.18,0,0,1,848.46,689.6Zm20.1-10.88a.78.78,0,0,1,0,.14,2.22,2.22,0,0,1-.88,1c-2.22,1.33-4.52,2.52-6.81,3.71a9.53,9.53,0,0,1-2,.51l-.35-.2a7.13,7.13,0,0,1-1.22-.83,19.7,19.7,0,0,1-2.11-2.27l-.14-.16h0a3.47,3.47,0,0,0-.29-.25c-.14-.11-.29-.21-.44-.31l-.12-.09a3,3,0,0,1-.52-.41,1.48,1.48,0,0,1-.4-.59,2.3,2.3,0,0,1,.18-1.65c.2-.49.41-1,.64-1.45a11,11,0,0,1,.89-1.55l.36-.46.06-.07a3.78,3.78,0,0,1,2.79-1.36,4.88,4.88,0,0,1,.53,0c.51,0,1,.12,1.54.21s1,.2,1.43.32q1.3.35,2.58.81c.73.26,1.45.55,2.16.85l1.06.45a1.88,1.88,0,0,1,.58.38,2.47,2.47,0,0,1,.66,1.22,3.31,3.31,0,0,1,.09,1.09A3.53,3.53,0,0,1,868.56,678.72Zm2.3-46c11-.32,20.64-.48,25.41-.54v.06l4.08.64-.3.72c-3.48-.21-11.37.09-28.57,1.78C871.28,634.46,871.07,633.57,870.86,632.71Zm1.29,5.48c13.45-.94,23-1.65,26.81-1.94-.12.34-.23.69-.32,1s-.23.87-.31,1.3c-2.77-.61-9.49-.59-25.69,1.74C872.48,639.6,872.32,638.89,872.15,638.19Zm18.2,8.83-.28,0a7.92,7.92,0,0,1-3.79-.51,40,40,0,0,0-11.88,1.57c-.34-1.54-.69-3.09-1-4.62,9.81-1.46,20.41-2.36,24.92-2.71a4,4,0,0,0,2,2.63,28.24,28.24,0,0,1,4.12,3.53,109.28,109.28,0,0,1-11.18.95A17.8,17.8,0,0,0,890.35,647ZM908.19,653a23.27,23.27,0,0,1-4,.22c-.6-.06-1.13-.89-1.69-1.37.62-.48,1.33-1.43,1.84-1.34a23.18,23.18,0,0,1,4.07,1.49Zm32.72,50.31.76-10.54c.37,1.48.64,3,.88,4.48s.44,3.23.76,4.83C942.56,702.4,941.73,702.81,940.91,703.27Zm17.86-1.88a2.39,2.39,0,1,1,2.39-2.39A2.39,2.39,0,0,1,958.77,701.39ZM975,694.86c-1.82.36-2.57-.26-2.86-2a14.34,14.34,0,0,0-1.58-4.88,6.36,6.36,0,0,0-3.91-6,4.83,4.83,0,0,0-2.14-1.32c-2.6-1-5.49-1-8.2-1.73a17.54,17.54,0,0,1-3.5-1.79c.65-1.05,1.06-2.43,2-3.09,3.82-2.75,5.64-6.15,5.61-10.66a51.93,51.93,0,0,0,.82-8.79c.13-5.93-4.75-13-11.59-18.91l19.89-30.38s1.79,73.44,1.79,78.81c0,1.54,3.93,5.15,9.74,9.61Z" transform="translate(-7.15 -151.26)"/><path class="cls-9" d="M706.85,567.55C707.91,570.73,1047,856.66,1047,856.66l-35.36,30.52L672.8,605.73" transform="translate(-7.15 -151.26)"/><rect class="cls-12" x="1141.97" width="195.84" height="558.26" rx="5.67"/><path class="cls-13" d="M1330.26,266.1a85.21,85.21,0,0,0-170.07,0Z" transform="translate(-7.15 -151.26)"/><path class="cls-13" d="M1330.26,436.55a85.21,85.21,0,0,0-170.07,0Z" transform="translate(-7.15 -151.26)"/><path class="cls-13" d="M1330.26,605.8a85.21,85.21,0,0,0-170.07,0Z" transform="translate(-7.15 -151.26)"/><circle class="cls-9" cx="1239.89" cy="120.13" r="68.91"/><circle class="cls-2" cx="1239.89" cy="290.13" r="68.91"/><circle class="cls-14" cx="1239.89" cy="460.13" r="68.91"/><rect class="cls-12" x="1212.69" y="554.87" width="54.4" height="786.98"/></svg>