<?xml version="1.0" encoding="utf-8"?>
<!-- Generator: Adobe Illustrator 24.0.0, SVG Export Plug-In . SVG Version: 6.00 Build 0)  -->
<svg version="1.1" id="Capa_1" xmlns="http://www.w3.org/2000/svg" xmlns:xlink="http://www.w3.org/1999/xlink" x="0px" y="0px"
	 viewBox="0 0 595.28 595.28" style="enable-background:new 0 0 595.28 595.28;" xml:space="preserve">
<style type="text/css">
	.st0{fill:#EFE0D2;}
	.st1{fill:#F5D759;}
	.st2{fill:#929A9F;}
	.st3{fill:#DCB827;}
	.st4{fill:#6E863B;}
	.st5{fill:#7F634A;}
	.st6{fill:#92755A;}
	.st7{fill:#97CCF0;}
	.st8{fill:#D9C19F;}
	.st9{fill:#C6B194;}
	.st10{fill:#808080;}
	.st11{fill:#A6BC43;}
	.st12{fill:#DCA86E;}
	.st13{fill:#503820;}
	.st14{fill:#BE8D5D;}
	.st15{fill:#D884B2;}
	.st16{fill:#ECECED;}
	.st17{fill:#CC9965;}
	.st18{fill:#A8A9A6;}
	.st19{fill:#C977A7;}
	.st20{fill:#786AA7;}
	.st21{fill:#8474AF;}
	.st22{fill:#FFFFFF;}
	.st23{fill:#9384BB;}
	.st24{fill:#285164;}
	.st25{fill:#0E3746;}
	.st26{fill:#336275;}
	.st27{fill:#D2D2D8;}
	.st28{fill:#BEC83E;}
	.st29{fill:#214758;}
	.st30{fill:#D7D8D9;}
	.st31{fill:#C6C7C7;}
	.st32{fill:#9D9C9D;}
	.st33{fill:#A39F9F;}
	.st34{fill:#BADCEF;}
	.st35{fill:#CACACE;}
	.st36{fill:#E5E5E5;}
	.st37{fill:#8E8889;}
	.st38{fill:#715742;}
	.st39{fill:#A5856C;}
	.st40{fill:#876951;}
	.st41{fill:#7C5F4A;}
	.st42{fill:#CA945E;}
	.st43{fill:#E1DDDC;}
	.st44{fill:#3F79A3;}
	.st45{fill:#DCA86D;}
	.st46{fill:#84BED7;}
	.st47{fill:none;}
	.st48{fill:#BD8C5C;}
	.st49{fill:#37375D;}
	.st50{fill:#5492C3;}
	.st51{fill:#4780B6;}
	.st52{fill:#5391C3;}
	.st53{fill:#B45642;}
	.st54{fill:#D9DCD2;}
	.st55{fill:#A09892;}
	.st56{fill:#AFA6A0;}
	.st57{fill:#8E8885;}
</style>
<g>
	<path class="st0" d="M203.99,367.33c0,0-194.97,124.35-197.04,138.95c-2.06,14.6-14.43,74.07,21.65,74.07s92.79-11.47,122.69-5.22
		c29.9,6.26,47.43,15.65,86.61,8.35s53.61-13.56,93.82-6.26c40.21,7.3,57.74,14.6,89.7,9.39s43.3-3.13,81.45-2.09
		c38.15,1.04,71.14,2.09,78.36-19.82c7.22-21.91,8.25-184.64,4.12-189.86C558.28,340.58,203.99,367.33,203.99,367.33z"/>
	<g>
		<polygon class="st1" points="136.86,85.95 137.3,386.32 364.09,386.32 364.09,35.68 		"/>
		<polygon class="st2" points="113.09,88.2 119.19,94.94 365.82,35.12 363.42,27.82 		"/>
	</g>
	<g>
		<polygon class="st1" points="587.84,86.12 587.41,387.5 362.5,387.5 362.5,35.68 		"/>
		<polygon class="st2" points="589.33,83.01 588.29,91.66 363.72,35.68 361.28,27.82 		"/>
	</g>
	<polyline class="st3" points="135.94,91.85 363.72,35.68 590.21,92.7 588.38,100.28 364.91,45.22 137.78,95.22 	"/>
	<rect x="443.87" y="96.27" class="st3" width="45.93" height="12.98"/>
	<rect x="493.31" y="96.27" class="st3" width="45.93" height="12.98"/>
	<rect x="469.39" y="113.97" class="st3" width="45.93" height="12.98"/>
	<rect x="522.94" y="112.5" class="st3" width="45.93" height="12.98"/>
	<rect x="502.84" y="131.09" class="st3" width="45.93" height="12.98"/>
	<rect x="308.25" y="331.25" class="st3" width="45.93" height="12.51"/>
	<rect x="333.35" y="314.78" class="st3" width="45.93" height="12.98"/>
	<rect x="333.76" y="348.31" class="st3" width="45.93" height="12.51"/>
	<g>
		<rect x="304.16" y="69.71" class="st3" width="45.93" height="12.98"/>
		<rect x="353.6" y="69.71" class="st3" width="45.93" height="12.98"/>
		<rect x="329.67" y="87.42" class="st3" width="45.93" height="12.98"/>
	</g>
	<g>
		<rect x="160.89" y="91.98" class="st3" width="45.93" height="12.98"/>
		<rect x="210.34" y="91.98" class="st3" width="45.93" height="12.98"/>
		<rect x="186.41" y="109.69" class="st3" width="45.93" height="12.98"/>
	</g>
	<g>
		<rect x="486.36" y="252.96" class="st3" width="45.93" height="12.98"/>
		<rect x="535.81" y="252.96" class="st3" width="45.93" height="12.98"/>
		<rect x="511.88" y="270.67" class="st3" width="45.93" height="12.98"/>
	</g>
	<path class="st4" d="M563.17,399.72c0,0,32.33-23.55,20.37-23.55c-11.96,0-25.69,10.18-25.69,10.18s27.27-23.74,14.42-26.28
		c-12.84-2.55-24.17,21.19-24.17,21.19s8.42-23.87,0.44-23.55c-7.97,0.32-17.27,22.91-17.27,22.91s6.2-17.18-0.89-15.91
		c-7.09,1.27-11.52,12.09-11.52,12.09l-4.43-7c0,0,28.35-21.64,18.16-28.32s-30.56,14.32-30.56,14.32s17.27-22.59,6.2-28.64
		s-25.69,35.01-25.69,33.73s3.54-27.69-6.64-28.32c-10.19-0.64-9.74,30.55-9.74,30.55s1.33-39.78-12.4-41.69
		c-13.73-1.91-15.06,28.32-15.06,28.32s-7.97-33.1-19.04-36.28c-11.07-3.18-1.77,36.92-1.77,36.92s-12.4-17.82-23.03-17.18
		c-10.63,0.64,9.3,28.64,9.3,28.64s-14.17-8.91-19.49-7.64c-5.31,1.27,9.74,15.59,9.74,15.59s-8.42-6.68-15.94-2.86
		c-7.53,3.82-8.86,6.36-8.86,6.36s3.99-18.14-2.66-17.5s-12.4,16.55-12.4,16.55s-2.66-17.5-12.4-19.73
		c-9.74-2.23-3.99,21.32-3.99,21.32s-13.29-28-24.36-28.64c-11.07-0.64,9.74,32.46,9.74,32.46s-15.06-13.37-23.47-11.46
		c-8.42,1.91,14.17,18.46,14.17,18.46s-14.62-6.05-17.72-1.27c-3.1,4.77,15.06,7.32,15.06,7.32s-23.47,11.14-11.07,10.18
		s48.28-3.82,48.28-3.82s-7.53,3.5,0.44,3.5c7.97,0,34.55-2.86,34.55-2.86s-3.1,3.18,8.42,2.86s42.52-2.23,42.52-2.23
		s33.66,7.96,29.23,4.46c-4.43-3.5-8.42-4.77-8.42-4.77s43.4,7.32,48.72,4.14c5.31-3.18-4.43-4.14-4.43-4.14s50.05,6.36,48.28,4.14
		c-1.77-2.23-10.63-3.5-10.63-3.5s26.13,6.36,33.22,5.09C577.78,402.58,563.17,399.72,563.17,399.72z"/>
	<rect x="170.46" y="151.41" class="st3" width="111.96" height="234.91"/>
	<rect x="178.12" y="134.34" class="st5" width="111.96" height="251.98"/>
	<rect x="182.53" y="139.85" class="st6" width="101.86" height="246.47"/>
	<g>
		<rect x="337.64" y="132.13" class="st5" width="100.3" height="137.13"/>
		<g>
			<g>
				<rect x="348.01" y="140.23" class="st7" width="36.86" height="54.29"/>
				<rect x="391.86" y="140.23" class="st7" width="36.86" height="54.29"/>
			</g>
			<g>
				<rect x="348.01" y="200.65" class="st7" width="36.86" height="54.29"/>
				<rect x="391.86" y="200.65" class="st7" width="36.86" height="54.29"/>
			</g>
		</g>
	</g>
	<g>
		<polygon class="st8" points="10.05,317.3 10.05,419.34 21.86,413.41 22.13,315.3 		"/>
		<polygon class="st8" points="22.18,294.95 22.39,220.07 10.82,218.17 10.05,287.15 10.05,296.1 		"/>
		<polygon class="st8" points="10.05,497.54 21.66,488.36 21.8,433.65 10.05,440.37 		"/>
		<polygon class="st8" points="25.97,314.68 24.99,411.85 38.84,405.06 39.68,312.51 		"/>
		<polygon class="st8" points="40.57,213.61 27.01,210.88 26.17,294.58 39.85,293.36 		"/>
		<polygon class="st8" points="24.24,486.34 38.2,475.69 38.67,424.22 24.79,431.97 		"/>
		<polygon class="st8" points="39.75,474.53 53.69,464.29 53.65,416.04 40.21,423.37 		"/>
		<polygon class="st8" points="53.48,234.92 41.9,233.43 41.37,293.23 53.53,292.2 		"/>
		<polygon class="st8" points="41.2,312.27 40.38,404.32 53.63,397.98 53.55,310.38 		"/>
		<polygon class="st8" points="67.13,218.95 56.14,216.74 55.55,292.03 66.63,291.15 		"/>
		<polygon class="st8" points="55.41,310.11 54.73,397.46 65.93,392.22 66.51,308.47 		"/>
		<polygon class="st8" points="54.21,463.91 65.49,455.88 65.81,409.55 54.59,415.54 		"/>
		<polygon class="st8" points="68.13,454.04 82.03,444.51 81.86,401.17 68.43,408.16 		"/>
		<polygon class="st8" points="81.21,229.88 69.64,227.94 69.22,290.94 81.43,290.02 		"/>
		<polygon class="st8" points="69.11,308.1 68.55,391.01 81.8,384.96 81.5,306.35 		"/>
		<polygon class="st8" points="99.26,241.73 85.68,239.92 85.41,289.73 99.07,288.78 		"/>
		<polygon class="st8" points="85.33,305.82 84.91,383.56 98.7,377.44 99.01,303.98 		"/>
		<polygon class="st8" points="84.6,442.79 98.47,433.67 98.64,392.64 84.83,399.64 		"/>
		<polygon class="st8" points="100.53,303.78 100.24,376.77 113.37,371.1 112.73,302.21 		"/>
		<polygon class="st8" points="100.01,432.68 113.86,423.94 113.5,385.29 100.17,391.87 		"/>
		<polygon class="st8" points="112.3,257.11 100.72,256.23 100.59,288.68 112.59,287.89 		"/>
		<polygon class="st8" points="114.7,301.96 114.52,370.61 125.67,365.91 125.78,300.6 		"/>
		<polygon class="st8" points="114.38,423.63 125.59,416.81 125.65,379.42 114.48,384.81 		"/>
		<polygon class="st8" points="125.87,245.34 114.86,243.83 114.74,287.76 125.8,287.09 		"/>
		<polygon class="st8" points="128.21,415.24 142.02,407.18 141.56,371.93 128.26,378.18 		"/>
		<polygon class="st8" points="140.01,253.12 128.43,251.82 128.38,286.94 140.44,286.26 		"/>
		<polygon class="st8" points="128.37,300.29 128.28,364.83 141.4,359.45 140.6,298.86 		"/>
		<polygon class="st9" points="10.05,317.3 22.13,315.3 25.97,314.68 39.68,312.51 41.2,312.27 53.55,310.38 55.41,310.11 
			66.51,308.47 69.11,308.1 81.5,306.35 85.33,305.82 99.01,303.98 100.53,303.78 112.73,302.21 114.7,301.96 125.78,300.6 
			128.37,300.29 140.6,298.86 142.02,298.69 142.02,286.18 140.44,286.26 128.38,286.94 125.8,287.09 114.74,287.76 112.59,287.89 
			100.59,288.68 99.07,288.78 85.41,289.73 81.43,290.02 69.22,290.94 66.63,291.15 55.55,292.03 53.53,292.2 41.37,293.23 
			39.85,293.36 26.17,294.58 22.18,294.95 10.05,296.1 		"/>
		<polygon class="st9" points="125.67,365.91 114.52,370.61 113.37,371.1 100.24,376.77 98.7,377.44 84.91,383.56 81.8,384.96 
			68.55,391.01 65.93,392.22 54.73,397.46 53.63,397.98 40.38,404.32 38.84,405.06 24.99,411.85 21.86,413.41 10.05,419.34 
			10.05,440.37 21.8,433.65 24.79,431.97 38.67,424.22 40.21,423.37 53.65,416.04 54.59,415.54 65.81,409.55 68.43,408.16 
			81.86,401.17 84.83,399.64 98.64,392.64 100.17,391.87 113.5,385.29 114.48,384.81 125.65,379.42 128.26,378.18 141.56,371.93 
			142.02,371.72 142.02,359.2 141.4,359.45 128.28,364.83 		"/>
	</g>
	<g>
		<path class="st0" d="M167.17,528.72l-1.06-8.02c-40.38-10.11-81.45-12.8-122.07-3.41c-6.1,1.41-35.3,8.69-34.52,18.31
			c0.92,11.41,45.56,6.96,50.44,6.82c-5.36,0.55-10.46,3.58-11.95,9.25c10.46,9.47,34.81,5.48,46.99,3.16
			c25.62-4.88,50.78-4.36,76.79-4.33c7.04,0.01,41.31,1.26,41.09-13.71C212.64,519.62,175.18,528.73,167.17,528.72z"/>
	</g>
	<g>
		<g>
			<path class="st10" d="M343.45,56.12c0.45,0,0.91-0.22,1.19-0.58c0.15-0.19,0.38-0.75-0.09-0.75c-0.45,0-0.91,0.22-1.19,0.58
				C343.21,55.57,342.98,56.12,343.45,56.12L343.45,56.12z"/>
		</g>
	</g>
	<g>
		<g>
			<g>
				<path class="st4" d="M423.79,511.78c-0.22-0.11-0.44-0.22-0.67-0.32c0.5-2.34,1.11-4.65,1.76-6.95
					c0.34-1.18,0.68-2.36,1.02-3.54c4.47-5.55,7.43-15.85-1.47-18.87c-3.91,5.79-3.97,14.76-0.8,21.11l0.63-0.54
					c-0.79,2.78-1.62,5.55-2.29,8.36c-0.1-0.03-0.2-0.06-0.3-0.09c0.05,0.26,0.09,0.53,0.13,0.79c-0.39,1.68-0.72,3.38-0.94,5.1
					c-0.57,4.31-0.31,8.57,0.2,12.88c-0.13,0-0.26,0-0.39-0.01c0.15,0.56,0.26,1.03,0.31,1.38l0.23-0.2
					c0.61,4.68,1.53,9.35,2.99,13.87c0.15,0.46,0.31,0.91,0.47,1.37c-3.35-5.76-11.35-15.41-16.95-10.76
					c-7.66,6.36,11.57,13.61,18,13.5c1.57,3.74,3.59,7.28,6.2,10.46c0.32,0.38,1.78-1.32,1.29-1.92
					c-6.31-7.68-9.05-17.53-10.37-27.06c-0.63-4.52-1.11-9.09-0.61-13.62c0.08-0.71,0.2-1.42,0.31-2.12l1.7-0.22
					c4.66-2.87,17.67-12.12,13.15-18.72C430.54,498.29,427.02,505.58,423.79,511.78z M422.63,513.95c0.09-0.5,0.19-1,0.29-1.5
					l0.6-0.15C423.22,512.87,422.93,513.42,422.63,513.95z"/>
			</g>
		</g>
		<g>
			<path class="st4" d="M411.53,493.29c-3.04,3.43-2.71,9.26,0.05,12.93c2.7,3.59,6.63,3.66,10.1,4.72
				C420.33,503.49,416.99,499.12,411.53,493.29z"/>
		</g>
		<g>
			<path class="st4" d="M424.01,533.59l1.16,0.46c3.92-2.2,16.89-11.14,13.95-17.17C435.52,509.47,424.69,529.71,424.01,533.59z"/>
		</g>
		<g>
			<path class="st4" d="M406.93,513.21c-3.36,1.65,0.78,9.41,2.53,11.58c2.68,3.31,7.12,4.8,11.22,4.92
				C419.17,524.23,413.03,510.21,406.93,513.21z"/>
		</g>
		<g>
			<path class="st4" d="M428.79,547.74l-0.12,2.3c4.92-1.63,15.41-13.58,13.95-18.67C434.83,530.63,428.59,541.31,428.79,547.74z"/>
		</g>
	</g>
	<path class="st4" d="M159.53,447.9c6.07-4,15.4-5.68,21.76-9.36c-5.76-3.17-16.63-1.57-23.22-0.05
		c5.46-7.75,16.51-13.97,20.16-22.43c-11.82,1.02-16.03,8.5-24.92,12.81c3.45-8.31,11.85-23.7,7.72-31.97
		c-13.25,3.48-19.58,19.05-20.29,27.98c-2.78-9.12-1.3-21.75-6.79-29.88c-10.31,7.32-6.28,19.65-6.93,29.48
		c-7.09-4.92-11.79-13.71-20.97-16.47c-1.01,7.13,0.45,16.6,5.59,22.49c-6.88-2.22-13.02-6.17-20.14-8.48
		c0.18,2.51,2.76,5.56,6.02,8.32c-10.71-2.54-21.04-4.16-19.6-0.53c2.9,7.29,26.07,10.2,26.07,10.2s-36.69-0.73-26.07,4.37
		c8.59,4.12,27.9,3.48,33.45,3.09c-7.12,1.29-36.8,9.3-19.93,9.3c18.34,0,34.75-2.19,34.75-2.19s-17.38,10.2-3.86,8.01
		c13.52-2.19,16.41-6.56,21.24-5.83c4.83,0.73,9.65,8.74,17.38,6.56c3.94-1.12,3.49-5.11,2.1-8.76c4.75-0.77,9.48-1.51,14.24-1.71
		C175.97,446.31,166.01,448.24,159.53,447.9z"/>
	<g>
		<path class="st11" d="M157.48,476.3c-2.28-14.71-3.48-41.51-20.61-47.07c0.45,9.85,5.1,18.69,4.11,28.88
			c-11.42-15.32-21.82-26.25-38.9-34.4c2.05,13.6,18,23.67,21.55,36.76c-11.89-2-22.32-0.91-33.6,3.76
			c7.02,6.21,19.96,8.01,27.75,15.28c-12.03,0.71-24.09,7.21-31.08,17.36c8.22,2.73,19.41-2.05,27.75-3.6
			c-5.06,3.88-11.88,7.28-12.4,14.28c6.89-0.55,12.79-6.78,19.35-9.3c6.2-2.38,12.97-2.79,19.41-3.31c-1.03,0.98-1.84,2.24-3,3.25
			c8.47,7.17,31.19,3.1,42.26,2.63c-3.83-6.54-12.84-13.13-18.51-14.42c8.85-0.31,20.66-0.53,27.35,6.19
			c0.65-8.87-13.7-17.32-21.32-18.33c7.03,2.9,13.46-5.55,16.54-11.48c-8.73-5.14-20.04-0.71-26.65,2.32"/>
	</g>
	<g>
		<g>
			<path class="st12" d="M501.41,199.89c-3.07-4.99-7.42-30.92-27.59-22.86c-20.17,8.06-16.11,20.43-16.11,20.43
				s3.93,7.23,5.52,9.17c1.96,2.42,5.17,4.69,5.17,4.69s0.05,0.13,0.15,0.35c0.34,1.13,0.53,2.65,0.71,3.44
				c0.33,1.43,0.04,3.14,0.32,3.86c0.38,0.96,3.91,0.32,4.83-0.71c1.46,0.4,2.21,1.46,3.76,2c0.42-0.16,0.95-0.38,1.36-0.6
				c0.8-0.43,1.36-1.45,1.32-1.28c-0.04,0.17,0.33,1.7-0.41,2.6c1.02,0.29,1.69,0.44,1.69,0.44s3.96,2.4,6.03,1.75
				c2.07-0.65,7.74-8.14,7.74-8.14l15.78,3.01l8.32-12.61C511.44,202.4,503.85,203.85,501.41,199.89z"/>
			<g>
				<path class="st13" d="M483.78,166.65c-7.95-0.98-17.63,3.97-22.66,10.32c-3.5,4.42-8.63,11.48-7.61,17.33
					c0.79,4.49,5.94,8.29,10.44,7.94c2.54-0.2,4.22-1.42,6.9-0.58c1.86,0.58,8.27,0.52,10.01,1.44c-1.82-3.01,1.82-5.54,4.05-4.77
					c2.12,0.73,3.22,1.9,5.02,3.02c5.11,3.18,8.55,1.92,11.24-2.64c4.28-7.27,1.62-16.42-3.67-22.08c-2.62-2.8-5.04-5.09-8.84-7.58
					c-1.99-1.31-4.68-1.31-6.19-2.01"/>
			</g>
			<path class="st14" d="M482.29,202.12c-0.6-0.5-0.89-1.12-0.77-1.89c0.03-0.18,0.04-0.07-0.01-0.03c0.12-0.12,0.26-0.2,0.42-0.27
				c0.33-0.16,0.71-0.21,1.08-0.2c1.43,0.05,2.83,1.06,3.79,2.05c0.83,0.85,1.59,1.8,2.26,2.78c0.71,1.03,1.5,2.3,1.54,3.59
				c0.01,0.21,0,0.52-0.1,0.67c0.06-0.1,0-0.02-0.02,0c-0.08,0.07-0.17,0.13-0.27,0.18c-0.19,0.1-0.38,0.17-0.59,0.21
				c-0.77,0.15-1.67-0.05-2.12-0.74c-0.08-0.12-0.17-0.15,0.05,0.2c0.45,0.7,0.56,1.9,1.34,1.77c1.06-0.19,1.85-1.03,2.29-1.97
				c0.67-1.44-0.02-2.98-0.77-4.24c-0.77-1.28-1.71-2.48-2.73-3.56c-1.09-1.16-2.88-2.43-4.57-2.11c-1.11,0.21-1.96,1.17-2.35,2.19
				c-0.36,0.97-0.06,1.92,0.72,2.57C481.7,203.49,482.55,202.33,482.29,202.12L482.29,202.12z"/>
			<path class="st13" d="M468.03,205.97l-3.98,0.53c0.38,1.37,1.48,1.08,1.48,1.08l2.4-1.29"/>
			<g>
				<path class="st14" d="M483.26,204.01c-0.63-2.88,2.57-0.21,3.28,0.53c0.48,0.49,1.62,1.52,1.47,2.35
					c-0.15,0.82-0.94,1.27-1.65,0.75c1.38-0.75-0.67-2.46-1.28-3.16c0.63,0.58,0.48,1.22-0.41,1.01c-0.43-0.1-0.92-0.91-1.21-1.26"
					/>
			</g>
			<path class="st13" d="M463.31,196.97c0,0,9.83,0.5,13.72,4.93c3.89,4.42,6.29,7.68,6.29,7.68s-2.37-8.18-5.02-11.88
				c-2.65-3.7-8.2-1.68-8.2-1.68"/>
			<g>
				<path class="st13" d="M481.84,169.69c0.86-16.81,22.26-8.66,29.18-1.77c3.34,3.33,5.14,7.84,9.86,9.58
					c5.65,2.08,11.87-0.24,12.54-6.74c-0.68,4.75-0.24,8.7-2.81,13.07c1.69-1.24,3.28-2.77,4-4.71c2.1,4.96-3.03,11.39-7.47,13.07
					c-6.27,2.38-11.25,2.41-16.22-2.32c-6.38-6.07-16.64-22.35-26.51-15.91"/>
			</g>
			<g>
				<path class="st15" d="M483.2,166.62c-2.88,0.76-0.04,4.55,1.43,5.48c2.05,1.3,4.05,1.17,5.54-0.98
					c-0.63,4.27-5.44,6.41-8.88,3.52c-2.2-1.84-3.03-8.06,0.3-8.46"/>
			</g>
			<polyline class="st16" points="468.39,210.69 471.51,211.53 472.03,208.65 			"/>
			<polygon class="st13" points="472.38,208.74 471.42,208.25 467.27,211.42 471.87,208.72 471.15,212.49 			"/>
			<path class="st13" d="M468.39,210.69c0,0,0.64-0.64,1.21-0.59c0.57,0.05,1.85,0.87,1.85,0.87l-0.17,0.53"/>
		</g>
		<path class="st17" d="M522,230.38c0,0-3.29,35.01-5.09,41.89c-1.8,6.88-23.04,24.84-23.04,24.84l-3.89-5.39
			c0,0,14.06-18.85,16.76-35.91c2.69-17.06,0.6-9.28,0.6-9.28"/>
		<g>
			<path class="st18" d="M569.27,428.23c0.07,0.34,1.51,2.98-0.21,4.04c-1.72,1.06-8.24,1.17-11.64,0.49s-3.59-1.03-7.55-1.17
				s-11.04,0.51-10.6-0.04s2.67-2.71,2.67-2.71"/>
			<path class="st19" d="M568.78,416.41l-11.81-3.79c0,0,2.21,2.27-4.7,6.76c-6.91,4.49-20.55,6.65-20.12,9.51
				c0.43,2.86,15.87,0.19,22.1,1.62c8.17,1.86,14.86,1.4,15.67-0.91C570.73,427.3,568.78,416.41,568.78,416.41z"/>
			<path class="st17" d="M542.83,305.09c0,0-4.81,44.97-4.43,47.8c0.38,2.82,18.53,63.78,18.53,63.78s2,1.19,8.85,0.34
				c2.74-0.34,3.05-1.04,3.05-1.04s1.22-25.7-1.58-40.17s-11.78-22.42-11.78-22.42l10.43-35.17"/>
			<path class="st20" d="M572.18,278.97l-35.86,11.49c-2.71,4.9-3.36,28.76-3.11,46.59c0.16-0.02,0.31-0.05,0.47-0.07
				c0.88-0.15,1.76-0.31,2.65-0.46c-0.03-0.73,0.8-1.69,1.87-1.69c2.68-0.01,5.36,0.08,8.03,0.15c2.36,0.06,4.74,0.11,7.11,0.1
				c1.8-0.41,3.59-0.82,5.39-1.22c1.74-0.39,3.48-0.75,5.2-1.28c0.92-0.28,1.83-0.59,2.74-0.9l3.62-19.85c0,0,0.47-0.18,6.14-8.86
				C582.1,294.27,572.18,278.97,572.18,278.97z"/>
			<path class="st21" d="M549.34,331.97c0,0,1.06,1.35,7.99-0.3s10.05-2.7,10.05-2.7l-0.07,3.78c0,0-3.7,1.9-9.58,2.71
				c-5.88,0.81-9.83,0.09-9.83,0.09"/>
			<path class="st22" d="M552.26,419.39c-0.59,0.38-1.23,0.75-1.91,1.1c-0.1,0.14-0.2,0.28-0.29,0.43
				c-0.72,1.29-0.71,2.45-0.14,2.69c0.57,0.24,1.05-2.32,1.96-3.64c0.21-0.3,0.47-0.58,0.75-0.84
				C552.51,419.22,552.39,419.3,552.26,419.39z"/>
			<path class="st22" d="M547.01,424.63c0.53,0.23,1-2.03,1.81-3.4c-0.55,0.25-1.11,0.49-1.68,0.73
				C546.43,423.25,546.44,424.39,547.01,424.63z"/>
			<path class="st22" d="M543.99,425.54c0.48,0.21,0.9-1.59,1.57-2.95c-0.53,0.2-1.06,0.4-1.59,0.59
				C543.42,424.33,543.47,425.31,543.99,425.54z"/>
			<path class="st18" d="M556.93,416.67c0,0,1.9,0.18,6.04-0.12c4.14-0.3,6.41-1.01,6.41-1.01l0.06,2.14c0,0-5.5,1.38-9.18,1.02
				c-3.68-0.36-4.08-0.93-4.08-0.93L556.93,416.67z"/>
		</g>
		<path class="st15" d="M542.55,423.12c-2.74,0.06-5.51,0.54-8.23,0.35c-1.57-0.11-3.18-0.47-4.68-0.97
			c-0.88,0.86-2.15,1.86-3.99,3.01c-7.56,4.73-21.71,7.32-21.61,10.18c0.1,2.86,3.59,3.46,10.23,3.46c6.64,0,29.99,0.21,31.33-2.04
			c1.56-2.62,0.52-11.19,0.1-14.16C544.65,423.06,543.59,423.1,542.55,423.12z"/>
		<path class="st18" d="M514.5,437.49c-5.54,0-8.87-0.42-9.89-2.22c-0.63,0.45-0.98,0.9-0.96,1.36c0.1,2.86,3.59,3.46,10.23,3.46
			c6.64,0,31.11,0.15,32.21-2.19c0.21-0.44,0.3-1.26,0.32-2.3C543.43,437.62,520.84,437.48,514.5,437.49z"/>
		<path class="st12" d="M531.82,305.04c0,0-10.07,50.43-10.04,53.36s10.61,62.71,10.61,62.71s0.36,3.78,8.58,2.82
			c2.74-0.32,4.14-0.69,4.14-0.69s3.99-23.91,2.99-39.01s-9.58-23.56-9.58-23.56l14.39-39.81"/>
		<path class="st21" d="M567.49,279.16l-38.6,14.81c2.24,7.18-2.87,22.61-3.99,40.5c1.07,0.73,2.22,1.35,3.46,1.86
			c5.39,2.22,11.75,2.43,17.8,1.45c2.74-0.44,5.48-1.16,8.08-2.18l5.04-15.35c0,0,3.71-3.12,10-11.47
			C575.57,300.43,567.49,279.16,567.49,279.16z"/>
		<path class="st23" d="M567.49,290.38c-1.35-0.05-15.71,6.73-15.71,6.73l-1.75,9.91l9.38,3.55c0,0,6.56-5.53,7.37-6.45
			C567.58,303.2,567.49,290.38,567.49,290.38z"/>
		<path class="st23" d="M534.85,332.86c2.86-17.04,6.49-35.37,6.49-35.37l-1.11-1.15c0,0-3.61,18.88-6.45,36.28
			C534.13,332.69,534.49,332.77,534.85,332.86z"/>
		<path class="st23" d="M524.66,330.92c0.58,0.31,3.8,2.9,16.22,3.19c6.99,0.17,14.69-1.37,14.69-1.37l-0.86,3.89
			c0,0-7.43,3.04-18.86,2.24c-8.49-0.59-11.56-2.01-11.56-2.01l0.2-5.81"/>
		<path class="st19" d="M528.75,423.36c0,0,1.48-1.97,1.95-3.53s1.84-1.06,3.13,0c1.3,1.06,0.28,3.94,0.28,3.94
			s-0.43,1.33-0.79,1.32c-0.36-0.01-3.46-0.24-3.46-0.24s-0.94,1.54-5.17,3.3s-8.73,2.95-8.73,2.95l-1.73-0.51
			c0,0,10.47-4.12,11.69-5.09s2.77-1.7,2.77-1.7"/>
		<path class="st22" d="M521.59,432.5c0.48-0.13-1.22-2.18-2.62-3.77c-0.73,0.29-1.48,0.57-2.22,0.85
			C518.62,430.93,521.1,432.63,521.59,432.5z"/>
		<path class="st22" d="M526.68,430.78c0.76-0.15-1.34-2.91-2.54-4.4c-0.68,0.36-1.39,0.71-2.13,1.05
			C523.68,428.93,526.03,430.9,526.68,430.78z"/>
		<path class="st22" d="M526.29,425.09c1.42,1.49,4.04,4.08,4.98,3.95c0.94-0.14-1.69-3.4-3.21-5.19
			C527.55,424.24,526.96,424.65,526.29,425.09z"/>
		<path class="st18" d="M534.42,422.44c0.33,0.24,1.76,1.19,5.54,0.87c3.78-0.32,5.58-1.38,5.58-1.38l0.62,1.83
			c0,0-2.42,0.93-6.65,1c-4.23,0.07-5.86-0.32-5.86-0.32"/>
		<path class="st22" d="M559.67,417.71c-0.06,0.01-0.15,0.02-0.22,0.04c-0.11,0.09-0.22,0.18-0.34,0.27
			C559.45,417.83,559.67,417.71,559.67,417.71z"/>
		<g>
			<g>
				<path class="st24" d="M415.88,308.08l1.76,119.05c0,0,9.89,14.11,49.61,14.37c35.72,0.23,49.12-14.37,49.12-14.37l3.08-119.05"
					/>
				<ellipse class="st25" cx="467.67" cy="308.16" rx="51.79" ry="11.5"/>
			</g>
			<path class="st26" d="M414.95,334.81c0,0,10.61,13.46,53.19,13.71c38.3,0.22,52.66-13.71,52.66-13.71v-6.43
				c0,0-14.36,13.94-52.66,13.71c-42.58-0.25-53.19-13.71-53.19-13.71"/>
			<path class="st26" d="M414.95,400.79c0,0,10.61,13.46,53.19,13.71c38.3,0.22,52.66-13.71,52.66-13.71v-6.43
				c0,0-14.36,13.94-52.66,13.71c-42.58-0.25-53.19-13.71-53.19-13.71"/>
		</g>
		<g>
			<path class="st16" d="M513.43,201.46c-15.39,3.32-14.65,18.79-14.65,18.79c-1.36,1.51,4.45,26.58,5.26,30.18
				c1.87,8.28,11.82,10.32,11.82,10.32l6.73,39.95c0,0,26.2,1.69,42.19-13.02s8.53-12.57,8.53-12.57s-11.88-11.54-21.36-29.75
				c-3.86-7.43-20.23-45.08-39.83-43.41"/>
		</g>
		<path class="st12" d="M504.05,244.44c0,0-2.39,18.25-12.27,40.4c-9.87,22.14-14.66,26.93-19.15,29.62
			c-4.49,2.69-6.88,5.24-6.88,5.24l6.73-0.3c0,0-4.34,4.94-1.35,5.24c2.99,0.3,13.38,0.8,13.91-0.6c1.08-2.8,2.55-10.24,2.24-9.87
			c0,0,21.54-31.12,23.94-37.7c2.39-6.58,4.79-24.24,4.79-24.24"/>
		<path class="st16" d="M520.99,235.31c0,0,2.84-6.36-1.25-13.16c-1.91-3.17-4.29-4.82-6.73-5.45c-0.72,0-1.45,0.06-2.2,0.2
			c-3.15,0.6-4.46-0.12-7.44,3.68c0,0-0.99,0.73-0.99,0.73c-3.52,6.1-1.76,13.03-2.84,19.81l-2.75,9.38c0,0,3.4,3.16,10.08,4.46
			c6.74,1.32,10.71,0.26,10.71,0.26s4.04-9.82,3.52-19.18L520.99,235.31z"/>
		<path class="st27" d="M527.09,294.12c-2.09-3.89,8.08-4.49,12.27-5.98c4.19-1.5-9.87,0.3-13.76-0.9c-3.89-1.2,1.2-4.79,8.38-8.68
			c7.18-3.89-10.77-2.39-11.97-11.67c-1.2-9.28,2.39-16.76,5.39-23.94c2.99-7.18-5.39,7.18-5.39,7.18s-0.3-5.09-0.6-9.28
			c-0.3-4.19-3.83,14.37-3.83,14.37l-2.15,0.29l-0.31,5.04c0.46,0.13,0.75,0.19,0.75,0.19l6.73,39.95c0,0,1.87,0.12,4.9,0.02
			l7.96-3.01C535.47,297.71,529.18,298.01,527.09,294.12z"/>
		<path class="st12" d="M472.78,317.61c-0.3,0.45-7.18,13.76-5.39,16.01c1.8,2.24,6.13-10.02,6.13-10.02s-4.49,12.12-1.95,12.27
			c2.54,0.15,5.84-13.32,5.84-13.32s-3.44,13.02-0.75,12.27c2.69-0.75,5.39-12.72,5.39-12.72s-3.25,10.57-0.9,10.02
			c3.89-0.9,6.28-17.95,6.28-17.95"/>
		<path class="st17" d="M478.31,301.9c2.59-0.4,5.57-2.65,7.28-4.11c0.91-1.74,1.88-3.68,2.91-5.83c-1.62,0.53-3.94,1.24-6.59,1.86
			c-5.09,1.2-6.28,2.99-6.28,2.99h5.09C480.71,296.81,474.42,302.5,478.31,301.9z"/>
	</g>
	<g>
		<path class="st28" d="M430.25,446.22c1.33-9.66-6.91-25.58-16.32-29.74c-3.62,4.72-2.61,11.01-2.82,16.96
			c-4.52-2.97-17.6-16.24-22.86-15.2c-12.02,2.37-0.68,14.72,0.97,20.7c-11.35-0.26-25.31-6.26-34.9,3.48
			c3.14,5.04,10.26,5.65,15.69,8.86c-9.33-1.14-27.13,2.46-28.91,12.16c11.05,4.3,24.65-1.48,35.9-3.51
			c-14.31,21.37,15.02,3.74,19.16,2.83c0.11,14.72,14.77,11.99,19.16,0.93c6.15,5.73,37.98,12.79,24.46,0.65
			c11.25,3.47,27.19,8.3,39.2,4.4c-2.02-3.41-5.35-6.53-9.13-8.7c10.15,1.08,21.67,4.61,32.1,3.38c-2.06-3.97-5.83-6.98-10.45-8.41
			c6.62,4.76,14.99,12.26,23.91,10.89c1.34-6.76-1.12-13.21-6.53-16.94c9.07-2.58,16.09-5.39,21.52-12.45
			c-10.71-0.7-21.05,1.16-31.68,1.08c5.86-2.73,12.19-7.51,12.68-13.63c-8.77-0.32-19.55,4.52-26.53,8.22
			c5.15-5.99,4.73-13.84-0.61-19.51c-7.01,2.66-16.95,11.76-20.22,18.3c0.81-8.1-1.29-16.46-8.03-22.09
			c-5.36,4.32-9.11,13.23-12.26,19.6c1.78-9.57-7.07-14.99-14.96-19.33c-3.71,6.46-3.79,14.88-6.65,22.12"/>
	</g>
	<path class="st11" d="M561.35,517.25c6.7-5.88,16.98-8.34,24-13.75c-6.35-4.66-18.35-2.31-25.62-0.07
		c6.02-11.38,18.21-20.53,22.24-32.96c-13.04,1.5-17.68,12.5-27.49,18.83c3.81-12.21,13.07-34.83,8.51-46.98
		c-14.62,5.11-21.6,28-22.38,41.12c-3.06-13.4-1.43-31.96-7.49-43.91c-11.37,10.75-6.93,28.88-7.64,43.32
		c-7.82-7.24-13-20.15-23.13-24.21c-1.12,10.48,0.5,24.4,6.17,33.05c-7.59-3.27-14.37-9.06-22.22-12.47
		c0.19,3.69,3.05,8.17,6.65,12.23c-11.82-3.73-23.21-6.12-21.62-0.78c3.19,10.71,28.75,14.99,28.75,14.99s-40.47-1.07-28.75,6.42
		c9.47,6.06,30.78,5.12,36.9,4.54c-7.86,1.89-40.6,13.66-21.99,13.66c20.23,0,38.34-3.21,38.34-3.21s-19.17,14.99-4.26,11.78
		c14.91-3.21,18.1-9.64,23.43-8.57c5.32,1.07,10.65,12.85,19.17,9.64c4.35-1.64,3.85-7.52,2.31-12.87
		c5.24-1.14,10.45-2.21,15.71-2.52C579.49,514.91,568.5,517.74,561.35,517.25z"/>
	<path class="st4" d="M567.12,559.92c5.88-5.56,14.91-7.89,21.07-13c-5.58-4.41-16.1-2.18-22.49-0.06
		c5.29-10.76,15.99-19.41,19.52-31.16c-11.44,1.42-15.52,11.81-24.13,17.8c3.34-11.54,11.47-32.92,7.47-44.41
		c-12.83,4.83-18.96,26.47-19.65,38.87c-2.69-12.67-1.25-30.21-6.57-41.5c-9.98,10.16-6.08,27.3-6.71,40.95
		c-6.86-6.84-11.41-19.05-20.3-22.88c-0.98,9.91,0.44,23.06,5.41,31.23c-6.66-3.09-12.61-8.57-19.5-11.78
		c0.17,3.49,2.68,7.72,5.83,11.56c-10.37-3.53-20.37-5.78-18.97-0.73c2.8,10.12,25.24,14.17,25.24,14.17s-35.52-1.01-25.24,6.07
		c8.32,5.73,27.02,4.84,32.39,4.29c-6.9,1.79-35.64,12.91-19.3,12.91c17.76,0,33.65-3.04,33.65-3.04s-16.83,14.17-3.74,11.13
		c13.09-3.04,15.89-9.11,20.57-8.1c4.67,1.01,9.35,12.14,16.83,9.11c3.82-1.55,3.38-7.1,2.03-12.17c4.6-1.08,9.18-2.09,13.79-2.38
		C583.04,557.71,573.4,560.39,567.12,559.92z"/>
	<path class="st5" d="M84.62,432.22c0,0-11.32-187.13-25.04-227.41c-11.13-32.69-29.9-85.19-29.9-85.19l6.95-9.74
		c0,0,23.65,89.02,31.99,79.28s19.47-77.89,19.47-77.89l9.74,1.39c0,0-16.69,66.76-18.08,90.41c-1.39,23.65,5.56,59.81,5.56,59.81
		s16.69-37.55,20.86-55.64s9.74-55.64,9.74-55.64l9.74,5.56c0,0-11.13,61.2-16.69,82.06c-5.56,20.86-15.3,40.34-15.3,52.85
		c0,12.52,12.52,161.34,12.52,161.34"/>
	<g>
		<g>
			<path class="st29" d="M66.56,351.58c-0.05,0-0.09,0-0.14,0c-14.08,1.41-22.1,36.45-17.91,78.26
				c4.15,41.34,18.68,73.79,32.61,73.15c-8.89,3.75-27.41,2.79-31.56,3.2c-14.25,1.43-29.17-31.02-33.32-72.48
				c-4.16-41.46,4.02-76.23,18.27-77.66C39.11,355.59,58.19,348.63,66.56,351.58z"/>
			<path class="st24" d="M81.14,502.99c0.16-0.01,0.32,0,0.48-0.01c14.08-1.41,22.1-36.45,17.91-78.26
				c-4.18-41.67-18.91-74.33-32.96-73.14c-0.05,0-0.09,0-0.14,0c-14.08,1.41-22.1,36.45-17.91,78.26
				C52.67,471.18,67.2,503.63,81.14,502.99z M78.93,482.54c-0.09,0.01-0.18,0-0.27,0c0,0,0,0,0,0c-0.37,0.01-0.75-0.05-1.13-0.14
				c-0.06-0.02-0.12-0.03-0.19-0.05c-0.37-0.11-0.73-0.27-1.1-0.47c-0.06-0.03-0.12-0.07-0.18-0.11c-0.38-0.23-0.76-0.5-1.15-0.82
				c-0.01,0-0.01-0.01-0.02-0.02c-0.4-0.34-0.8-0.75-1.2-1.19c-0.02-0.02-0.04-0.04-0.06-0.07c-0.4-0.45-0.79-0.96-1.18-1.5
				c-0.03-0.04-0.05-0.08-0.08-0.12c-1.22-1.73-2.42-3.92-3.57-6.52c0,0,0,0,0,0l0,0c-4.21-9.49-7.78-24.3-9.47-41.15
				c-1.69-16.84-1.13-32.07,1.11-42.21l0,0c0,0,0,0,0,0c0.42-1.88,0.89-3.59,1.42-5.1c0.02-0.05,0.03-0.09,0.05-0.14
				c0.25-0.71,0.52-1.38,0.8-2c0.03-0.06,0.05-0.12,0.08-0.18c0.28-0.62,0.58-1.2,0.88-1.71c0.01-0.01,0.01-0.02,0.02-0.03
				c0.3-0.51,0.62-0.97,0.95-1.38c0.03-0.03,0.05-0.07,0.08-0.1c0.32-0.38,0.64-0.71,0.98-0.99c0.06-0.05,0.11-0.1,0.17-0.14
				c0.33-0.26,0.67-0.48,1.02-0.64c0.06-0.03,0.11-0.04,0.17-0.07c0.37-0.15,0.74-0.26,1.13-0.3c0.01,0,0.03,0,0.04,0
				c0.01,0,0.03,0,0.04,0c1.22-0.1,2.47,0.39,3.71,1.39c2.24,1.8,4.46,5.28,6.52,10.03c0.46,1.06,0.91,2.18,1.35,3.35
				c0.22,0.59,0.44,1.19,0.65,1.81c3.24,9.27,5.89,21.73,7.28,35.56l0,0l0,0c1.02,10.17,1.22,19.76,0.73,27.99
				C87.56,471.24,84.09,482.02,78.93,482.54z"/>
			<path class="st22" d="M66.89,375.76c-0.35,0.16-0.69,0.38-1.02,0.64C66.2,376.14,66.54,375.92,66.89,375.76z"/>
			<path class="st22" d="M72.46,478.17c0.39,0.55,0.79,1.05,1.18,1.5C73.25,479.22,72.85,478.72,72.46,478.17z"/>
			<path class="st22" d="M73.7,479.74c0.4,0.45,0.8,0.85,1.2,1.19C74.5,480.59,74.1,480.19,73.7,479.74z"/>
			<path class="st22" d="M68.81,471.54c1.15,2.59,2.35,4.78,3.57,6.52C71.16,476.32,69.96,474.13,68.81,471.54z"/>
			<path class="st22" d="M87.78,427.54L87.78,427.54c-1.39-13.82-4.04-26.29-7.28-35.56C83.74,401.25,86.39,413.72,87.78,427.54z"/>
			<path class="st22" d="M77.53,482.4c0.38,0.1,0.75,0.15,1.13,0.14C78.29,482.55,77.91,482.49,77.53,482.4z"/>
			<path class="st22" d="M67.06,375.7c0.37-0.15,0.74-0.26,1.13-0.3c0.01,0,0.03,0,0.04,0c-0.01,0-0.03,0-0.04,0
				C67.8,375.43,67.42,375.54,67.06,375.7z"/>
			<path class="st22" d="M76.25,481.88c0.37,0.2,0.73,0.36,1.1,0.47C76.98,482.25,76.62,482.09,76.25,481.88z"/>
			<path class="st22" d="M61.87,383.08c-0.53,1.51-1,3.22-1.42,5.1C60.86,386.29,61.34,384.59,61.87,383.08z"/>
			<path class="st22" d="M74.92,480.95c0.38,0.33,0.76,0.59,1.15,0.82C75.68,481.55,75.3,481.28,74.92,480.95z"/>
			<path class="st22" d="M64.65,377.64c-0.33,0.41-0.64,0.87-0.95,1.38C64,378.5,64.32,378.05,64.65,377.64z"/>
			<path class="st22" d="M63.68,379.04c-0.31,0.52-0.6,1.09-0.88,1.71C63.08,380.14,63.37,379.56,63.68,379.04z"/>
			<path class="st22" d="M65.7,376.54c-0.33,0.28-0.66,0.61-0.98,0.99C65.04,377.15,65.36,376.83,65.7,376.54z"/>
			<path class="st22" d="M79.85,390.17c-0.44-1.18-0.89-2.3-1.35-3.35C78.96,387.87,79.41,388.99,79.85,390.17z"/>
			<path class="st22" d="M62.72,380.93c-0.28,0.62-0.54,1.29-0.8,2C62.17,382.22,62.44,381.56,62.72,380.93z"/>
			<g>
				<path class="st25" d="M78.66,482.54c-0.37,0.01-0.75-0.05-1.13-0.14c-0.06-0.02-0.12-0.03-0.19-0.05
					c-0.37-0.11-0.73-0.27-1.1-0.47c-0.06-0.03-0.12-0.07-0.18-0.11c-0.38-0.23-0.76-0.49-1.15-0.82c-0.01,0-0.01-0.01-0.02-0.02
					c-0.4-0.34-0.8-0.75-1.2-1.19c-0.02-0.02-0.04-0.04-0.06-0.07c-0.4-0.45-0.79-0.96-1.18-1.5c-0.03-0.04-0.05-0.08-0.08-0.12
					c-1.22-1.73-2.42-3.92-3.57-6.52c0,0,0,0,0,0l0,0c2.24-10.14,2.8-25.37,1.11-42.21c-1.69-16.84-5.26-31.65-9.47-41.15l0,0
					c0,0,0,0,0,0c0.42-1.88,0.89-3.59,1.42-5.1c0.02-0.05,0.03-0.09,0.05-0.14c0.25-0.71,0.52-1.38,0.8-2
					c0.03-0.06,0.05-0.12,0.08-0.18c0.28-0.62,0.58-1.19,0.88-1.71c0.01-0.01,0.01-0.02,0.02-0.03c0.3-0.51,0.62-0.97,0.95-1.38
					c0.03-0.03,0.05-0.07,0.08-0.1c0.31-0.38,0.64-0.71,0.98-0.99c0.06-0.05,0.11-0.1,0.17-0.14c0.33-0.26,0.67-0.48,1.02-0.64
					c0.06-0.03,0.11-0.04,0.17-0.07c0.37-0.15,0.74-0.26,1.13-0.3c0.01,0,0.03,0,0.04,0c0.01,0,0.03,0,0.04,0
					c1.22-0.1,2.47,0.39,3.71,1.39c2.24,1.8,4.46,5.28,6.52,10.03c0.46,1.06,0.91,2.18,1.35,3.35c0.22,0.59,0.44,1.19,0.65,1.81
					c3.24,9.27,5.89,21.73,7.28,35.56l0,0c1.02,10.17,1.22,19.76,0.73,27.99c-0.94,15.71-4.42,26.5-9.57,27.01
					C78.84,482.55,78.75,482.54,78.66,482.54C78.66,482.54,78.66,482.54,78.66,482.54z"/>
				<g>
					<path class="st24" d="M78.36,483.41c-3.57-0.1-6.01-3.62-7.67-6.38c-0.54-0.9-1.04-1.83-1.5-2.78c-0.32-0.65-0.95-1.54-1-2.28
						c-0.05-0.68,0.3-1.53,0.42-2.2c0.15-0.81,0.29-1.62,0.41-2.43c1.24-8.07,1.43-16.3,1.15-24.45
						c-0.32-9.56-1.33-19.11-3.04-28.52c-1.41-7.71-3.26-15.41-6.1-22.73c-0.27-0.7-0.55-1.39-0.84-2.07
						c-0.38-0.9-0.33-1.29-0.1-2.24c0.48-1.98,1.05-3.95,1.83-5.83c1.16-2.78,3.16-6.67,6.58-6.98c3.24-0.29,5.77,3.02,7.33,5.42
						c2.28,3.52,3.89,7.48,5.27,11.43c2.71,7.76,4.48,15.86,5.77,23.96c1.49,9.32,2.35,18.76,2.49,28.19
						c0.13,8.44-0.21,17.03-1.94,25.31c-0.64,3.06-1.47,6.13-2.83,8.95c-0.9,1.87-2.13,3.85-3.95,4.94
						C80.03,483.09,79.1,483.53,78.36,483.41c-0.77-0.12-0.04-1.84,0.6-1.74c1.48,0.24,2.91-1.36,3.64-2.41
						c1.38-1.98,2.17-4.37,2.82-6.67c1.95-6.93,2.48-14.29,2.67-21.46c0.42-16.03-1.27-32.33-5.08-47.91
						c-1.68-6.87-3.74-13.9-7.22-20.09c-1.41-2.51-3.38-5.72-6.28-6.69c-3.72-1.24-5.86,3.28-6.9,6.06
						c-0.27,0.73-0.51,1.46-0.73,2.2c-0.27,0.9-0.89,2.29-0.83,3.24c0.02,0.41-0.04-0.02,0.03,0.05c0.03-0.06,0.06-0.11,0.08-0.17
						c0.04,0.09,0.08,0.18,0.11,0.26c0.18,0.23,0.28,0.67,0.4,0.94c0.29,0.7,0.57,1.41,0.84,2.12c1.1,2.92,2.04,5.9,2.87,8.9
						c2.04,7.39,3.44,14.96,4.44,22.56c1.92,14.66,2.69,29.92,0.37,44.58c-0.22,1.38-0.47,2.75-0.77,4.11
						c-0.02-0.17-0.04-0.35-0.07-0.52c1.12,2.28,2.17,4.56,3.65,6.63c1.42,1.99,3.34,4.18,5.96,4.25
						C79.7,481.69,79.03,483.43,78.36,483.41z"/>
				</g>
			</g>
		</g>
		<g>
			<g>
				<path class="st24" d="M61.6,489.63c-4.17-0.29-8.68-1.46-13.07-2.99c0.57,0.89,1.11,1.78,1.69,2.65
					c2.13,0.71,4.24,1.31,6.34,1.75c1.04,0.22,2.09,0.37,3.09,0.49c0.94,0.01,2.15,0.31,2.63-0.3c0.03-0.01,0.14,0.11,0.09,0.01
					l-0.09-0.19l-0.2-0.43L61.6,489.63z"/>
				<path class="st24" d="M48.22,489.95c-0.67,2.32-1.3,4.74-1.74,7.24c-0.25,1.26-0.38,2.54-0.53,3.87
					c-0.06,1.38-0.24,2.62,0.12,4.38l-0.42-0.53l-0.34-0.44c-0.24-0.31-0.41-0.56-0.6-0.82c-0.37-0.52-0.76-1.07-1.07-1.56
					c0.32-4.98,1.31-9.44,2.61-13.76L48.22,489.95z"/>
			</g>
			<g>
				<path class="st24" d="M56.16,479.81c-4.25-1.36-8.49-3.16-12.69-5.22l1.33,2.87c2.05,0.98,4.06,1.91,6.07,2.76
					c2.07,0.81,4.05,1.6,6.09,2.23C56.65,481.59,56.42,480.68,56.16,479.81z"/>
				<path class="st24" d="M42.75,477.84c-1,2.21-1.91,4.48-2.81,6.83c-0.83,2.33-1.66,4.74-2.34,7.22c-0.5-1.01-0.88-2.02-1.32-3.03
					c0.63-2.25,1.4-4.44,2.19-6.59c0.76-2.13,1.64-4.23,2.55-6.28L42.75,477.84z"/>
			</g>
			<g>
				<path class="st24" d="M51.81,468.64c-2.02-0.98-4.06-2.01-6.12-3.1c-1.99-1.12-4-2.28-6.02-3.5l1.09,2.98
					c1.87,1.2,3.84,2.32,5.77,3.4c1.92,1.08,3.84,2.1,5.82,3.02C52.17,470.49,51.95,469.59,51.81,468.64z"/>
				<path class="st24" d="M38.68,465.2c-1.25,2.12-2.39,4.27-3.49,6.48c-1.12,2.21-2.23,4.48-3.2,6.8
					c-0.33-1.02-0.68-2.04-0.95-3.08c0.95-2.12,1.91-4.2,2.89-6.22c1.03-2.03,2.1-4.03,3.17-5.97L38.68,465.2z"/>
			</g>
			<g>
				<path class="st24" d="M48.51,456.82c-1.94-1.17-3.89-2.39-5.85-3.66c-1.95-1.27-3.81-2.61-5.74-3.97l0.84,3.06
					c1.76,1.35,3.68,2.62,5.49,3.87c1.85,1.24,3.63,2.46,5.54,3.58C48.67,458.75,48.57,457.79,48.51,456.82z"/>
				<path class="st24" d="M35.67,452.28c-1.42,2.02-2.68,4.06-3.99,6.16c-1.28,2.1-2.63,4.25-3.8,6.43
					c-0.25-1.03-0.46-2.06-0.65-3.1c2.24-4.02,4.53-7.87,7.04-11.6L35.67,452.28z"/>
			</g>
			<g>
				<path class="st24" d="M46.08,444.62c-3.68-2.65-7.43-5.46-11.06-8.44c0.18,1.04,0.43,2.07,0.67,3.11
					c3.49,2.9,6.89,5.68,10.51,8.25L46.08,444.62z"/>
				<path class="st24" d="M33.59,439.19c-2.93,3.83-5.94,7.82-8.63,11.97l-0.45-3.11c2.56-3.82,5.13-7.5,7.79-11.05
					C32.69,437.73,33.15,438.46,33.59,439.19z"/>
			</g>
			<g>
				<path class="st24" d="M44.49,432.16c-1.79-1.44-3.59-2.92-5.38-4.43l-5.21-4.66l0.48,3.14c3.22,3.1,6.69,6.06,10,8.9
					L44.49,432.16z"/>
				<path class="st24" d="M32.3,425.99c-3.28,3.66-6.24,7.45-9.35,11.4l-0.21-3.1l4.11-5.36l4.3-5.19L32.3,425.99z"/>
			</g>
			<g>
				<path class="st24" d="M43.53,419.57c-3.4-3.07-6.75-6.28-10.07-9.64c0.06,1.05,0.22,2.11,0.33,3.16
					c3.12,3.28,6.22,6.41,9.52,9.42L43.53,419.57z"/>
				<path class="st24" d="M31.72,412.75c-3.36,3.47-6.76,7.12-9.93,10.87l-0.09-3.1c2.93-3.49,5.96-6.86,8.97-10.09L31.72,412.75z"
					/>
			</g>
			<g>
				<path class="st24" d="M43.33,407.04c-3.28-3.25-6.35-6.64-9.42-10.24l0.11,3.17c2.8,3.47,5.9,6.79,8.87,9.95L43.33,407.04z"/>
				<path class="st24" d="M31.98,399.49c-3.69,3.23-7.12,6.67-10.64,10.27l0.15-3.14c3.08-3.32,6.35-6.52,9.61-9.53L31.98,399.49z"
					/>
			</g>
			<g>
				<path class="st24" d="M43.96,394.67c-3.01-3.44-5.81-7.04-8.54-10.9l-0.17,3.16c2.5,3.69,5.3,7.21,8.06,10.54
					C43.47,396.53,43.74,395.61,43.96,394.67z"/>
				<path class="st24" d="M33.25,386.28c-3.95,2.9-7.67,6.09-11.43,9.47c0.08-1.05,0.26-2.11,0.38-3.16
					c3.34-3.13,6.87-6.07,10.38-8.78L33.25,386.28z"/>
			</g>
			<g>
				<path class="st24" d="M45.62,382.67c-2.66-3.64-5.08-7.46-7.28-11.62l-0.58,3.1c1.05,1.98,2.2,3.91,3.32,5.76
					c1.19,1.87,2.41,3.68,3.63,5.43L45.62,382.67z"/>
				<path class="st24" d="M35.87,373.25c-2.14,1.21-4.16,2.53-6.27,3.92c-2.05,1.4-4.06,2.88-6.11,4.43l0.7-3.18
					c3.66-2.85,7.49-5.46,11.35-7.71L35.87,373.25z"/>
			</g>
			<g>
				<path class="st24" d="M48.56,371.44c-2.12-3.75-4.06-7.84-5.18-12.17c-0.42,0.82-0.87,1.78-1.22,2.74
					c1.29,4.24,3.16,8.13,5.19,11.79L48.56,371.44z"/>
				<path class="st24" d="M40.49,360.75c-4.66,1.54-9.22,3.9-13.69,6.58l1.17-3.2c4.15-2.45,8.38-4.61,12.83-5.99
					C40.63,359.04,40.55,359.89,40.49,360.75z"/>
			</g>
		</g>
	</g>
	<g>
		<g>
			<path class="st30" d="M49.18,457.8l1.96,81.31c0,0,9.29,16.64,39.59,13.79c30.3-2.85,35.68-12.36,35.68-12.36l2.93-82.73H49.18z"
				/>
			<g>
				<path class="st31" d="M48.35,457.99c0.12,5.18,0.25,10.35,0.37,15.53c0.26,10.78,0.52,21.56,0.78,32.34
					c0.22,9.25,0.44,18.49,0.67,27.74c0.03,1.25,0.06,2.5,0.09,3.76c0.01,0.56-0.09,1.27,0.04,1.82c0.26,1.1,1.56,2.28,2.29,3.08
					c7.64,8.27,19.48,11.17,30.37,11.24c8.69,0.06,17.62-1.26,26.01-3.49c4.87-1.29,9.79-3.02,14.03-5.79
					c1.07-0.7,2.09-1.48,3.01-2.37c0.37-0.36,0.92-0.83,1.14-1.32c0.36-0.81,0.16-2.11,0.19-2.98c0.29-8.15,0.58-16.3,0.87-24.45
					c0.39-11.05,0.78-22.11,1.18-33.16c0.25-7.09,0.5-14.17,0.75-21.26c0.01-0.35,0.02-0.7,0.04-1.05c0-0.08-0.26-0.08-0.27-0.08
					c-9.05,0-18.11,0-27.16,0c-14.37,0-28.74,0-43.12,0c-3.29,0-6.58,0-9.88,0c-0.32,0-0.93,0.04-1.18,0.26
					c-0.17,0.16-0.34,0.27,0.06,0.27c9.05,0,18.11,0,27.16,0c14.37,0,28.74,0,43.12,0c3.29,0,6.58,0,9.88,0
					c-0.09-0.03-0.18-0.05-0.27-0.08c-0.17,4.93-0.35,9.87-0.52,14.8c-0.37,10.48-0.74,20.95-1.11,31.43
					c-0.34,9.53-0.68,19.06-1.01,28.59c-0.08,2.38-0.17,4.77-0.25,7.15c-0.03,0.89-0.19,1.05-0.9,1.8c-2.13,2.25-5.01,3.8-7.8,5.05
					c-6.6,2.95-13.87,4.36-21,5.29c-13.31,1.73-28.23,1.19-39.05-7.79c-1.19-0.99-2.32-2.07-3.32-3.26
					c-0.48-0.57-1.13-1.24-1.44-1.93c-0.36-0.82-0.16-2.03-0.19-2.92c-0.19-8.02-0.39-16.05-0.58-24.07
					c-0.26-10.86-0.52-21.72-0.78-32.59c-0.17-6.97-0.34-13.93-0.5-20.9c-0.01-0.34-0.02-0.69-0.02-1.03
					C50.01,457.43,48.34,457.62,48.35,457.99z"/>
			</g>
		</g>
		<g>
			<ellipse class="st30" cx="89.75" cy="457.09" rx="40.08" ry="10.7"/>
			<g>
				<path class="st32" d="M128.98,457.13c-0.07,3.29-4.94,5.02-7.41,5.91c-5.92,2.14-12.32,3.08-18.57,3.66
					c-7.94,0.74-15.97,0.8-23.92,0.21c-6.52-0.49-13.12-1.36-19.38-3.31c-2.14-0.67-4.3-1.47-6.2-2.67
					c-1.15-0.72-2.44-1.71-2.85-3.07c-0.95-3.12,3.46-5.17,5.65-6.1c5.49-2.32,11.58-3.33,17.46-4.02
					c7.87-0.92,15.84-1.11,23.75-0.68c6.82,0.37,13.72,1.14,20.33,2.93c2.37,0.64,4.73,1.41,6.91,2.53
					c1.38,0.71,2.89,1.61,3.73,2.97C128.79,456.01,128.96,456.54,128.98,457.13c0.01,0.65,1.72,0.58,1.71-0.08
					c-0.08-3.48-4.76-5.4-7.43-6.43c-6.16-2.37-12.85-3.39-19.39-4.04c-8.44-0.83-17-0.9-25.46-0.24
					c-6.87,0.54-13.86,1.48-20.43,3.67c-2.99,1-8.09,2.71-9.04,6.22c-0.89,3.3,3.2,5.52,5.61,6.62c5.65,2.58,12.03,3.66,18.15,4.42
					c8.36,1.03,16.85,1.24,25.26,0.77c7.26-0.4,14.61-1.26,21.61-3.28c2.37-0.69,4.72-1.51,6.89-2.7c1.42-0.78,2.91-1.8,3.73-3.24
					c0.31-0.54,0.48-1.14,0.49-1.77C130.7,456.41,128.99,456.46,128.98,457.13z"/>
			</g>
		</g>
		<g>
			<ellipse class="st33" cx="89.75" cy="457.09" rx="40.08" ry="10.7"/>
			<g>
				<path class="st31" d="M128.99,456.92c-0.07,3.26-4.5,5.04-6.99,6.01c-5.7,2.21-11.92,3.19-17.98,3.84
					c-8.02,0.86-16.15,0.98-24.2,0.46c-6.71-0.44-13.53-1.26-19.98-3.24c-2.2-0.67-4.43-1.49-6.37-2.74
					c-1.16-0.75-2.42-1.75-2.84-3.12c-0.94-3.09,3.07-5.2,5.3-6.21c5.25-2.4,11.17-3.43,16.86-4.18c7.92-1.04,15.96-1.29,23.93-0.94
					c7.02,0.31,14.13,1.04,20.94,2.84c2.41,0.64,4.82,1.41,7.04,2.55c1.41,0.73,2.91,1.65,3.76,3.03
					C128.79,455.74,128.98,456.3,128.99,456.92c0.01,0.39,1.68,0.54,1.67,0.34c-0.07-3.39-4.7-5.25-7.29-6.27
					c-6.03-2.37-12.64-3.42-19.05-4.1c-8.33-0.88-16.77-1.01-25.13-0.44c-7.02,0.48-14.17,1.37-20.9,3.51
					c-2.2,0.7-4.41,1.53-6.36,2.78c-1.21,0.78-2.53,1.83-2.97,3.27c-0.98,3.22,3.24,5.43,5.55,6.48c5.54,2.53,11.76,3.64,17.76,4.43
					c8.22,1.08,16.57,1.34,24.86,0.96c7.37-0.34,14.84-1.13,21.97-3.08c2.44-0.67,4.88-1.47,7.13-2.64
					c1.46-0.76,3.01-1.73,3.89-3.16c0.33-0.54,0.53-1.13,0.54-1.76C130.67,456.89,129,456.7,128.99,456.92z"/>
			</g>
		</g>
		<path class="st34" d="M89.99,459.51c-13.09,0-24.47,1.61-30.31,3.98c7.34,2.22,18.09,3.62,30.06,3.62
			c12.12,0,22.99-1.44,30.34-3.71C114.2,461.08,102.93,459.51,89.99,459.51z"/>
		<path class="st35" d="M62.5,539.37c-4.18-8.88-3.33-68.31-3.22-75.26c-5.72-1.7-9.39-3.89-10-6.3h-0.58l1.97,80.62
			c0,0,9.36,16.5,39.92,13.67c6.59-0.61,12.01-1.53,16.46-2.59C93.77,550.35,66.31,547.47,62.5,539.37z"/>
		<g>
			<path class="st36" d="M97.95,474.38c-0.61-1.24-1.91-2.09-3.42-2.09c-1.58,0-2.93,0.94-3.51,2.27c-0.5,0-0.99,0.01-1.5,0.01
				c-23.09,0-41.81-4.63-41.81-10.34v3.22c0,5.71,18.72,10.34,41.81,10.34c0.56,0,1.12,0,1.67-0.01c0.65,1.14,1.89,1.91,3.33,1.91
				c1.5,0,2.8-0.85,3.41-2.08c18.84-0.83,32.38-4.47,32.38-9.46v-3.22C130.32,469.9,116.78,473.54,97.95,474.38z"/>
			<g>
				<path class="st31" d="M98.66,474.03c-1.85-3.33-6.79-2.86-8.39,0.43c0.27-0.16,0.55-0.32,0.82-0.48
					c-8.04,0.05-16.12-0.38-24.06-1.66c-5.25-0.84-11.13-1.87-15.73-4.72c-1.2-0.74-2.76-1.88-2.79-3.46
					c-0.02-0.81-1.58-0.57-1.58,0.12c0,1.56-0.34,3.48,0.46,4.91c0.97,1.72,2.95,2.77,4.67,3.58c6.77,3.17,14.73,4.16,22.09,4.87
					c5.65,0.54,11.32,0.73,16.99,0.69c-0.22-0.07-0.43-0.15-0.65-0.22c1.96,3.08,6.49,2.63,8.2-0.43c-0.27,0.16-0.55,0.32-0.82,0.48
					c7.45-0.34,15.01-1.01,22.26-2.88c2.4-0.62,4.84-1.38,7.03-2.56c1.38-0.75,2.87-1.73,3.59-3.19c0.68-1.38,0.37-3.19,0.37-4.67
					c0-0.81-1.57-0.57-1.58,0.12c-0.03,1.49-1.25,2.51-2.42,3.24c-2.01,1.26-4.37,2-6.65,2.62c-7.28,1.98-14.93,2.63-22.44,2.97
					c-0.88,0.04-1.21,1.18-0.14,1.13c8.03-0.37,16.31-1.06,24.04-3.38c2.98-0.89,9.1-2.71,9.19-6.71c-0.53,0.04-1.06,0.08-1.58,0.12
					c0,1.39,0.36,3.29-0.37,4.56c-0.97,1.67-3.13,2.58-4.84,3.27c-7.02,2.82-15.04,3.52-22.51,4.02c-1.1,0.07-2.2,0.12-3.31,0.19
					c-1.13,0.07-1.08,0.43-1.79,1.21c-0.89,0.97-2.3,1.12-3.44,0.52c-0.75-0.4-1.08-1.4-1.89-1.53c-1.01-0.16-2.2,0.01-3.22,0
					c-1.35-0.01-2.71-0.04-4.06-0.09c-2.34-0.08-4.68-0.21-7.02-0.39c-7.35-0.58-14.96-1.51-21.91-4.09
					c-2.07-0.77-4.54-1.75-5.95-3.56c-1.07-1.37-0.69-3.29-0.69-4.92c-0.53,0.04-1.06,0.08-1.58,0.12c0.08,3.63,5.19,5.44,7.96,6.41
					c6.7,2.35,13.94,3.3,20.98,3.88c5.02,0.42,10.05,0.57,15.09,0.54c0.3,0,0.68-0.2,0.82-0.48c1.2-2.46,4.21-2.16,5.46,0.08
					C97.56,475.32,99.06,474.74,98.66,474.03z"/>
			</g>
		</g>
		<g>
			<g>
				<path class="st32" d="M93.79,475.83c-0.02,0.09-0.04,0.18-0.07,0.27c0.07-0.28-0.03,0.11-0.05,0.18
					c-0.04,0.15-0.08,0.3-0.12,0.46c-0.27,0.96-0.56,1.92-0.87,2.87c-1.05,3.21-2.3,6.36-3.74,9.41
					c-3.99,8.48-9.57,16.6-17.39,21.97c-4.37,3-9.4,4.92-14.67,5.55c-4.91,0.58-10.89,0.45-15.17-2.37
					c-6.88-4.53-4.1-14.3-1.57-20.51c2.34-5.74,5.54-11.05,9.05-16.13c0.06-0.09,0.13-0.18,0.2-0.28c0.65-0.88-0.8-1.63-1.39-0.83
					c-3.34,4.53-6.22,9.53-8.54,14.66c-2.95,6.5-6.43,16.34-0.93,22.5c3.2,3.59,8.43,4.53,13,4.69c5.76,0.2,11.51-0.96,16.68-3.53
					c9.14-4.54,15.79-12.81,20.53-21.65c1.86-3.48,3.45-7.1,4.79-10.81c0.7-1.94,1.56-4.02,1.89-6.07c0.02-0.1,0.05-0.19,0.07-0.28
					C95.72,474.93,94.02,474.89,93.79,475.83L93.79,475.83z"/>
			</g>
		</g>
	</g>
	<path class="st4" d="M38.72,519.85c0,0-18.78-45.9-19.82-33.38c-1.04,12.52,4.17,27.12,4.17,27.12S2.2,494.81,7.42,504.2
		c5.22,9.39,12.52,16.69,12.52,16.69s-20.86,0-14.6,3.13s12.52,4.17,12.52,4.17s-14.57,7.5-8.33,7.4s19.81-2.19,19.81-2.19h14.6
		c0,0,21.91-29.21,14.6-26.08c-7.3,3.13-13.56,6.26-13.56,6.26s9.72-22.04,2.77-16.76C40.8,502.11,38.72,519.85,38.72,519.85z"/>
	<g>
		<path class="st33" d="M28.83,525.94l0.36,2.61l0.38,37.71c0,0,1.27,5.59,18.61,6.46c15.8,0.79,21.71-5.71,21.71-5.71l3.73-41.07"
			/>
		<ellipse class="st37" cx="51.23" cy="525.94" rx="22.4" ry="7.47"/>
	</g>
	<g>
		<g>
			<g id="_x39_my1aw_1_">
				<g>
					<path class="st6" d="M79.16,541.12c0-9.04-0.04-18.07,0.02-27.11c0.03-3.48,1.54-6.41,4.89-8.37c1.95-1.14,2.79-2.61,2.74-4.74
						c-0.11-4.82,0.03-9.64,0.01-14.46c0-1.13-0.32-2.26-0.33-3.39c-0.02-1.64,0.11-3.28,0.17-4.92c0.03-0.67,0.41-1.15,1.14-1.19
						c2.23-0.1,4.46-0.2,6.69-0.14c1.22,0.03,1.43,0.44,1.46,1.58c0.02,0.68,0.15,1.37,0.12,2.05c-0.06,1.57-0.28,3.14-0.28,4.71
						c0,5.64,0.07,11.28,0.1,16.92c0.01,1.45,0.72,2.58,2.05,3.29c4.07,2.17,5.46,5.55,5.45,9.52c-0.02,7.28-0.15,14.57-0.2,21.85
						c-0.06,7.86-0.08,15.72-0.12,23.58c-0.01,2.66-0.06,5.31-0.06,7.97c0,1.21-0.57,2.09-1.7,2.73c-1.62,0.92-3.45,1.26-5.3,1.5
						c-3.88,0.5-7.78,0.63-11.6-0.27c-1.38-0.33-2.7-0.99-3.94-1.65c-0.91-0.49-1.2-1.36-1.2-2.35c0.01-8.68-0.01-17.36-0.03-26.04
						c0-0.36,0-0.71,0-1.07C79.21,541.12,79.18,541.12,79.16,541.12z"/>
				</g>
			</g>
			<ellipse class="st38" cx="91.4" cy="477.1" rx="4" ry="0.96"/>
		</g>
		<path class="st39" d="M95.63,478.8c0,0.59-1.92,1.06-4.29,1.06s-4.29-0.48-4.29-1.06c0-0.59,1.8-0.21,4.17-0.21
			S95.63,478.22,95.63,478.8z"/>
		<path class="st39" d="M89.83,480.39c0,0,5.1-0.32,5.1,0.21c0,0.53,0.58,2.12-0.46,2.44s-4.52,0.96-4.87,0.11
			C89.25,482.3,89.83,480.39,89.83,480.39z"/>
		<path class="st40" d="M79.26,558.6c0,3.21,0.01,6.42,0,9.63c0,0.99,0.29,1.86,1.2,2.35c1.24,0.66,2.56,1.33,3.94,1.65
			c3.82,0.9,7.72,0.77,11.6,0.27c1.85-0.24,3.68-0.59,5.3-1.5c1.13-0.64,1.7-1.52,1.7-2.73c0-2.66,0.05-5.31,0.06-7.97
			c0-0.57,0.01-1.13,0.01-1.7H79.26z"/>
		<path class="st41" d="M97.68,571.24c-3.73,0.49-7.48,0.61-11.16-0.26c-1.33-0.32-2.59-0.96-3.79-1.61
			c-0.88-0.47-1.16-1.32-1.15-2.28c0.01-8.44-0.01-16.88-0.03-25.32c0-0.35,0-0.69,0-1.04h-0.08c0-8.79-0.04-17.58,0.02-26.36
			c0.02-3.39,1.48-6.23,4.71-8.14c1.87-1.11,2.68-2.53,2.63-4.61c-0.11-4.68,0.03-9.37,0.01-14.06c0-1.1-0.31-2.2-0.32-3.3
			c-0.02-1.59,0.1-3.19,0.16-4.79c0.01-0.37,0.15-0.67,0.39-0.88c-0.62-0.15-1.24-0.31-1.86-0.48c-0.19,0.02-0.37,0.04-0.56,0.07
			c-0.06,1.62-0.18,3.25-0.17,4.87c0.01,1.13,0.33,2.26,0.33,3.39c0.02,4.82-0.13,9.64-0.01,14.46c0.05,2.13-0.79,3.6-2.74,4.74
			c-3.35,1.97-4.87,4.89-4.89,8.37c-0.07,9.04-0.02,18.07-0.02,27.11c0.03,0,0.05,0,0.08,0c0,0.36,0,0.71,0,1.07
			c0.01,8.68,0.04,17.36,0.03,26.04c0,0.99,0.29,1.86,1.2,2.35c1.24,0.66,2.56,1.33,3.94,1.65c3.82,0.9,7.72,0.77,11.6,0.27
			c1.85-0.24,3.68-0.59,5.3-1.5c0.54-0.31,0.94-0.67,1.22-1.09C101.04,570.7,99.37,571.02,97.68,571.24z"/>
		<path class="st39" d="M92.96,505.46c4.07,2.17,5.46,5.55,5.45,9.52c-0.02,7.28-0.15,14.57-0.2,21.85
			c-0.06,7.86-0.08,15.72-0.12,23.58c-0.01,2.66-0.06,5.31-0.06,7.97c0,1.21-0.57,2.09-1.7,2.73c-0.23,0.13-0.47,0.25-0.71,0.36
			c0.5,0.21,1,0.39,1.5,0.54c0.89-0.23,1.76-0.55,2.57-1.01c1.13-0.64,1.7-1.52,1.7-2.73c0-2.66,0.05-5.31,0.06-7.97
			c0.04-7.86,0.06-15.72,0.12-23.58c0.05-7.28,0.18-14.57,0.2-21.85c0.01-3.97-1.38-7.35-5.45-9.52c-1.33-0.71-2.04-1.84-2.05-3.29
			c-0.03-5.64-0.1-11.28-0.1-16.92c0-0.24,0.01-0.48,0.02-0.71c-1.12,0.01-2.24,0-3.36-0.05c-0.01,0.29-0.03,0.58-0.03,0.87
			c0,5.64,0.07,11.28,0.1,16.92C90.91,503.62,91.62,504.75,92.96,505.46z"/>
	</g>
	<g>
		<path class="st11" d="M118.14,576.55c-0.89-6.03-4.99-11.35-4.32-17.4c3.91,4.23,9.87,6.56,15.4,8.31
			c0.53-9.27-3.73-26.54,3.5-33.44c8.83,7.57,14.29,22.24,16.89,33.28c4.97-15.23,15.17-24.6,26-35.47
			c0.08,12.74-2.74,26.22-5.31,37.89c9.87-7.07,22.09-20.06,34.35-22.09c-1.64,7.99-7.87,17.87-13.06,24.29
			c4.57-0.44,12.94-4.61,17.42-3.34c4.7,1.34,7.51,7.93,11.3,11.09c0.41-6.61-1.55-14.72,3.52-19.63
			c4.37,3.48,6.15,9.14,10.23,12.91c1.23-6.19,1.94-18.82,7.82-22.35c3.47,5.56,2.65,13.51,4.76,19.8
			c3.67-7.18,5.95-14.41,11.17-20.83c3.4-4.18,23.41-21.44,29.12-17.59c7.55,5.09-12.01,27.06-14.17,34.51
			c11.87-6.18,28.83-14.97,41.93-6.01c-2.98,3.01-6.61,5.59-9.58,8.29c12.18,1.06,20.23-0.29,29.87,11.05
			c-12.28,0.5-24.46-0.03-36.4-3.15c3.3,1.04,4.68,3.64,7.02,5.51c-5.16,7.2-12.98,1.99-19.37,0.22c-10.3-2.84-19.36-4.52-29.9-2.3
			c0.97,10.06-30.73,0.81-39.14,2.59c-10.92,2.32-18.75,3.44-30.71,1.79c-13.57-1.87-25.16-7.5-39.39-6.86
			c-14.96,0.67-31.15,1.83-45.28,7.54c4.04-2.71,9.03-4.65,13.19-7.58c1.15-2.24-0.49-0.1-1.37,0.1"/>
	</g>
	<g>
		<path class="st11" d="M434.99,586.61c0,0-4.04-23.99-16.56-49.03c-12.52-25.04-25.04-22.95-25.04-22.95s8.35,38.6,19.82,50.07
			C424.69,576.18,434.99,586.61,434.99,586.61z"/>
		<path class="st11" d="M434.99,586.61c0,0-11.35-30.25-0.91-55.29c10.43-25.04,19.82-42.77,19.82-39.64
			c0,3.13-10.43,47.99-13.56,63.63C437.21,570.96,434.99,586.61,434.99,586.61z"/>
		<path class="st11" d="M436.17,582.44c0,0,0-21.91,11.47-37.55s27.12-21.91,27.12-21.91s-14.6,31.3-25.04,42.77
			S436.17,582.44,436.17,582.44z"/>
		<path class="st11" d="M426.78,582.44c0,0-13.56-19.82-32.34-25.04c-18.78-5.22-28.17-3.13-28.17-3.13s18.78,18.78,35.47,23.99
			S426.78,582.44,426.78,582.44z"/>
		<path class="st11" d="M440.34,582.44c0,0,12.52-18.78,25.04-27.12s25.04-9.39,25.04-9.39s-11.47,23.99-29.21,31.3
			C443.47,584.52,440.34,582.44,440.34,582.44z"/>
	</g>
	<g>
		<path class="st11" d="M96.4,42.48c-2.08-5.95-5.91-18.77-13.85-18.87c-9.91-0.13-9.7,13.35-7.94,19.63
			c-7.03-7.76-23.76-14.39-33.49-7.02C25.11,48.35,51.48,60.97,60.46,64.91c-8.49,3.77-27.8,15.38-29.27,25.43
			c-1.53,10.46,13.71,11.56,21.48,7.79c-3.01,2.84-10.06,10.78-8.69,15.22c2.24,7.25,14.84,4.71,19.82,1.49
			c-4.98,6.53-18.29,23.63-13.68,33.19c7.37,15.28,22.82-1.96,28.61-9.32c-0.97,10.28-13.49,32.92-2.69,41.05
			c14.96,11.27,25.82-15.13,27.29-25.4c0.69,9.07,11.23,32.2,22.58,29.35c8.62-2.16,5.56-14.86,6.32-21.55
			c10.53,7.38,26.49,10.48,36.76,1.19c10.41-9.41,5.89-14.72-1.91-22.99c17.68-2.98,40.73-7.71,44.58-28.04
			c3.78-19.95-14.64-13.73-28.09-12.59c16.42-1.85,28.57-24.73,23.33-40.45c-4.85-14.55-27.51-9.91-37.36-2.28
			c1.71-5.28,8.87-13.69,5.91-20.24c-4.77-10.57-13.84,2.82-19.41,7.45c0.31-9.11-0.24-27.14-12.21-30.86
			c-10.96-3.41-20.21,13.55-24.79,21.7c-0.33-7.4-4.54-24.47-15.72-21.16c-8.39,2.48-11.29,21-10.86,28.6"/>
	</g>
	<g>
		<path class="st28" d="M15.05,102.51c-18.95,9.59-14.99-16.34-1.52-18.46c-10.95-1.36-2.73-21.08,3.15-25.26
			c7.67-5.45,20.63-4.54,25,4.89c3.62-3.7,7.98-6.62,12.18-8.16c15.95-5.85,23.02,8.75,11.38,20.32c8.17-2.16,28.87-5.75,29.34,9.53
			c0.33,10.73-18.19,12.21-25.1,10.95c8.72,5.72,23.77,20.76,10.6,30.23c-10.37,7.46-25.72-0.81-29.44-11.69
			c-5.2,12.93-19.24,15.74-31.52,12.09C2.44,121.98,8.14,113.44,15.05,102.51z"/>
	</g>
	<g>
		<path class="st28" d="M104.21,170.72c-18.82,2.51-7.84-18.21,4.15-16.03c-8.85-4.37,3.9-18.6,10.1-20.4
			c8.08-2.34,18.75,2.24,19.67,11.49c4.14-2.06,8.69-3.24,12.68-3.3c15.19-0.24,16.86,14.17,3.63,20.5
			c7.53,0.58,26.07,3.64,21.97,16.68c-2.88,9.15-18.95,4.96-24.41,1.85c5.68,7.4,13.96,24.53,0.05,28.65
			c-10.95,3.24-21.48-8.26-21.42-18.54c-8.2,9.39-20.88,7.62-30.17,0.92C87.83,183.45,95.16,177.92,104.21,170.72z"/>
	</g>
	<path class="st5" d="M27.24,199.59c0,0,8.35,34.42,19.82,51.12s33.38,45.9,33.38,45.9s4.17,22.95,1.04,20.86
		c-3.13-2.09-36.51-53.2-42.77-67.81c-6.26-14.6-16.69-49.03-16.69-49.03"/>
	<g>
		<path class="st28" d="M51.8,221.72c11.77,9-5.72,14.37-11.13,6.55c2.47,7.29-12.41,8.11-16.82,5.68
			c-5.75-3.17-9.11-11.58-4.51-17.19c-3.42-1.15-6.58-3-8.82-5.18c-8.51-8.25-1.49-17.12,9.31-13.31
			c-3.83-4.48-12.37-16.39-2.92-21.32c6.64-3.46,13.19,7.72,14.49,12.45c0.95-7.21,5.83-21.23,15.78-15.83
			c7.83,4.25,7.3,16.4,1.59,22.04c9.7-0.66,15.72,7.31,17.15,16.13C67.85,223.73,60.76,222.74,51.8,221.72z"/>
	</g>
	<g>
		<g>
			<path class="st42" d="M184.23,418.69c0,0-3.39,13.21-8.82,19.15c-5.43,5.94-7.47,9.24-7.47,9.24l22.4-13.21l2.04-14.53"/>
			<g>
				<path class="st42" d="M172.69,443.11c-3.94-2.72-5.62-7.89-10.91-7.71c-1.21,2.56-1.51,5.33-1.31,8.17
					c0.39-3.21-1.92-5.42-5.21-5.03c-2.25,2.59-0.2,5.45-0.17,8.18c-2.91-8.54-7.38,3.05-3.44,4.31"/>
			</g>
			<path class="st22" d="M179.42,397.6c2.4-12.88,11.6-14.21,11.6-14.21l5.7,33.87c0,0,4.28,10.3-3.67,11
				c-10.95,0.97-14.25-5.61-14.25-5.61S177.02,410.48,179.42,397.6z"/>
			<path class="st43" d="M182.2,398.53c2.4-12.88,11.6-14.21,11.6-14.21l5.7,33.87c0,0,4.28,10.3-3.67,11
				c-10.95,0.97-14.25-5.61-14.25-5.61S179.8,411.41,182.2,398.53z"/>
			<path class="st42" d="M187.28,515.08c-0.74,0.09-2.73,1.32-3.47,1.4c-2.52,0.27-5.05,0.3-7.59,0.3c-4.32,0-8.65-0.11-12.97,0.09
				c4.03-1.77,7.36-3.42,7.9-4.58c1.2-2.57-18.83-52.01-12.44-62.95c5.07-8.68,44.8-4.36,44.8-4.36l-1,20.34l-17.95-0.09
				C184.57,465.23,185.1,494.27,187.28,515.08z"/>
			<path class="st44" d="M183.31,526.07c-0.97,0.05-1.96,0.07-2.97,0.07c-4.11,0-7.96,0.18-11.97,1.14
				c-2.01,0.48-4.09,0.88-6.19,1.17c-4.15,0.16-8.26,0.11-11.61-0.36c-8.71-1.21-6.72-5.57-1.74-6.29c2.5-0.36,6.7-1.95,10.75-3.95
				c0.55-0.27,1.1-0.55,1.64-0.83c0.66-0.35,1.31-0.7,1.94-1.06c0.52-0.3,1.03-0.6,1.53-0.9c0.5-0.31,0.99-0.62,1.45-0.93
				c0.49-0.33,0.96-0.65,1.38-0.97c0.74-0.55,1.38-1.1,1.89-1.61c2.97-3.02,4.73,4.6,8.21,3.87c3.48-0.73,10.2-4.6,10.2-4.6
				l-0.75,14.04C187.08,524.88,186.26,525.41,183.31,526.07z"/>
			<path class="st42" d="M190.57,525.36l12.94-4.36c0,0,45.12-27.93,60.72-35.02c2.37,7.27,6.75,18.86-1.25,24.83
				c-0.68,0.51-1.39,0.99-2.1,1.46c0.91-2.39,1.06-4.33-0.63-4.82c-4.98-1.45-40.82,30.51-63.71,28.08
				C182.54,534.05,190.57,525.36,190.57,525.36z"/>
			<path class="st44" d="M269.21,485.9c0,0,6.64,5.57,4.98,29.78c-0.25,3.62-0.58,10.65-8.79,10.65s-12.11,0-12.11-3.39
				s7.22-12.59,5.48-14.53c-1.74-1.94-2.74-2.42-1.49-4.6c1.24-2.18,6.3-3.15,7.96-0.4c1.02,1.68,1.74-7.18-0.5-9.85
				c-2.24-2.66-4.48-2.82-4.48-2.82L269.21,485.9z"/>
			<path class="st45" d="M203.01,497.28c0,0-24.39,16.46-20.41,27.6c3.98,11.14,10.45,11.62,17.42,8.72s26.38-19.85,26.38-19.85"/>
			<polyline class="st46" points="225.41,440.14 174.64,441.11 187.08,478.71 236.36,471.61 			"/>
			<path class="st7" d="M227.9,465.8l-8.46,6.29l-25.88,25.66c0,0,13.44,9.68,23.89,15.49c10.45,5.81,18.91,4.84,18.91,4.84
				l22.9-23.24c0,0,22.4-15.49,22.9-29.05S270.7,444.5,270.7,444.5"/>
			<path class="st16" d="M195.44,377.16c0,0,22.35-3.66,47,15.89s44.55,58.05,44.55,58.05s-5.44,11.67-27.16,16.8
				c-47.64,11.23-46.57-21.22-46.57-21.22s-3.34-2.06-4.6-3.56c-3.05-3.63-25.91-27.54-29.55-39.61
				C175.47,391.45,195.44,377.16,195.44,377.16z"/>
			<g>
				<path class="st43" d="M208.26,443.09c6.11,6.72,21.83,7.24,30.12,6.68c7.49-0.5,15.39-2.56,22.11-5.66
					c-6.89,8.77-29.37,12.07-39.07,6.42c11.06,6.46,20.96,6.87,33.57,7.67c-10.61,3.2-22.33,3.43-32.76-1.22
					c-4.28-1.91-10.86-8.91-10.99-11.47"/>
			</g>
			<path class="st46" d="M221.26,468.71c1.99,0,35.84,13.24,27.54,10.65c-8.3-2.58-21.24-4.84-21.24-4.84s21.57,14.53,11.28,10.65
				c-10.29-3.87-19.41-13.07-19.41-13.07"/>
			<path class="st22" d="M144.69,525.37c0.81,0.88,2.53,1.65,5.48,2.07c3.39,0.48,7.55,0.53,11.74,0.37c2.12-0.3,4.22-0.71,6.26-1.2
				c4.06-0.98,7.94-1.16,12.1-1.17c0.43,0,1.56,0.04,2.59,0.06c0.37,0.96,0.75,1.85,1.16,2.65c-1.32-0.02-3.04-0.07-3.74-0.07
				c-4.16,0-8.04,0.19-12.1,1.17c-2.03,0.49-4.13,0.9-6.26,1.2c-4.19,0.16-8.35,0.11-11.74-0.37
				C144.29,529.25,143.25,527,144.69,525.37z"/>
			<g>
				<g>
					<path class="st43" d="M258.81,510.46c0.19-0.66,0.27-1.22,0.16-1.63c3.61,0.13,6.52-0.05,10.41,0.07
						C269.75,510.32,262.65,510.89,258.81,510.46z"/>
				</g>
				<g>
					<path class="st43" d="M257.18,514.17c0.27-0.52,0.52-1.02,0.75-1.5c4.01,0.17,7.9-0.02,11.94,0.1
						C270.28,514.34,260.83,514.88,257.18,514.17z"/>
				</g>
				<g>
					<path class="st43" d="M255.25,517.78c0.22-0.42,0.45-0.85,0.68-1.28c4.36,0.25,8.56,0.01,12.94,0.14
						C269.32,518.38,257.76,518.85,255.25,517.78z"/>
				</g>
			</g>
			<path class="st22" d="M272.36,513.09c1.03-15.02-1.13-22.85-2.92-26.64c0.05-0.05,0.1-0.1,0.16-0.15
				c1.39,1.64,6.01,8.72,4.59,29.37c-0.25,3.62-0.58,10.65-8.79,10.65c-8.18,0-12.08,0-12.11-3.35c1.9,0.76,5.29,0.77,10.28,0.77
				C271.78,523.75,272.11,516.72,272.36,513.09z"/>
			<g>
				<path class="st43" d="M171.32,516.32c1.66,2.1,3.15,3.87,1.66,3.55c-1.49-0.32-2.49-3.07-4.48-4.2
					c-0.81-0.46-1.77-0.94-2.64-1.35c0.09-0.06,0.19-0.12,0.28-0.18c0.49-0.33,0.96-0.65,1.38-0.97c0.02-0.02,0.04-0.03,0.07-0.05
					C168.66,513.82,170.28,515.01,171.32,516.32z"/>
				<path class="st43" d="M163.69,516.64c-0.28-0.16-0.58-0.32-0.88-0.48c0.12-0.07,0.24-0.13,0.36-0.2
					c0.42-0.24,0.82-0.48,1.22-0.72c0.76,0.6,1.53,1.3,2.12,2.04c1.66,2.1,3.15,3.87,1.66,3.55
					C166.67,520.52,165.68,517.77,163.69,516.64z"/>
				<path class="st43" d="M159.4,517.96c0.06-0.03,0.13-0.06,0.19-0.09c0.43-0.21,0.86-0.43,1.28-0.65
					c0.48,0.43,0.94,0.89,1.32,1.37c1.66,2.1,3.15,3.87,1.66,3.55C162.37,521.81,161.37,519.09,159.4,517.96z"/>
			</g>
			<path class="st47" d="M195.04,351.77c-0.7-0.58-1.47-0.78-2.26-0.73c2.41,1.99,4.56,4.3,4.8,7.54c0.01,0.07,0.01,0.16,0.01,0.24
				c0.12-1.14-0.04-2.28-0.38-3.4C196.81,354.1,196.14,352.69,195.04,351.77z"/>
			<g>
				<g>
					<path class="st45" d="M185.14,362.83c0.57,0.42,1.03,0.72,1.28,0.79L185.14,362.83z"/>
				</g>
				<g>
					<path class="st45" d="M186.26,372.69c-1.26-1.25-1,5-2.63,3.65c-1.48-1.23-0.12-5.83-1.78-5.85c0.18-2.19-0.65-9.1-1.98-10.91
						l5.27,3.26c-2.06-1.53-5.58-4.76-6.13-5.5l-7.9,1.56c-0.83,1.01-8.74,14.57-10,15.39c-2.64-2.18-3.55-2.87-2.78-5.59
						c-0.5,0.13-1.06,0.08-1.52,0.3c-0.76,0.37-1.29-8.36-2.46-12.31c-0.3-1-6.52-6.91-6.31-7.97c-11.18-5.38-18.88,4.25-18.77,6.52
						c-0.31,0.43-0.68,0.87-1.12,1.29c0.31,3.1-1.42,3.84-0.03,7.13c0.95,2.25,3.96,7.48,5.35,10.03c4.7,8.61-0.46,11.03,0.7,14.62
						c0,0,1.02,3.14,6.96,0.99c0.5-0.18-0.26-0.27,0-0.33c1.22,2.21,0.22,0.83,1.81,2.86c0.09-0.02,0.16-0.04,0.24-0.06
						c-0.08,0.08-0.17,0.15-0.26,0.24c0.4,0.4,0.85,0.8,1.33,1.19c2.23,0.19,3.84-1.26,5.2-1.59c0.51,2.15-0.34,2.81-1.36,4.13
						c5.92,3.27,14.32,6.1,17.67,4.49c6.09-2.93,6.65-6.06,11.47-7.84c0.93-0.34,8.24,7.93,10.23,8.04
						c10.46,4.57,10-19.98,10.15-22.1C196.27,378.7,186.81,373.23,186.26,372.69z"/>
				</g>
				<g>
					<path class="st45" d="M197.6,378.33c0.02-0.01,0.04-0.01,0.06-0.02C197.63,378.13,197.61,378.15,197.6,378.33z"/>
				</g>
			</g>
			<g>
				<path class="st48" d="M174.6,370.77c3.13,3.66,3.32,9.99-1.07,13.3c-1.08,0.77-2.69,1.28-4,1.02c-0.1-0.02-0.19-0.07-0.3-0.1
					c0.31,0.17,0.64,0.3,1,0.37c1.31,0.26,3.95,0.17,5.03-0.6c3.91-2.94,3.15-8.69,0.96-12.41
					C175.76,371.72,175.22,371.19,174.6,370.77z"/>
			</g>
			<g>
				<g>
					<path class="st45" d="M173.52,384.06c4.39-3.31,4.21-9.64,1.07-13.3c-0.91-0.61-1.99-0.98-3.26-0.98
						c-3.29,0.01-4.66,1.62-6.1,3.37l1.19,9.62c0.7,0.95,1.63,1.86,2.8,2.21c0.1,0.03,0.19,0.08,0.3,0.1
						C170.83,385.34,172.44,384.83,173.52,384.06z M173.71,376.39c0.07,3.32-3.61,6.29-6.17,3.11c1.8,0.28,2.52,0.29,2.94-1.58
						c0.3-1.35-0.3-3.12-1.7-3.3c0.47,4.09-1.17,2.22-1.88-0.55l0.27-0.25C169.43,372.02,173.61,371.56,173.71,376.39z"/>
				</g>
			</g>
			<path class="st48" d="M168.78,374.63c1.4,0.18,2,1.96,1.7,3.3c-0.42,1.87-1.15,1.85-2.94,1.58c2.56,3.18,6.24,0.21,6.17-3.11
				c-0.1-4.84-4.27-4.37-6.54-2.57l-0.27,0.25C167.61,376.85,169.25,378.71,168.78,374.63z"/>
			<g>
				<path class="st49" d="M144.08,351.96c-4.98,3.76-10.16,6.54-15.56,9.1c0.52-5.16,1.93-10.22,3.85-15.05
					c3.54-8.92,8.93-17.21,15.49-24.39c1.51-0.85,3.06-1.64,4.82-1.97c5.67-1.07,8.34,2.1,11.87,7.48c6.22-6.09,20.18,1.65,22.43,6
					c1.6,3.1,5.29,10.67,4.72,14.24c-0.56,3.48-0.8,0.32-2.49-1.94c3.06,4.84,5.36,12.62,4.53,18.44
					c-0.71,4.99-0.81,11.89-6.37,13.8c-0.58-1.18-0.18-2.42-0.2-3.66c-0.54,2.24-3.53,8.68-7,5.48c-1.93-1.77-2.5-5.13-4.1-7.58
					c-4.7-7.2-13.65-1.02-14.45,5.87c-4.56-2.17-10.84-8.68-10.71-13.95c-0.65,1.91-1.72,3.84-1.82,5.83
					C143.51,366.13,138.6,357.43,144.08,351.96z"/>
			</g>
			<path class="st50" d="M140.62,361.24c0,0-28.51,18.72-34.99,11.21c-5.85-6.78,8.68-3.81,20.03-14.64"/>
			<path class="st34" d="M197.12,491.97c0,0,10.18,6.6,25.79,13.87c15.61,7.26,19,7.92,19,7.92l-5.56,4.34c0,0-18.2-1.03-28.38-6.98
				c-10.18-5.94-16.97-12.54-16.97-12.54"/>
			<path class="st34" d="M196.44,479.43c0-2.64-11.54-40.94-14.25-40.28c-2.71,0.66-7.55,1.95-7.55,1.95s8.51,34.25,12.44,37.61
				S196.44,479.43,196.44,479.43z"/>
			<path class="st34" d="M255.49,470.19c-2.04,0.66-20.36,23.77-16.29,25.75c4.07,1.98,8.82,4.62,12.9,1.32s10.86-12.54,10.86-12.54
				s-7.47,1.32-6.11-3.96c1.36-5.28,7.47-11.88,7.47-11.88"/>
			<path class="st22" d="M143.96,373.79l-7.92,1.54c0,0,1.81,4.18,5.88,3.3S143.96,373.79,143.96,373.79z"/>
			<path class="st49" d="M140.56,367.96c0,0-9.5-2.86-7.92,0.88C133.42,370.68,140.56,367.96,140.56,367.96z"/>
			<path class="st49" d="M136.04,375.34c0.09,0.21,1.91,4.15,5.88,3.29c0.16-0.03,0.3-0.07,0.45-0.12c0-0.03,0.01-0.07,0.01-0.1
				c0-1.82-2.08-3.3-4.64-3.3c-0.3,0-0.59,0.02-0.88,0.06l-0.65,0.13C136.15,375.31,136.1,375.32,136.04,375.34z"/>
			<g>
				<path class="st49" d="M188.98,347.38c1.73,3.52,2.99,2.54,3.73,6.27c0.56,2.84,2.08,12.38,6.01,12.19
					c-2.78,0.99-4.83,2.74-7.97,2.3c2.04,1.28,4.44,1.47,6.64,2.06c-1.84,1.84-3.65,4.01-6.51,4.1c-2.61,0.08-4.49-1.82-7-2.49"/>
			</g>
			<path class="st51" d="M190.15,335.16c0,0-0.99-1.5-2.82-3.65l-4.8,3.65c0,0-1.36-2.31-2.04-3.96c-0.43-1.05,1.45-2.75,2.89-3.86
				c-2.76-2.63-4.5-3.88-8.66-6.04c-8.86-4.59-32.68-8.69-46.54,9.33c-10.34,13.43-8.26,25.14-6.54,30.23
				c0.16,0.15,0.33,0.3,0.49,0.45c3.25,1.32,6.69,1.79,10.15,1.7c9.54-1.57,24.67-4.63,34.27-9.46c2.13-1.08,4.17-2.25,6.1-3.46
				l16.67-13.47C190.92,334.99,190.15,335.16,190.15,335.16z"/>
			<path class="st52" d="M143.2,319.46c-0.7,0.28-1.39,0.56-2.08,0.86c-3.09,3.97-6.99,9.66-10.01,16.33
				c-5.16,11.4-2.91,23.4-2.26,26.25c0.7,0.06,1.41,0.11,2.12,0.12c-0.41-1.28-2.97-10.26,0.76-22.88
				C134.06,332.28,139.23,324.59,143.2,319.46z"/>
			<path class="st52" d="M154.8,324.13c-3.76-2.57-7.25-4.23-10.02-5.29c-0.28,0.11-0.56,0.22-0.83,0.33
				c2.28,0.9,5.56,2.86,10.2,7.13c7.87,7.24,13.69,20.12,15.84,25.39c0.39-0.22,0.76-0.46,1.15-0.69
				C169.22,346.09,162.25,329.23,154.8,324.13z"/>
			<path class="st43" d="M200.18,377.42c-2.07-1.21-4.78-0.94-6.57-0.55c1.87,0.93,3.5,1.6,3.99,1.46
				c-0.15,2.12,0.32,26.67-10.15,22.1c-0.98-0.06-3.26-2.09-5.42-4.11c1.07,4.14,3.63,10.26,8.81,9.48
				C201.87,404.16,203.57,379.4,200.18,377.42z"/>
			<g>
				
					<ellipse transform="matrix(0.7495 -0.6621 0.6621 0.7495 -231.6098 242.7809)" class="st16" cx="204.96" cy="427.4" rx="7.19" ry="19.17"/>
				<g>
					<path class="st53" d="M209.97,423.26c0.56,0.64,1.11,1.3,1.64,1.96c-0.1-0.13-0.2-0.26-0.3-0.38c1.04,1.32,1.99,2.66,2.83,3.99
						c-0.08-0.13-0.16-0.25-0.24-0.38c0.82,1.3,1.52,2.58,2.09,3.81c-0.05-0.12-0.11-0.23-0.16-0.35c0.57,1.22,1,2.38,1.28,3.44
						c-0.03-0.1-0.05-0.2-0.08-0.31c0.29,1.07,0.42,2.05,0.41,2.9c0-0.08,0-0.16,0-0.25c-0.02,0.87-0.2,1.59-0.54,2.17
						c0.03-0.06,0.07-0.11,0.1-0.17c-0.34,0.57-0.84,0.99-1.48,1.22c0.06-0.02,0.12-0.05,0.18-0.07c-0.63,0.23-1.4,0.29-2.28,0.17
						c0.08,0.01,0.17,0.02,0.25,0.03c-0.86-0.12-1.83-0.41-2.87-0.85c0.1,0.04,0.2,0.09,0.3,0.13c-1.04-0.45-2.14-1.05-3.29-1.78
						c0.11,0.07,0.22,0.14,0.33,0.21c-1.15-0.74-2.34-1.62-3.53-2.62c0.11,0.1,0.23,0.19,0.34,0.29c-1.22-1.02-2.43-2.15-3.6-3.35
						c0.11,0.12,0.23,0.24,0.34,0.35c-1.18-1.22-2.32-2.52-3.37-3.85c0.1,0.13,0.2,0.26,0.3,0.38c-1.04-1.32-1.99-2.66-2.83-3.99
						c0.08,0.13,0.16,0.25,0.24,0.38c-0.82-1.3-1.52-2.58-2.09-3.81c0.05,0.12,0.11,0.23,0.16,0.35c-0.57-1.22-1-2.38-1.28-3.44
						c0.03,0.1,0.05,0.2,0.08,0.31c-0.29-1.07-0.42-2.05-0.41-2.9c0,0.08,0,0.16,0,0.25c0.02-0.87,0.2-1.59,0.54-2.17
						c-0.03,0.06-0.07,0.11-0.1,0.17c0.34-0.57,0.84-0.99,1.48-1.22c-0.06,0.02-0.12,0.05-0.18,0.07c0.63-0.23,1.4-0.29,2.28-0.17
						c-0.08-0.01-0.17-0.02-0.25-0.03c0.86,0.12,1.83,0.41,2.87,0.85c-0.1-0.04-0.2-0.09-0.3-0.13c1.04,0.45,2.14,1.05,3.29,1.78
						c-0.11-0.07-0.22-0.14-0.33-0.21c1.15,0.74,2.34,1.62,3.53,2.62c-0.11-0.1-0.23-0.19-0.34-0.29c1.22,1.02,2.43,2.15,3.6,3.35
						c-0.11-0.12-0.23-0.24-0.34-0.35C208.83,421.98,209.4,422.61,209.97,423.26c0.31,0.36,0.7,0.68,1.01,0.85
						c0.3,0.16,0.61,0.22,0.73,0.09c0.26-0.27,0-1.05-0.68-1.83c-1.43-1.63-2.97-3.2-4.52-4.59c-1.5-1.34-3.03-2.56-4.5-3.56
						c-0.78-0.53-1.56-1.01-2.31-1.43c-0.75-0.42-1.47-0.75-2.17-1.05c-1.32-0.56-2.5-0.85-3.55-0.92c-1.07-0.07-1.96,0.15-2.63,0.6
						c-0.68,0.46-1.15,1.19-1.36,2.13c-0.21,0.91-0.19,2.04,0.06,3.33c0.25,1.28,0.7,2.7,1.38,4.23c0.36,0.81,0.76,1.64,1.22,2.49
						c0.47,0.87,1,1.74,1.56,2.63c1.08,1.7,2.34,3.4,3.71,5.05c1.39,1.68,2.91,3.31,4.46,4.78c1.49,1.42,3.04,2.72,4.53,3.81
						c1.48,1.08,2.95,1.99,4.31,2.66c1.36,0.67,2.64,1.14,3.76,1.33c0.6,0.1,1.17,0.16,1.68,0.13c0.53-0.03,0.98-0.16,1.41-0.33
						c0.8-0.33,1.35-0.96,1.68-1.81c0.32-0.81,0.4-1.87,0.25-3.08c-0.14-1.19-0.51-2.58-1.09-4.05c-0.57-1.47-1.35-3.06-2.31-4.68
						c-0.98-1.66-2.12-3.35-3.41-5.01c-0.7-0.89-1.41-1.77-2.16-2.64c-0.31-0.36-0.7-0.68-1.01-0.85c-0.3-0.16-0.61-0.22-0.73-0.09
						C209.03,421.7,209.29,422.48,209.97,423.26z"/>
				</g>
				<g>
					<path class="st47" d="M202.76,426.44c0.01,0,0.01,0.01,0.02,0.01C202.77,426.44,202.76,426.44,202.76,426.44
						c-0.07-0.04-0.11-0.04-0.11,0.01C202.65,426.4,202.68,426.4,202.76,426.44z"/>
					<path class="st47" d="M202.85,426.87c-0.02-0.03-0.03-0.07-0.05-0.11C202.81,426.8,202.83,426.84,202.85,426.87
						c0.04,0.08,0.1,0.16,0.16,0.21C202.94,427.03,202.88,426.96,202.85,426.87z"/>
					<path class="st47" d="M201.74,423.72l-0.4-0.46l0,0C201.49,423.43,201.59,423.55,201.74,423.72L201.74,423.72z"/>
					<path class="st47" d="M201.85,424.82c0.03-0.01,0.05-0.02,0.08-0.02c-0.01,0-0.05,0-0.09-0.01
						C201.83,424.79,201.84,424.8,201.85,424.82z"/>
					<path class="st47" d="M202.89,426.5c0.01,0.01,0.02,0.01,0.04,0.02C202.92,426.51,202.91,426.51,202.89,426.5z"/>
					<path class="st47" d="M202.65,426.46c0-0.01,0-0.01,0-0.02C202.65,426.45,202.65,426.45,202.65,426.46z"/>
					<path class="st47" d="M202.81,426.46c0.03,0.01,0.05,0.02,0.08,0.04C202.86,426.49,202.84,426.47,202.81,426.46z"/>
					<path class="st47" d="M201.42,423.61c-0.02-0.09-0.04-0.17-0.07-0.27C201.38,423.44,201.4,423.52,201.42,423.61z"/>
					<path class="st47" d="M202.54,424.83c-0.01,0-0.02-0.01-0.03-0.01C202.52,424.83,202.53,424.83,202.54,424.83z"/>
					<path class="st47" d="M202.22,424.46c-0.01-0.01-0.01-0.02-0.02-0.04C202.21,424.43,202.22,424.45,202.22,424.46z"/>
					<path class="st47" d="M202.47,424.81c-0.01-0.01-0.03-0.02-0.04-0.03C202.45,424.79,202.46,424.8,202.47,424.81z"/>
					<path class="st47" d="M202.84,424.98L202.84,424.98c-0.01,0-0.01,0-0.02-0.01C202.83,424.98,202.83,424.98,202.84,424.98z"/>
					<path class="st47" d="M202.26,424.25c0.02,0,0.03-0.01,0.05-0.01C202.29,424.25,202.27,424.25,202.26,424.25z"/>
					<path class="st47" d="M202.78,424.46C202.78,424.46,202.78,424.47,202.78,424.46C202.78,424.47,202.78,424.46,202.78,424.46z"
						/>
					<path class="st47" d="M202.51,424.82c-0.01,0-0.02-0.01-0.03-0.02C202.49,424.81,202.5,424.82,202.51,424.82z"/>
					<path class="st47" d="M202.33,425.41c0-0.01,0-0.01,0-0.02C202.33,425.4,202.33,425.4,202.33,425.41z"/>
					<path class="st47" d="M202.78,425.99c-0.01,0-0.01-0.01-0.02-0.01C202.77,425.99,202.77,425.99,202.78,425.99z"/>
					<path class="st47" d="M202.74,425.98c-0.01,0-0.01,0-0.02-0.01C202.73,425.97,202.74,425.97,202.74,425.98z"/>
					<path class="st47" d="M202.37,425.57c-0.01-0.01-0.01-0.02-0.02-0.03C202.36,425.55,202.37,425.56,202.37,425.57z"/>
					<path class="st47" d="M202.52,425.76c-0.01-0.01-0.02-0.02-0.03-0.03C202.5,425.74,202.51,425.75,202.52,425.76z"/>
					<path class="st47" d="M202.34,425.45c0,0.01,0,0.02,0,0.03c0,0.02,0.01,0.04,0.01,0.06c-0.01-0.02-0.01-0.04-0.01-0.06
						C202.34,425.46,202.34,425.46,202.34,425.45z"/>
					<path class="st47" d="M202.91,426.05c0.01,0,0.02,0.01,0.02,0.02c0.01,0.01,0.03,0.02,0.04,0.03
						c-0.01-0.01-0.02-0.02-0.04-0.03C202.93,426.06,202.92,426.05,202.91,426.05z"/>
					<path class="st47" d="M202.89,425.52c-0.04-0.05-0.09-0.1-0.15-0.16c-0.02,0-0.04,0-0.06,0c0.02,0,0.04,0,0.06,0
						C202.8,425.42,202.85,425.47,202.89,425.52z"/>
					<path class="st47" d="M202.72,425.97c-0.01,0-0.02-0.01-0.03-0.01C202.7,425.96,202.71,425.96,202.72,425.97z"/>
					<path class="st47" d="M202.46,425.33c0.07,0.03,0.13,0.03,0.18,0.03C202.59,425.37,202.53,425.37,202.46,425.33
						c-0.1-0.05-0.13-0.02-0.13,0.03C202.33,425.31,202.36,425.28,202.46,425.33z"/>
					<path class="st47" d="M202.62,425.88c-0.01-0.01-0.02-0.02-0.03-0.03C202.6,425.86,202.61,425.87,202.62,425.88z"/>
					<path class="st47" d="M202.59,425.85c-0.01-0.01-0.02-0.02-0.02-0.03C202.58,425.83,202.59,425.84,202.59,425.85z"/>
					<path class="st47" d="M201.81,425.78c-0.01-0.02-0.01-0.04-0.02-0.05C201.8,425.74,201.81,425.76,201.81,425.78z"/>
					<path class="st47" d="M201.23,423.06c0-0.03-0.01-0.06-0.01-0.09c0-0.01,0.01-0.02,0.02-0.02c0.02-0.01,0.04-0.03,0.04-0.06
						c-0.09,0.07-0.19,0.15-0.29,0.23c0.13,0.25,0.26,0.5,0.38,0.74C201.32,423.6,201.27,423.32,201.23,423.06z"/>
					<path class="st47" d="M201.77,425.66c-0.01-0.02-0.01-0.04-0.02-0.07C201.76,425.61,201.77,425.63,201.77,425.66z"/>
					<path class="st47" d="M205.52,424.16c-0.09-0.09-0.17-0.17-0.26-0.26l0.55,0.66c-0.01-0.04-0.01-0.09-0.01-0.12
						C205.7,424.35,205.61,424.25,205.52,424.16z"/>
					<path class="st47" d="M201.85,425.91c-0.01-0.02-0.01-0.04-0.02-0.05C201.84,425.87,201.85,425.89,201.85,425.91
						c0.01,0,0.02,0,0.04-0.01C201.88,425.9,201.87,425.91,201.85,425.91z"/>
					<path class="st47" d="M202.56,424.84C202.56,424.84,202.56,424.84,202.56,424.84C202.56,424.84,202.56,424.84,202.56,424.84z"
						/>
					<path class="st47" d="M201.94,425.9c0,0-0.01,0-0.01,0C201.94,425.9,201.94,425.9,201.94,425.9z"/>
					<path class="st47" d="M202.2,427.02c-0.01-0.01-0.02-0.02-0.03-0.03C202.18,427,202.19,427.01,202.2,427.02z"/>
					<polygon class="st47" points="201.99,425.89 201.99,425.89 201.98,425.89 					"/>
					<path class="st47" d="M201.94,425.74l-0.22-0.26h0C201.8,425.58,201.87,425.66,201.94,425.74L201.94,425.74z"/>
					<path class="st47" d="M202.31,427.09L202.31,427.09c-0.02-0.01-0.06-0.04-0.09-0.06C202.25,427.06,202.29,427.08,202.31,427.09
						z"/>
					<path class="st47" d="M202.08,426.81c0.01,0.05,0.03,0.09,0.06,0.15c0,0,0.01,0.01,0.01,0.01c0-0.01-0.01-0.01-0.01-0.01
						C202.11,426.91,202.1,426.86,202.08,426.81z"/>
					<path class="st47" d="M205.49,422.79c-0.29-0.33-4.29-4.81-4.29-4.81l1.17,2.26c0.48,0.23,0.97,0.57,1.29,0.94
						c0.2,0.23,0.35,0.42,0.45,0.56c0.24,0.28,0.38,0.52,0.44,0.76c0.01,0.06,0.08,0.15,0.12,0.23c0.06,0.02,0.13,0.05,0.18,0.04
						c0.1-0.01,0.17-0.06,0.29-0.05c0.04,0,0.08,0.02,0.12,0.04c0.15,0.03,0.29,0.16,0.42,0.29c0.1,0.08,0.2,0.17,0.3,0.27
						c0.1,0.1,0.15,0.13,0.18,0.07c0.03-0.06,0.05-0.13,0.08-0.19C205.86,423.03,205.57,422.88,205.49,422.79z"/>
					<path class="st47" d="M202.2,424.28c-0.03,0.03-0.02,0.07,0.01,0.14C202.18,424.35,202.17,424.3,202.2,424.28z"/>
					<path class="st47" d="M202.59,424.27c-0.01-0.01-0.02-0.01-0.03-0.01c-0.02,0-0.03,0-0.05-0.01c0.02,0,0.03,0,0.05,0.01
						C202.57,424.26,202.58,424.27,202.59,424.27z"/>
					<path class="st47" d="M202.28,422.04c-0.06-0.01-0.13-0.02-0.18-0.01c-0.02,0,0.02,0.08,0.03,0.12
						c0.04,0.02,0.1,0.06,0.11,0.05c0.04-0.02,0.06-0.06,0.08-0.09C202.31,422.08,202.29,422.06,202.28,422.04z"/>
					<path class="st47" d="M199.64,421.12c-0.09-0.08-0.19-0.2-0.22-0.34c0-0.02,0.02-0.02,0.07,0.01
						c-0.01-0.03-0.02-0.05-0.02-0.06c0.02-0.04,0.27,0.17,0.54,0.41c0.01,0.01,0.02,0.02,0.04,0.03c0.06-0.06,0.12-0.12,0.17-0.18
						c-0.72-0.67-2.51-2.31-2.52-2.2c-0.01,0.08,0.85,1.68,1.65,3.16c0.15-0.17,0.3-0.35,0.45-0.51
						C199.74,421.32,199.68,421.21,199.64,421.12z"/>
					<path class="st47" d="M202.33,427.02C202.33,427.02,202.33,427.02,202.33,427.02C202.33,427.02,202.33,427.02,202.33,427.02
						c-0.08-0.11-0.17-0.22-0.25-0.33l-0.04-0.01l0,0c0.01,0,0.02,0.01,0.04,0.01C202.16,426.8,202.25,426.91,202.33,427.02z"/>
					<path class="st47" d="M202.73,424.4c-0.02-0.02-0.04-0.05-0.06-0.07C202.69,424.36,202.72,424.38,202.73,424.4z"/>
					<path class="st54" d="M201.26,422.49c0.03-0.15,0.09-0.28,0.2-0.35c0.05,0,0.09,0,0.12-0.04c0,0,0,0,0.01-0.01
						c0.03-0.01,0.07-0.01,0.11,0c0.1-0.1,0.17-0.19,0.21-0.28c-0.1-0.05-0.2-0.11-0.29-0.14c-0.07-0.02-0.13-0.07-0.19-0.12
						c-0.1,0.13-0.35,0.46-0.51,0.78c-0.12,0.26-0.42,0.66-0.64,0.94c0.05-0.05,0.11-0.09,0.16-0.13
						C200.77,422.89,201.04,422.67,201.26,422.49z"/>
					<path class="st54" d="M200.7,420.88l0.09,0.03c-0.02-0.02-0.04-0.04-0.06-0.07c0,0-0.01-0.01-0.01-0.01
						c-0.04,0.04-0.07,0.07-0.11,0.11C200.67,420.91,200.7,420.88,200.7,420.88z"/>
					<path class="st54" d="M201.65,421.42c-0.12-0.13-0.22-0.23-0.32-0.34c-0.13-0.15-0.25-0.3-0.32-0.44l-0.03-0.03l-0.02,0
						c-0.02,0.02-0.05,0.05-0.08,0.08c0.07,0.13,0.17,0.26,0.29,0.38c0.01,0,0.02,0.01,0.02,0.02
						C201.34,421.22,201.51,421.34,201.65,421.42z"/>
					<path class="st54" d="M200.76,422.1c0.28-0.53,0.45-0.67,0.56-0.69c-0.02-0.03-0.04-0.06-0.06-0.09
						c-0.02-0.02-0.03-0.05-0.05-0.07c-0.08,0.1-0.28,0.35-0.58,0.7c-0.38,0.45-1.37,2.21-1.4,2.26c-0.02,0.04,0.17-0.7,0.8-1.74
						c0.1-0.16,0.21-0.34,0.33-0.51c0.41-0.6,0.62-0.82,0.73-0.89c-0.01-0.02-0.02-0.03-0.03-0.05c-0.06,0.02-0.1,0.03-0.13,0.04
						c0,0,0,0,0,0c-0.22,0.2-0.91,0.82-1.32,1.32c-0.02,0.1-0.03,0.23-0.05,0.36c-0.03,0.28-0.94,1.91-0.94,1.91s0.18-0.37,0.5-1.06
						c0.19-0.4,0.26-0.74,0.29-0.95c-0.51,0.65-1.25,1.69-1.25,1.69s0.17-0.32,0.84-1.46c0.06-0.1,0.13-0.2,0.19-0.3
						c-0.33,0.4-0.59,0.76-0.7,0.99c-0.35,0.76-0.67,0.93-0.16,1.29c0.53,0.38,1.06-0.65,1.78-1.39
						C200.17,423.28,200.35,422.86,200.76,422.1z"/>
					<path class="st54" d="M202.59,425.85c0.01,0.01,0.02,0.02,0.03,0.03c0.01,0.02,0.03,0.04,0.04,0.05c0,0,0.01,0.01,0.01,0.01
						c0,0,0.01,0.01,0.02,0.01c0.01,0,0.02,0.01,0.03,0.01c0,0,0,0,0.01,0c0.01,0,0.01,0,0.02,0.01c0.01,0,0.01,0,0.02,0.01
						c0.01,0,0.01,0.01,0.02,0.01c0.02,0.01,0.05,0.02,0.07,0.03c0.02,0.01,0.04,0.02,0.07,0.03c0.01,0,0.02,0.01,0.02,0.02
						c0.01,0.01,0.03,0.02,0.04,0.03c0.13,0.09,0.12,0.01,0.09-0.09c-0.02-0.06-0.06-0.15-0.06-0.19c0-0.09-0.03-0.18-0.12-0.29
						c-0.04-0.05-0.09-0.1-0.15-0.16c-0.02,0-0.04,0-0.06,0c-0.01,0-0.02,0-0.03,0c-0.05,0-0.11,0-0.18-0.03
						c-0.1-0.05-0.13-0.02-0.13,0.03c0,0.01,0,0.02,0,0.03c0,0.01,0,0.01,0,0.02c0,0.01,0,0.03,0.01,0.04c0,0.01,0,0.02,0,0.03
						c0,0.02,0.01,0.04,0.01,0.06c0,0,0,0,0,0.01c0,0.01,0.01,0.02,0.02,0.03c0.03,0.05,0.07,0.11,0.12,0.16
						c0.01,0.01,0.02,0.02,0.03,0.03c0.02,0.02,0.03,0.04,0.05,0.06C202.58,425.83,202.59,425.84,202.59,425.85z"/>
					<path class="st54" d="M202.43,424.78c0.01,0.01,0.03,0.02,0.04,0.03c0.01,0.01,0.02,0.01,0.03,0.02c0,0,0.01,0,0.01,0
						c0.01,0,0.02,0.01,0.03,0.01c0.01,0,0.01,0.01,0.02,0.01c0,0,0,0,0,0c0,0,0.01,0,0.01,0.01c0.06,0.04,0.12,0.07,0.17,0.1
						c0.03,0.01,0.05,0.02,0.07,0.03c0.01,0,0.01,0,0.02,0.01l0,0c0.01-0.03,0.02-0.05,0.02-0.07c-0.01-0.12-0.02-0.24-0.04-0.36
						c0-0.02-0.02-0.05-0.04-0.08c0,0,0-0.01-0.01-0.01c-0.01-0.02-0.03-0.04-0.04-0.06c-0.02-0.02-0.04-0.05-0.06-0.07
						c-0.03-0.03-0.06-0.05-0.08-0.06c-0.01-0.01-0.02-0.01-0.03-0.01c-0.02,0-0.03,0-0.05-0.01c-0.03,0-0.07-0.01-0.1-0.01
						c-0.04,0-0.07,0-0.1,0c-0.02,0-0.03,0-0.05,0.01c-0.02,0-0.03,0.01-0.05,0.02c-0.01,0-0.01,0.01-0.01,0.01
						c-0.03,0.03-0.02,0.07,0.01,0.14c0,0,0,0,0,0.01c0,0.01,0.01,0.02,0.02,0.04c0.02,0.04,0.04,0.07,0.06,0.11
						c0.02,0.03,0.04,0.07,0.06,0.1C202.38,424.72,202.41,424.76,202.43,424.78z"/>
					<path class="st54" d="M203.08,426.69c-0.05-0.08-0.11-0.13-0.16-0.16c-0.01-0.01-0.02-0.01-0.04-0.02c0,0,0,0,0,0
						c-0.03-0.01-0.06-0.03-0.08-0.04c-0.01,0-0.02-0.01-0.03-0.02c-0.01,0-0.01-0.01-0.02-0.01c-0.07-0.04-0.11-0.04-0.11,0.01
						c0,0.01,0,0.01,0,0.02c0,0.02,0.02,0.06,0.04,0.1c0.04,0.07,0.07,0.14,0.11,0.21c0.02,0.04,0.04,0.07,0.05,0.11
						c0.04,0.08,0.1,0.16,0.16,0.21c0.09,0.07,0.18,0.11,0.23,0.09C203.28,427.14,203.19,426.84,203.08,426.69z"/>
					<path class="st22" d="M201.35,423.33c0.03,0.11,0.05,0.19,0.07,0.27c0,0,0,0.01,0,0.01c0.11,0.03,0.19,0.06,0.31,0.1l0,0
						c-0.15-0.17-0.25-0.29-0.4-0.46l0,0C201.34,423.28,201.35,423.31,201.35,423.33z"/>
					<path class="st22" d="M201.89,425.9c0.01,0,0.03,0,0.04-0.01c0,0,0.01,0,0.01,0c0.01,0,0.03,0,0.04-0.01c0,0,0.01,0,0.01,0
						c0.02,0,0.05-0.01,0.07-0.01c-0.04-0.05-0.08-0.1-0.12-0.14c-0.07-0.08-0.14-0.16-0.22-0.26l0,0c0.01,0.04,0.02,0.08,0.04,0.11
						c0.01,0.02,0.01,0.05,0.02,0.07c0.01,0.02,0.02,0.05,0.02,0.07c0.01,0.02,0.01,0.04,0.02,0.05c0.01,0.02,0.02,0.05,0.02,0.07
						c0.01,0.02,0.01,0.03,0.02,0.05C201.87,425.91,201.88,425.9,201.89,425.9z"/>
					<path class="st22" d="M202.17,426.99c0.01,0.01,0.02,0.02,0.03,0.03c0.01,0,0.01,0.01,0.02,0.01c0.03,0.02,0.07,0.05,0.09,0.06
						l0,0c0.02,0.01,0.03-0.04,0.02-0.07c0,0,0,0,0-0.01c-0.08-0.11-0.17-0.22-0.25-0.33c-0.01,0-0.02-0.01-0.04-0.01l0,0
						c0.01,0.02,0.01,0.05,0.02,0.07c0.01,0.02,0.01,0.05,0.02,0.07c0.01,0.05,0.03,0.09,0.06,0.15c0,0,0.01,0.01,0.01,0.01
						C202.15,426.98,202.16,426.98,202.17,426.99z"/>
					<path class="st22" d="M201.63,424.75c0.03-0.01,0.13,0.01,0.2,0.03c0.04,0.01,0.08,0.02,0.09,0.01c0,0,0,0,0,0
						c-0.11-0.12-0.21-0.24-0.31-0.35c-0.01,0-0.02,0-0.03,0C201.65,424.56,201.55,424.61,201.63,424.75z"/>
					<path class="st54" d="M205.87,423.8c-0.03,0.03,0,0.11,0.07,0.19s0.15,0.13,0.18,0.1c0.03-0.03,0-0.11-0.07-0.19
						S205.9,423.78,205.87,423.8z"/>
					<path class="st54" d="M203.22,427.63c-0.13-0.15-0.24-0.17-0.24-0.17c-0.02,0.02-0.2,0.11-0.14,0.26
						c0.06,0.15,0.34,0.31,0.45,0.27C203.41,427.95,203.35,427.78,203.22,427.63z"/>
				</g>
				<g>
					<path class="st47" d="M200.29,423.27c0.05-0.05,0.11-0.09,0.16-0.13c0.02-0.01,0.04-0.03,0.05-0.04
						c-0.01-0.02-0.02-0.04-0.03-0.07C200.41,423.11,200.35,423.2,200.29,423.27z"/>
					<path class="st47" d="M201.32,421.41c-0.02-0.03-0.04-0.06-0.06-0.09c-0.02-0.02-0.03-0.05-0.05-0.07
						c-0.07,0.09-0.26,0.32-0.53,0.64c0.04,0.04,0.08,0.08,0.13,0.12C201.06,421.56,201.22,421.43,201.32,421.41z"/>
					<path class="st47" d="M199.62,421.11c-0.09-0.08-0.18-0.19-0.21-0.33c0-0.02,0.02-0.02,0.07,0.01
						c-0.01-0.03-0.02-0.05-0.02-0.06c0.02-0.04,0.27,0.17,0.54,0.41c0.01,0.01,0.02,0.02,0.04,0.03c0.06-0.06,0.12-0.12,0.17-0.18
						c-0.72-0.67-2.51-2.31-2.52-2.2c-0.01,0.08,0.85,1.68,1.65,3.16c0.14-0.17,0.29-0.33,0.44-0.49
						C199.72,421.32,199.67,421.21,199.62,421.11z"/>
					<path class="st47" d="M201.22,422.97c0-0.01,0.01-0.02,0.02-0.02c0.02-0.01,0.04-0.03,0.04-0.06
						c-0.09,0.07-0.19,0.15-0.29,0.23c0.13,0.25,0.26,0.5,0.38,0.74c-0.04-0.26-0.1-0.54-0.13-0.8
						C201.22,423.03,201.22,423,201.22,422.97z"/>
					<path class="st47" d="M201.43,423.62c0.11,0.03,0.19,0.06,0.31,0.1l-0.4-0.46l0,0c0.01,0.03,0.01,0.05,0.02,0.08
						c0.03,0.11,0.05,0.19,0.07,0.27C201.42,423.61,201.43,423.61,201.43,423.62z"/>
					<path class="st47" d="M201.2,421.07c0.15,0.14,0.31,0.26,0.45,0.34c-0.12-0.13-0.22-0.23-0.32-0.34
						c-0.13-0.15-0.25-0.3-0.32-0.44l-0.03-0.03l-0.02,0c-0.02,0.02-0.05,0.05-0.08,0.08c0.07,0.13,0.17,0.26,0.29,0.38
						C201.18,421.06,201.19,421.07,201.2,421.07z"/>
					<path class="st47" d="M200.7,420.88l0.09,0.03c-0.02-0.02-0.04-0.04-0.06-0.07c0,0-0.01-0.01-0.01-0.01
						c-0.04,0.04-0.07,0.07-0.11,0.11C200.67,420.91,200.7,420.88,200.7,420.88z"/>
					<path class="st47" d="M202,425.8c0.01,0.03,0.02,0.06,0.03,0.08c0.01,0,0.03,0,0.04-0.01
						C202.04,425.85,202.02,425.83,202,425.8z"/>
					<path class="st47" d="M200.34,421.98c0.01-0.01,0.01-0.02,0.02-0.03c0.01-0.01,0.01-0.02,0.02-0.02
						c-0.07-0.07-0.12-0.12-0.12-0.13C200.23,421.75,200.27,421.83,200.34,421.98z"/>
					<path class="st47" d="M200.51,421.74c0.31-0.44,0.48-0.61,0.58-0.67c-0.01-0.02-0.02-0.03-0.03-0.05
						c-0.06,0.02-0.1,0.03-0.13,0.04c0,0,0,0,0,0c-0.11,0.1-0.33,0.29-0.57,0.53C200.41,421.64,200.46,421.69,200.51,421.74z"/>
					<path class="st47" d="M200.69,422.24c-0.06-0.05-0.11-0.11-0.16-0.15c-0.03,0.04-0.05,0.07-0.08,0.12
						c0.04,0.08,0.08,0.16,0.12,0.25C200.61,422.39,200.65,422.31,200.69,422.24z"/>
					<path class="st47" d="M200.25,422.51c-0.44,0.69-0.99,1.67-1.01,1.7c-0.02,0.04,0.17-0.7,0.8-1.74
						c0.04-0.06,0.07-0.12,0.11-0.18c-0.05-0.12-0.1-0.23-0.15-0.34c-0.14,0.15-0.27,0.29-0.39,0.43c-0.02,0.1-0.03,0.23-0.05,0.36
						c-0.03,0.28-0.94,1.91-0.94,1.91s0.18-0.37,0.5-1.06c0.19-0.4,0.26-0.74,0.29-0.95c-0.51,0.65-1.25,1.69-1.25,1.69
						s0.17-0.32,0.84-1.46c0.06-0.1,0.13-0.2,0.19-0.3c-0.33,0.4-0.59,0.76-0.7,0.99c-0.35,0.76-0.67,0.93-0.16,1.29
						c0.53,0.38,1.06-0.65,1.78-1.39c0.04-0.11,0.13-0.31,0.29-0.63C200.34,422.72,200.29,422.61,200.25,422.51z"/>
					<path class="st47" d="M205.25,423.9l0.55,0.66c-0.01-0.04-0.01-0.09-0.01-0.12c-0.09-0.09-0.19-0.19-0.28-0.28
						C205.43,424.07,205.34,423.98,205.25,423.9z"/>
					<path class="st47" d="M205.87,423.8c-0.03,0.03,0,0.11,0.07,0.19s0.15,0.13,0.18,0.1c0.03-0.03,0-0.11-0.07-0.19
						S205.9,423.78,205.87,423.8z"/>
					<path class="st47" d="M202.13,422.14c0.04,0.02,0.1,0.06,0.11,0.05c0.04-0.02,0.06-0.06,0.08-0.09
						c-0.02-0.02-0.03-0.04-0.05-0.07c-0.06-0.01-0.13-0.02-0.18-0.01C202.08,422.03,202.12,422.1,202.13,422.14z"/>
					<path class="st47" d="M201.62,421.67c-0.07-0.02-0.13-0.07-0.19-0.12c-0.09,0.11-0.29,0.37-0.44,0.65
						c0.09,0.09,0.18,0.18,0.27,0.26c0.04-0.14,0.09-0.26,0.2-0.33c0.05,0,0.09,0,0.12-0.04c0,0,0,0,0.01-0.01
						c0.03-0.01,0.07-0.01,0.11,0c0.1-0.1,0.17-0.19,0.21-0.28C201.81,421.76,201.71,421.7,201.62,421.67z"/>
					<path class="st47" d="M205.49,422.79c-0.29-0.33-4.29-4.81-4.29-4.81l1.17,2.26c0.48,0.23,0.97,0.57,1.29,0.94
						c0.2,0.23,0.35,0.42,0.45,0.56c0.24,0.28,0.38,0.52,0.44,0.76c0.01,0.06,0.08,0.15,0.12,0.23c0.06,0.02,0.13,0.05,0.18,0.04
						c0.1-0.01,0.17-0.06,0.29-0.05c0.04,0,0.08,0.02,0.12,0.04c0.15,0.03,0.29,0.16,0.42,0.29c0.1,0.08,0.2,0.17,0.3,0.27
						c0.1,0.1,0.15,0.13,0.18,0.07c0.03-0.06,0.05-0.13,0.08-0.19C205.86,423.03,205.57,422.88,205.49,422.79z"/>
					<path class="st47" d="M202.2,427.02c0.01,0,0.01,0.01,0.02,0.01c0.02,0.01,0.03,0.02,0.05,0.03c-0.04-0.1-0.09-0.2-0.14-0.31
						c-0.02-0.02-0.04-0.05-0.05-0.07l-0.04-0.01l0,0c0.01,0.02,0.01,0.05,0.02,0.07c0.01,0.02,0.01,0.05,0.02,0.07
						c0.01,0.05,0.03,0.09,0.06,0.15c0,0,0.01,0.01,0.01,0.01c0.01,0.01,0.01,0.01,0.02,0.02C202.18,427,202.19,427.01,202.2,427.02
						z"/>
					<path class="st47" d="M201.85,424.82c0.03-0.01,0.05-0.02,0.08-0.02c0,0,0,0,0,0c-0.11-0.12-0.21-0.24-0.31-0.35
						c-0.01,0-0.02,0-0.03,0c0.07,0.12-0.04,0.17,0.04,0.31c0.03-0.01,0.13,0.01,0.2,0.03C201.83,424.79,201.84,424.8,201.85,424.82
						z"/>
					<path class="st47" d="M202.89,426.5C202.89,426.5,202.89,426.5,202.89,426.5c-0.03-0.02-0.06-0.03-0.08-0.04
						c-0.01,0-0.02-0.01-0.03-0.02c-0.01,0-0.01-0.01-0.02-0.01c-0.07-0.04-0.11-0.04-0.11,0.01c0,0.01,0,0.01,0,0.02
						c0,0.02,0.02,0.06,0.04,0.1c0.04,0.07,0.07,0.14,0.11,0.21c0.02,0.04,0.04,0.07,0.05,0.11c0.04,0.08,0.1,0.16,0.16,0.21
						c0.09,0.07,0.18,0.11,0.23,0.09c0.05-0.03-0.05-0.33-0.15-0.49c-0.05-0.08-0.11-0.13-0.16-0.16
						C202.92,426.51,202.91,426.51,202.89,426.5z"/>
					<path class="st47" d="M202.98,427.46c-0.02,0.02-0.2,0.11-0.14,0.26c0.06,0.15,0.34,0.31,0.45,0.27
						c0.12-0.04,0.06-0.22-0.07-0.36C203.09,427.48,202.98,427.46,202.98,427.46z"/>
					<path class="st47" d="M202.59,424.27c-0.01-0.01-0.02-0.01-0.03-0.01c-0.02,0-0.03,0-0.05-0.01c-0.03,0-0.07-0.01-0.1-0.01
						c-0.04,0-0.07,0-0.1,0c-0.02,0-0.03,0-0.05,0.01c-0.02,0-0.03,0.01-0.05,0.02c-0.01,0-0.01,0.01-0.01,0.01
						c-0.03,0.03-0.02,0.07,0.01,0.14c0,0,0,0,0,0.01c0,0.01,0.01,0.02,0.02,0.04c0.02,0.04,0.04,0.07,0.06,0.11
						c0.02,0.03,0.04,0.07,0.06,0.1c0.03,0.05,0.06,0.08,0.08,0.1c0.01,0.01,0.03,0.02,0.04,0.03c0.01,0.01,0.02,0.01,0.03,0.02
						c0,0,0.01,0,0.01,0c0.01,0,0.02,0.01,0.03,0.01c0.01,0,0.01,0.01,0.02,0.01c0,0,0,0,0,0c0,0,0.01,0,0.01,0.01
						c0.06,0.04,0.12,0.07,0.17,0.1c0.03,0.01,0.05,0.02,0.07,0.03c0.01,0,0.01,0,0.02,0.01c0.01-0.03,0.02-0.05,0.02-0.07
						c-0.01-0.12-0.02-0.24-0.04-0.36c0-0.02-0.02-0.05-0.04-0.08c0,0,0-0.01-0.01-0.01c-0.01-0.02-0.03-0.04-0.04-0.06
						c-0.02-0.02-0.04-0.05-0.06-0.07C202.65,424.31,202.62,424.29,202.59,424.27z"/>
					<path class="st47" d="M200.7,422.71c0.03,0.05,0.05,0.11,0.08,0.17c0.11-0.09,0.22-0.17,0.31-0.25
						c-0.07-0.07-0.15-0.14-0.21-0.2C200.83,422.51,200.77,422.61,200.7,422.71z"/>
					<path class="st47" d="M202.67,425.36c-0.01,0-0.02,0-0.03,0c-0.05,0-0.11,0-0.18-0.03c-0.1-0.05-0.13-0.02-0.13,0.03
						c0,0.01,0,0.02,0,0.03c0,0.01,0,0.01,0,0.02c0,0.01,0,0.03,0.01,0.04c0,0.01,0,0.02,0,0.03c0,0.02,0.01,0.04,0.01,0.06
						c0,0,0,0,0,0.01c0,0.01,0.01,0.02,0.02,0.03c0.03,0.05,0.07,0.11,0.12,0.16c0.01,0.01,0.02,0.02,0.03,0.03
						c0.02,0.02,0.03,0.04,0.05,0.06c0.01,0.01,0.02,0.02,0.02,0.03c0.01,0.01,0.02,0.02,0.03,0.03c0.01,0.02,0.03,0.04,0.04,0.05
						c0,0,0.01,0.01,0.01,0.01c0,0,0.01,0.01,0.02,0.01c0.01,0,0.02,0.01,0.03,0.01c0,0,0,0,0.01,0c0.01,0,0.01,0,0.02,0.01
						c0.01,0,0.01,0,0.02,0.01c0.01,0,0.01,0.01,0.02,0.01c0.02,0.01,0.05,0.02,0.07,0.03c0.02,0.01,0.04,0.02,0.07,0.03
						c0.01,0,0.02,0.01,0.02,0.02c0.01,0.01,0.03,0.02,0.04,0.03c0.13,0.09,0.12,0.01,0.09-0.09c-0.02-0.06-0.06-0.15-0.06-0.19
						c0-0.09-0.03-0.18-0.12-0.29c-0.04-0.05-0.09-0.1-0.15-0.16C202.72,425.36,202.7,425.36,202.67,425.36z"/>
					<path class="st49" d="M210.12,423.89c-0.2,0.1-0.62,0.07-0.94,0.08c-0.22,0.01-1.69-0.54-2.67-0.92l0.24,0.01l-0.28-0.05
						c0.03-0.09,0.05-0.19,0.08-0.28l0.3,0.01l-0.29-0.05c0.03-0.09,0.06-0.18,0.09-0.27l0.3,0.01l-0.29-0.05
						c0.03-0.09,0.06-0.18,0.09-0.27l0.3,0.01l-0.29-0.05c0.03-0.09,0.06-0.18,0.08-0.27l0.31,0.01l-0.3-0.05
						c0.04-0.15,0.08-0.31,0.11-0.48c-0.06,0.15-0.12,0.31-0.17,0.47l-0.1-0.34c0.01,0.05,0.02,0.16,0.05,0.28
						c0.02,0.06,0.03,0.11,0.03,0.11l0,0c-0.03,0.08-0.06,0.17-0.09,0.25l-0.1-0.32c0.01,0.05,0.02,0.16,0.05,0.28
						c0.01,0.05,0.02,0.09,0.03,0.1c-0.03,0.08-0.06,0.16-0.09,0.24l-0.09-0.31c0.01,0.05,0.02,0.16,0.05,0.28
						c0.01,0.04,0.02,0.07,0.02,0.08c-0.03,0.08-0.06,0.16-0.09,0.23l-0.09-0.28c0.01,0.05,0.02,0.16,0.05,0.28
						c0.01,0.02,0.01,0.04,0.02,0.06c-0.03,0.08-0.06,0.15-0.09,0.23l-0.08-0.25c0.01,0.05,0.02,0.16,0.05,0.28
						c0,0.01,0,0.01,0.01,0.02c0,0.01-0.01,0.01-0.01,0.02c-0.39-0.16-0.67-0.27-0.71-0.3c-0.12-0.09-4.78-5.35-4.78-5.35
						s-0.19-0.16-0.29-0.14c-0.08,0.02,1,2.01,1.47,2.89c-0.41-0.15-0.76-0.2-0.92-0.08c-0.06,0.05-0.11,0.09-0.14,0.14
						c-0.5-0.51-1.91-1.95-2.18-2.24c-0.34-0.36-0.74-0.84-0.75-0.71c-0.01,0.13,0.28,0.46,0.43,0.6c0.11,0.11,1.73,1.83,2.4,2.54
						c0,0.01-0.01,0.03-0.01,0.04c-0.11,0.1-0.26,0.25-0.45,0.45l-3.02-2.64c0,0-0.39-0.31-0.43-0.21c-0.02,0.06,1.24,2.37,2.23,4.2
						c-0.44,0.53-0.82,1.05-0.92,1.37c-0.28,0.87-0.71,1-0.06,1.51c0.65,0.51,1.21-0.42,1.91-1.16c0.16,0.3,0.26,0.49,0.26,0.51
						c0.01,0.12-1.45,1.64-1.45,1.64s-2.33-0.03-2.68-0.12c-0.35-0.09-1.93-0.68-1.93-0.68s2.03,0.85,2.32,0.93
						c0.29,0.08,2.62,0.17,2.72,0.03c0.09-0.14,1.49-1.43,1.35-1.75c-0.03-0.07-0.18-0.35-0.39-0.75c0.08-0.08,0.17-0.15,0.25-0.22
						c0.04-0.03,0.07-0.05,0.1-0.08c0.38,0.85,0.79,1.78,1.15,2.58c0.06,0.22,0.12,0.44,0.19,0.67c0.09,0.29,0.2,0.59,0.31,0.9
						c0.01,0.03,0.02,0.05,0.03,0.08c-0.01,0.03-0.03,0.07-0.05,0.11c-0.05,0.08-0.08,0.16-0.11,0.22
						c-0.07,0.04-0.09,0.09-0.06,0.17c0,0,0,0.01,0,0.01s0,0,0.01,0.01c0.02,0.04,0.05,0.09,0.09,0.15c0.21,0.27,0.5,0.48,0.64,0.45
						c-0.02-0.02-0.04-0.04-0.06-0.05c0.03,0,0.05,0,0.08-0.01c0.23,0.84,0.39,1.59,0.38,1.95c-0.02,1.03-0.28,2.64-0.74,3.34
						c-0.18,0.28-0.44,0.56-0.68,0.79c0.04,0.09,0.09,0.19,0.13,0.28c0.31-0.21,0.66-0.57,0.98-1.17c0.18-0.34,0.81-2.95,0.59-3.72
						c-0.07-0.26-0.25-0.87-0.46-1.59c0.1-0.1,0.19-0.24,0.29-0.33c0,0,0.01-0.01,0.01-0.01c0.01,0,0.02-0.01,0.03-0.01
						c0.11,0.01,0.52-0.03,0.44-1.18c-0.06-0.92-0.31-1.79-0.55-2.36c1.24,1.24,2.61,2.6,3.04,2.97c0.7,0.89,3.62,4.55,3.62,4.55
						s1.46,1.83,1.95,2.56c0.49,0.73,1.39,2.08,1.38,1.9c-0.01-0.18-2.97-4.19-3.36-4.7s-3.28-4.25-3.28-4.25l-0.02-0.01
						c0.02-0.02,0.01-0.06-0.1-0.16c-0.14-0.14-2-1.94-3.49-3.39c-0.01-0.01-0.02-0.03-0.03-0.04c0,0,0.25,0.25,0.6,0.5
						c0.09,0.08,0.17,0.13,0.24,0.16c0.05,0.03,0.1,0.06,0.15,0.09c0.04,0.03,0.06,0.04,0.07,0.05c0.01,0,0.01,0,0.01,0
						c0.32,0.17,0.66,0.26,0.91,0.14c0.05-0.02,0.09-0.06,0.12-0.1c0.02-0.01,0.03-0.02,0.03-0.05c0.01-0.01,0.01-0.03,0.02-0.04
						c0.03-0.02,0.05-0.07,0.02-0.17c0-0.01-0.01-0.03-0.02-0.05c-0.05-0.35-0.34-0.82-0.58-1.1c0.01-0.03,0.05-0.03,0.09-0.02
						c0.01-0.01,0.03-0.01,0.05,0c0.85,1.05,2.8,3.45,3.01,3.68c0.26,0.29,4.09,3.01,4.4,3.26c0.31,0.25,3.38,2.34,3.38,2.34
						l0.02-0.14l-3.53-2.4l-3.99-3.03l-1.67-2.02c0.46,0.17,1.32,0.46,2.03,0.96c0.95,0.67,3.62,2.89,3.62,2.89
						s-0.12-0.22-0.23-0.32c-0.11-0.1-3.4-2.83-3.74-3.05c-0.34-0.22-1.8-0.67-1.8-0.67l-0.05-0.25c0.01,0.01,0.03,0.02,0.04,0.03
						c0.1,0.02,0.2,0.04,0.29,0.05c0.07,0.01,0.11-0.02,0.17-0.04c0.02,0,0.03-0.02,0.05-0.01c0.07,0.04,0.15,0.09,0.22,0.13
						c0,0,0,0,0,0c0.01,0,0.04,0.02,0.05,0.04c0.12,0.08,0.25,0.18,0.38,0.28c0.14,0.08,0.28,0.17,0.42,0.24
						c0.05,0.02,0.09,0.04,0.13,0.05c-0.06-0.12-0.16-0.17-0.24-0.22c-0.11-0.07-0.21-0.12-0.32-0.19c-0.1-0.07-0.21-0.16-0.32-0.23
						l-0.02-0.06c0.14,0.07,0.28,0.12,0.42,0.2c0.37,0.21,0.37,0.21,0.4,0.16c-0.26-0.14-0.5-0.28-0.73-0.4
						c-0.08-0.04-0.13-0.05-0.2-0.17c-0.07-0.13-0.16-0.25-0.25-0.41c0.1,0.03,0.21,0.07,0.32,0.11l0.42,0.33l-0.36-0.31
						c0.15,0.06,0.31,0.11,0.47,0.17l0.35,0.28l-0.3-0.26c0.09,0.03,0.18,0.07,0.27,0.11l0.49,0.38l-0.42-0.35
						c0.13,0.05,0.26,0.1,0.39,0.15l0.48,0.38l-0.42-0.35c0.15,0.05,0.3,0.1,0.44,0.14l0.46,0.36l-0.41-0.35
						c0.21,0.06,0.41,0.1,0.6,0.12c-0.23-0.05-0.45-0.12-0.68-0.2l0.17-0.09c-0.04,0.01-0.13,0.01-0.19,0.04
						c-0.03,0.01-0.06,0.03-0.06,0.03c-0.12-0.04-0.24-0.09-0.37-0.14l0.13-0.07c-0.04,0.01-0.13,0.01-0.19,0.04
						c-0.01,0-0.01,0-0.01,0.01c-0.12-0.05-0.24-0.1-0.36-0.15l0.11-0.06c-0.03,0-0.12,0.01-0.18,0.03
						c-0.14-0.06-0.28-0.12-0.42-0.18l0.15-0.08c-0.04,0.01-0.13,0.01-0.19,0.04c-0.01,0.01-0.02,0.01-0.03,0.01
						c-0.11-0.05-0.22-0.09-0.33-0.14l0.1-0.05c-0.03,0-0.11,0.01-0.17,0.03c-0.12-0.05-0.25-0.1-0.38-0.15
						c-0.05-0.17-0.27-0.35-0.27-0.44c0.01-0.13,0.06-0.22,0.11-0.31c0.94,0.39,2.29,0.84,2.58,0.9c0.42,0.09,1.13,0.08,1.32-0.08
						c0.18-0.15,0.23-0.95,0.24-1.02S210.32,423.79,210.12,423.89z M202.15,426.97c0-0.01-0.01-0.01-0.01-0.01
						c-0.02-0.05-0.04-0.1-0.06-0.15c-0.01-0.02-0.01-0.05-0.02-0.07c-0.01-0.02-0.01-0.05-0.02-0.07l0.04,0.01
						c0.02,0.02,0.04,0.05,0.05,0.07c0.05,0.11,0.09,0.21,0.14,0.31c-0.02-0.01-0.03-0.02-0.05-0.03c-0.01,0-0.01-0.01-0.02-0.01
						c-0.01-0.01-0.02-0.02-0.03-0.03C202.16,426.98,202.15,426.98,202.15,426.97z M203.29,427.99c-0.12,0.04-0.4-0.12-0.45-0.27
						c-0.06-0.15,0.12-0.24,0.14-0.26c0,0,0.11,0.02,0.24,0.17C203.35,427.78,203.41,427.95,203.29,427.99z M200.89,420.68
						c0.03-0.03,0.05-0.05,0.08-0.08l0.02,0l0.03,0.03c0.07,0.14,0.19,0.29,0.32,0.44c0.1,0.11,0.2,0.22,0.32,0.34
						c-0.14-0.08-0.31-0.2-0.45-0.34c0-0.01-0.01-0.02-0.02-0.02C201.06,420.94,200.95,420.81,200.89,420.68z M200.73,420.84
						c0,0,0.01,0.01,0.01,0.01c0.02,0.02,0.04,0.04,0.06,0.07l-0.09-0.03c0,0-0.03,0.02-0.09,0.07
						C200.66,420.91,200.69,420.87,200.73,420.84z M197.69,418.79c0.02-0.11,1.8,1.53,2.52,2.2c-0.06,0.06-0.11,0.12-0.17,0.18
						c-0.01-0.01-0.02-0.02-0.04-0.03c-0.26-0.24-0.52-0.45-0.54-0.41c0,0.01,0,0.03,0.02,0.06c-0.05-0.03-0.08-0.03-0.07-0.01
						c0.03,0.13,0.12,0.25,0.21,0.33c0.04,0.1,0.09,0.21,0.15,0.35c-0.14,0.16-0.29,0.33-0.44,0.49
						C198.54,420.47,197.68,418.87,197.69,418.79z M201.36,423.86c-0.12-0.24-0.25-0.49-0.38-0.74c0.1-0.08,0.2-0.16,0.29-0.23
						c-0.01,0.03-0.02,0.05-0.04,0.06c-0.01,0-0.01,0.01-0.02,0.02c0,0.03,0.01,0.06,0.01,0.09
						C201.27,423.32,201.32,423.6,201.36,423.86z M201.34,423.26l0.4,0.46c-0.13-0.04-0.21-0.07-0.31-0.1c0,0,0-0.01,0-0.01
						c-0.02-0.09-0.04-0.17-0.07-0.27C201.35,423.31,201.34,423.28,201.34,423.26z M200.78,422.88c-0.03-0.06-0.06-0.11-0.08-0.17
						c0.07-0.1,0.13-0.2,0.18-0.29c0.07,0.06,0.14,0.13,0.21,0.2C201,422.7,200.89,422.79,200.78,422.88z M200.38,421.93
						c-0.01,0.01-0.01,0.02-0.02,0.02c-0.01,0.01-0.01,0.02-0.02,0.03c-0.08-0.16-0.11-0.23-0.09-0.18
						C200.26,421.81,200.31,421.86,200.38,421.93z M200.53,422.09c0.05,0.05,0.1,0.1,0.16,0.15c-0.04,0.08-0.08,0.15-0.11,0.22
						c-0.05-0.09-0.09-0.18-0.12-0.25C200.48,422.16,200.51,422.12,200.53,422.09z M198.32,424.84c-0.51-0.36-0.18-0.53,0.16-1.29
						c0.1-0.23,0.37-0.59,0.7-0.99c-0.06,0.1-0.13,0.2-0.19,0.3c-0.67,1.13-0.84,1.46-0.84,1.46s0.74-1.04,1.25-1.69
						c-0.03,0.21-0.1,0.54-0.29,0.95c-0.32,0.69-0.5,1.06-0.5,1.06s0.91-1.62,0.94-1.91c0.02-0.13,0.03-0.26,0.05-0.36
						c0.11-0.14,0.25-0.28,0.39-0.43c0.05,0.11,0.1,0.22,0.15,0.34c-0.04,0.06-0.08,0.12-0.11,0.18c-0.62,1.04-0.82,1.78-0.8,1.74
						c0.02-0.04,0.57-1.01,1.01-1.7c0.05,0.1,0.09,0.21,0.14,0.32c-0.16,0.32-0.24,0.52-0.29,0.63
						C199.39,424.19,198.86,425.22,198.32,424.84z M200.29,423.27c0.06-0.07,0.12-0.16,0.18-0.24c0.01,0.02,0.02,0.04,0.03,0.07
						c-0.02,0.01-0.04,0.03-0.05,0.04C200.4,423.18,200.34,423.22,200.29,423.27z M203.08,426.69c0.1,0.15,0.2,0.46,0.15,0.49
						c-0.04,0.02-0.14-0.02-0.23-0.09c-0.06-0.05-0.12-0.12-0.16-0.21c-0.02-0.03-0.03-0.07-0.05-0.11
						c-0.03-0.07-0.07-0.14-0.11-0.21c-0.02-0.04-0.04-0.08-0.04-0.1c0-0.01,0-0.01,0-0.02c0-0.04,0.04-0.05,0.11-0.01
						c0.01,0,0.01,0.01,0.02,0.01c0.01,0.01,0.02,0.01,0.03,0.02c0.03,0.01,0.05,0.02,0.08,0.04l0,0c0.01,0.01,0.02,0.01,0.04,0.02
						C202.98,426.56,203.03,426.6,203.08,426.69z M202.89,425.52c0.09,0.11,0.12,0.2,0.12,0.29c0,0.05,0.04,0.13,0.06,0.19
						c0.03,0.1,0.03,0.18-0.09,0.09c-0.01-0.01-0.02-0.02-0.04-0.03c-0.01-0.01-0.02-0.01-0.02-0.02c-0.02-0.01-0.04-0.02-0.07-0.03
						c-0.02-0.01-0.04-0.02-0.07-0.03c-0.01,0-0.01-0.01-0.02-0.01c-0.01,0-0.01,0-0.02-0.01c-0.01,0-0.01,0-0.02-0.01
						c0,0,0,0-0.01,0c-0.01,0-0.02-0.01-0.03-0.01c-0.01,0-0.01-0.01-0.02-0.01c0,0-0.01-0.01-0.01-0.01
						c-0.01-0.02-0.03-0.04-0.04-0.05c-0.01-0.01-0.02-0.02-0.03-0.03c-0.01-0.01-0.02-0.02-0.02-0.03
						c-0.02-0.02-0.03-0.04-0.05-0.06c-0.01-0.01-0.02-0.02-0.03-0.03c-0.05-0.05-0.09-0.11-0.12-0.16
						c-0.01-0.01-0.01-0.02-0.02-0.03c0,0,0,0,0-0.01c-0.01-0.02-0.01-0.04-0.01-0.06c0-0.01,0-0.02,0-0.03c0-0.01,0-0.03-0.01-0.04
						c0-0.01,0-0.01,0-0.02c0-0.01,0-0.02,0-0.03c0-0.05,0.03-0.07,0.13-0.03c0.07,0.03,0.13,0.03,0.18,0.03c0.01,0,0.02,0,0.03,0
						c0.02,0,0.04,0,0.06,0C202.8,425.42,202.85,425.47,202.89,425.52z M202.78,424.46C202.78,424.46,202.78,424.47,202.78,424.46
						c0.02,0.04,0.04,0.07,0.04,0.09c0.02,0.12,0.03,0.24,0.04,0.36c0,0.02-0.01,0.04-0.02,0.07c-0.01,0-0.01,0-0.02-0.01
						c-0.02-0.01-0.05-0.01-0.07-0.03c-0.06-0.03-0.11-0.06-0.17-0.1c0,0-0.01,0-0.01-0.01c0,0,0,0,0,0c-0.01,0-0.01-0.01-0.02-0.01
						c-0.01,0-0.02-0.01-0.03-0.01c0,0-0.01,0-0.01,0c-0.01,0-0.02-0.01-0.03-0.02c-0.01-0.01-0.03-0.02-0.04-0.03
						c-0.02-0.02-0.05-0.05-0.08-0.1c-0.02-0.03-0.04-0.07-0.06-0.1c-0.02-0.04-0.04-0.08-0.06-0.11c-0.01-0.01-0.01-0.02-0.02-0.04
						c0,0,0,0,0-0.01c-0.03-0.06-0.03-0.11-0.01-0.14c0,0,0.01-0.01,0.01-0.01c0.01-0.01,0.03-0.01,0.05-0.02
						c0.02,0,0.03-0.01,0.05-0.01c0.03,0,0.07,0,0.1,0c0.03,0,0.06,0.01,0.1,0.01c0.02,0,0.03,0,0.05,0.01
						c0.01,0,0.02,0.01,0.03,0.01c0.02,0.01,0.05,0.04,0.08,0.06c0.02,0.02,0.04,0.04,0.06,0.07
						C202.75,424.42,202.77,424.44,202.78,424.46z M200.35,421.59c0.24-0.23,0.46-0.43,0.57-0.53c0,0,0,0,0,0
						c0.03-0.01,0.07-0.02,0.13-0.04c0.01,0.02,0.02,0.03,0.03,0.05c-0.09,0.05-0.26,0.23-0.58,0.67
						C200.46,421.69,200.41,421.64,200.35,421.59z M200.68,421.9c0.27-0.32,0.45-0.55,0.53-0.64c0.02,0.02,0.03,0.05,0.05,0.07
						c0.02,0.03,0.04,0.06,0.06,0.09c-0.1,0.02-0.25,0.15-0.51,0.61C200.76,421.98,200.72,421.94,200.68,421.9z M201.58,422.09
						C201.58,422.09,201.58,422.09,201.58,422.09c-0.03,0.05-0.07,0.05-0.12,0.05c-0.1,0.07-0.16,0.19-0.2,0.33
						c-0.09-0.09-0.18-0.18-0.27-0.26c0.15-0.28,0.35-0.54,0.44-0.65c0.06,0.06,0.12,0.1,0.19,0.12c0.09,0.03,0.19,0.09,0.29,0.14
						c-0.04,0.08-0.11,0.17-0.21,0.28C201.66,422.08,201.62,422.08,201.58,422.09z M202.32,422.1c-0.03,0.03-0.04,0.07-0.08,0.09
						c-0.02,0.01-0.07-0.03-0.11-0.05c-0.01-0.04-0.05-0.11-0.03-0.12c0.05-0.01,0.12,0.01,0.18,0.01L202.32,422.1z M205.8,424.56
						l-0.55-0.66c0.09,0.08,0.18,0.17,0.26,0.26c0.09,0.09,0.18,0.19,0.28,0.28C205.8,424.48,205.8,424.52,205.8,424.56z
						 M206.12,424.1c-0.03,0.03-0.11-0.02-0.18-0.1c-0.07-0.08-0.1-0.17-0.07-0.19c0.03-0.03,0.11,0.02,0.18,0.1
						C206.12,423.98,206.15,424.07,206.12,424.1z M206.15,423.38c-0.02,0.06-0.07,0.03-0.18-0.07c-0.1-0.1-0.2-0.19-0.3-0.27
						c-0.12-0.14-0.27-0.27-0.42-0.29c-0.04-0.02-0.08-0.04-0.12-0.04c-0.11-0.01-0.19,0.04-0.29,0.05c-0.05,0-0.12-0.03-0.18-0.04
						c-0.04-0.08-0.11-0.17-0.12-0.23c-0.06-0.24-0.2-0.49-0.44-0.76c-0.11-0.14-0.25-0.32-0.45-0.56
						c-0.32-0.37-0.81-0.71-1.29-0.94l-1.17-2.26c0,0,4,4.48,4.29,4.81c0.08,0.09,0.37,0.24,0.75,0.4
						C206.21,423.25,206.18,423.32,206.15,423.38z"/>
				</g>
				<path class="st53" d="M192.98,420.78c0.2,0.18,23.58,11.15,23.58,11.15l0.81,2.57l-23.14-10.71"/>
			</g>
			<g>
				<path class="st43" d="M231.27,390.11c0,0,8.16,5.52,3.5,22.76c-3.86,14.28-16.34,18.44-16.34,18.44"/>
				<path class="st45" d="M112.99,455.06c5.79,0.67,12.11,2.58,15.85,2.46c3.74-0.11,44.39-16.96,49.17-20.28
					c4.78-3.31,19.94-24.26,19.94-24.26l28.27,5.5c0,0-17.27,20.31-29.97,30.88s-75.97,24.42-75.97,24.42s-9.15,6.88-14.12,6.52
					c-3.96-0.29,5.4-7.83,7.89-9.75c-2.38,1.73-13.03,8.11-14.38,5.58c-1.72-3.23,11.67-10.4,11.67-10.4s-13.73,8.78-15.85,6.69
					c-2.22-2.19,13.9-12.06,13.9-12.06s-14.71,9.43-17.14,6.96C89.83,464.87,107.2,454.39,112.99,455.06z"/>
				<path class="st22" d="M232.51,390.73c0,0-14.09-12.57-22.49-2.41c-5.07,6.13-16.63,27.4-16.63,27.4l1.74,1.55
					c4.38,1.25,8.41,3.38,11.84,6.38c3.79,3.31,6.8,7.37,9.47,11.57c2.2-2.8,11.14-14.6,15.45-24.14
					C237.84,397.89,232.51,390.73,232.51,390.73z"/>
			</g>
		</g>
		<path class="st22" d="M242.44,393.05c-16.1-12.77-31.21-15.64-39.76-16.09c0.31,0.76,0.28,1.58,0.1,2.38
			c8.7,0.62,23.27,3.75,38.74,16.03c20.34,16.14,36.19,49.93,41.11,61.24c3.25-3.1,4.37-5.5,4.37-5.5S267.08,412.61,242.44,393.05z"
			/>
	</g>
</g>
<g>
	<rect x="272.16" y="231.22" class="st55" width="8.39" height="33.67"/>
	<path class="st56" d="M278.75,243.15h-11.29c-0.78,0-1.41-0.64-1.41-1.41v0c0-0.78,0.64-1.41,1.41-1.41h11.29
		c0.78,0,1.41,0.64,1.41,1.41v0C280.16,242.51,279.52,243.15,278.75,243.15z"/>
	<path class="st57" d="M276.16,256.79L276.16,256.79c-0.39,0-0.71-0.32-0.71-0.71v-2.35c0-0.39,0.32-0.71,0.71-0.71l0,0
		c0.39,0,0.71,0.32,0.71,0.71v2.35C276.87,256.48,276.55,256.79,276.16,256.79z"/>
</g>
</svg>
