<svg id="Capa_1" data-name="Capa 1" xmlns="http://www.w3.org/2000/svg" viewBox="0 0 1457 1418.02"><defs><style>.cls-1{fill:#f5d759;}.cls-2{fill:#cc8557;}.cls-3{fill:#af5693;}.cls-4{fill:none;}.cls-5{fill:#4882b6;}.cls-6{fill:#4079a4;}.cls-7{fill:#dd901e;}.cls-8{fill:#c07a26;}.cls-9{fill:#bd64a1;}.cls-10{fill:#cb955f;}.cls-11{fill:#ececed;}.cls-12{fill:#48494a;}.cls-13{fill:#1d1d1d;}.cls-14{fill:#578889;}.cls-15{fill:#dca86e;}.cls-16{fill:#fff;}.cls-17{fill:#1f1c18;}.cls-18{fill:#37375d;}.cls-19{fill:#c35c4e;}.cls-20{fill:#b45642;}.cls-21{fill:#a54739;}.cls-22{fill:#d2d2d0;}.cls-23{fill:#417aa4;}.cls-24{fill:#bf7e50;}.cls-25{fill:#323157;}.cls-26{fill:#a4683c;}.cls-27{fill:#8e5c36;}.cls-28{fill:#a2693f;}.cls-29{fill:#cd946e;}.cls-30{fill:#b67549;}.cls-31{fill:#2b241d;}.cls-32{fill:#c07f51;}.cls-33{fill:#7d4927;}.cls-34{fill:#9d5b2b;}.cls-35{fill:#dc9668;}.cls-36{fill:#d9dcd2;}</style></defs><title>Ilustración 4</title><path class="cls-1" d="M1483.18,748.89c-14.75,827-370.34,628.92-733.81,672.13C222.05,1483.71,43.09,1131.38,27.2,823,9.14,472.47,428.43,118.92,793.62,85.63,1442.87,26.43,1489.25,408.49,1483.18,748.89Z" transform="translate(-26.63 -79.52)"/><polyline class="cls-2" points="486.83 703.48 531.84 835.7 472.76 863.83"/><path class="cls-2" d="M769.5,734c-3.43-2.71-25.31,11.64-44.85,25.53q-.63-2.58-1.36-5.25c16.07-8.46,39.24-21.26,46.43-28.38,11.38-11.27,7.78-16.52.81-21.63-4-3-31.48,14.26-53.95,29.33q-.84-2.31-1.7-4.59c15.84-8.21,43.24-23,51.18-30.86,11.37-11.26,7.77-16.51.8-21.63-4.37-3.21-36.45,17.43-59.71,33.22l-1.69-4c15.2-8.18,33.39-18.59,39.62-24.76,11.37-11.26,7.77-16.51.8-21.62s-84.15,50.21-84.15,50.21l1.2.48c-4.73,2.77-8.8,5.17-11.3,6.66-10.14,6-4.38-43.93-18.83-58.36s-7.19,36-12.88,66.22-19.27,79.62-19.27,79.62l-38.54,31.6S457.26,905.71,411.88,939.47s-20.32,79.2,42.49,94.36C536,1053.52,639.47,843,639.47,843s67.73-37.48,85.12-57a8.6,8.6,0,0,0,1.56-2.82c14.7-8.27,36.07-20.91,42.67-27.94C779.2,744.19,775.9,739,769.5,734Z" transform="translate(-26.63 -79.52)"/><path class="cls-3" d="M416.71,577.74s58.31,20.38,79.2,55c22.14,36.64,44.29,154.76,44.29,154.76" transform="translate(-26.63 -79.52)"/><path class="cls-4" d="M321.9,1330.1c-2,29.2-6.5,97.92-9.83,167.23l34-1.39c-8-85-16.93-166.66-16.93-166.66Z" transform="translate(-26.63 -79.52)"/><path class="cls-5" d="M321.9,1330.1l7.24-.82s8.93,81.64,16.93,166.66l1.24,0c-5.94-68.41-13.14-138.17-18.69-175.07l1.12,6.47,78.32-13.55-35.58,46.55s-3.25,67.49-3.43,134.72l157.54,1.59c10.62-140.15,21.52-351.57-32.27-396.47-27.49-23-69-7.82-113.15,23.95l17.62-57.91s-166.22-15.25-269.9,34.11c-86.74,41.31-45.37,248.48-5.52,394.44l188.7,2.61C315.4,1428,319.91,1359.3,321.9,1330.1Z" transform="translate(-26.63 -79.52)"/><path class="cls-6" d="M408.06,1313.74l-78.32,13.55-1.12-6.47c5.55,36.9,12.75,106.66,18.69,175.07l21.74-.88c.18-67.23,3.43-134.72,3.43-134.72Z" transform="translate(-26.63 -79.52)"/><path class="cls-7" d="M369.76,1094a4.19,4.19,0,0,0,3.24-2.11,1.28,1.28,0,0,0,.12-1.29,1.36,1.36,0,0,0-1.23-.42,4.22,4.22,0,0,0-3.25,2.1,1.32,1.32,0,0,0-.11,1.3,1.36,1.36,0,0,0,1.23.42Z" transform="translate(-26.63 -79.52)"/><path class="cls-8" d="M164.21,1094.68s-7-5.63-15.66-12.67A66.36,66.36,0,0,1,164.21,1094.68Z" transform="translate(-26.63 -79.52)"/><path class="cls-9" d="M287.4,547S166.25,580.44,116.45,648.17c-34.07,46.33,22.44,320,22.44,320S102.58,1033,86.73,1094.88s-24.26,128.37-24.26,128.37,51.28,73.21,231.9,75.47C466,1300.86,485.7,1279.44,550.24,1233c0,0-41.63-202.84-47.06-260.83s47.29-58.2,33.89-181.57c-7.66-70.59-87.19-241-172.46-228.34" transform="translate(-26.63 -79.52)"/><path class="cls-3" d="M221.46,829.7l11.32,1.42s15.3-85.09,14.34-62.52S221.57,878.5,260.27,907s89.3,26.39,89.3,26.39S288.3,995.91,241,986.57s-51.16-58-51.16-58" transform="translate(-26.63 -79.52)"/><path class="cls-3" d="M140.07,951.27" transform="translate(-26.63 -79.52)"/><path class="cls-2" d="M231.93,994.45,214.16,788.71S209,616.24,142.46,641.47,82.56,829.74,86.27,874.63s35.23,216.88,106.49,218.75" transform="translate(-26.63 -79.52)"/><path class="cls-9" d="M204.49,597.65c-7.42,2.18-46.85,1.91-95.3,56.44C69.79,698.43,71,822.7,71,822.7s46.91,22.49,99.34,19.41c22.46-1.32,56.92-8,56.92-8" transform="translate(-26.63 -79.52)"/><path class="cls-2" d="M586.25,771.62c-3.71-2.7-27.47,11.73-48.7,25.69q-.66-2.56-1.45-5.25c17.44-8.51,42.6-21.4,50.42-28.54,12.36-11.3,8.48-16.54,1-21.64-4.36-2.94-34.17,14.38-58.57,29.53q-.9-2.31-1.83-4.59c17.19-8.27,46.94-23.15,55.57-31,12.36-11.3,8.48-16.54,1-21.63-4.73-3.2-39.57,17.55-64.83,33.43-.62-1.37-1.23-2.71-1.82-4,16.5-8.23,36.25-18.71,43-24.9,12.36-11.3,8.49-16.54.95-21.63s-91.37,50.51-91.37,50.51l1.3.47c-5.14,2.79-9.57,5.21-12.27,6.7-11,6.08-4.61-43.92-20.21-58.3s-7.92,36-14.19,66.27S403,842.43,403,842.43l-41.88,31.74s-147.77,58.58-197.06,92.5-38.82,106.69,27.68,126.5S445,881.08,445,881.08s73.54-37.73,92.45-57.27a8.33,8.33,0,0,0,1.7-2.82c15.95-8.33,39.17-21,46.34-28.09C596.73,781.82,593.16,776.65,586.25,771.62Z" transform="translate(-26.63 -79.52)"/><path class="cls-10" d="M937.3,708.92l196,163.16s-4.69,108.78-27.2,98.46S929.8,773.62,929.8,773.62" transform="translate(-26.63 -79.52)"/><path class="cls-5" d="M1064.72,1184.87l5.59,311.73,319,.93s14.37-109.48,12.75-182.85-48.52-146.74-48.52-146.74" transform="translate(-26.63 -79.52)"/><path class="cls-10" d="M872.6,678a48.26,48.26,0,0,1-8.44.93s-46.88-3.75-48.76,10.32S866,701.42,866,701.42" transform="translate(-26.63 -79.52)"/><path class="cls-10" d="M874.48,699.54a47.77,47.77,0,0,1-8.44.94s-46.89-3.75-48.76,10.32S867.91,723,867.91,723" transform="translate(-26.63 -79.52)"/><path class="cls-10" d="M888.54,721.11a47.68,47.68,0,0,1-8.44.94s-46.88-3.75-48.76,10.31S882,744.55,882,744.55" transform="translate(-26.63 -79.52)"/><path class="cls-10" d="M900.73,738a47.68,47.68,0,0,1-8.44.94s-46.88-3.75-48.76,10.31,50.64,12.19,50.64,12.19" transform="translate(-26.63 -79.52)"/><path class="cls-11" d="M1394.68,1115c.45-8.18.81-16.34,1.13-24.49,1.55-40.5,2-23.87,8.09-64,6.31-41.6,10.31-90.57,18.2-131.87.11-.58.21-1.16.32-1.73,3.32-93.65,9.06-148.31-23.31-221.87-63-143.14-127.83-141.34-127.83-141.34l-59.23,23.61c-3.11,0-55.16,31.45-76.89,76.89-60.79,127.1-61.4,251.62-60.92,317.36a4.13,4.13,0,0,1,3.37,4.42c0,2.81,0,5.62,0,8.43.1,24.47.42,48.95-.14,73.42-.61,26.27-2.16,52.57-6,78.58-3.71,25.32-5,59.75-6.87,69-2.7,13.48-3.15,75.41-11.07,86.66,12.05,9.09,14.34,11.13,35,22.12,134.07,71.19,313.63-17.6,328.18-33.19C1418.15,1255.48,1392.71,1122.05,1394.68,1115Z" transform="translate(-26.63 -79.52)"/><path class="cls-12" d="M959.64,801.9,868.41,648.44c-4-6.63-43.51-12.33-46.34-11.8l-9.25,8.21c-2.84.53-1.35,7.24,3.3,14.9L926,840.66c4.65,7.67,10.08,9.26,11.76,6.83l12.87-9.66C952.28,835.41,963.67,808.54,959.64,801.9Z" transform="translate(-26.63 -79.52)"/><path class="cls-13" d="M866.11,628.61,823,636.13c-2.84.53-1.35,7.23,3.31,14.89L936.15,831.94c4.66,7.66,9.84,11.94,11.52,9.52l26.42-31.8c1.68-2.43-.24-9.85-4.27-16.48L878.59,639.72C874.56,633.08,868.94,628.08,866.11,628.61Zm-27.23,17.65,26.86-5.15c.37-.09,1.12.59,1.68,1.51s.71,1.74.35,1.83L841,649.79c-.37.09-1.15-.63-1.74-1.61S838.52,646.35,838.88,646.26Zm123,140.07L932,818,838.34,663.74l44.28-11.14Z" transform="translate(-26.63 -79.52)"/><polygon class="cls-14" points="905.36 738.46 935.24 706.82 855.98 573.08 811.7 584.22 905.36 738.46"/><path class="cls-14" d="M841,649.79l26.74-5.34c.36-.09.21-.91-.35-1.83s-1.31-1.6-1.68-1.51l-26.86,5.15c-.36.09-.18,1,.41,1.92S840.66,649.88,841,649.79Z" transform="translate(-26.63 -79.52)"/><path class="cls-15" d="M899.76,823.8c-5.09.73-23.27-4.36-19.64,13.09,1.55,7.44,23.28,16,33.46,18.19" transform="translate(-26.63 -79.52)"/><path class="cls-15" d="M918.67,840.53c-5.09.73-23.27-4.36-19.64,13.09,1.55,7.43,23.28,16,33.46,18.18" transform="translate(-26.63 -79.52)"/><path class="cls-15" d="M1007.39,830.35s-15.51-38.79-31-58.18-46.55-23.27-56.25-42.67-21.38-18.27-21.09,1.21c.34,21.7,28.65,53.71,38.55,39.52,0,0-37.33,22.3-50.91,16.48S867.76,728.05,856.13,730s-2.91,8.48-2.91,29.81-4.85,64.73,18.42,64.73,31,9.7,31,9.7,8.73,48,32,49.94,62.54.72,62.54.72,133.72,240.74,208.28,224.43c90-19.69,151.91-226.34,151.91-226.34l-124.12-17.46S1213.93,954.6,1185.8,963C1158.32,971.28,1007.39,830.35,1007.39,830.35Z" transform="translate(-26.63 -79.52)"/><path class="cls-16" d="M1300.38,611.76s-37.41,16.62-58.2,72.75-54,166.28-54,166.28-24.94,20.79,66.51,49.89,118.48,6.23,118.48,6.23S1410.55,778,1385.6,701.13,1300.38,611.76,1300.38,611.76Z" transform="translate(-26.63 -79.52)"/><path class="cls-15" d="M1231.86,424.53c.15-27.44,25.14-228.15-41.35-243.7S983.12,227.6,977.59,257.06s-5.29,109.11-5.29,109.11c.54,3.34,21.36,32.19,19.53,63.33s-10.82,49.45-1,53.58,24.64-8.49,29.09-9.21c2.08-.34-.47,5,8.43,24.5a31.14,31.14,0,0,0,10.39.79c11-1.31,31.41-15,28.92-14s8.58,25.86-21.26,27.51c15,15.53,17.64,41,24.49,45.28,22.63,14.28,68.69-17.63,78-15.28,43.64,11-3.25,84.31-3.25,84.31s2.78,42,75.61-37.35c36.46-39.72,76.06-45,76.06-45S1231.72,452,1231.86,424.53Z" transform="translate(-26.63 -79.52)"/><path class="cls-16" d="M1043.59,394.8s-34.61,2.33-34.36,8.25,15.94,16.25,15.94,16.25Z" transform="translate(-26.63 -79.52)"/><path class="cls-17" d="M1029.94,413a20.79,20.79,0,0,0-10.31-10.24,19.79,19.79,0,0,0-9.13-1.59,2.42,2.42,0,0,0-1.27,1.93c.25,5.91,15.94,16.25,15.94,16.25Z" transform="translate(-26.63 -79.52)"/><path class="cls-10" d="M1120.92,396.27c0-10.07-.41-22.52,11-26.77,10.3-3.83,19.55,2.8,25.1,11,5.34,7.93,8.65,17.26,10.75,26.54,1.94,8.54,3.51,18.54,1.32,27.19-1.44,5.67-5.35,9.88-10.45,12.62-5.38,2.9-8.5-.79-11.56-5-.48-.65-4,2-3.44,2.68,2.8,3.82,5.77,7.57,10.9,5.82,4.78-1.64,9.48-5.25,12.86-9,7.28-8,6.68-19.36,5.23-29.37-1.66-11.47-5.18-23.21-11.42-33.05-2.94-4.64-6.65-9-11.68-11.46a19.84,19.84,0,0,0-16.48-.29c-5.53,2.36-10.85,6.86-13.37,12.41-2.67,5.89-2.26,12.61-2.25,18.93,0,.58,3.51-1.22,3.5-2.34Z" transform="translate(-26.63 -79.52)"/><path class="cls-10" d="M1133,402.53c-6.79-18.82,14-22.38,20.4-5.08,1.89,5.15,4.6,13.56,3.06,18.91-2,7.12-10.7,11.22-16.17,5.2,14.76-1.23,7.76-21.57-1.25-26.3,1.9,2.12,3.67,7.34.11,8.72-3.9,1.51-4.91-4.07-6.88-2.91" transform="translate(-26.63 -79.52)"/><path class="cls-10" d="M978.84,379.26l3.64,8s25.45-16,62.53-31.27,85.07-26.9,81.44-26.9-90.89,11.63-90.89,11.63" transform="translate(-26.63 -79.52)"/><path class="cls-18" d="M993.05,383.1s9.1-8.25,24.42-8.55c20.76-.4,30.53,4.48,30.53,4.48-2.81,2.9-26.86,2.85-37.45,11C999.49,398.53,993.05,383.1,993.05,383.1Z" transform="translate(-26.63 -79.52)"/><path class="cls-18" d="M1264.77,337.5c-1.5-18.15-1.25-54.89-13.35-69.84-12.76-15.76-38.63-12.49-56.14-8.89l-132.17,37.82c13,17.16,19.38,43,29.71,62.37,7.67,14.41,6.88,30,14.16,43.75,10.71-17.47,23.82-46.91,46.38-32.41,11.4,4.39,20.55,22.52,21.5,44.72.5,11.76-1.46,22.48-5,30.87,11.14-3.25,20.53-16.38,28.35-23.86-1.79,11,1.25,19.39,10.26,27.11,4.89-6.1,6.73-14.41,12.7-20,4.65,5.95,16.28,18.46,25.68,13.37,8.43-4.58,1.92-17.42,4.43-26.89,9,4.84,18.7,4.87,28.68,3.5C1251.74,402.53,1267.08,365.47,1264.77,337.5Z" transform="translate(-26.63 -79.52)"/><path class="cls-19" d="M960.35,309.45s18.89,6-54.27,37.88-69.25,24.13-69.25,24.13,59.46,52.36,134,13.62,102.24-53.35,168.09-57.86S960.35,309.45,960.35,309.45Z" transform="translate(-26.63 -79.52)"/><path class="cls-20" d="M959.17,321.35s42-6.87,139,2.54,168,8.06,168,8.06,4.37-135.67-67.71-158c-60.93-18.87-183.64-4-211.49,44.59C954.65,275,959.17,321.35,959.17,321.35Z" transform="translate(-26.63 -79.52)"/><path class="cls-19" d="M1042.1,325.45s-17.45-7.27,8-80c15.73-45,46.51-69.57,78.7-77.9-38.4,5.33-68.52,28.77-86,78.63-25.45,72.71-11.64,74.16-11.64,74.16" transform="translate(-26.63 -79.52)"/><path class="cls-21" d="M1266.15,332s4.37-135.67-67.72-158c-12.84-4-28.46-6.44-45.33-7.42,25.13,6.69,57.4,21.5,68.6,54.21,13.65,39.9,17.43,87.62,18.48,111.15C1256.71,332.12,1266.15,332,1266.15,332Z" transform="translate(-26.63 -79.52)"/><path class="cls-17" d="M1043.59,394.8a3,3,0,0,0-1.23-.31c-3.3-.43-16,.15-24.48,2.86-10.18,3.25-18.72,10.58-17.5,10.17s8.54-3.25,15.46-6.1" transform="translate(-26.63 -79.52)"/><path class="cls-4" d="M841,649.79l26.74-5.34c.37-.09.21-.91-.35-1.83s-1.31-1.6-1.68-1.51l-26.86,5.15c-.36.09-.18,1,.41,1.92S840.66,649.88,841,649.79Z" transform="translate(-26.63 -79.52)"/><path class="cls-10" d="M954.63,694.1s-10-32-34-36a51.75,51.75,0,0,0-6.77-.66,131.63,131.63,0,0,1-39.14,12.82c-3.3,3.64-4.4,7.73-2.06,11.82,8,14,42-2,42-2s-.41,9.08,0,20.9l30.25,50.87C969,737.17,954.63,694.1,954.63,694.1Z" transform="translate(-26.63 -79.52)"/><path class="cls-22" d="M1280.87,520.36c9.44,14.28,16.46,24.2,16.46,24.2s-39.6,5.31-76.06,45c-72.83,79.32-75.61,37.35-75.61,37.35s10.73-16.8,17.15-35.52a194.43,194.43,0,0,0-15.46,14.35c-16.88,17.82-20.63,47.83,7.5,46.89s71.27-49.7,92.84-67.52,61-30.94,60-43.13C1307.17,535.19,1293.13,526.6,1280.87,520.36Z" transform="translate(-26.63 -79.52)"/><path class="cls-23" d="M1102.19,1318.43s44.1,45,49.15,65.64l5.06,20.63,9.55,91.9-20.86-3.75s-1.11-76.9-9.8-95.65-14.55-22.51-14.55-22.51l-24-24.38,29,13.13Z" transform="translate(-26.63 -79.52)"/><path class="cls-24" d="M395.71,460.73s-18,46.56-16.86,69.93c2.39,48.86,29.07,46.29,29.07,46.29s25.63,76.3-46.37,83.21c-131.77,12.66-123.71-91.82-123.71-91.82s49.52-53.83,29.06-104.42" transform="translate(-26.63 -79.52)"/><path class="cls-3" d="M427.19,590.77s5.63,74.08-61.89,88.14c-81.74,17-133.15-64.7-133.15-64.7s18.74,83.34,110.37,83.34S427.19,590.77,427.19,590.77Z" transform="translate(-26.63 -79.52)"/><path class="cls-25" d="M329.23,229.1c16.09-18.8,54.08-18.29,17.27-57.14-14.7-15.5-55.43-27.5-75.12-26.82C220.67,146.9,166,195.08,174.14,249.46c-1.26-18.53,25.74-50.8,43.89-53.78-19.86,19.66-37.71,49.14-29.5,79.92-.41-19.66,17.12-27.79,24.26-43.05-5.63,15-13.31,25-6,41.9,9.91,23,32.27,23.08,51.35,13.57" transform="translate(-26.63 -79.52)"/><path class="cls-18" d="M396,207.58s-30-29.28-108.86-8.8C193,223.24,166,380.67,214.32,409.3s90.43-2.4,90.43-2.4l116.87-173" transform="translate(-26.63 -79.52)"/><path class="cls-26" d="M476.28,376.87s12.71.81,12.18,9c-1.39,21.8-14.86,32.79-14.86,32.79" transform="translate(-26.63 -79.52)"/><path class="cls-18" d="M349.09,208.72c-7.94-.11-85.41,2.23-118.56,40.59S209.76,402.85,233.38,417s239.89-35.55,239.89-35.55S522.06,267.18,453,224.85s-113.67-9.36-113.67-9.36" transform="translate(-26.63 -79.52)"/><path class="cls-2" d="M405.94,269.32s-17.75-14-45.51-5.4-60.5,62.07-77.61,84c-14.06,18-27.73,24.39-27.73,24.39s-15,43,6.09,88.33C275.31,491,326.29,538,363.57,536.28A7.91,7.91,0,0,0,365,536c.48.13,1.09.63,1.59.66,70.84,4.54,98.17-52.06,107.16-76.4,11.61-31.4,4.44-105.47,4.44-105.47s1.69-28.83-7.75-49.66c-9.27-20.45-19.29-34.77-31.83-38.31-23.9-6.75-34.8,2.32-34.8,2.32" transform="translate(-26.63 -79.52)"/><path class="cls-2" d="M267.8,393.14c-9.21-32.39-54.78-34.25-57.06,1.45-.93,14.53,12.69,37.45,22.76,47.63,9.13,9.23,30.32,8.94,34.87-4.21" transform="translate(-26.63 -79.52)"/><path class="cls-26" d="M253.07,388.08c-37.87-15.48-35.78,40.64-.07,43.77-10-4.48-23.84-31.52-10.92-35.17-12.55,13.87,15.31,14.93,13.45,10.43" transform="translate(-26.63 -79.52)"/><path class="cls-27" d="M388.07,435.4c-.13.09-9.84-8.07-12.8-5.16-3.15,3.06,6.59,6,8.3,6A14.32,14.32,0,0,0,388.07,435.4Z" transform="translate(-26.63 -79.52)"/><path class="cls-28" d="M370.92,412.37a18.07,18.07,0,0,0-8.7,8.7c-2.92,6.37,4.78,14.27,4.88,14.22,0,.11-10.84-3.84-9.39-10.62A15.06,15.06,0,0,1,370.92,412.37Z" transform="translate(-26.63 -79.52)"/><path class="cls-27" d="M406.9,433.84c.12.09,10.09-7.86,13-4.88,3.06,3.13-6.77,5.83-8.48,5.83A14.18,14.18,0,0,1,406.9,433.84Z" transform="translate(-26.63 -79.52)"/><path class="cls-28" d="M416.1,412.86a17.92,17.92,0,0,1,8.42,8.9c2.71,6.43-5.24,14.16-5.33,14.11,0,.11,8.75-4.32,7.51-11.12C424.53,412.92,416.07,413,416.1,412.86Z" transform="translate(-26.63 -79.52)"/><path class="cls-29" d="M410,419.48c.16,3.32-4.51,6.33-10.42,6.25s-10.48-3.18-10.22-6.5,4.32-2.21,9.95-2.13S409.87,416.14,410,419.48Z" transform="translate(-26.63 -79.52)"/><path class="cls-16" d="M311.58,380.05s12.49-10.5,33.19-8.55,24.52,8.9,24.52,8.9S358,384.87,339,383.51,311.58,380.05,311.58,380.05Z" transform="translate(-26.63 -79.52)"/><path class="cls-30" d="M311.58,380.05s10.25-10.24,33.19-8.55c13.63,1,24.52,8.9,24.52,8.9s-7.91-13.85-24.72-13.78C316,366.73,311.58,380.05,311.58,380.05Z" transform="translate(-26.63 -79.52)"/><path class="cls-31" d="M367.81,380.89c0-.22.08-.43.08-.65a12.79,12.79,0,0,0-.15-1.53c-2.53-2.19-8.78-5.87-23-7.21a54.11,54.11,0,0,0-7.35-.19,14.14,14.14,0,0,0-3.15,8.56,13.78,13.78,0,0,0,.38,3.29c1.41.12,2.78.24,4.33.35C354.15,384.6,364.27,382,367.81,380.89Z" transform="translate(-26.63 -79.52)"/><path class="cls-18" d="M372.3,335.35c.2-.31-25-5.87-40.29.44-15,6-16.14,10.51-16.23,10.38,0-.37,25.3-3.66,40-4.2C370.44,341,372.33,335.49,372.3,335.35Z" transform="translate(-26.63 -79.52)"/><path class="cls-32" d="M322.08,389.36l37,.41s-7.9,3.36-21.36,4.36S322.08,389.36,322.08,389.36Z" transform="translate(-26.63 -79.52)"/><path class="cls-16" d="M419.54,380.69s11.53-10.51,30.61-8.58S472.74,381,472.74,381s-10.41,4.48-27.95,3.14S419.54,380.69,419.54,380.69Z" transform="translate(-26.63 -79.52)"/><path class="cls-30" d="M419.54,380.69s9.46-10.25,30.61-8.58c12.55,1,22.59,8.88,22.59,8.88s-5-12.9-22.77-13.77C427.13,366.11,419.54,380.69,419.54,380.69Z" transform="translate(-26.63 -79.52)"/><path class="cls-31" d="M471.37,381.48c0-.22.07-.43.08-.65,0-.53-.09-1-.14-1.54-2.33-2.18-8.09-5.85-21.16-7.18a44.57,44.57,0,0,0-6.77-.18,14.78,14.78,0,0,0-2.92,8.56,14.94,14.94,0,0,0,.34,3.29c1.3.12,2.57.24,4,.35C458.77,385.2,468.11,382.59,471.37,381.48Z" transform="translate(-26.63 -79.52)"/><path class="cls-32" d="M431.79,390l34.08.38s-7.28,3.36-19.7,4.38S431.79,390,431.79,390Z" transform="translate(-26.63 -79.52)"/><polyline class="cls-33" points="322.66 386.32 320.94 389.32 328.9 390.7"/><path class="cls-32" d="M435.63,342.34a54.09,54.09,0,0,0-25,32.27c-6.1,22.64,2.51,34.68,2.51,34.68s2.95-35.33,17.39-43.57a41.78,41.78,0,0,1,41.94,0Z" transform="translate(-26.63 -79.52)"/><path class="cls-34" d="M428.2,463.43l-.78.36c-8.3,3.84-23.57,8.74-40.06,8-18-.74-30.18-6.77-35.58-9.92a40.88,40.88,0,0,1-3.62-2.34,40.77,40.77,0,0,0,3.29,2.52,76.08,76.08,0,0,0,30.69,12.33c15.79,3.09,35.5-4,45.36-9.68C427.73,464.28,428,463.85,428.2,463.43Z" transform="translate(-26.63 -79.52)"/><path class="cls-35" d="M424.05,471.2a24.67,24.67,0,0,1,2.4-4.29c.25-.6.55-1.18.84-1.76C419,471,404,480.37,382.76,476.44c-15.68-2.75-33.21-12.81-37.74-15,.48,2.35,10,22.35,15.62,26.54,11.26,8.37,30.54,11.34,44.21,7.39,6.11-1.41,12-7.69,16.74-14.38A32.53,32.53,0,0,1,424.05,471.2Z" transform="translate(-26.63 -79.52)"/><path class="cls-33" d="M424.05,471.2a24.67,24.67,0,0,1,2.4-4.29,33.4,33.4,0,0,1,2.81-5.24c-17.37,1.29-59.16.93-84.48-4.37-.55.54,19,28.84,45.72,28.41,14.63-.13,25-4.78,32-10A29.06,29.06,0,0,1,424.05,471.2Z" transform="translate(-26.63 -79.52)"/><path class="cls-16" d="M389.76,476.59c22.2,1.07,29-6.85,35.87-13.23-17,.84-48.42.41-71.67-3.1C362.16,468.11,374.86,475.86,389.76,476.59Z" transform="translate(-26.63 -79.52)"/><path class="cls-32" d="M430.68,459.72c-4.84-2-15.4-4.84-36.54-4.83-32.58,0-54.4,3.49-54.4,3.49s43.8,6.29,61.81,5.35c11.52-.59,21.66-1.28,27.49-1.7C429.55,461.24,430.1,460.47,430.68,459.72Z" transform="translate(-26.63 -79.52)"/><path class="cls-18" d="M430.78,341.05c-.21-.26,21.13-4.6,33.58,1.83,12.18,6.13,12.73,10.51,12.81,10.4,0-.31-21.14-3.7-33.19-4.88C432,346.87,430.75,341.16,430.78,341.05Z" transform="translate(-26.63 -79.52)"/><path class="cls-11" d="M1187.45,799.85c-4.18,60.68-16.43,107.89-46.36,105.47-29.68-2.31-48.86-52.73-43.27-112.55,3.88-59.95,30.74-106.74,60.42-104.35C1188.17,690.72,1192.85,739.27,1187.45,799.85Z" transform="translate(-26.63 -79.52)"/><path class="cls-20" d="M1183.14,799.51c-.39,4.88-.83,9.75-1.32,14.58.09-.93.19-1.86.29-2.79-1,9.54-2.29,18.86-3.82,27.66.14-.83.29-1.65.44-2.48a225.94,225.94,0,0,1-5.51,23.92c.2-.69.41-1.38.62-2.07a106.21,106.21,0,0,1-7.6,19.12l.84-1.57a49.25,49.25,0,0,1-9.95,13.3l1.06-1a26.57,26.57,0,0,1-12.2,6.51l1.26-.27a24.1,24.1,0,0,1-13.33-1.09l1.29.47a35.48,35.48,0,0,1-12.7-8.56l1.13,1.14a61.32,61.32,0,0,1-10.56-15l.88,1.71a103,103,0,0,1-7.72-20.4c.19.72.39,1.45.59,2.17a158.73,158.73,0,0,1-4.52-24.68c.09.84.19,1.68.28,2.53a218,218,0,0,1-1.13-27.88l-.06,2.78a250.4,250.4,0,0,1,2.29-28.94c-.13.92-.26,1.84-.38,2.76a219.25,219.25,0,0,1,5.49-27.36l-.66,2.46a158.61,158.61,0,0,1,8.33-23.67c-.31.69-.62,1.37-.92,2.06A102.87,102.87,0,0,1,1126.38,716l-1.14,1.55A61.47,61.47,0,0,1,1138,704.35l-1.29.95a35.35,35.35,0,0,1,13.88-6.47l-1.34.27a24,24,0,0,1,13.33,1l-1.2-.47a26.57,26.57,0,0,1,11,8.34l-.9-1.12a48.94,48.94,0,0,1,7.74,14.7l-.58-1.68a105.41,105.41,0,0,1,4.5,20.07c-.09-.71-.19-1.43-.29-2.14a223.1,223.1,0,0,1,1.69,24.49c0-.84,0-1.68,0-2.52.13,8.94-.1,18.33-.56,27.92,0-.94.09-1.86.14-2.8q-.4,7.27-1,14.6a20.31,20.31,0,0,0,.73,7.54c.64,1.89,1.79,3.36,2.87,3.33,2.35-.07,4.55-4.28,5-10.19,1-12.35,1.76-24.9,2.09-36.66a299.17,299.17,0,0,0-.51-32.07c-.43-5.17-1-10.15-1.82-14.74a90.34,90.34,0,0,0-3.26-12.65,45,45,0,0,0-10.18-17.54,27.3,27.3,0,0,0-15.56-8.08,32.6,32.6,0,0,0-18.55,2.91,54,54,0,0,0-17.52,13.38,95.65,95.65,0,0,0-14.64,22.39A154.33,154.33,0,0,0,1105.6,732c-1.91,5.35-3.54,11-5,16.81a253.45,253.45,0,0,0-6.24,35.13,281.07,281.07,0,0,0-1.62,37,207.29,207.29,0,0,0,3.34,33.42,127.37,127.37,0,0,0,8.39,28c3.65,8.15,8.07,15.22,13.13,20.48a50.15,50.15,0,0,0,8.56,7.32,37.53,37.53,0,0,0,9.4,4.36,27.64,27.64,0,0,0,17.78-.38c5.42-1.92,10.41-5.84,14.66-11.27s7.75-12.41,10.6-20.69a183.62,183.62,0,0,0,6.94-28.31c1.83-10.72,3.34-22.25,4.5-34.24.62-6.44,1.24-12.92,1.77-19.46a22.28,22.28,0,0,0-.61-7.53c-.58-1.88-1.66-3.35-2.75-3.32C1186,789.42,1183.61,793.62,1183.14,799.51Z" transform="translate(-26.63 -79.52)"/><path class="cls-36" d="M1149,761.67a4,4,0,0,1,2.53-.62.74.74,0,0,0,.7.29h.06a2.51,2.51,0,0,1,.5.44,9.87,9.87,0,0,0,2.22-.27,11.18,11.18,0,0,0-.59-1.7,2.43,2.43,0,0,1-.22-1.24,33.21,33.21,0,0,0-5.91,1.15,46.73,46.73,0,0,1-7.16,1.26l1.32.09C1144.94,761.33,1147.12,761.54,1149,761.67Z" transform="translate(-26.63 -79.52)"/><path class="cls-36" d="M1154.19,753c.08.16.15.32.23.49a3.58,3.58,0,0,1,.08-.49.19.19,0,0,1,0-.08l-1,0Z" transform="translate(-26.63 -79.52)"/><path class="cls-36" d="M1155.7,758.87c.1-1,.15-1.83.27-2.66a11.08,11.08,0,0,1,.75-3.05l0-.24-.1,0H1156a8.74,8.74,0,0,0-.56,2.66.25.25,0,0,1,0,.17A10.4,10.4,0,0,0,1155.7,758.87Z" transform="translate(-26.63 -79.52)"/><path class="cls-36" d="M1148.61,758.13c3.73-1,5.16-.93,5.69-.59,0-.19.09-.39.14-.59s.08-.32.13-.47c-.8.08-2.9.29-5.82.54-3.81.34-16.36,3.47-16.66,3.57s4-2.15,11.64-3.88c1.2-.27,2.49-.53,3.86-.76,4.65-.8,6.6-.85,7.36-.69,0-.1.07-.21.1-.32l-.75-.36v0a106.18,106.18,0,0,0-12,.1c-.54.34-1.23.78-1.92,1.25-1.49,1-13,4-13,4s2.51-.8,7.14-2.31a23.26,23.26,0,0,0,5.71-2.69c-5.31.63-13.41,1.87-13.4,1.86s2.23-.64,10.48-2.55c.75-.17,1.51-.33,2.25-.46a42.61,42.61,0,0,0-7.69,1.23c-5.08,1.69-7.29,1.1-6.72,4.56.6,3.63,7.66,1.59,14.21,1.45C1140.52,760.53,1143.24,759.58,1148.61,758.13Z" transform="translate(-26.63 -79.52)"/><path class="cls-36" d="M1139.24,780.56l0,.24c0,.12,0,.26-.08.37v.09a.81.81,0,0,1,0,.11,1.71,1.71,0,0,1,.07.18l0,0,0,.09,0,.09.06.11.17.38c0,.13.11.25.15.39a.4.4,0,0,1,0,.15c0,.1,0,.18,0,.26.16.87.47.53.81,0a6.34,6.34,0,0,1,.64-1,2.53,2.53,0,0,0,.77-1.64,7.81,7.81,0,0,0,.07-1.26l-.28-.25-.15-.12a1.77,1.77,0,0,1-.66-.85c-.22-.61-.45-.6-.68-.41l-.14.13-.06.08-.16.18-.1.12a1.18,1.18,0,0,0-.2.28v0a1.08,1.08,0,0,0-.08.19,4.72,4.72,0,0,0-.22,1.13l0,.22c0,.15,0,.3,0,.44A1.5,1.5,0,0,1,1139.24,780.56Z" transform="translate(-26.63 -79.52)"/><path class="cls-36" d="M1143.41,775.58a1.12,1.12,0,0,0,0,.29,1.67,1.67,0,0,1,.08.2l0,0a.69.69,0,0,1,.07.15,1.17,1.17,0,0,1,.05.11h0s0,0,0,.08a7.67,7.67,0,0,0,.3,1.08,1.66,1.66,0,0,0,.19.4l.06.1h0c.18-.09.3-.1.4-.2.5-.52,1-1.05,1.48-1.62a1.37,1.37,0,0,0,.22-.47l0-.06c0-.13.06-.28.08-.43a2.89,2.89,0,0,0,0-.5,2,2,0,0,0-.07-.58.44.44,0,0,0-.09-.18l-.18-.23-.37-.42a2.88,2.88,0,0,0-.46-.41,1.06,1.06,0,0,0-.26-.17,1.43,1.43,0,0,0-.28-.13h-.1c-.23,0-.43.23-.6.59l0,0a2.2,2.2,0,0,0-.09.21c-.09.21-.17.45-.25.7s-.13.44-.19.67A2.43,2.43,0,0,0,1143.41,775.58Z" transform="translate(-26.63 -79.52)"/><path class="cls-36" d="M1137.58,785.91a2.74,2.74,0,0,0,.06-1.28l-.06-.23h0c-.06-.18-.13-.33-.19-.49s-.05-.12-.07-.19,0-.08,0-.13c-.13-.45-.31-.6-.51-.42l-.08.09a2.39,2.39,0,0,0-.28.56c-.15.42-.29.86-.45,1.27a6.11,6.11,0,0,1-.26.64,3.09,3.09,0,0,0-.23,1.47c0,.65.31,1.18.59,1.27S1137.33,786.94,1137.58,785.91Z" transform="translate(-26.63 -79.52)"/><path class="cls-16" d="M1145.41,765.45c-.38.53-.67.95-1,1.38l0,.06c.3.57.53,1,.88,1.65h0c.15-1.26.25-2.16.4-3.48h0Z" transform="translate(-26.63 -79.52)"/><path class="cls-16" d="M1135.91,778l.21.15.06,0,.2.14,0,0,.35.25c0-.38.07-.72.11-1.07,0-.58.11-1.18.19-1.94h0l-.35.59-.21.36c-.07.13-.15.25-.22.37s-.11.2-.17.29l-.23.4-.17.28Z" transform="translate(-26.63 -79.52)"/><path class="cls-16" d="M1132.2,783.5c0,.08,0,.15,0,.24s0,.08,0,.12a5.72,5.72,0,0,0,.12.62h0c0,.11.33-.05.4-.22a.08.08,0,0,0,0,0c.17-.75.27-1.55.4-2.33l-.09-.2h0l-.22.37-.23.36a6.26,6.26,0,0,0-.41.82.64.64,0,0,0,0,.09Z" transform="translate(-26.63 -79.52)"/><path class="cls-16" d="M1140,772.28a3.51,3.51,0,0,1,.75.92,2,2,0,0,0,.35.42h0c.1-.93.19-1.78.28-2.64l-.15-.13C1141,771.62,1140.32,771.38,1140,772.28Z" transform="translate(-26.63 -79.52)"/><path class="cls-36" d="M1162.75,785.32c-.25,0-.5.46-.56,1.08s.09,1.12.35,1.14.5-.45.56-1.07S1163,785.34,1162.75,785.32Z" transform="translate(-26.63 -79.52)"/><path class="cls-36" d="M1133.93,790.27a2.4,2.4,0,0,0-.32-1.64c-.15,0-1.34-.35-1.77.49a2.71,2.71,0,0,0,.78,2.91C1133.3,792.33,1133.84,791.38,1133.93,790.27Z" transform="translate(-26.63 -79.52)"/><path class="cls-18" d="M1181,802.71c-1.34-.39-3-2.2-4.54-3.44-1-.84-5-8.94-7.48-14.44l1,1-1-1.32c.54-.27,1.08-.54,1.62-.79l1.25,1.26-1-1.36q.83-.39,1.65-.75l1.26,1.26-1-1.36,1.65-.75,1.26,1.26c-.34-.45-.68-.91-1-1.36.55-.26,1.09-.51,1.63-.78l1.29,1.29-1.06-1.41c.89-.45,1.79-1,2.68-1.52-1,.38-1.94.8-2.91,1.2l1.13-1.76a11.47,11.47,0,0,0-1.09,1.32l-.36.56h0l-1.53.66c.35-.57.71-1.14,1.07-1.7a11.81,11.81,0,0,0-1.08,1.32l-.34.53-1.49.62,1-1.62a10.92,10.92,0,0,0-1.07,1.32l-.29.44c-.49.2-1,.39-1.46.57l.93-1.49a13.48,13.48,0,0,0-1.07,1.33l-.19.29c-.48.18-1,.37-1.44.54.28-.43.55-.87.82-1.31a13.48,13.48,0,0,0-1.07,1.33l-.06.1-.13,0c-1-2.19-1.63-3.79-1.67-4-.55-.91,5.07-40.66,5.47-40.59,0,0,0-1.39-.53-1.71s-5.93,12-8.06,17.44c-1-2.23-2.31-3.82-3.58-4a5.54,5.54,0,0,0-1.28,0c.3-4,1.4-15.38,1.71-17.63.35-2.75,1.11-6.31.41-5.8s-1.13,3-1.2,4.07c-.09.88-1.73,14.2-2.27,19.72l-.24.12c-.93,0-2.37,0-4.11,0q-.16-11.31-.09-22.57s-.15-2.78-.79-2.55c-.43.13-6.55,14.37-10.86,25.73-4.46.39-8.55,1-10.48,1.85-5.3,2.39-7.77,1.24-7.29,5.85s7.24,3.07,13.74,2.88a33.11,33.11,0,0,1-1.24,3.08c-.52.52-13.88.89-13.87.89s-10.11-9.39-11.25-11.14-5.5-10.42-5.51-10.42,5.19,11.5,6.09,13,10.78,11.11,11.83,10.92,13,.16,13.94-1.72c.19-.39.84-2.11,1.77-4.58.71,0,1.41.06,2.1.14l.82.09c-2.33,4.92-4.81,10.33-6.9,15-.74,1.12-1.48,2.25-2.21,3.43-.93,1.51-1.81,3.21-2.7,4.85l-.24.45a3.86,3.86,0,0,1-.68.25,13.29,13.29,0,0,0-1.44.45.8.8,0,0,0-1,.45l0,0a.27.27,0,0,1,0,.09,4.28,4.28,0,0,0-.25,1c-.31,1.91,0,3.91.77,4.37,0-.17,0-.32,0-.46a2.26,2.26,0,0,0,.38.25c-2.75,4.29-5.35,8-7,9.41-4.65,4.09-13,9.54-18.09,10.51a34.19,34.19,0,0,1-6.57.46c-.22.55-.44,1.09-.67,1.62a22.79,22.79,0,0,0,9.56-.78c2.36-.63,16.68-8.67,19.15-12.65.83-1.34,2.76-4.54,5-8.29.93,0,1.93-.24,2.75-.17h.11l.19.08c.44.49,2.39,2,7.21-3a46.5,46.5,0,0,0,8.28-11.76c-.3,10-.29,21,0,24.19-1,6.38-3.51,32.94-3.39,32.94,0,0-1,13.29-1.74,18.24s-2.17,14-1.44,13.22,3.54-28.9,4-32.51c.19-3.6,3.44-30.41,3.58-30.41l0-.14c.18,0,.28-.19.27-1,0-1.1-.24-15.86,0-27.71l.06-.28a29,29,0,0,0,.3,4.41,5.68,5.68,0,0,0,.29,1.62c.08.33.16.66.26,1a1.42,1.42,0,0,0,.1.47.34.34,0,0,0,.06.06c.64,2,1.67,3.67,3.32,4.21a2,2,0,0,0,1,.08c.1,0,.22,0,.37-.1l.25-.11c.25,0,.55-.09.89-.61a2.18,2.18,0,0,0,.15-.27c1.36-1.62,2.22-4.68,2.51-6.73.18-.07.35,0,.48.29a.67.67,0,0,1,.26.19c-1.22,7.62-3.28,25.19-3.33,26.93-.34,2.21,5.48,28.67,6.13,31,.27,2.27,6.53,23.13,6.68,23.13l.7-.5q-3.91-12-7.13-24c-2-9.47-3.7-18.93-5.2-28.37q.7-7.46,1.57-14.89c1.25,2.55,3.72,7.11,4.69,12,1.14,6.52,3.89,26.33,4,26.33a7.53,7.53,0,0,0,.28-2.22c-.26-.85-3.35-25.15-3.7-27.42-.53-2.29-4.93-9.9-4.92-9.9l.89-1.2a2.33,2.33,0,0,0,0,.28,17.28,17.28,0,0,0,1,1.39,2.5,2.5,0,0,0,.88.52c.1,0,.24,0,.28.17.14.46.26.93.37,1.43h0c.07.05.09.21.07.38a26.67,26.67,0,0,1,.43,2.67c.27.87.49,1.82.79,2.63a4.23,4.23,0,0,0,.34.74,3,3,0,0,0-.08-1.88c-.16-.72-.39-1.31-.54-2s-.24-1.47-.35-2.22l.22-.33c.32.82.69,1.57,1,2.49.69,2.31.68,2.34,1,2.29-.51-1.63-.94-3.12-1.42-4.52a1.83,1.83,0,0,1-.11-1.48c.24-.81.45-1.66.72-2.66q.46.84.9,1.71c.12,1,.24,2,.37,3-.08-.89-.14-1.79-.21-2.69.42.84.84,1.71,1.26,2.58.1.84.2,1.68.31,2.53l-.18-2.25.72,1.51.45,3.49c-.09-1-.18-2.07-.26-3.1.35.72.71,1.46,1.08,2.17.15,1.15.3,2.31.46,3.47-.1-1-.19-2.08-.28-3.12.43.82.86,1.61,1.31,2.35.15,1.11.3,2.21.46,3.32-.1-1-.2-2-.29-3a21.53,21.53,0,0,0,2.1,2.89,32.75,32.75,0,0,1-2.14-3.55l1.15.3a4.8,4.8,0,0,0-1-.63l-.37-.12c-.34-.66-.67-1.34-1-2l.92.24a4.43,4.43,0,0,0-1-.63l-.09,0c-.32-.67-.63-1.37-.93-2.07l.78.21a4.45,4.45,0,0,0-1-.61l-1-2.42,1,.27a4.33,4.33,0,0,0-1-.63l-.19-.06c-.27-.64-.54-1.26-.82-1.9l.67.18a5.24,5.24,0,0,0-.84-.56c-.32-.7-.64-1.42-1-2.11.51-.9.4-2.53.83-2.85a5.35,5.35,0,0,1,1.9-.79,123.26,123.26,0,0,0,7.19,14c1.44,2.08,4.67,4.85,6.16,5s5.24-2.94,5.61-3.2S1182.3,803.1,1181,802.71Zm-48.75-19.38a.64.64,0,0,1,0-.09,7.83,7.83,0,0,1,.41-.82l.23-.36c.07-.12.15-.24.22-.37l.09.2c0,.17-.06.33-.08.5l-.8,1.8a2.88,2.88,0,0,1,0-.33s0-.08,0-.12,0-.17,0-.24Zm.42,8.7a2.71,2.71,0,0,1-.78-2.91c.43-.84,1.62-.5,1.77-.49a2.4,2.4,0,0,1,.32,1.64C1133.84,791.38,1133.3,792.33,1132.62,792ZM1156,752.87h.71l.1,0,0,.24a11,11,0,0,0-.75,3c-.12.84-.17,1.68-.27,2.67a10.4,10.4,0,0,1-.31-3.17.32.32,0,0,0,0-.17A8.68,8.68,0,0,1,1156,752.87Zm-1.44,0a.19.19,0,0,0,0,.08,3.85,3.85,0,0,0-.08.49c-.08-.17-.15-.33-.23-.49l-.7-.06Zm-3.08-20.28c.63-.4.23,13.25.16,18.84l-1.62,0,0-.25c0-2-.07-3.88-.37-3.76,0,0-.11.11-.21.29-.09-.31-.18-.43-.25-.33a3.69,3.69,0,0,0-.67,2.15c-.28.57-.62,1.23-1,2-1.39.07-2.83.15-4.25.26C1146.75,742.73,1151,732.89,1151.44,732.62Zm-8.45,35,1.79-4.5c.84.09,1.62.16,2.36.21a.58.58,0,0,1-.46.07.27.27,0,0,0-.17,0l-.39.43C1145.07,765.06,1144,766.39,1143,767.62Zm2.69-2.56c-.13,1.16-.26,2.32-.4,3.48-.35-.67-.58-1.08-.88-1.65l0-.06c.3-.44.59-.84,1-1.38Zm-.61-3.73.42-1c.78-.13,1.52-.29,2.14-.45,0,.54,0,1.1,0,1.67C1146.81,761.5,1146,761.42,1145.07,761.33Zm2.7-5.42-.18,0-.2,0a8.78,8.78,0,0,1,.49-1.09A4.92,4.92,0,0,0,1147.77,755.91Zm-.06,1.24c0,.38,0,.79,0,1.23l-1.52.43c.24-.55.46-1.07.66-1.52Zm-22.53,2.36c-.57-3.46,1.64-2.87,6.72-4.56a41.57,41.57,0,0,1,7.69-1.23c-.74.13-1.49.28-2.25.46-8.25,1.91-10.48,2.56-10.48,2.55s8.09-1.24,13.4-1.86a23.26,23.26,0,0,1-5.71,2.69l-7.14,2.31s11.51-3,13-4c.69-.47,1.38-.91,1.92-1.25,1.14-.11,2.42-.17,3.72-.2-.3.63-.62,1.28-1,2l-1.36.29c-7.63,1.73-11.92,4-11.64,3.88s7.22-1.82,12.37-2.86l-.89,1.83c-2.17.67-3.48,1.13-4.18,1.4C1132.84,761.1,1125.78,763.15,1125.18,759.51Zm15.91,1.46,1.93-.24-.18.38-.43-.05Q1141.76,761,1141.09,761Zm-3.51,24.94c-.25,1-1.2,2.63-1.53,2.56s-.54-.61-.59-1.27a3.1,3.1,0,0,1,.23-1.47,6.11,6.11,0,0,0,.26-.64c.16-.41.3-.85.45-1.27a2.61,2.61,0,0,1,.28-.56l.08-.09c.2-.17.38,0,.51.42,0,0,0,.09,0,.13l.07.19c.06.16.13.32.19.49h0l.06.23A2.73,2.73,0,0,1,1137.58,785.91Zm4.42-5.48a2.53,2.53,0,0,1-.77,1.64,6.83,6.83,0,0,0-.64,1c-.34.51-.65.85-.81,0,0-.08,0-.16,0-.26a.37.37,0,0,0,0-.15c0-.14-.1-.26-.15-.39l-.17-.38-.06-.11,0-.09,0-.09s0,0,0,0a1.71,1.71,0,0,0-.07-.18l0-.11v-.09c0-.12.06-.24.08-.37l0-.24a1.8,1.8,0,0,0,0-.22c0-.14,0-.29,0-.44l0-.22a4.72,4.72,0,0,1,.22-1.13,1.54,1.54,0,0,1,.08-.19v0a1.18,1.18,0,0,1,.2-.28l.1-.12.16-.18.06-.08.14-.13c.23-.2.46-.2.68.41a1.77,1.77,0,0,0,.66.85l.15.12a3.15,3.15,0,0,1,.28.25A7.81,7.81,0,0,1,1142,780.43Zm4.36-4.74,0,.06a1.37,1.37,0,0,1-.22.47c-.49.58-1,1.09-1.48,1.62-.1.11-.22.11-.4.2l-.06-.1a1.87,1.87,0,0,1-.19-.4,7.67,7.67,0,0,1-.3-1.08s0-.05,0-.08h0l-.05-.11a.69.69,0,0,0-.07-.15.05.05,0,0,0,0,0,1.67,1.67,0,0,0-.08-.2,1.19,1.19,0,0,1,0-.29,2.43,2.43,0,0,1,.11-.75c.06-.23.13-.46.19-.67a7,7,0,0,1,.25-.7l.09-.21,0,0c.17-.36.37-.59.6-.59h.1a1.43,1.43,0,0,1,.28.13,1.45,1.45,0,0,1,.26.17,2.88,2.88,0,0,1,.46.41c.12.13.25.27.37.42l.18.23a.44.44,0,0,1,.09.18,2,2,0,0,1,.07.58,2.81,2.81,0,0,1,0,.5C1146.42,775.41,1146.39,775.55,1146.36,775.69Zm3-21.26c2.16,0,4,.08,5,.12v0l.75.36-.1.32c-.66-.15-2.22-.12-5.67.41C1149.3,755.24,1149.31,754.83,1149.32,754.43Zm-.08,2.55c2.67-.23,4.57-.43,5.33-.5,0,.15-.09.31-.13.47s-.1.4-.14.59c-.5-.32-1.81-.41-5.09.43Zm3,4.35h-.06a.74.74,0,0,1-.7-.29,3.84,3.84,0,0,0-2.39.55l.06-2.15a36,36,0,0,1,5-.89,2.43,2.43,0,0,0,.22,1.24,11.18,11.18,0,0,1,.59,1.7,9.32,9.32,0,0,1-2.22.27A2.51,2.51,0,0,0,1152.25,761.33Zm3.1,3a2.07,2.07,0,0,1-.78,0c-.12,0-.17-.43-.25-.66.15-.21.34-.64.43-.59a3.18,3.18,0,0,1,.7.75C1155.42,764,1155.38,764.18,1155.35,764.34Zm3.69,23.81.63-4.88c0,.69,0,1.39,0,2.09s-.06,1.51-.07,2.26C1159.4,787.77,1159.22,788,1159,788.15Zm3.5-.61c-.26,0-.41-.53-.35-1.14s.31-1.1.56-1.08.41.54.35,1.15S1162.79,787.56,1162.54,787.54Zm3.39-2.79c-.36.14-.47-.16-.44-1a14.31,14.31,0,0,0-.07-2.29,4.32,4.32,0,0,0-.44-2.85,1.29,1.29,0,0,0-.34-.64c-.45-.48-1-.56-1.48-.92a3.92,3.92,0,0,1-.58-.89,7.3,7.3,0,0,1,.55-1.4,10.11,10.11,0,0,0,1.67-4.86c.21-1,.44-2.31.69-4.06a21,21,0,0,0-1-8.91q3-6.87,6.12-13.72c-.28,0-4.85,33.93-4.82,36.47a13.88,13.88,0,0,0,1.39,4.6Z" transform="translate(-26.63 -79.52)"/><path class="cls-20" d="M1120.61,722c-.83,1.09,51.7,139,56.87,139.47q-3.18,6.84-6.31,13.67c-25.86-45.79-41.13-91.11-59.23-136" transform="translate(-26.63 -79.52)"/></svg>