<svg id="Capa_1" data-name="Capa 1" xmlns="http://www.w3.org/2000/svg" viewBox="0 0 1478.52 1413.97"><defs><style>.cls-1{fill:#d1e2f1;}.cls-2{fill:#92755a;}.cls-3{fill:#836241;}.cls-4{fill:#6e863b;}.cls-5{fill:#efe0d2;}.cls-6{fill:#bec83e;}.cls-7{fill:#214758;}.cls-8{fill:#285164;}.cls-9{fill:#fff;}.cls-10{fill:#0e3746;}.cls-11{fill:#f5d759;}.cls-12{fill:#a6bc43;}.cls-13{fill:#89c6ef;}.cls-14{fill:#d8e9f0;}.cls-15{fill:#9ac6df;}.cls-16{fill:#c7d6db;}.cls-17{fill:#b97c47;}.cls-18{fill:#808486;}.cls-19{fill:#3a6d8b;}.cls-20{fill:#979b9c;}.cls-21{fill:#dca86e;}.cls-22{fill:#3f79a3;}.cls-23{fill:#ececed;}.cls-24{fill:#37375d;}.cls-25{fill:#6db8da;}.cls-26{fill:#8fc7e0;}.cls-27{fill:#cb955f;}.cls-28{fill:#a88c30;}.cls-29{fill:#bd64a1;}.cls-30{fill:#e2e1e2;}.cls-31{fill:#c08856;}.cls-32{fill:#b8af60;}.cls-33{fill:#9a966f;}.cls-34{fill:#8474af;}.cls-35{fill:#cfcac5;}.cls-36{fill:#af5693;}.cls-37{fill:#dcb827;}.cls-38{fill:#b45642;}.cls-39{fill:#d9dcd2;}.cls-40{fill:#c2babe;}.cls-41{fill:none;}.cls-42{fill:#be8d5d;}.cls-43{fill:#503820;}.cls-44{fill:#7362a2;}.cls-45{fill:#dda9cb;}.cls-46{fill:#ac589b;}.cls-47{fill:#e5b88b;}</style></defs><title>Ilustración 2</title><polygon class="cls-1" points="278.14 819.08 514.69 812.02 517.16 710.14 501.37 710.14 501.37 661.83 726.52 661.83 726.52 710.14 712.81 710.14 715.93 864.98 797.13 868.51 797.13 790.84 773.18 787.3 842.03 744.94 1093.69 752 1146.65 801.43 1114.88 801.43 1114.88 1016.79 493.5 1027.38 278.14 1020.32 274.61 850.85 249.9 850.85 278.14 819.08"/><path class="cls-2" d="M924.46,1048.34S915,921.54,915,862.1s19.34-186.29,19.34-186.29l-14.35-2s-7.12,147.15-21.46,147.15-35.92-79.52-35.92-79.52L844.43,730.3s45,104.9,47.08,137.69,1.17,177.7,1.17,177.7" transform="translate(-6.41 -50.09)"/><path class="cls-3" d="M926.45,659.46c-24.6-47.14-22.55-131.17-22.55-131.17l16.4,2.05s0,61.48,10.25,96.33c7.73,26.28,40,71.22,55.31,91.71-1.94-39.45,8.22-157.3,8.22-157.3l14.35,4.1s-10.25,73.78-6.15,135.27,12.3,135.27,12.3,135.27C1026.87,764,1072,577.48,1072,577.48h16.4s-30.6,102.46-47.85,201.23c12.46-11,34.52-33.15,49.9-63.92,16-32.06,47.35-151,47.35-151l12.36,1.77S1115,688.15,1100.66,720.94c-11.2,25.58-49.82,76.1-66.27,97.09-1.37,10.24-2.54,20.28-3.42,30-10.25,112.73-16.39,178.31-16.39,178.31l-34.85-2s11.73-60.78,22.89-121.58c-3-29.65-9.11-91.93-13.13-137.58C977.76,746.94,946.18,697.28,926.45,659.46Z" transform="translate(-6.41 -50.09)"/><path class="cls-3" d="M1180.34,669.62c-24.59-47.13-22.54-131.16-22.54-131.16l16.4,2s0,61.48,10.24,96.32c7.74,26.29,40,71.23,55.32,91.72-1.94-39.45,8.22-157.3,8.22-157.3l14.35,4.1s-10.25,73.78-6.15,135.26,12.29,135.27,12.29,135.27c12.3-71.73,57.39-258.24,57.39-258.24h16.4s-30.61,102.47-47.86,201.24c12.47-11,34.52-33.15,49.91-63.92,16-32.07,47.35-151,47.35-151l12.36,1.77s-35.12,122.56-49.47,155.35c-11.19,25.58-49.81,76.1-66.26,97.08-1.38,10.24-2.54,20.29-3.42,30-10.25,112.72-16.4,178.31-16.4,178.31l-34.84-2s11.73-60.78,22.88-121.58c-3-29.66-9.1-91.93-13.12-137.59C1231.66,757.1,1200.08,707.44,1180.34,669.62Z" transform="translate(-6.41 -50.09)"/><path class="cls-2" d="M256.36,616.73h14.5s11.61,46.77,23.21,71.71l40.62,87.29,8.7-143.41,17.41-6.23s-2.9,74.82-5.8,146.52c-.76,18.81-2.12,46-3.71,75.85,13.59-18.9,31.65-48.85,38.52-82.09,11.61-56.11,26.12-118.46,26.12-118.46l11.6,12.47s-29,115.35-34.81,143.4c-3.8,18.38-27.51,56.79-43.42,81.13-4.15,75.1-8.81,152.69-8.81,152.69l-29,3.11L323.09,810S308.58,757,297,732.08,256.36,616.73,256.36,616.73Z" transform="translate(-6.41 -50.09)"/><path class="cls-2" d="M243.85,1070.06s-20.31-155.57-23.21-244.47,2.9-190.5,2.9-190.5l-20.3-6.35s0,181-5.81,161.92-31.91-133.35-31.91-133.35-29-3.17-20.31,3.18,40.62,152.4,46.42,206.37,11.61,215.9,11.61,215.9" transform="translate(-6.41 -50.09)"/><path class="cls-4" d="M1288.4,1109.17c27.4,11.41,110.09-19.44,104.5-57.57-4.56-31.11-29.13-10.71-46.68-10.86-28.4-.24-19.9-14.9-19-38.69.7-18.36,6-50.27-10.86-62.24-22.25-15.84-33.73,5.88-44.35,21.34-19.4,28.25-22,27.7-35.17-2.43-9.89-22.62-29.77-37-41.36-5.39-3.13,8.54,2.72,29-4,34.74-12.79,11-16.61-6.21-24.32-9.92-27.69-13.33-31.68.57-34.81,28.73-35,9.5-40-45.65-67.27-56.09-36.19-13.86-30.27,21.62-24.15,44.15-29.49-6.24-93.85-20.89-71.68,34.13,31.84,79,161.33,60,226.91,75.24" transform="translate(-6.41 -50.09)"/><path class="cls-4" d="M233.09,1110.26c-16-2.63-63.4-7.63-65.43-30.12-2.42-26.73,43.25-24,59.25-18.65-11.81-8.75-15.48-52,2.55-57.89,21.08-6.86,40.47,19.3,64.29,16.89,14.56-19.42,31.45-53.8,58.24-55.81,28.72-2.16,34.53,37.32,39.2,58.08,26.05-10.67,126.05-86.39,93.85.62,16.59,1.08,32.74-15,49-14.54,24.4.68,21.18,19,5.3,33.61,12.43,8.28,50.23,15.71,55.47,31.42,8.2,24.6-37.21,19-51.42,17.51-20.7-2.12-54.7-18.63-74.56-8.51-17.54,8.94-14.33,22.52-39.14,25-20.45,2-44.95-13.25-63.07-10-20.19,3.67-33.42,25.39-56.29,29.67-25.3,4.73-110.6,16-108.77-27" transform="translate(-6.41 -50.09)"/><path class="cls-5" d="M1246.2,1076.29c44.37-1.2,324.57,91.23,212.44,160.15-41.6,25.57-92,29.11-139.66,29.12-66.68,0-132.55,1.33-198.49,10.31-177.64,24.18-361.76,50-538.48-2.49-42.89-12.76-73.24-26.71-119.89-27.24-91.65-1-183.23.72-274.74-2.56-32-1.14-192.47-.22-180.32-61.76,6.24-31.6,58.23-45.92,84.63-53.15,108.17-29.62,220.08-37.32,331.73-45.1" transform="translate(-6.41 -50.09)"/><path class="cls-6" d="M1380,1108.71c-14.5-2.29-108.72-80.36-538.79-68.88s-816,74.71-773,93.24c26.24,11.31,65.07,21.56,352.58,7.79s372.39-27.13,512.53-8.76c110.74,14.52-182.87,35.54-86.22,63.09s133.82,2.17,300.53-2.43,236.37-2.14,261.12-31.54C1428.11,1138.26,1380,1108.71,1380,1108.71Z" transform="translate(-6.41 -50.09)"/><path class="cls-5" d="M137.46,1263.8s-53.25-21-41.91-22.17c42.82-4.55,180.74-13.18,283.33-5.29,172.11,13.24,508.39,58.25,342.19,88.6-89.77,16.39-321.32,27.08-476.81,17s-285.54-22.73-196.5-71.5" transform="translate(-6.41 -50.09)"/><path class="cls-7" d="M79,1220.43c0,.08,0,.16,0,.24,0,24.58,59.17,44.52,132.16,44.52,72.17,0,130.78-19.49,132.1-43.7,4.94,16,.06,47.86.06,55.12,0,24.87-58.68,45-131.06,45s-131.06-20.16-131.06-45C81.19,1268.58,72.45,1234.4,79,1220.43Z" transform="translate(-6.41 -50.09)"/><path class="cls-8" d="M343.25,1221.49c0-.27.06-.55.06-.82,0-24.59-59.17-44.52-132.16-44.52-72.75,0-131.76,19.8-132.14,44.28,0,.08,0,.16,0,.24,0,24.58,59.17,44.52,132.16,44.52C283.32,1265.19,341.93,1245.7,343.25,1221.49Zm-35.73.27c0,.15,0,.31,0,.46h0a7,7,0,0,1-.44,1.93c0,.1-.07.21-.11.31a9.14,9.14,0,0,1-1,1.82c-.06.1-.14.2-.21.3a15.05,15.05,0,0,1-1.63,1.84l0,0a22.16,22.16,0,0,1-2.27,1.86l-.12.09a31.7,31.7,0,0,1-2.81,1.78l-.21.12a67.28,67.28,0,0,1-11.88,5h0c-17.13,5.64-43.35,9.24-72.76,9.24s-55.62-3.6-72.77-9.23h0a79.3,79.3,0,0,1-8.57-3.34l-.23-.11c-1.19-.56-2.3-1.14-3.33-1.73l-.29-.17a32.58,32.58,0,0,1-2.81-1.82l0,0a19.37,19.37,0,0,1-2.22-1.88l-.16-.14a13.58,13.58,0,0,1-1.55-1.87l-.22-.32a9.05,9.05,0,0,1-.93-1.87c0-.1,0-.2-.08-.3a6.92,6.92,0,0,1-.33-2,.17.17,0,0,1,0-.07v-.06a9.14,9.14,0,0,1,3.05-6.18c3.5-3.55,9.89-6.79,18.47-9.54q2.86-.92,6-1.75c1.06-.28,2.14-.55,3.25-.82,16.59-4,38.59-6.41,62.72-6.41h0a308.59,308.59,0,0,1,48.5,3.6C289.48,1204.88,307.52,1212.76,307.52,1221.76Z" transform="translate(-6.41 -50.09)"/><path class="cls-9" d="M120.86,1224.06a9.58,9.58,0,0,0,.93,1.87A9.05,9.05,0,0,1,120.86,1224.06Z" transform="translate(-6.41 -50.09)"/><path class="cls-9" d="M298.84,1232.18a31.7,31.7,0,0,0,2.81-1.78A31.7,31.7,0,0,1,298.84,1232.18Z" transform="translate(-6.41 -50.09)"/><path class="cls-9" d="M301.77,1230.31a22.16,22.16,0,0,0,2.27-1.86A22.16,22.16,0,0,1,301.77,1230.31Z" transform="translate(-6.41 -50.09)"/><path class="cls-9" d="M286.75,1237.34a67.28,67.28,0,0,0,11.88-5A67.28,67.28,0,0,1,286.75,1237.34Z" transform="translate(-6.41 -50.09)"/><path class="cls-9" d="M214,1196.93h0c-24.13,0-46.13,2.43-62.72,6.41C167.85,1199.36,189.85,1196.93,214,1196.93Z" transform="translate(-6.41 -50.09)"/><path class="cls-9" d="M307,1224.15a7,7,0,0,0,.44-1.93A7,7,0,0,1,307,1224.15Z" transform="translate(-6.41 -50.09)"/><path class="cls-9" d="M120.78,1223.76a6.92,6.92,0,0,1-.33-2,.17.17,0,0,1,0-.07.17.17,0,0,0,0,.07A6.92,6.92,0,0,0,120.78,1223.76Z" transform="translate(-6.41 -50.09)"/><path class="cls-9" d="M305.91,1226.28a9.14,9.14,0,0,0,1-1.82A9.14,9.14,0,0,1,305.91,1226.28Z" transform="translate(-6.41 -50.09)"/><path class="cls-9" d="M132.64,1234a79.3,79.3,0,0,0,8.57,3.34A79.3,79.3,0,0,1,132.64,1234Z" transform="translate(-6.41 -50.09)"/><path class="cls-9" d="M304.07,1228.42a15.05,15.05,0,0,0,1.63-1.84A15.05,15.05,0,0,1,304.07,1228.42Z" transform="translate(-6.41 -50.09)"/><path class="cls-9" d="M123.72,1228.26a19.37,19.37,0,0,0,2.22,1.88A19.37,19.37,0,0,1,123.72,1228.26Z" transform="translate(-6.41 -50.09)"/><path class="cls-9" d="M126,1230.18a30.36,30.36,0,0,0,2.81,1.82A32.58,32.58,0,0,1,126,1230.18Z" transform="translate(-6.41 -50.09)"/><path class="cls-9" d="M122,1226.25a13.58,13.58,0,0,0,1.55,1.87A13.58,13.58,0,0,1,122,1226.25Z" transform="translate(-6.41 -50.09)"/><path class="cls-9" d="M148,1204.16q-3.16.84-6,1.75Q144.84,1205,148,1204.16Z" transform="translate(-6.41 -50.09)"/><path class="cls-9" d="M129.08,1232.17c1,.59,2.13,1.17,3.33,1.73C131.22,1233.34,130.11,1232.76,129.08,1232.17Z" transform="translate(-6.41 -50.09)"/><path class="cls-10" d="M307.47,1222.22a7,7,0,0,1-.44,1.93c0,.1-.07.21-.11.31a9.14,9.14,0,0,1-1,1.82c-.06.1-.14.2-.21.3a15.05,15.05,0,0,1-1.63,1.84l0,0a22.16,22.16,0,0,1-2.27,1.86l-.12.09a31.7,31.7,0,0,1-2.81,1.78l-.21.12a67.28,67.28,0,0,1-11.88,5h0c-17.14-5.63-43.36-9.23-72.76-9.23s-55.62,3.6-72.77,9.24h0a79.3,79.3,0,0,1-8.57-3.34l-.23-.11c-1.2-.56-2.3-1.14-3.33-1.73l-.29-.17a30.36,30.36,0,0,1-2.81-1.82l0,0a19.37,19.37,0,0,1-2.22-1.88l-.16-.14a13.58,13.58,0,0,1-1.55-1.87l-.22-.32a9.58,9.58,0,0,1-.93-1.87c0-.1,0-.2-.08-.3a6.92,6.92,0,0,1-.33-2,.17.17,0,0,1,0-.07v-.06a9.14,9.14,0,0,1,3.05-6.18c3.5-3.55,9.89-6.79,18.47-9.54q2.86-.92,6-1.75c1.06-.28,2.14-.55,3.25-.82,16.59-4,38.59-6.41,62.72-6.41h0a308.59,308.59,0,0,1,48.5,3.6c27,4.35,45,12.23,45,21.23,0,.15,0,.31,0,.46Z" transform="translate(-6.41 -50.09)"/><path class="cls-8" d="M308.92,1222.89c-.79,6.15-7.29,9.77-12.37,12.14-1.65.78-3.34,1.47-5.06,2.12-1.17.44-2.81,1.37-4.11,1.34a17,17,0,0,1-3.73-1.12c-1.37-.4-2.75-.78-4.13-1.14-13.72-3.55-27.92-5.29-42-6.23a338.15,338.15,0,0,0-49.82.32c-13.56,1.1-27.2,3-40.34,6.61-1.25.35-2.49.71-3.73,1.1a4.89,4.89,0,0,1-3.89-.22,67.59,67.59,0,0,1-9.75-4.17c-4.61-2.48-11-6.62-10.94-12.58.06-5.65,6.22-9.46,10.64-11.73a91.91,91.91,0,0,1,20.67-7.12,242.57,242.57,0,0,1,42.42-5.83,344.7,344.7,0,0,1,49.16.58c14.6,1.24,29.4,3.32,43.41,7.74a68,68,0,0,1,15,6.44c3.07,1.88,6.28,4.35,7.85,7.7a6.75,6.75,0,0,1,.79,4.05c-.35,1.3-3.19-.25-2.9-1.33.67-2.52-1.84-5.27-3.53-6.72-3.18-2.72-7.17-4.51-11-6-11.64-4.57-24.27-6.77-36.62-8.33a317.31,317.31,0,0,0-83.69.47c-12.16,1.72-24.68,4.06-36,9-4.59,2-10.47,4.84-12.64,9.69-2.79,6.22,4.66,10.7,9.28,13,1.21.59,2.44,1.14,3.68,1.65,1.52.62,3.8,1.93,5.45,2,.71,0,0,.06.1,0l-.28-.17.47-.15a7.32,7.32,0,0,1,1.7-.53c1.26-.38,2.53-.74,3.8-1.08,5.24-1.4,10.55-2.5,15.89-3.41a287.92,287.92,0,0,1,39.76-3.76c25.67-.77,52.18.53,77.12,7.09,2.35.61,4.67,1.29,7,2l-.91,0a81.07,81.07,0,0,0,12.09-5.16c3.68-2.11,7.8-5.05,8.38-9.57C306.19,1220.28,309.07,1221.74,308.92,1222.89Z" transform="translate(-6.41 -50.09)"/><path class="cls-8" d="M316.76,1253c-1.23,7.17-4,14.75-7.43,22.07,1.63-.82,3.28-1.6,4.88-2.46a101,101,0,0,0,4.12-10.66c.56-1.76,1-3.54,1.39-5.25.19-1.63.91-3.67-.05-4.61,0,0,.21-.21,0-.14l-.34.11-.78.28Z" transform="translate(-6.41 -50.09)"/><path class="cls-8" d="M315,1276.12a119.2,119.2,0,0,0,12.21,4.26c2.13.65,4.33,1.09,6.59,1.58a27.26,27.26,0,0,0,7.6.54l-1,.65-.82.5c-.57.36-1,.62-1.52.9-1,.54-2,1.12-2.89,1.57a105.55,105.55,0,0,1-23.33-6.89Z" transform="translate(-6.41 -50.09)"/><path class="cls-8" d="M298.84,1260.64a162,162,0,0,1-11.23,21l5.19-1.81c2.05-3.36,4-6.69,5.82-10s3.47-6.72,4.9-10.14C302,1260.1,300.4,1260.34,298.84,1260.64Z" transform="translate(-6.41 -50.09)"/><path class="cls-8" d="M293.12,1283.48c3.65,2.1,7.41,4.07,11.31,6,3.88,1.83,7.9,3.68,12.07,5.3-1.83.68-3.65,1.17-5.47,1.75-3.78-1.48-7.44-3.18-11-4.93s-7-3.57-10.4-5.49Z" transform="translate(-6.41 -50.09)"/><path class="cls-8" d="M278.79,1266.22q-3.07,5-6.43,10-3.41,4.89-7.1,9.8l5.34-1.36c2.4-3,4.68-6.23,6.87-9.38s4.29-6.28,6.22-9.54C282.05,1265.93,280.46,1266.16,278.79,1266.22Z" transform="translate(-6.41 -50.09)"/><path class="cls-8" d="M270.57,1288.33c3.45,2.52,7,4.87,10.59,7.16s7.36,4.63,11.19,6.7c-1.82.39-3.65.83-5.48,1.11q-5.25-3-10.25-6.08c-3.33-2.12-6.59-4.33-9.77-6.51Z" transform="translate(-6.41 -50.09)"/><path class="cls-8" d="M257.79,1269.88q-3.54,4.72-7.34,9.48c-2.53,3.15-5.17,6.14-7.86,9.23l5.43-.92c2.64-2.81,5.17-5.91,7.64-8.83s4.88-5.85,7.15-9C261.15,1269.94,259.48,1269.94,257.79,1269.88Z" transform="translate(-6.41 -50.09)"/><path class="cls-8" d="M247.71,1291.28c3.25,2.81,6.55,5.35,10,8s6.88,5.29,10.46,7.68c-1.83.26-3.65.45-5.47.59-6.56-4.57-12.81-9.2-18.82-14.17Z" transform="translate(-6.41 -50.09)"/><path class="cls-8" d="M236.28,1272c-5.22,5.9-10.73,11.9-16.51,17.66,1.84-.13,3.66-.38,5.49-.62,5.61-5.54,11-10.93,16.08-16.74Z" transform="translate(-6.41 -50.09)"/><path class="cls-8" d="M224.72,1292.61c6.11,5.73,12.48,11.63,19.18,17l-5.44.25c-6.16-5.09-12.07-10.17-17.75-15.39C222.05,1293.91,223.39,1293.24,224.72,1292.61Z" transform="translate(-6.41 -50.09)"/><path class="cls-8" d="M214.46,1272.56c-2.8,2.84-5.66,5.7-8.59,8.52l-9,8.2,5.51-.28c5.93-5,11.63-10.51,17.11-15.74Z" transform="translate(-6.41 -50.09)"/><path class="cls-8" d="M201.69,1292.56c5.77,6.3,11.8,12.07,18.08,18.13l-5.39-.18-8.56-8-8.23-8.33Z" transform="translate(-6.41 -50.09)"/><path class="cls-8" d="M192.54,1272q-8.85,8-18.41,15.73c1.83.08,3.68,0,5.52,0,6.2-4.82,12.15-9.64,17.94-14.81Z" transform="translate(-6.41 -50.09)"/><path class="cls-8" d="M178.7,1291.27c5.41,6.41,11.13,12.92,17.07,19l-5.38-.38c-5.52-5.67-10.82-11.49-15.88-17.25Z" transform="translate(-6.41 -50.09)"/><path class="cls-8" d="M170.84,1270.2c-6.2,5.12-12.58,9.82-19.33,14.52l5.5.36c6.48-4.23,12.76-9,18.74-13.6Z" transform="translate(-6.41 -50.09)"/><path class="cls-8" d="M155.83,1288.52c4.95,7,10.29,13.47,15.91,20.17l-5.4-.8c-5.21-5.9-10.16-12.12-14.8-18.27Z" transform="translate(-6.41 -50.09)"/><path class="cls-8" d="M149.58,1267a232,232,0,0,1-20.32,12.87l5.44.84c6.81-3.68,13.38-7.91,19.61-12.1C152.7,1268.14,151.15,1267.51,149.58,1267Z" transform="translate(-6.41 -50.09)"/><path class="cls-8" d="M133.22,1284c4.33,7.33,9.19,14.31,14.39,21.4-1.8-.33-3.6-.81-5.4-1.21-4.82-6.32-9.3-12.93-13.37-19.46Z" transform="translate(-6.41 -50.09)"/><path class="cls-8" d="M129.12,1262a162.56,162.56,0,0,1-21.36,10.56l5.26,1.54c3.6-1.46,7.14-3.12,10.52-4.74s6.79-3.53,10-5.33Z" transform="translate(-6.41 -50.09)"/><path class="cls-8" d="M111.15,1277.24c1.71,3.91,3.66,7.63,5.7,11.52s4.27,7.51,6.6,11.32l-5.38-1.75a178.18,178.18,0,0,1-11.35-21Z" transform="translate(-6.41 -50.09)"/><path class="cls-8" d="M110.21,1255a88.84,88.84,0,0,1-21.93,6.84,44.09,44.09,0,0,0,4.53,2.59,105.56,105.56,0,0,0,21.27-6.94Z" transform="translate(-6.41 -50.09)"/><path class="cls-8" d="M90.33,1267.09a120.14,120.14,0,0,0,9,24.8L94,1289.31a105.62,105.62,0,0,1-8.13-23.21A36.11,36.11,0,0,0,90.33,1267.09Z" transform="translate(-6.41 -50.09)"/><path class="cls-11" d="M194.49,437C145.67,414.44,120.7,362.45,111,312.24,99.45,252.49,119.46,216,164,177c57.63-50.39,123.29-65.13,193.49-30.9,37.4,18.24,94.61,69.22,62.69,116.74-22.12-9-14.76-45.59-3.88-62.28,19-29.1,58.3-41,91.36-39.27,89.18,4.61,113.23,97.6,42.28,144.15,47-46,131.7,40.37,136.31,84.66C691.76,442.74,635.1,517.77,576,495c41.93-6.76,63.51,41.13,65.34,76.07,2.42,46.22-29.43,100.78-71.29,120.07-68.14,31.41-187,6-198.74-81.62,9.24,59.72-90,65.74-126.88,62.67C187,667.37,123.37,640.66,91.28,590.69,63.94,548.11,49,491.37,64.59,442c8.82-28,69.11-120.81,103.79-80.45" transform="translate(-6.41 -50.09)"/><path class="cls-12" d="M31.67,374.26C70,330.53,162.17,311,198.16,369.4c-25.38-39.38,43-74.95,70.09-84.4,42.16-14.71,95.67-15.87,134.15,9.4,32.78,21.53,61.23,57,65.78,96.87,1.66,14.59-3.35,55.1-17.15,77.22a186.56,186.56,0,0,1,25.21,29.32c27,38.67,24.37,70.85,5.09,112.5-24.93,53.86-66.77,85-127.28,82.9-17.32-.61-41.64-6.1-59.28-17.83-5.21,25.53-28.58,45.47-51.86,54.42-61.26,23.57-106.06-27.6-80.22-80.14-25.63,34-102.35,2.27-118.4-25.58-17.28-30-8.27-85.2,24.4-103.23-20.84-1-40.36-20.88-49.64-39.07C2.76,449.8,8.11,401.13,31.67,374.26Z" transform="translate(-6.41 -50.09)"/><path class="cls-12" d="M953.3,171.85c-25.39-24.74-7.28-65.7,14.77-85.77,43.08-39.2,127.5-43.56,180.39-26.58,45.83,14.71,90.92,59.76,102,110.3,9.35,42.56-2,82-14.18,104.46,26.07-11.91,52.57,5.81,25.35,29.11,55.67-17.28,110.79-6.05,132.81,53.45,21.56,58.24-29,86.16-81.55,85.47,61.27,11.38,107.5,63.12,97.58,126.86C1399,643.34,1305.74,654,1247.42,626.6c46.17,16.83,8.52,53.94-25.58,31,19.41,28.52,1.68,49.08-27.79,55.58-20,4.4-40.38-.24-58.48-9.36-14.67-7.39-21.66-22.18-34.44-29.76,4.6,30.33-2.62,52.3-35.51,60-39.73,9.27-69.06-16-85.63-49.32-17.38,68-121.38,65.95-170.15,56.91C754.5,731.37,692.76,664,754.07,634.8c-22.11,10.49-99.91,7.68-106.14-51-6.34-59.6,53.28-88.13,83.4-95.88-30.4-2.83-22.22-28.42.1-36.93-43.91-6.46-91.07-45.09-87.19-93.2,6.31-78.2,90.35-92.06,152.72-91.62-52.64-13.54-60.9-80.45-28-116.87,40.8-45.16,149.25-29.58,182.28,22.55" transform="translate(-6.41 -50.09)"/><path class="cls-6" d="M772.14,280.07c-69.54,9.29-29-67.3,15.34-59.23-32.69-16.15,14.41-68.73,37.31-75.37,29.85-8.65,69.28,8.29,72.68,42.44,15.31-7.62,32.09-12,46.86-12.2,56.12-.89,62.29,52.34,13.4,75.75,27.83,2.16,96.31,13.46,81.16,61.64-10.63,33.82-70,18.32-90.19,6.84,21,27.34,51.57,90.63.18,105.85-40.46,12-79.36-30.51-79.13-68.49-30.28,34.7-77.13,28.16-111.47,3.42C711.62,327.09,738.7,306.65,772.14,280.07Z" transform="translate(-6.41 -50.09)"/><path class="cls-6" d="M740.06,578.49c-76.29,9.92-31.79-71.87,16.83-63.26C721,498,753.94,440,797.83,434.75c33.84-4.06,76,8.85,79.74,45.32,16.8-8.14,35.21-12.78,51.41-13,61.58-1,68.35,55.9,14.71,80.9,30.53,2.3,87.07,12.47,70.45,63.93-11.67,36.12-58.22,21.46-80.36,9.2,23,29.19,46.9,80.07-9.47,96.33-44.39,12.79-77.41-15.87-77.15-56.43-33.22,37.06-71,46.67-108.71,20.24C687.25,645.3,703.37,606.88,740.06,578.49Z" transform="translate(-6.41 -50.09)"/><path class="cls-6" d="M216.66,474.24C170,480.56,197.21,428.47,227,434c-22-11-1.81-47.92,25-51.27,20.71-2.59,46.5,5.64,48.78,28.87,10.28-5.19,21.55-8.14,31.46-8.3,37.67-.6,41.82,35.6,9,51.53,18.68,1.46,53.27,7.94,43.1,40.72-7.14,23-35.62,13.66-49.17,5.86,14.09,18.59,28.7,51-5.79,61.35-27.16,8.15-47.36-10.1-47.2-35.94-20.33,23.61-43.45,29.73-66.51,12.9C184.35,516.8,194.21,492.33,216.66,474.24Z" transform="translate(-6.41 -50.09)"/><path class="cls-6" d="M93.07,578.54c-40.77,5.52-17-40,9-35.19-19.16-9.59-1.58-41.84,21.87-44.77,18.09-2.26,40.62,4.92,42.61,25.21,9-4.53,18.81-7.11,27.47-7.25,32.9-.52,36.52,31.1,7.86,45,16.31,1.28,46.52,6.93,37.64,35.56-6.23,20.09-31.11,11.93-42.94,5.12,12.31,16.24,25.07,44.54-5.06,53.58-23.72,7.12-41.36-8.82-41.22-31.39-17.75,20.62-37.95,26-58.08,11.26C64.85,615.71,73.46,594.33,93.07,578.54Z" transform="translate(-6.41 -50.09)"/><path class="cls-6" d="M1052.89,384.09c4.41-27.3,43.38-30.94,66.12-25.08-27.21-9-40.3-51.14-12.87-69.14,25.14-16.51,58.88-5.52,80,13.18-1.47-15.48,2.63-31.63,13.12-46,19.26-26.42,67.52-27.9,65.08,6,13.57-45.47,67.83-86.52,121.08-26.35,43.94,49.65,27.18,85.89-11,113,13.26.74,41.17-10.16,49.46,7.91,9.81,21.37-19.78,25.68-33.47,28.84,49.92-5.17,104.36,54.4,91.28,105.94-11,43.34-61.81,52.38-100.84,39.4,27.24,31,9.58,85.78-29.25,96.37-62.09,16.93-93.56-17.66-102.16-56.33-.73,39.44-46.65,42.34-40.8,1.53-26.74,61.29-118.93,12.74-134.41-31.22-17.83-50.67,10.54-88.77,59.49-102.56C1103.29,440.51,1045.89,427.42,1052.89,384.09Z" transform="translate(-6.41 -50.09)"/><path class="cls-5" d="M986.24,1303.22c8.13,0,146.5-27.32,254.9-21.13s186.94,17.82,129.94,34.38-162.67,7.57-235.87,10-151.82,4.83-162.62-3.66S986.24,1303.22,986.24,1303.22Z" transform="translate(-6.41 -50.09)"/><path class="cls-5" d="M275,1373.12s152.69-12.69,469.25-25.25c352.57-14,779.58-6.12,703.42,64.53S931.26,1436.68,715,1445.51,223.32,1476.19,80.14,1432,275,1373.12,275,1373.12Z" transform="translate(-6.41 -50.09)"/><path class="cls-13" d="M782.28,1420.8h0c.53.19,1,.39,1.56.6,12,4.9,18.9,13.49,29.06,15.28,4.38.78,22.51.66,42.07.36h.63l2.73,0h.78l25.56-.46,2.24,0,1.15,0,2.49,0H891c6.12-.09,11.35-.15,15-.14h2.43a23.55,23.55,0,0,1,3.09.17c4.72,1,11.92,7,19.26,6.38s20-6.62,19.66-10.83a9.21,9.21,0,0,0-3.3-6.39s4.4-3.67,3.64-8.32c-.66-4-3.35-5.6-3.68-8.16.44-2.54,3.21-3.94,4-8,1-4.6-3.25-8.49-3.25-8.49a9.16,9.16,0,0,0,3.59-6.21c.53-4.19-11.83-10.82-19.13-11.85s-14.78,4.66-19.54,5.37a17.93,17.93,0,0,1-2.33,0h0l-3.48-.14-.6,0-1.57-.09-.68,0-1.67-.09-.88-.06-1.12-.07-1.71-.1-1-.07-2.11-.14-.58,0c-3.11-.2-6.49-.44-10.07-.69l-1.5-.1h0l-13.61-1h0l-3.18-.22-1.92-.14-.82-.06-3.4-.23-.27,0c-21-1.44-41.22-2.68-45.93-2.1-10.22,1.26-17.47,9.48-29.72,13.74l-1.21.41a.39.39,0,0,0-.17-.06.7.7,0,0,0-.48.27,109.61,109.61,0,0,1-20.48,4.07V1391a103.13,103.13,0,0,0,18.58-4.32.67.67,0,0,1,.49-.31.45.45,0,0,1,.18.07l1.25-.46c12.74-4.87,20.28-14.21,30.9-15.67,4.89-.67,25.93.69,47.69,2.27l.28,0,3.52.26.86.06,2,.15,3.3.24h.05l14.13,1h0l1.56.11c3.71.28,7.23.53,10.45.76l.61,0,2.19.16,1.05.07,1.77.12,1.16.07.92.06,1.73.11.71,0,1.63.09.62,0c1.43.07,2.65.13,3.61.15h0a17.66,17.66,0,0,0,2.43,0c4.94-.83,12.7-7.3,20.29-6.15s20.4,8.64,19.85,13.39a10.56,10.56,0,0,1-3.75,7.06s4.38,4.4,3.36,9.62c-.88,4.56-3.76,6.15-4.23,9,.34,2.9,3.13,4.65,3.81,9.25.78,5.26-3.8,9.43-3.8,9.43a10.66,10.66,0,0,1,3.42,7.24c.33,4.78-12.81,11.59-20.44,12.34s-15.09-6.11-20-7.19a22.36,22.36,0,0,0-3.21-.19h-2.52c-3.82,0-9.25.07-15.61.19h-.42l-2.59,0-1.19,0-2.33,0-26.54.58h-.81l-2.84.06h-.65c-20.31.39-39.14.57-43.69-.3-10.54-2-17.65-11.73-30.14-17.26l-1.61-.69h0a100.78,100.78,0,0,0-18-5.27v-1.75A108.2,108.2,0,0,1,782.28,1420.8Z" transform="translate(-6.41 -50.09)"/><path class="cls-14" d="M783.22,1388.77a.39.39,0,0,1,.17.06l1.21-.41c12.25-4.26,19.5-12.48,29.72-13.74,4.71-.58,25,.66,45.93,2.1l.27,0,3.4.23.82.06,1.92.14,3.18.22h0l13.61,1h0l1.5.1c3.58.25,7,.49,10.07.69l.58,0,2.11.14,1,.07,1.71.1,1.12.07.88.06,1.67.09.68,0,1.57.09.6,0,3.48.14h0a17.93,17.93,0,0,0,2.33,0c4.76-.71,12.23-6.4,19.54-5.37s19.66,7.66,19.13,11.85a9.16,9.16,0,0,1-3.59,6.21s4.22,3.89,3.25,8.49c-.84,4-3.61,5.42-4,8,.33,2.56,3,4.11,3.68,8.16.76,4.65-3.64,8.32-3.64,8.32a9.21,9.21,0,0,1,3.3,6.39c.34,4.21-12.31,10.18-19.66,10.83s-14.54-5.42-19.26-6.38a23.55,23.55,0,0,0-3.09-.17H906c-3.68,0-8.91,0-15,.14h-.41l-2.49,0-1.15,0-2.24,0-25.56.46h-.78l-2.73,0H855c-19.56.3-37.69.42-42.07-.36-10.16-1.79-17-10.38-29.06-15.28-.52-.21-1-.41-1.56-.6h0a108.2,108.2,0,0,0-20-5.15v-22.54a109.61,109.61,0,0,0,20.48-4.07A.7.7,0,0,1,783.22,1388.77Z" transform="translate(-6.41 -50.09)"/><path class="cls-13" d="M760.49,1404c0-6.54-.55-12.09-2-14.16A2.11,2.11,0,0,1,760,1389c2.55,0,3.43,6.73,3.43,15s-.88,15-3.43,15a2.11,2.11,0,0,1-1.54-.88C759.94,1416.11,760.49,1410.56,760.49,1404Z" transform="translate(-6.41 -50.09)"/><path class="cls-14" d="M753.43,1417c-.49,0-1,0-1.44,0-1.28-2.83.85-9,.85-13.62,0-4.33-2-8.87-1.38-11.48a1.71,1.71,0,0,1,.65-.91c.68,0,1.38.07,2.1.07a27.52,27.52,0,0,0,5.09-.45c1.15,2,2,7.23,2,13.33,0,6.46-.92,11.91-2.18,13.67A23.76,23.76,0,0,0,753.43,1417Z" transform="translate(-6.41 -50.09)"/><path class="cls-13" d="M750.68,1404c0-6.54-.55-12.09-2-14.16a2.11,2.11,0,0,1,1.54-.88c2.55,0,3.43,6.73,3.43,15s-.88,15-3.43,15a2.11,2.11,0,0,1-1.54-.88C750.13,1416.11,750.68,1410.56,750.68,1404Z" transform="translate(-6.41 -50.09)"/><ellipse class="cls-15" cx="742" cy="1353.87" rx="3.05" ry="14.27"/><path class="cls-16" d="M950.75,1419.6a11.57,11.57,0,0,1-3.62,6.05,9.21,9.21,0,0,1,3.3,6.39c.34,4.21-12.31,10.18-19.66,10.83s-14.54-5.42-19.26-6.38a23.55,23.55,0,0,0-3.09-.17H906c-3.68,0-8.91,0-15,.14h-.41l-2.49,0-1.15,0-2.24,0-25.56.46h-.78l-2.73,0H855c-19.56.3-37.69.42-42.07-.36-10.16-1.79-17-10.38-29.06-15.28-.52-.21-1-.41-1.56-.6h0l-1.33-.49Z" transform="translate(-6.41 -50.09)"/><path class="cls-17" d="M921.17,999.35l3.51,16.42s9,7.39,15.15,25.24,8.18,68.35,11.38,79.24,18.12,32.19,9.66,34.25-75,10.73-77.87,5.36,39.43-18.19,46.54-28.88-41.64-113.91-41.64-113.91l4.68-23.2" transform="translate(-6.41 -50.09)"/><path class="cls-18" d="M960.87,1154.5c5.17-1.26,1.59-9.72-2.69-18.59-5.63.95-12.69,2-15.59,2-3.73,0-10.15-4.19-13.41-6.51-2,2.73-6.29,5.59-11.43,8.42l-20.55,21.67C918,1161,954.74,1156,960.87,1154.5Z" transform="translate(-6.41 -50.09)"/><path class="cls-19" d="M953.25,861.36S967.56,875,969,899.27s-24.43,100.11-24.43,100.11-9.92,2.08-33.41,1.62a333.91,333.91,0,0,0-39.16,1.26s13.73-44.1,14.79-73,3.47-49.83,3.47-49.83" transform="translate(-6.41 -50.09)"/><path class="cls-20" d="M833,986.76l-3.34,173.68s-18.76,20.58-94.08,21c-67.74.34-93.14-21-93.14-21l-5.84-173.68" transform="translate(-6.41 -50.09)"/><ellipse class="cls-18" cx="728.4" cy="936.78" rx="98.2" ry="16.78"/><path class="cls-21" d="M906.17,1001.2l2.57,17.67s8.56,8.41,13.69,27.76,4.28,73.19,6.85,85,16.25,35.34,7.7,37-75.48,6.85-78.05,1,40.4-17,48.1-27.89S872,1018,872,1018l6-24.39" transform="translate(-6.41 -50.09)"/><path class="cls-22" d="M946.06,864.79s13.52,14.42,13.52,38.74-34.45,99.62-34.45,99.62-6.09,5.79-29.52,4-38.74-6.31-38.74-6.31,16.22-43.24,18.92-72.07,6.31-49.55,6.31-49.55" transform="translate(-6.41 -50.09)"/><path class="cls-23" d="M819,763.89s18-9,65.77,20.72,79.28,88.29,79.28,88.29-18,21.62-44.14,36a172.28,172.28,0,0,1-51.4,18.23s13.82-47.09-34.23-77.42c-30.24-19.09-38.94-47.3-33.54-65.32S819,763.89,819,763.89Z" transform="translate(-6.41 -50.09)"/><path class="cls-21" d="M749.38,716.89C777.13,716,783.2,739.4,788.11,748s19,15.13,19,15.13l-.29,34.78a18.28,18.28,0,0,1-1.65,3.35,5.66,5.66,0,0,1-.76.95c-.08.09-.18.17-.27.26-.82-1.12-1.68-2.2-2.59-3.23-3.53-4-8-7.58-13.3-8.77a2.5,2.5,0,0,0-.78-.06l-.26-.27-.28.38a1.23,1.23,0,0,0-.89,1s0,0,0,.07c-2.37,2.82-8.2,8.82-16.16,10.38-10.5,2.06-24.78-9.85-24.78-9.85s-8.58,3-10,1.09,3.94-9.15-.73-17.94c-4.3-8.1-12.93-17.53-12.93-17.53s2.66,1.64-.75-2.63S721.62,717.75,749.38,716.89Z" transform="translate(-6.41 -50.09)"/><path class="cls-24" d="M737.33,749.16c8.15,11.39,19.9,5.46,28.27,9.28-4.18-5.11,1.21-10,6.49-10,7.62.08,6.42,5.56,8.82,10.72,4.63,9.93,21.39,1.89,24.79-6.16-3.91,1.52-8.06,1-11.9-.44,4.06-2.91,9.16-2.5,11.91-7.34-4,.28-7.28.55-10.26-2.48,3-.42,6.8-.39,7.26-3.92-8.08.27-12.05-1.82-18.64-5.85-7.82-4.8-18.22-6.93-25.13.26" transform="translate(-6.41 -50.09)"/><path class="cls-25" d="M784.87,733.55l-66,26.85s-8-8.51,1.75-29.47,34.18-20.58,45-17.86S784.87,733.55,784.87,733.55Z" transform="translate(-6.41 -50.09)"/><path class="cls-26" d="M718.86,760.4s1.95,2.6-9,9.22a128.25,128.25,0,0,1-18.78,9.59s4.86,5,16.77,1,17.82-9.59,22.76-16.36a64.08,64.08,0,0,0,6.78-11.1" transform="translate(-6.41 -50.09)"/><polygon class="cls-9" points="741.58 719 731.62 722.52 737.1 726.9 741.58 719"/><path class="cls-24" d="M740.71,772.39a11.37,11.37,0,0,1,5.06.6l-2.27,4-4.85-3.87A4.69,4.69,0,0,1,740.71,772.39Z" transform="translate(-6.41 -50.09)"/><path class="cls-24" d="M742.36,762.91s-12,.38-10.35,2.35a5.56,5.56,0,0,0,3.18,2.15l7.92-2.75" transform="translate(-6.41 -50.09)"/><path class="cls-27" d="M769.11,758.33c-1.58-2.74-1.08-5.57,2.54-5.9,2.82-.26,4.54,1.84,5.76,4.19,2,3.73,1.52,9-4.14,7.39,5.58-.07,2.3-10.58-2.22-7.87,3.83-.39,1.89,5.1-2.18,2.19a7.87,7.87,0,0,0,.84,0" transform="translate(-6.41 -50.09)"/><path class="cls-9" d="M840.19,769c2.47.15,12.55-4.77,23.78,9.64s15.86,45.92,15.86,45.92a50.06,50.06,0,0,1-22.16,9c-13.1,1.83-20.84-.4-20.84-.4s-11.79-33.86-9.74-45.84S840.19,769,840.19,769Z" transform="translate(-6.41 -50.09)"/><path class="cls-21" d="M828.5,950c.54.53,1,1.08,1.61,1.58q1.65,1.47,3.42,2.79l.91.66.7.47.17.11,1,.59a38.11,38.11,0,0,0,4.16,2.16c.66.3,1.34.58,2,.83l.69.25h0c.76.18,1.58.29,2.38.41,4.21-10.8,28.54-73.87,28.77-86.42.17-9.57-1.72-31.5-2.88-43.95a49.15,49.15,0,0,1-13.79,4.11,71.62,71.62,0,0,1-11.26.7c.42,4,.9,8.7,1.47,14.27C850.34,872.7,836.72,938.58,828.5,950Z" transform="translate(-6.41 -50.09)"/><path class="cls-21" d="M846,954.63l-12.2-9.15c-.79.8-3.36,3.09-6.29,5.92-5.94,4.2-21.66,15.41-23.6,17.8-2.4,3-8.1,10.61-5.19,12.47s6.46-5.56,9.45-8c.19-.16.44-.35.67-.52l-.22.26c-2.4,3-9.23,12.83-6.33,14.69s7.59-7.78,10.58-10.26c.57-.47,1.32-1,2.11-1.61-2.45,3-8,10.5-5.09,12.34s6.46-5.55,9.45-8c.7-.59,1.63-1.28,2.64-2-2.62,3.35-7.22,9.94-4.55,11.65,2.91,1.86,6.46-5.56,9.46-8,2.12-1.76,6.3-4.55,8.55-6a6.25,6.25,0,0,0,.65-.12C841.4,974.45,846.73,960,846,954.63Z" transform="translate(-6.41 -50.09)"/><path class="cls-20" d="M916.29,1148.81c-1.9-1.13-7-4-10.32-5.85-9.9,10.52-49.51,21-47,26.63,2.57,5.88,69.49.71,78.05-1,5.5-1.08,1.8-11.21-2.22-21.44C924.18,1149.41,919.11,1150.51,916.29,1148.81Z" transform="translate(-6.41 -50.09)"/><path class="cls-21" d="M1080.48,823s29.64,101.89,24.08,136c-3.94,24.13-15.27,64.43-26.11,91.25-4.5,11.13-13,19.73-14.35,24.22-4.71,15.3,0,44.54,6.38,54.65s23.3,19.19,23.3,19.19,1.61-36.66,4.75-46.86.15-36.1.15-36.1,44-77.24,49.43-120.86-8.93-98.74-8.93-98.74" transform="translate(-6.41 -50.09)"/><path class="cls-28" d="M937.49,662.41s-45,34.58-40.69,38.22,37.72-26,38.32-27.81" transform="translate(-6.41 -50.09)"/><path class="cls-21" d="M1167.65,973l99.89,21.73L1132,1141.45s12.79,18.6,31.29,75.22c13.54,41.43,34.67,116.2,45,153.36a47.51,47.51,0,0,1-20.8,7.5c-16.58,1.81-33.06-3.39-47.84-10.5-1-.49-2-1-3-1.53,7.36-4.25,12.5-9.12,12.83-14.75,1.51-25.7-82.71-179.4-90.74-211.61S1167.65,973,1167.65,973Z" transform="translate(-6.41 -50.09)"/><path class="cls-21" d="M1223.06,1177.53c14.73,6.18,30.75,9.87,46.77,9.64-.8-.85-1.26-1.32-1.26-1.32s89.87-160.06,86.21-222.13S1292.11,836,1292.11,836l-31.81,58.47s-57.2,237.27-59.64,271.47A165.07,165.07,0,0,0,1223.06,1177.53Z" transform="translate(-6.41 -50.09)"/><path class="cls-21" d="M1332.78,1259.5c-10.73-28.36-36.3-52.59-52-65.46-23.63,7.89-49.56,7.26-74.07,1,30.19,42.18,125.65,155.79,118.84,176.55-10.78,32.86-72.91,48.75-53.28,66.76s131.58-38.45,131.58-38.45S1348.76,1301.73,1332.78,1259.5Z" transform="translate(-6.41 -50.09)"/><path class="cls-29" d="M1260.48,993.14c-2.91,5.33-7.43,13.53-12.94,23.19L1132,1141.45s12.79,18.6,31.29,75.22c.88,2.67,1.78,5.48,2.71,8.4l-17.24,2.65c-15.24,2.35-35,2.08-49.87,1.34-18.91-39.25-36.67-76-40.15-89.92-8-32.21,108.92-166.19,108.92-166.19Z" transform="translate(-6.41 -50.09)"/><path class="cls-29" d="M1223.06,1177.53c14.73,6.18,30.75,9.87,46.77,9.64-.8-.85-1.26-1.32-1.26-1.32s75.53-99.48,95.07-219.52c4.7-28.94-26-67.73-31.65-82.1l-8.47,34.52s-43.41,21.76-80.56,48.79c-17,72.75-40.74,176.58-42.31,198.36A165.78,165.78,0,0,0,1223.06,1177.53Z" transform="translate(-6.41 -50.09)"/><path class="cls-29" d="M1267.22,1180.61c-23.63,7.88-85.83-56-60.46,14.42,10.72,15,29.66,39,49.34,64.59,22.27-3.7,46.85-15.93,63.07-25.19C1307.06,1217.13,1284.08,1190.73,1267.22,1180.61Z" transform="translate(-6.41 -50.09)"/><path class="cls-24" d="M1067.64,648.86c18.39-17.35,52.43-29.8,73.3-10.14,4,3.81,4.87,6.44,10.8,5.82,6.17-.65,13.59-4.77,19.63-6.54,19.81-5.81,35.61-5.16,54.5,3.83,30.05,14.3,26.11,57.15-1.48,72-17,9.18-32.81,7.78-51.23,1.38-11.88-4.13-23.28-17.86-35.37-19.27-5.29-.62-11.2,1.93-16.3,2.84-9.57,1.69-19.09,1.48-28.26-2.27-11.27-4.61-20.67-12.6-24.09-24.56-1.44-5-4.8-21.1,1.13-23.35" transform="translate(-6.41 -50.09)"/><path class="cls-30" d="M1051.94,764.23c8-35.33,36.77-38.58,36.77-38.58l1.56,94.1s60.52,40.94,35.66,42.53c-34.24,2.2-53.1-5.38-53.1-5.38S1044,799.55,1051.94,764.23Z" transform="translate(-6.41 -50.09)"/><path class="cls-23" d="M1100.34,702.74s58.86-29.63,132.48,33.7,133.89,189.18,133.89,189.18-21.13,53.14-89.12,59.33c-135.89,12.39-118-17.22-118-17.22s22-40.82,18.83-67c-.42-3.56-41.84-34-77.44-59.66-24.77-17.86-45-41.91-49.19-57.56C1041.65,745.39,1100.34,702.74,1100.34,702.74Z" transform="translate(-6.41 -50.09)"/><path class="cls-21" d="M1073.33,680.81l28.52,21.72s13.27,49-6.33,67.28-28.82,5.07-30.14-14.53c-.84-12.43-27.75-24.3-27.75-24.3" transform="translate(-6.41 -50.09)"/><path class="cls-21" d="M1063.61,644.46l-1.15,11.68-.57-.12C1012.37,638.13,1030,597.7,997,596.9c-22.62-.55-49.61,6.06-51.62,33.38l-.51-.12s5.54,48,24.25,83.78c13.19,25.24,46.6,42.47,58.47,39.52,47.6-11.82,49.07-78.74,49.07-78.74" transform="translate(-6.41 -50.09)"/><path class="cls-9" d="M1001.13,675.33c3.25-.31,30.53-7,30.53-7s-3.05,9.85-9.57,11.58C1007.68,683.74,1001.13,675.33,1001.13,675.33Z" transform="translate(-6.41 -50.09)"/><path class="cls-24" d="M1008.06,673.93l6.14-1.42c5.41-.18,10,2.25,10.9,5.83a8.82,8.82,0,0,1-3,1.56c-9.37,2.5-15.4-.18-18.48-2.36A10.51,10.51,0,0,1,1008.06,673.93Z" transform="translate(-6.41 -50.09)"/><path class="cls-9" d="M961.08,686.81c2.53-.25,23.67-6.36,23.67-6.36s-2.18,9.77-7.23,11.36C966.36,695.33,961.08,686.81,961.08,686.81Z" transform="translate(-6.41 -50.09)"/><path class="cls-31" d="M982.19,668.59c1.45,2.44,2.82,4.94,4,7.51.26.56.51,1.11.75,1.67,0,.06.11.26,0,0l.08.17c.05.14.11.27.16.4l.33.83c.4,1.06.77,2.14,1.09,3.23s.57,2.08.78,3.14c.11.52.2,1,.28,1.56,0,.11,0,.22,0,.33s.09.53,0,.19q.06.39.09.78a43.6,43.6,0,0,1,.21,6.46c-.09,2.41-.33,4.8-.62,7.19,0,.18-.05.35-.07.52s0,.23,0,0l0,.24c0,.28-.08.57-.13.85-.08.5-.17,1-.27,1.48-.15.82-.32,1.63-.42,2.46a3.81,3.81,0,0,0,.14,1.71,3.13,3.13,0,0,0,1.36,1.6,9.54,9.54,0,0,0,2.3.92,21.41,21.41,0,0,0,3.56.73,14.94,14.94,0,0,0,6.64-.63,11.92,11.92,0,0,0,5.58-4,13,13,0,0,0,1-1.51,1.16,1.16,0,0,0-2-1.17c-.14.25-.29.49-.45.73l-.24.34-.13.18c-.15.2.12-.15-.05.06a14.7,14.7,0,0,1-1.07,1.16c-.19.18-.39.34-.59.51l0,0-.17.13-.35.24a9.32,9.32,0,0,1-1.34.77l-.34.16c-.15.08.27-.11,0,0l-.15.06-.75.27a12.79,12.79,0,0,1-1.51.37l-.38.06c-.07,0-.26.06,0,0l-.17,0-.82.07a14.41,14.41,0,0,1-1.61,0c-.27,0-.54,0-.8-.06l-.36,0s-.31,0-.11,0l-.16,0a15.9,15.9,0,0,1-1.67-.33c-.49-.12-1-.25-1.47-.41l-.56-.19-.25-.1c-.11,0-.14-.11.1,0l-.15-.06-.39-.2-.15-.09a.18.18,0,0,0-.07,0l.11.08a2.62,2.62,0,0,0-.25-.22c-.15-.16,0,0,.07.08l-.1-.15a.67.67,0,0,1-.06-.12c.2.3.08.24,0,.11s0-.22-.08-.33c.11.4,0,.24,0,.11v-.17c0-.15,0-.29,0-.43a1.1,1.1,0,0,1,0-.18c0-.28-.05.29,0,0s0-.33.08-.5c.07-.38.15-.76.22-1.14.21-1.09.4-2.17.54-3.27.31-2.37.56-4.75.67-7.14a41.91,41.91,0,0,0-1.18-12.72,57.68,57.68,0,0,0-5.88-13.59c-.36-.63-.73-1.26-1.1-1.89a1.16,1.16,0,1,0-2,1.17Z" transform="translate(-6.41 -50.09)"/><path class="cls-32" d="M1096.61,822.6" transform="translate(-6.41 -50.09)"/><path class="cls-33" d="M1108.4,830.77h0S1108.58,831,1108.4,830.77Z" transform="translate(-6.41 -50.09)"/><path class="cls-33" d="M1149.6,938c-.24-.35-.18-.29,0,0Z" transform="translate(-6.41 -50.09)"/><path class="cls-24" d="M1031.66,668.32l-35,7.85a169.79,169.79,0,0,0,18.79-1.12C1023.62,673.94,1031.66,668.32,1031.66,668.32Z" transform="translate(-6.41 -50.09)"/><path class="cls-24" d="M985.67,679.66l-27.8,7.09a109.75,109.75,0,0,0,15-.78C979.35,685,985.67,679.66,985.67,679.66Z" transform="translate(-6.41 -50.09)"/><path class="cls-24" d="M961.33,687.17c.78-.93,2.16-.36,3.52-1.14,1.45-.38,3.07-.82,4.75-1.28,4.22-.07,7.81,2.46,8.63,6a6.52,6.52,0,0,1-2,1.36C967.29,694.3,962.44,688.68,961.33,687.17Z" transform="translate(-6.41 -50.09)"/><path class="cls-24" d="M952,610.81c-6.65,20.9,12.24,32.26,26.15,38,16.85,6.89,56.3,12.74,75,8.11,4.49-1.11,7.79.89,9.67-2.91,2.51-5.05-.23-3.54,3.19-8.26,5.91-8.14,15.08-2.56,24,1.69-1.69-6.12-6.84-38.38-15.09-46.78-16.85-17.14-32.37-22.36-49.45-25.31-20-3.45-47.21,5.51-64.29,17-5.47,3.68-16.38,14.59-11.62,21.38" transform="translate(-6.41 -50.09)"/><path class="cls-24" d="M961.21,592.3s-24.57,20.54-24,44.44c.74,32,19.68,48.87,19.68,48.87s-11.52-67.55,4.22-76.34" transform="translate(-6.41 -50.09)"/><path class="cls-21" d="M1062.07,660c-9.33-26.19,21.53-30.42,28.8-9.55,2.29,6.58-.07,14.65-3.18,21.07-5.26,10.87-20.23,8.39-19.17.47" transform="translate(-6.41 -50.09)"/><path class="cls-17" d="M998.64,725.05c2.57-.91,7.13.13,15.49-2.65,10.64-3.55,14.58-8.83,14.58-8.83a16.52,16.52,0,0,1-8.6,14.08C1011.28,732.46,998.64,725.05,998.64,725.05Z" transform="translate(-6.41 -50.09)"/><path class="cls-34" d="M1325.18,1372.68a102.77,102.77,0,0,1,12.44-.26c23,.78,10.76,18.86,10.76,18.86s8.49-4.79,18.77-11.74c5.82-3.94,2.15-19.11,14.13-23.73,17.63,12.73,22.62,44.08,22.62,44.08s-112,56.47-131.58,38.45C1252.91,1420.53,1313.39,1404.79,1325.18,1372.68Z" transform="translate(-6.41 -50.09)"/><path class="cls-34" d="M1204.47,1392.92c-6.4,2.08-13.12,2-19.78,2.22-7,.21-14,.31-21,1s-14,2.21-21,3.29c-20.26,3.14-41.58,4.93-61.28-.65-31.61-22.67,58.33-22,67.33-44.86a13.73,13.73,0,0,1,4.51,0c8.78,2.5,7.27,11.34,12.1,13.61,4.23,2,26.39-18.79,38.13-14.8,5.79,9.93,8.88,25,9.92,35.57A31.78,31.78,0,0,1,1204.47,1392.92Z" transform="translate(-6.41 -50.09)"/><path class="cls-35" d="M1296.21,1412.73a238.13,238.13,0,0,0,26.56-1.74c10.09-1.06,20.1-2,29.87-4.88,17.1-5,31.76-14.39,45.74-25,6.16,12.72,6.28,26.67,6.28,26.67s-112,56.47-131.59,38.46C1261.52,1435.63,1278.27,1425.76,1296.21,1412.73Z" transform="translate(-6.41 -50.09)"/><path class="cls-34" d="M1324.69,1372.73a104.76,104.76,0,0,1,12.44-.27c22.95.79,10.75,18.87,10.75,18.87s8.5-4.79,18.77-11.75c5.82-3.93,2.15-19.1,14.14-23.73,17.63,12.74,22.62,44.09,22.62,44.09s-112,56.46-131.58,38.45C1252.42,1420.58,1312.9,1404.83,1324.69,1372.73Z" transform="translate(-6.41 -50.09)"/><path class="cls-35" d="M1080.42,1398.75c19.71,5.58,41,3.79,61.28.66,7-1.08,14-2.57,21-3.3s14-.82,21-1c6.66-.2,13.38-.14,19.78-2.22a32,32,0,0,0,8.44-4.26c.44,2.69.79,5.28,1,7.63a31.83,31.83,0,0,1-8.94,4.6c-6.4,2.08-13.11,2-19.78,2.22-7,.21-14,.3-21,1s-14,2.21-21,3.29c-20.27,3.13-41.58,4.93-61.28-.65-7-5-8-8.94-5.27-12.19A25.17,25.17,0,0,0,1080.42,1398.75Z" transform="translate(-6.41 -50.09)"/><path class="cls-35" d="M1142.12,1361.39c7.55,5.51,15.48,12.33,13.4,14.71-2.37,2.71-12-4.7-19.81-11.12A46.28,46.28,0,0,0,1142.12,1361.39Z" transform="translate(-6.41 -50.09)"/><path class="cls-35" d="M1122.31,1370c2.65-.84,5.23-1.72,7.67-2.65,7.23,5.37,14.38,11.71,12.39,14C1140,1384.1,1130.14,1376.51,1122.31,1370Z" transform="translate(-6.41 -50.09)"/><path class="cls-35" d="M1117,1371.65c7.25,5.38,14.46,11.75,12.46,14-2.44,2.79-12.66-5.19-20.56-11.75C1111.62,1373.19,1114.34,1372.43,1117,1371.65Z" transform="translate(-6.41 -50.09)"/><path class="cls-35" d="M1345,1397.08c-1.81,4.7-23.85-4.3-32-7q2.28-2.29,4.28-4.73C1326,1387.17,1346.58,1392.87,1345,1397.08Z" transform="translate(-6.41 -50.09)"/><path class="cls-35" d="M1334.42,1406.54c-1.83,4.73-24.16-4.42-32.2-7.11q2.77-2.16,5.41-4.46C1316.87,1397,1336,1402.48,1334.42,1406.54Z" transform="translate(-6.41 -50.09)"/><path class="cls-35" d="M1297,1403.44c9.21,2,28.41,7.51,26.84,11.58-1.86,4.84-25.21-4.86-32.75-7.3C1293,1406.33,1295,1404.91,1297,1403.44Z" transform="translate(-6.41 -50.09)"/><path class="cls-36" d="M1167.21,1082c49.88-38.73,48.85-69.51,60.71-68.81s-2.7,26.59-2.7,26.59l-.18.89-93,100.76s12.79,18.6,31.29,75.22c.88,2.67,1.78,5.48,2.71,8.4l-1.26.2c-6.39-7.85-12.75-17.84-16.1-29.29-8.26-28.25-32.34-57.44-38.15-59.76S1117.33,1120.75,1167.21,1082Z" transform="translate(-6.41 -50.09)"/><path class="cls-11" d="M1083.29,614.84c-4.88,1.26-50.07,10.16-83,20.19s-63.44,21.27-63.44,21.27-18.66-41.45,23.93-71.12,80.57-20.17,95.33-9.28A75.76,75.76,0,0,1,1083.29,614.84Z" transform="translate(-6.41 -50.09)"/><path class="cls-37" d="M897.19,699.75a11.56,11.56,0,0,1-.17-1.18,75.81,75.81,0,0,1,4.68-10.22c3.1-3.06,6.79-5.6,10.13-8.36,3.69-3,7.63-5.74,11.39-8.68,6.19-4.82,11.65-10.39,14.75-17.43,26.57-13,90.36-28.84,90.36-28.84l6.11,0s-14.42,30.47-45,38-65.41,13.83-78.13,22.81C903.06,691.72,899.07,696.68,897.19,699.75Z" transform="translate(-6.41 -50.09)"/><path class="cls-9" d="M1267,768.23" transform="translate(-6.41 -50.09)"/><path class="cls-36" d="M1234,1016.71c-3-2.27-42.53-25.56-32.82-12.41a146,146,0,0,1,15.25,26.06s-24.89-22.43-18.25-10.51,9.83,28.88,9.83,28.88" transform="translate(-6.41 -50.09)"/><path class="cls-21" d="M1184,790.68l45.43-19.23s66.33,123,63.53,148.09c-3.18,28.5-27.42,160.42-27.42,160.42l-28.37-4.43s9-154.07,1.39-172.72S1184,790.68,1184,790.68Z" transform="translate(-6.41 -50.09)"/><path class="cls-21" d="M1239.89,1056.58c-3.22,2-13.14,35.88-16.74,48.32s-10.89,39.84-6.39,42.51c3.63,2.15,13.52-29.4,13.52-29.4s-8,33.11-2.1,34.82,13.48-31.25,13.48-31.25-3.67,32.69,3.82,29.43c5.8-2.52,8.77-30,8.77-30s.06,26.38,5.52,20.3,10-54.71,7.69-71.69" transform="translate(-6.41 -50.09)"/><path class="cls-9" d="M1207.94,723.92c-11.29-11.64-21.9-17.34-31.13-19.71-8-3.67-30.87-12.42-39.87,3.2-11,19.07,5.85,64.51,23.87,75.41a42.28,42.28,0,0,0,12.6,5.08,208.28,208.28,0,0,1,14,23.16q11.52-8.71,23.35-17c11.27-7.84,23.6-14.89,34.57-23.4A331,331,0,0,0,1207.94,723.92Z" transform="translate(-6.41 -50.09)"/><path class="cls-21" d="M1076.75,1077.92s3.62,28.54,7.78,27.4c5.9-1.63,8.12-29.27,6.27-38.87" transform="translate(-6.41 -50.09)"/><path class="cls-21" d="M1238.89,1065.74c-1.17,1.48-12.52,12.12-17.76,18.52s-19.36,18.92-15,23,14-10.43,20-13.62" transform="translate(-6.41 -50.09)"/><path class="cls-17" d="M1067.58,658.1c-2-8.68,8-16,13.46-7.06,3.61,5.89.5,24.17-9.12,16.67,7-1.33,4.73-11.2,1.63-15.22,2.15,5-3.41,11-6.61,4.85" transform="translate(-6.41 -50.09)"/><path class="cls-33" d="M1152.37,943.82a.39.39,0,0,0-.19-.13A.21.21,0,0,1,1152.37,943.82Z" transform="translate(-6.41 -50.09)"/><path class="cls-27" d="M1072.54,681.92c.37,16-1.41,43.36-20.51,57.13a45.61,45.61,0,0,1,10.07,8.88A59.47,59.47,0,0,0,1076,716.26c1.12-10-1.75-26.47-3.07-34.84Z" transform="translate(-6.41 -50.09)"/><path class="cls-9" d="M1177.58,821.58c19,23.86,29.43,46.19,14.32,57.85-15,11.6-41.51,1.26-59.5-22.87-18.86-23.46-22.21-51.76-7.23-63.33S1159.24,797.25,1177.58,821.58Z" transform="translate(-6.41 -50.09)"/><path class="cls-38" d="M1175.41,823.27q2.25,2.91,4.4,5.86L1179,828c2.8,3.91,5.42,7.83,7.73,11.68l-.65-1.09a91.47,91.47,0,0,1,5.64,11l-.42-1a45,45,0,0,1,3,10.14c0-.3-.09-.61-.14-.92a24.45,24.45,0,0,1-.15,9l.18-.8a18,18,0,0,1-3.57,7.48c.17-.21.33-.42.5-.62a19.24,19.24,0,0,1-6.73,5.18l.78-.36a24.77,24.77,0,0,1-9,2.2l.93-.06a33.94,33.94,0,0,1-10.23-1.05l1,.26a48.05,48.05,0,0,1-10.72-4.2l1,.55a67.55,67.55,0,0,1-10.68-7.1l1,.8a87.14,87.14,0,0,1-10.17-9.68l.93,1a100,100,0,0,1-8.9-11.5c.26.39.51.78.77,1.16a88.16,88.16,0,0,1-6.83-12.27c.18.4.36.79.53,1.18a68.13,68.13,0,0,1-4.2-12.11l.27,1.13a47.85,47.85,0,0,1-1.37-11.44c0,.35,0,.7,0,1A33.93,33.93,0,0,1,1121,807.5c-.09.3-.19.6-.28.89a24.54,24.54,0,0,1,4.39-8.17l-.55.66a19.37,19.37,0,0,1,6.7-5.22l-.73.34a17.91,17.91,0,0,1,8.14-1.59l-.82,0a24.88,24.88,0,0,1,8.77,2.11l-.86-.36a44.46,44.46,0,0,1,9.08,5.42l-.88-.66a90.72,90.72,0,0,1,9.26,8.22l-.89-.9c3.15,3.2,6.28,6.72,9.37,10.41l-.9-1.09c1.55,1.88,3.07,3.8,4.58,5.74a8.28,8.28,0,0,0,2.95,2.43,2.52,2.52,0,0,0,2.52,0c1.1-1,.69-3.47-1.13-5.82-3.81-4.9-7.76-9.81-11.66-14.23a119.67,119.67,0,0,0-11.32-11.47,66.06,66.06,0,0,0-6-4.61,40.38,40.38,0,0,0-5.92-3.24,23.39,23.39,0,0,0-10.91-2.12,20,20,0,0,0-10.21,3.57,25.28,25.28,0,0,0-7.84,8.84,32.81,32.81,0,0,0-3.73,12.22,46,46,0,0,0,.75,14.29,66.78,66.78,0,0,0,2.17,8,82.07,82.07,0,0,0,3.4,8.25,101.79,101.79,0,0,0,9.16,15.41,111.3,111.3,0,0,0,12,14.16,84.74,84.74,0,0,0,13.13,10.78,56.73,56.73,0,0,0,13.67,6.68,38.74,38.74,0,0,0,13.34,2,32.82,32.82,0,0,0,6.6-.92,28.2,28.2,0,0,0,6-2.36,21.91,21.91,0,0,0,8.35-7.58,20.26,20.26,0,0,0,3.1-10.25,32.44,32.44,0,0,0-2.09-12,74.57,74.57,0,0,0-6.47-13.22c-2.83-4.68-6.09-9.51-9.68-14.36-1.93-2.61-3.87-5.23-5.88-7.83a9.06,9.06,0,0,0-2.89-2.49,2.36,2.36,0,0,0-2.45,0C1173.3,818.37,1173.6,820.92,1175.41,823.27Z" transform="translate(-6.41 -50.09)"/><path class="cls-39" d="M1146,823.8a3,3,0,0,1,1-1.28.58.58,0,0,0,.44-.19l0,0a1.68,1.68,0,0,1,.4,0,7.71,7.71,0,0,0,1-1,5.66,5.66,0,0,0-.87-.37,1,1,0,0,1-.53-.36,25,25,0,0,0-2.42,2.9,36.29,36.29,0,0,1-3,3.46c.22-.18.44-.36.66-.52C1144,825.36,1145.12,824.53,1146,823.8Z" transform="translate(-6.41 -50.09)"/><path class="cls-39" d="M1145.54,818.44l.27.09a2.39,2.39,0,0,1-.13-.21l0,0-.48.44Z" transform="translate(-6.41 -50.09)"/><path class="cls-39" d="M1148.29,820c-.3-.4-.56-.73-.79-1.08a4.72,4.72,0,0,1-.7-1.43l-.06-.1-.06,0-.34.3a3.52,3.52,0,0,0,.65,1.2.12.12,0,0,1,.06.06A4.18,4.18,0,0,0,1148.29,820Z" transform="translate(-6.41 -50.09)"/><path class="cls-39" d="M1144.65,822.66c1.43-1.93,2.14-2.5,2.51-2.6l-.13-.27-.11-.23c-.35.37-1.28,1.32-2.58,2.64-1.7,1.72-6.6,8.12-6.71,8.28a34.78,34.78,0,0,1,4.21-6.29c.47-.61,1-1.24,1.57-1.9a19.65,19.65,0,0,1,3.28-3.33l-.07-.16-.48.18h0c-.94.78-3.84,3.19-5.67,5-.14.35-.32.8-.49,1.26-.36,1-4.83,6.9-4.83,6.9l2.61-3.83a15.92,15.92,0,0,0,1.8-3.38c-2.32,2.45-5.75,6.3-5.75,6.3s.84-1.17,4.12-5.32c.3-.38.6-.76.91-1.12a33.2,33.2,0,0,0-3.24,3.68c-1.84,2.74-3.1,3.45-1.63,4.47s4.2-2.63,7.28-5.43C1141.63,826.92,1142.59,825.44,1144.65,822.66Z" transform="translate(-6.41 -50.09)"/><path class="cls-39" d="M1147.93,834.76a.36.36,0,0,1,.07.1.91.91,0,0,1,.09.17l0,0,.05,0,.1,0h.07l.05,0,.07,0,.21.06a1.8,1.8,0,0,1,.21.08l.07,0,.1.08c.38.25.41,0,.4-.33a2.94,2.94,0,0,1,0-.64,1.13,1.13,0,0,0-.19-.92,2.77,2.77,0,0,0-.41-.48l-.22,0-.11,0a1,1,0,0,1-.61,0c-.32-.13-.42,0-.46.13a.36.36,0,0,0,0,.11.09.09,0,0,0,0,0s0,.09,0,.14,0,0,0,.08a.61.61,0,0,0,0,.19h0a.43.43,0,0,0,0,.11,2,2,0,0,0,.29.5l.07.09.13.18Z" transform="translate(-6.41 -50.09)"/><path class="cls-39" d="M1148.2,831.2a.42.42,0,0,0,.12.08l.11,0h0l.09,0,.06,0h0l0,0a3.14,3.14,0,0,0,.51.27.87.87,0,0,0,.23.06l.07,0h0a1.8,1.8,0,0,0,.12-.25c0-.39.11-.79.14-1.21a.54.54,0,0,0,0-.26l0,0a1.74,1.74,0,0,0-.1-.19,1.56,1.56,0,0,0-.16-.2.85.85,0,0,0-.23-.18.23.23,0,0,0-.11,0h-.49l-.36,0-.18.05-.18.08,0,0c-.11.1-.12.26-.08.47v0l0,.11a2,2,0,0,0,.13.36c0,.11.08.22.13.33A.88.88,0,0,0,1148.2,831.2Z" transform="translate(-6.41 -50.09)"/><path class="cls-39" d="M1149,837.4a1.16,1.16,0,0,0-.41-.49l-.11-.06h0l-.25-.1-.1,0-.07,0q-.33-.16-.39.06v.06a.71.71,0,0,0,.06.32c.07.22.15.44.22.66s.07.23.1.34a1.2,1.2,0,0,0,.39.63.77.77,0,0,0,.73.22C1149.33,838.86,1149.22,837.88,1149,837.4Z" transform="translate(-6.41 -50.09)"/><path class="cls-9" d="M1145.66,826.67c0,.35,0,.62,0,.91v0l1,.23h0l-1-1.44h0A2.26,2.26,0,0,0,1145.66,826.67Z" transform="translate(-6.41 -50.09)"/><path class="cls-9" d="M1145.46,835.21l.15,0h0l.14,0h0l.26-.07c-.12-.15-.22-.29-.32-.43s-.35-.47-.58-.78h0c0,.12,0,.24,0,.36a1.64,1.64,0,0,0,0,.22,1.64,1.64,0,0,1,0,.22,1.1,1.1,0,0,1,0,.18l0,.24a.88.88,0,0,0,0,.17Z" transform="translate(-6.41 -50.09)"/><path class="cls-9" d="M1145.59,838.78l.09.08.06,0a2.92,2.92,0,0,0,.27.17h0s.14-.16.11-.25v0c-.18-.34-.41-.68-.61-1l-.11,0h0a1.79,1.79,0,0,0,0,.23,4.08,4.08,0,0,0,.1.69l0,0Z" transform="translate(-6.41 -50.09)"/><path class="cls-9" d="M1145.44,831.41a2.69,2.69,0,0,1,.68,0,.83.83,0,0,0,.31,0h0l-.78-1.08-.11,0C1145.68,830.77,1145.28,831,1145.44,831.41Z" transform="translate(-6.41 -50.09)"/><path class="cls-39" d="M1160.79,826.64c-.13.1-.08.38.1.63s.44.37.56.27.08-.38-.1-.63S1160.92,826.54,1160.79,826.64Z" transform="translate(-6.41 -50.09)"/><path class="cls-39" d="M1148.75,840.52a1,1,0,0,0-.71-.46c-.08.05-.77.43-.68.91a1.21,1.21,0,0,0,1.37.74C1149.17,841.53,1149.09,841,1148.75,840.52Z" transform="translate(-6.41 -50.09)"/><path class="cls-24" d="M1175.47,825.35a12.76,12.76,0,0,1-3.36.65c-.77.12-5.47-1.16-8.55-2.13l.81,0-.93-.06.5-1,1-.07-1-.06.53-1,1-.06-1-.07c.17-.32.35-.64.53-1l1-.07-1-.07.51-1,1.06-.07-1-.07q.4-.81.75-1.68c-.33.54-.65,1.1-1,1.66,0-.37,0-.74-.08-1.12a8.63,8.63,0,0,0-.06.94l0,.35h0l-.51.89c0-.36,0-.72-.08-1.07a6.72,6.72,0,0,0-.05.93c0,.17,0,.29,0,.34-.16.28-.33.56-.49.85,0-.34,0-.68-.07-1a5.2,5.2,0,0,0-.06.93c0,.12,0,.22,0,.28l-.5.82c0-.31,0-.62-.07-.93a6.72,6.72,0,0,0,0,.93,1,1,0,0,0,0,.18c-.17.27-.34.54-.5.81,0-.28-.05-.55-.07-.82a6.72,6.72,0,0,0,0,.93s0,0,0,.06l0,.07a21.46,21.46,0,0,1-2.19-.77c-.57-.1-11.62-16.93-11.4-17.08,0,0-.48-.51-.85-.4s1.33,6.87,2.18,9.74a3.67,3.67,0,0,0-3.07.05,5,5,0,0,0-.62.53c-1.25-1.6-4.65-6.19-5.27-7.14-.78-1.14-1.65-2.76-1.81-2.28s.49,1.56.83,2,4.08,5.9,5.73,8.13l-.07.14c-.45.38-1.14,1-2,1.73q-4-4.05-7.83-8.18s-1-1-1.27-.6,1.85,8,3.71,13.92a31,31,0,0,0-4.35,5.07c-1.71,3.09-3.28,3.7-1.46,5.18s4.52-1.91,7.55-4.7a15.24,15.24,0,0,1,.47,1.64c-.07.4-6.31,6.14-6.31,6.14s-8.06.81-9.21.65-6.21-1.49-6.22-1.49,6.44,2,7.38,2.18,9-.48,9.41-1,6.27-5.41,6.05-6.47c0-.22-.33-1.11-.74-2.4.35-.3.7-.58,1-.83l.42-.32c.59,2.77,1.28,5.78,1.89,8.36,0,.72.08,1.44.14,2.17.07.94.24,1.93.38,2.9,0,.09,0,.18,0,.27a3.45,3.45,0,0,1-.25.37c-.22.29-.39.56-.53.77a.55.55,0,0,0-.32.59v0l0,0a1.67,1.67,0,0,0,.21.47c.52.82,1.38,1.4,1.88,1.26l-.18-.15a.77.77,0,0,0,.27-.07,27.94,27.94,0,0,1-.08,6.36c-.81,3.44-2.89,8.9-5,11.41a26.46,26.46,0,0,1-3,2.92c.09.29.17.59.24.87a17.84,17.84,0,0,0,4.29-4.29c.9-1.22,5-10.15,4.76-12.63-.07-.83-.25-2.81-.46-5.13.44-.39.83-.89,1.25-1.21a.1.1,0,0,1,0,0l.12-.06c.38,0,1.81-.29,2.39-4.12a22.74,22.74,0,0,0-.11-7.76c3.3,3.76,7.1,7.76,8.33,8.84,1.73,2.74,9.7,13.47,9.76,13.42s4.1,5.27,5.47,7.37,3.8,6,3.88,5.42-8.29-12-9.31-13.53-8.86-12.52-8.8-12.57l-.07,0c.1-.06.07-.19-.23-.5s-5.59-5.67-9.57-10.09a.75.75,0,0,0-.07-.12,13.36,13.36,0,0,0,1.67,1.48,2.46,2.46,0,0,0,.7.46c.15.09.3.18.46.26a.82.82,0,0,0,.22.13h0a3.43,3.43,0,0,0,3,.14,1.71,1.71,0,0,0,.49-.37.26.26,0,0,0,.14-.19,1.09,1.09,0,0,0,.08-.15c.14-.09.23-.26.22-.59a1.11,1.11,0,0,0,0-.17,6.5,6.5,0,0,0-1.13-3.5.29.29,0,0,1,.33-.1.58.58,0,0,1,.19,0c2,3.28,7.13,10.55,7.71,11.2.6.95,12.51,8.15,13.61,8.71.91.71,11.1,5.68,11.17,5.62s.11-.31.16-.47c-4-1.82-7.9-3.75-11.69-5.76q-6.32-3.93-12.27-8.15-2.23-3-4.4-6.09a23,23,0,0,1,6.4,2.43c2.79,1.9,11,8,11,7.91a3,3,0,0,0-.63-.92c-.42-.2-10.28-7.76-11.23-8.44s-5.77-1.54-5.77-1.54c0-.27,0-.54,0-.81l.12.08c.33,0,.66.07,1,.07a1.68,1.68,0,0,0,.6-.18c.07,0,.12-.09.2-.06l.66.37h0c.06,0,.12,0,.17.11a11.63,11.63,0,0,1,1.12.79c.43.2.86.46,1.29.63a2.41,2.41,0,0,0,.41.13c-.12-.39-.43-.5-.68-.66s-.64-.31-1-.51-.62-.44-.93-.66c0-.07,0-.14,0-.21a12.79,12.79,0,0,1,1.33.5c1.12.55,1.13.57,1.29.39-.81-.38-1.53-.74-2.24-1-.24-.1-.41-.12-.57-.49s-.36-.79-.57-1.27l1,.24,1.21,1-1-.9,1.49.41,1,.79-.86-.74.87.25,1.42,1.08-1.2-1,1.26.34,1.42,1.07-1.21-1c.49.12,1,.23,1.44.31l1.36,1-1.18-1a11.58,11.58,0,0,0,2,.17,19.25,19.25,0,0,1-2.25-.39l.65-.38a3.24,3.24,0,0,0-.7.2l-.22.11-1.18-.32.52-.3a3,3,0,0,0-.7.2l-.06,0-1.15-.37.44-.25a3.24,3.24,0,0,0-.67.18l-1.33-.45.58-.33a3,3,0,0,0-.7.2l-.11.06-1.05-.35.38-.22a5.66,5.66,0,0,0-.59.15c-.4-.12-.79-.25-1.19-.36-.07-.54-.68-1.09-.59-1.38a3.89,3.89,0,0,1,.63-1.09,61.54,61.54,0,0,0,8.26,2.08c1.4.16,3.91-.19,4.65-.77s1.49-3.27,1.58-3.51S1176.24,824.92,1175.47,825.35Zm-29.94,13.36a.05.05,0,0,1,0,0,2.61,2.61,0,0,1-.08-.46,2,2,0,0,1,0-.23,1.79,1.79,0,0,1,0-.23l.11,0,.13.21q.13.53.24,1l-.13-.09-.06,0-.09-.08Zm3.2,3a1.21,1.21,0,0,1-1.37-.74c-.09-.48.6-.85.68-.91a1,1,0,0,1,.71.46C1149.09,841,1149.17,841.53,1148.73,841.71Zm-2.39-24,.34-.3.06,0,.06.1a4.36,4.36,0,0,0,.7,1.42c.23.36.49.69.79,1.09a4.18,4.18,0,0,1-1.24-1,.12.12,0,0,0-.06-.06A3.61,3.61,0,0,1,1146.34,817.67Zm-.68.61,0,0a2.39,2.39,0,0,0,.13.21l-.27-.09-.36.28Zm-8.46-6.1c.16-.41,4.68,4.73,6.57,6.8l-.75.7-.1-.08c-.69-.73-1.37-1.39-1.47-1.22s0,.09,0,.19c-.15-.07-.24-.08-.24,0a1.5,1.5,0,0,0,.43,1.06l.21,1.16c-.64.6-1.29,1.24-1.94,1.87C1138.45,817.83,1137.07,812.47,1137.2,812.18Zm8,16.29c-.22-.77-.47-1.59-.7-2.39l1.2-.91a.59.59,0,0,1-.19.22.2.2,0,0,0-.08.08l0,.32C1145.36,826.67,1145.32,827.59,1145.25,828.47Zm.4-2.06,1,1.44-1-.23v0c0-.29,0-.56,0-.91A2.26,2.26,0,0,1,1145.65,826.41Zm-1.58-1.1c0-.18-.09-.36-.14-.54.33-.37.62-.74.87-1.06.18.2.36.41.56.62Zm-.58-3.1-.08.08-.08.1c-.13-.51-.18-.75-.14-.61A2.22,2.22,0,0,0,1143.49,822.21Zm.4.47.4.47-.57.79c-.08-.3-.15-.58-.21-.83ZM1134,833c-1.47-1-.21-1.73,1.63-4.47a32.16,32.16,0,0,1,3.24-3.68c-.31.36-.61.73-.91,1.12-3.28,4.15-4.12,5.32-4.12,5.32s3.43-3.85,5.75-6.3a15.92,15.92,0,0,1-1.8,3.38c-1.69,2.48-2.6,3.83-2.61,3.83s4.47-5.91,4.83-6.9c.17-.46.35-.91.49-1.26.5-.51,1.1-1.07,1.7-1.63.07.36.15.73.23,1.12l-.55.68a34.78,34.78,0,0,0-4.21,6.29c.08-.13,2.81-3.69,4.91-6.22.06.33.14.68.21,1-.81,1.15-1.27,1.87-1.51,2.26C1138.16,830.35,1135.5,834.05,1134,833Zm8.09-6.13.83-.9c0,.07,0,.14,0,.21l-.22.17C1142.49,826.49,1142.27,826.67,1142.05,826.85ZM1149,837.4c.23.48.33,1.46.16,1.58a.77.77,0,0,1-.73-.22,1.2,1.2,0,0,1-.39-.63c0-.11-.06-.23-.1-.34s-.15-.44-.22-.66a.71.71,0,0,1-.06-.32v-.06q.06-.22.39-.06l.07,0,.1,0,.25.1h0l.11.06A1.1,1.1,0,0,1,1149,837.4Zm.22-3.85a1.12,1.12,0,0,1,.19.92,2.94,2.94,0,0,0,0,.64c0,.33,0,.58-.4.33l-.1-.08-.07,0-.21-.08-.21-.06-.07,0-.05,0h-.07l-.1,0-.05,0,0,0a.91.91,0,0,0-.09-.17l-.07-.1-.06-.09-.13-.18-.07-.09a2.15,2.15,0,0,1-.29-.5.43.43,0,0,1,0-.11h0a.61.61,0,0,1,0-.19.19.19,0,0,1,0-.08s0-.09,0-.14a.09.09,0,0,1,0,0,.43.43,0,0,1,0-.11c0-.17.14-.26.46-.13a1,1,0,0,0,.61,0l.11,0,.22,0A3.29,3.29,0,0,1,1149.21,833.55Zm.43-3.55,0,0a.54.54,0,0,1,0,.26c0,.42-.09.81-.14,1.21,0,.09-.07.14-.12.25l-.07,0a.87.87,0,0,1-.23-.06,3.14,3.14,0,0,1-.51-.27l0,0h0l-.06,0-.09,0h0l-.11,0a.42.42,0,0,1-.12-.08,1,1,0,0,1-.21-.32c0-.11-.09-.22-.14-.33a2.53,2.53,0,0,1-.12-.36l0-.11v0a.49.49,0,0,1,.08-.47l0,0,.18-.08.18-.05.36,0h.49a.23.23,0,0,1,.11,0,.73.73,0,0,1,.23.18,1.56,1.56,0,0,1,.16.2A1.74,1.74,0,0,1,1149.64,830Zm-5.93-9c1-.9,2-1.66,2.42-2h0l.48-.18.07.16a14.93,14.93,0,0,0-2.57,2.52Zm.85,1c1.19-1.21,2-2.07,2.36-2.42l.11.23.13.27c-.34.09-1,.61-2.28,2.29Zm2.93.32,0,0a.58.58,0,0,1-.44.19,3,3,0,0,0-1,1.2l-.71-.81a26.73,26.73,0,0,1,2.08-2.42,1,1,0,0,0,.53.36,5.66,5.66,0,0,1,.87.37,7.71,7.71,0,0,1-1,1A1.68,1.68,0,0,0,1147.49,822.3Zm2.52-.2a1.45,1.45,0,0,1-.36.34c-.06,0-.23-.09-.34-.14s-.06-.37,0-.39a1.91,1.91,0,0,1,.59,0Zm10,7.12c-.47-.67-.93-1.35-1.39-2l.7.78c.25.29.49.58.75.85A2.7,2.7,0,0,0,1160,829.22Zm1.45-1.68c-.12.1-.38,0-.56-.27s-.23-.53-.1-.63.38,0,.56.27S1161.58,827.44,1161.45,827.54Zm.66-2.44c-.13.2-.29.14-.56-.18a5.61,5.61,0,0,0-.82-.8,1.86,1.86,0,0,0-1.19-.86.8.8,0,0,0-.39-.09,6.67,6.67,0,0,0-1,.29,2,2,0,0,1-.58-.08,3.25,3.25,0,0,1-.23-.74,4.24,4.24,0,0,0-.88-2.47c-.24-.45-.59-1-1.07-1.77a8.59,8.59,0,0,0-3.57-2.82c-.65-2.49-1.25-5-1.82-7.56-.15.11,9.4,14.4,10.3,15.31a6.08,6.08,0,0,0,2.25,1.09Z" transform="translate(-6.41 -50.09)"/><path class="cls-38" d="M1118.81,821.21c0,.75,72.65,29,75.28,27l1.71,7.62c-28.14-5.84-51.07-15.95-75.21-24.73" transform="translate(-6.41 -50.09)"/><path class="cls-40" d="M578.5,1259.54c-4.86.93-9.71,2-14.64,2.46a35.76,35.76,0,0,1-11.06-.32q-1.71,1.5-3.69,3.14c-6.94,5.79-15.93,12.77-22.72,19l-.22.2-1.62,1.51-.17.16c-.58.55-1.13,1.09-1.66,1.63l0,0c-.49.49-1,1-1.4,1.45l-.28.3c-.39.42-.75.84-1.1,1.24l-.17.19c-.39.47-.75.92-1.08,1.36l-.13.19c-.18.24-.32.47-.48.69a12.31,12.31,0,0,0,6.32,7.3c24.43,1.55,63.38-20.55,67.25-29,.55-1.23-1.13-7.76-2.54-13.36C585.52,1258.35,581.91,1258.89,578.5,1259.54Z" transform="translate(-6.41 -50.09)"/><path class="cls-40" d="M470.32,1243.67c-5.88.58-2.35-3.54-8.82-8.83a6.27,6.27,0,0,0-2.75-1.24c-6.49,11.86-42.33,18-47.86,24.19-1.51,1.7-.34,6.27,3.87,7.51,20.72,6.08,76.55-6.23,81.16-8.1,1.35-.55-2.64-9-7-20.69C482.88,1239.1,475,1243.2,470.32,1243.67Z" transform="translate(-6.41 -50.09)"/><path class="cls-21" d="M440.12,911.5s-41.42,48.78-53,59.87-47.85,43.25-47.85,43.25-41.58,23.56-38.53,27.15,20.35-6.9,20.35-6.9,10,10.33,21.34,9.39c7.52-.63,12.14-18,12.14-18s71.27-39.26,94.74-72.79c14.55-20.8,15.45-25.49,15.45-25.49" transform="translate(-6.41 -50.09)"/><path class="cls-30" d="M468.34,874.79s-19.25,8.83-27.44,22.11S419,930.4,419,930.4s7.44,9.41,18.46,12.59,19.33,5.11,19.33,5.11" transform="translate(-6.41 -50.09)"/><path class="cls-21" d="M465.93,1006.42s-47.39,106.71-46,131.36,42.17,72.44,39.76,89-65.67,28.34-45,34.42,75.23-6.38,79.84-8.25-37.32-93.26-35.17-106.48,41.5-102.71,41.5-102.71" transform="translate(-6.41 -50.09)"/><path class="cls-21" d="M505.71,1039.65s-2,82.38,8.13,109.94,49.51,94.22,46.68,101.81-54.38,39.24-39,42.67c23,5.15,64.25-22.85,68.27-31.46s-39-114.59-36.41-133.35,7.68-126.55-8.76-144.56" transform="translate(-6.41 -50.09)"/><path class="cls-34" d="M497.54,1030.09l1.41,96s5.19,4.87,31.12,1.32,32.17-12,32.17-12,12.91-82.34-2.14-100.19" transform="translate(-6.41 -50.09)"/><polyline class="cls-34" points="504.68 992.22 472.84 1071.15 413.15 1064.24 442.85 984.61"/><path class="cls-23" d="M510.71,876.09c-27-25.54-44.64-6.84-44.64-6.84l-6.86,11.1s-13.89,6.39-7.58,42.61c8.46,48.62-6.49,110-6.49,110s-1.1,11.91,37.62,14.94c48.78,3.82,83.62-28,83.62-28S537.71,901.62,510.71,876.09Z" transform="translate(-6.41 -50.09)"/><path class="cls-41" d="M498,803.37a6.34,6.34,0,0,0-4.18-2.74c3.8,5.46,6.88,11.44,5.57,18.35,0,.15-.07.34-.11.51a19.2,19.2,0,0,0,1.11-7.31A16.58,16.58,0,0,0,498,803.37Z" transform="translate(-6.41 -50.09)"/><path class="cls-21" d="M486,864.85c-2.06.45-14.2-7-19.47-19.48,7.86-9.74,16.54-22,19.69-32.22,9-29-12.72-69.95-41.43-70.28-14.07-.16-25.62,20.36-33.74,41.33,0,0,0-.08,0-.1-16.93-14.83-34.95-1.14-35.84,3a17.78,17.78,0,0,1-2.56,1.8c-.94,5.7-3.93,5.84-3.08,12.38.58,4.48,3,15.64,4.19,20.85,4.09,17.62-7.38,17.68-7.07,24.65a7.11,7.11,0,0,0,4.73,3.07,26.34,26.34,0,0,0,7.15.32c1.07,4.52,1.25,4.49,3.05,8.87h.44c-.18.1-.37.18-.56.3.52.91,1.11,1.83,1.75,2.75,3.8,1.37,11.38-1.44,13.42-5.64,3.85,7.92-3.28,12.41-6.31,14,8.77,8.61,20.44,15.59,27,14.25,12-2.43,15.27-4.87,23.74-8.73,13.49-6.16,16,16.4,19.38,17.52C480,895.78,491.28,869.12,486,864.85Z" transform="translate(-6.41 -50.09)"/><path class="cls-42" d="M446.87,835.94c3.73,8,1,19.45-8.21,23.34a9.88,9.88,0,0,1-7.46,0,4.87,4.87,0,0,1-.47-.32,6.5,6.5,0,0,0,1.57,1.12c2.16,1.07,6.8,2.14,9.05,1.27,8.22-3.46,9.64-14.13,7.6-21.8A11.84,11.84,0,0,0,446.87,835.94Z" transform="translate(-6.41 -50.09)"/><path class="cls-21" d="M438.66,859.28c9.24-3.89,11.94-15.34,8.21-23.34a10,10,0,0,0-5.21-3.27c-5.74-1.51-8.9.75-12.25,3.22l-2.51,17.78a10.37,10.37,0,0,0,3.83,5.26,4.87,4.87,0,0,0,.47.32A9.88,9.88,0,0,0,438.66,859.28Zm4-13.66c-1.47,6-9.31,9.61-12.25,2.71,3,1.34,4.25,1.7,5.88-1.46,1.17-2.27,1-5.73-1.39-6.71-1.13,7.55-3.1,3.45-3-1.85l.6-.33C437.28,835.8,444.78,836.9,442.65,845.62Z" transform="translate(-6.41 -50.09)"/><path class="cls-42" d="M434.89,840.16c2.35,1,2.56,4.44,1.39,6.71-1.63,3.16-2.88,2.8-5.88,1.46,2.94,6.9,10.78,3.28,12.25-2.71,2.13-8.72-5.37-9.82-10.18-7.64l-.6.33C431.79,843.61,433.76,847.71,434.89,840.16Z" transform="translate(-6.41 -50.09)"/><path class="cls-43" d="M479.53,763.91s-3.11-15.33-35.81-19.69S376.65,770.58,373.84,779l-3.74,12.63s26.62,27,39.42,34.69,19.89,9.59,19.89,9.59,9.67-14.1,19.35,0c6.09,8.84,21.76,6.37,21.76,6.37s8-3.81,14-19.62S489.33,773.29,479.53,763.91Z" transform="translate(-6.41 -50.09)"/><path class="cls-34" d="M370.23,793c-24.52,13.66-57.2,12.39-48.34,25.76C338,843,410.55,805.55,410.55,805.55" transform="translate(-6.41 -50.09)"/><path class="cls-43" d="M470.56,832.52c-.47,6.17-2.2,12.24,4.51,15.4,4.55,2.13,10.5.27,14.4-2.77-8.59,11.06,13.3,16.58,19.88,8.38.22,4.4-.19,6.58,4.12,8.92,5.43,2.95,14.11,3.26,14.93-.05,2.92,8.68,5.37,18.26,9.74,26.22,3.47-.26,13.68-10.8,13.32-16-.42-6.15-8.29-14.7-14.26-14.86,3.2-9-11.33-20.15-20.07-11.75,5.82-4.27.35-11.78-4.47-14.15A17.52,17.52,0,0,0,495.92,833c18.31-14.49-24.22-36.06-29.23-15.12" transform="translate(-6.41 -50.09)"/><path class="cls-9" d="M394.46,823l-14.78,5.31s4.44,7.53,10,5.09S394.46,823,394.46,823Z" transform="translate(-6.41 -50.09)"/><path class="cls-43" d="M392.34,831.33a15.49,15.49,0,0,0-7.25-3.35,19.48,19.48,0,0,0-3.39-.43l-2,.72s4.44,7.54,10,5.1A6.87,6.87,0,0,0,392.34,831.33Z" transform="translate(-6.41 -50.09)"/><path class="cls-43" d="M394.46,823s-19.78,4.91-19.21,6.75,12.46-3.23,15.81-4.76S394.46,823,394.46,823Z" transform="translate(-6.41 -50.09)"/><path class="cls-29" d="M488.28,777.55c-5.34,1.62-11.64,3.52-12.26,3.68-1.1.27-1.31-6.21-1.31-6.21s6.49-3.76,10.45-5.57A57.84,57.84,0,0,0,471.92,751c-13.12-12.05-52.58-29.2-84.77-4.18-24,18.65-25.85,40-25.24,49.64.2.34.42.67.63,1a44.12,44.12,0,0,0,16.68,7.6c17.14,1.64,44.58,3.23,63.33-.81,4.17-.89,42.35-11.05,47.63-17.34Z" transform="translate(-6.41 -50.09)"/><path class="cls-33" d="M487.06,1030.1c-.12,0-.22,0-.23,0S487,1030,487.06,1030.1Z" transform="translate(-6.41 -50.09)"/><path class="cls-33" d="M562.3,1001.29c.07-.24.21-.18,0,0Z" transform="translate(-6.41 -50.09)"/><path class="cls-44" d="M499.79,1073.83l-17.74-14.61s6.4,14.66,7.05,18.49-6.65.43-6.65.43l5,21.16" transform="translate(-6.41 -50.09)"/><path class="cls-45" d="M374.61,803.1c-.61-9.66,1.24-31,25.24-49.64,22.31-17.34,48.12-14.42,66.23-7-16.7-11.07-50.62-21.68-78.93.32-24,18.65-25.85,40-25.24,49.64.2.34.42.67.63,1a42.15,42.15,0,0,0,12.56,6.44Z" transform="translate(-6.41 -50.09)"/><path class="cls-21" d="M545.9,894.92s37.56,27,41.15,53.52-1.07,67.91,2.55,76,16.69,31,14.36,33.7-11.73-13-11.73-13,6.25,19.62,1,22.75-9.51-14.2-9.51-14.2,5.28,13.87-1.38,17.6-7.94-16.2-7.94-16.2-1.27,16.19-7.72,17.1-1.37-27.73-1.37-27.73-10.4,6.27-10.67.58,6.95-7.25,9.13-17-.44-75.83-12.57-83.86-26.5-23.33-26.5-23.33" transform="translate(-6.41 -50.09)"/><path class="cls-23" d="M531.33,875a41.24,41.24,0,0,0-22.2-2.21c-.85.83-1.65,1.72-2.42,2.63-.2.38-.4.76-.58,1.18-3.76,8.45-1.29,20.2.85,29.22.87,3.68,10.25,12.3,11.32,16,10.72,13.63,17.12,18.89,17.12,18.89a87.81,87.81,0,0,0,14.47-10.53c12.11-10.56,21.45-18.52,21.45-18.52S550.4,882.81,531.33,875Z" transform="translate(-6.41 -50.09)"/><path class="cls-9" d="M470.1,877" transform="translate(-6.41 -50.09)"/><path class="cls-46" d="M414.76,1261.18c-14.14-4.15,10.85-11,28.91-20.14,4.94,2.69,10.17,5.77,12.79,6.82,4.19,1.68,28.49-9.31,33.82-11.77,3.53,9.72,5.52,16.35,4.32,16.84C490,1254.8,435.48,1267.26,414.76,1261.18Z" transform="translate(-6.41 -50.09)"/><path class="cls-47" d="M317.57,1038s11.33-8.67,15.33-6.34-6.67,10-12,10.34S317.57,1038,317.57,1038Z" transform="translate(-6.41 -50.09)"/><path class="cls-47" d="M322.23,1043s11.34-8.67,15.34-6.34-6.67,10-12,10.34S322.23,1043,322.23,1043Z" transform="translate(-6.41 -50.09)"/><path class="cls-47" d="M329.23,1046.62s11.34-8.66,15.34-6.33-6.67,10-12,10.33S329.23,1046.62,329.23,1046.62Z" transform="translate(-6.41 -50.09)"/><path class="cls-47" d="M344.24,1012.62s-6,1.33-13.67,2.67-19.34,5.33-17,7.33,4.66,2,12.33.33,4-.33,4-.33.67,3.67,6.67,2.67a17.55,17.55,0,0,0,9.67-5.34" transform="translate(-6.41 -50.09)"/><path class="cls-46" d="M588.43,1251.66h0c-.18-.72-.37-1.47-.58-2.25-5.44,2.62-10.92,5.22-12.79,6-4.12,1.77-2.94-2.94-6.47-6.47-1.25-1.25-4.5-1.09-8.16-.37a5.77,5.77,0,0,1,.09,2.81c-.74,2-4.84,5.64-10.19,10-6.74,5.48-15.48,12.09-22.08,17.95l-.2.18-1.58,1.43-.16.16c-.57.52-1.11,1-1.62,1.54l0,0c-.48.46-.93.92-1.36,1.37l-.27.29c-.38.4-.73.79-1.07,1.18l-.16.18c-.38.44-.73.87-1,1.28l-.13.18c-.26.35-.49.68-.71,1l-.18.29c-.2.32-.37.64-.52.94a1.09,1.09,0,0,0-.08.15,5.42,5.42,0,0,0-.36,1c0,.07,0,.13,0,.2a3.4,3.4,0,0,0-.08.69,1.93,1.93,0,0,0,0,.24,2.18,2.18,0,0,0,.16.68s0,.05,0,.08a2.16,2.16,0,0,0,.47.63l.19.15a3.74,3.74,0,0,0,.59.38l.27.13a6.71,6.71,0,0,0,1.12.36h0c23,5.12,66.09-18.26,70.11-26.86C592.28,1265.83,589.83,1257.31,588.43,1251.66Z" transform="translate(-6.41 -50.09)"/><path class="cls-46" d="M470.32,1239.55c-5.88.58-2.35-3.53-8.82-8.83a6.27,6.27,0,0,0-2.75-1.24c-8.27,15.12-63.55,26-44,31.7,20.72,6.08,75.23-6.38,79.84-8.25,1.35-.55-1.32-8.82-5.68-20.54C482.88,1235,475,1239.08,470.32,1239.55Z" transform="translate(-6.41 -50.09)"/><path class="cls-40" d="M554.76,1255.43s20.89,5.3,20,8.24-20.3-2.94-21.48-4.41S554.76,1255.43,554.76,1255.43Z" transform="translate(-6.41 -50.09)"/><path class="cls-40" d="M452,1234.21s13,12.61,11,14.89-13.62-10.29-13.82-12S452,1234.21,452,1234.21Z" transform="translate(-6.41 -50.09)"/><path class="cls-40" d="M443.05,1238.54s11.15,11.67,9.24,14-11.85-9.38-11.94-11.08S443.05,1238.54,443.05,1238.54Z" transform="translate(-6.41 -50.09)"/><path class="cls-40" d="M433.82,1243.2s9.93,11,8.06,13.39-10.64-8.77-10.67-10.43S433.82,1243.2,433.82,1243.2Z" transform="translate(-6.41 -50.09)"/><path class="cls-40" d="M546.52,1262.79s20.89,5.29,20,8.24-20.3-3-21.48-4.42S546.52,1262.79,546.52,1262.79Z" transform="translate(-6.41 -50.09)"/><path class="cls-40" d="M538,1269.26s20.89,5.3,20,8.24-20.3-2.94-21.48-4.41S538,1269.26,538,1269.26Z" transform="translate(-6.41 -50.09)"/><ellipse class="cls-9" cx="489.96" cy="955.08" rx="27.32" ry="37.85" transform="translate(-103.29 6.19) rotate(-5.98)"/><path class="cls-38" d="M514.52,952.51c.17,1.68.27,3.36.28,5v-1a50.3,50.3,0,0,1-.88,9.79l.17-.9a43.72,43.72,0,0,1-2.65,8.76l.33-.78a35.21,35.21,0,0,1-4.21,7.34l.47-.62a27.12,27.12,0,0,1-5.54,5.53l.59-.43a21.63,21.63,0,0,1-6.65,3.33l.68-.2a20.39,20.39,0,0,1-7.25.76l.71.05a21.58,21.58,0,0,1-7.19-1.88l.66.3a27.17,27.17,0,0,1-6.56-4.26l.59.51a35.07,35.07,0,0,1-5.64-6.3l.48.69a43.85,43.85,0,0,1-4.41-8l.36.84A49,49,0,0,1,466,961.7l.19.95a53.8,53.8,0,0,1-1.05-10v1a50.13,50.13,0,0,1,.87-9.78l-.17.89a43.44,43.44,0,0,1,2.66-8.75l-.34.77a35.66,35.66,0,0,1,4.21-7.34l-.47.63a27.37,27.37,0,0,1,5.54-5.53l-.58.43a21.84,21.84,0,0,1,6.64-3.34l-.68.21a20.19,20.19,0,0,1,7.25-.76l-.71-.06a21.94,21.94,0,0,1,7.19,1.88l-.66-.3a27.72,27.72,0,0,1,6.57,4.26l-.59-.51a35.88,35.88,0,0,1,5.64,6.31l-.49-.69a43.18,43.18,0,0,1,4.41,8l-.35-.84a50.42,50.42,0,0,1,2.89,9.39l-.2-1c.33,1.65.59,3.32.77,5a4.64,4.64,0,0,0,1,2.48,2.35,2.35,0,0,0,2,.86c1.4-.23,2.45-1.86,2.23-3.89A56.29,56.29,0,0,0,517,939.51a48.46,48.46,0,0,0-5.12-10.61,44,44,0,0,0-3.53-4.75,38.06,38.06,0,0,0-4-3.94,28.3,28.3,0,0,0-8.41-5,22.7,22.7,0,0,0-9.24-1.46,22,22,0,0,0-9,2.49,26.75,26.75,0,0,0-7.58,6,35.73,35.73,0,0,0-5.75,8.82,46.51,46.51,0,0,0-2.18,5.58,52.71,52.71,0,0,0-1.48,6.16,54.58,54.58,0,0,0-.75,12.5A57.31,57.31,0,0,0,462.06,968a51.39,51.39,0,0,0,4.62,11.09,41.21,41.21,0,0,0,6.63,8.83,30.79,30.79,0,0,0,8.08,5.94,26.33,26.33,0,0,0,4.72,1.84,25,25,0,0,0,5,.75,21.78,21.78,0,0,0,9.23-1.6,25.1,25.1,0,0,0,7.94-5.23,33.45,33.45,0,0,0,6.21-8.23,43.61,43.61,0,0,0,4-10.51A51.72,51.72,0,0,0,520,958.7a60.9,60.9,0,0,0-.3-6.74,4.56,4.56,0,0,0-1-2.48,2.39,2.39,0,0,0-2-.87C515.34,948.85,514.31,950.48,514.52,952.51Z" transform="translate(-6.41 -50.09)"/><path class="cls-41" d="M485.63,951.26l0,0,0,0c-.12-.14-.24-.17-.34-.1C485.39,951.09,485.51,951.12,485.63,951.26Z" transform="translate(-6.41 -50.09)"/><path class="cls-41" d="M484.88,952.13a2.44,2.44,0,0,0,.1-.24,2.44,2.44,0,0,1-.1.24.63.63,0,0,0,0,.52A.63.63,0,0,1,484.88,952.13Z" transform="translate(-6.41 -50.09)"/><path class="cls-41" d="M489,945.47l-.13-1.21h0l.13,1.21Z" transform="translate(-6.41 -50.09)"/><path class="cls-41" d="M486.7,947.52l.28,0a1.34,1.34,0,0,1-.25-.11Z" transform="translate(-6.41 -50.09)"/><path class="cls-41" d="M485.89,951.51l.06.07Z" transform="translate(-6.41 -50.09)"/><path class="cls-41" d="M485.25,951.2l0,0Z" transform="translate(-6.41 -50.09)"/><path class="cls-41" d="M485.73,951.36s.11.09.16.15S485.78,951.41,485.73,951.36Z" transform="translate(-6.41 -50.09)"/><path class="cls-41" d="M488.27,945l.43-.56Z" transform="translate(-6.41 -50.09)"/><path class="cls-41" d="M488.73,948.22l-.05-.05Z" transform="translate(-6.41 -50.09)"/><path class="cls-41" d="M488.66,947.24l0-.08Z" transform="translate(-6.41 -50.09)"/><path class="cls-41" d="M488.59,948.1a.26.26,0,0,1,0-.09A.26.26,0,0,0,488.59,948.1Z" transform="translate(-6.41 -50.09)"/><path class="cls-41" d="M489.27,948.76h0l0,0Z" transform="translate(-6.41 -50.09)"/><path class="cls-41" d="M489.24,946.91l.17,0Z" transform="translate(-6.41 -50.09)"/><path class="cls-41" d="M490.31,947.78v0Z" transform="translate(-6.41 -50.09)"/><path class="cls-41" d="M488.66,948.16l-.07-.06Z" transform="translate(-6.41 -50.09)"/><path class="cls-41" d="M486.78,949l0,0Z" transform="translate(-6.41 -50.09)"/><path class="cls-41" d="M486.74,950.49l0,0Z" transform="translate(-6.41 -50.09)"/><path class="cls-41" d="M486.66,950.43l0,0Z" transform="translate(-6.41 -50.09)"/><path class="cls-41" d="M486.52,949.35l0-.07Z" transform="translate(-6.41 -50.09)"/><path class="cls-41" d="M486.51,949.83v0Z" transform="translate(-6.41 -50.09)"/><path class="cls-41" d="M486.7,949.11l-.05,0a.31.31,0,0,0-.09.11.31.31,0,0,1,.09-.11Z" transform="translate(-6.41 -50.09)"/><path class="cls-41" d="M487,950.72l0,0,0,.09,0-.09Z" transform="translate(-6.41 -50.09)"/><path class="cls-41" d="M488.17,949.77a2,2,0,0,0-.08-.43,1.17,1.17,0,0,0-.2-.06,1.17,1.17,0,0,1,.2.06A2,2,0,0,1,488.17,949.77Z" transform="translate(-6.41 -50.09)"/><path class="cls-41" d="M486.62,950.4l-.06-.06Z" transform="translate(-6.41 -50.09)"/><path class="cls-41" d="M487.32,949a1,1,0,0,0,.47.23,1,1,0,0,1-.47-.23c-.19-.18-.32-.16-.44-.08C487,948.86,487.13,948.84,487.32,949Z" transform="translate(-6.41 -50.09)"/><path class="cls-41" d="M486.53,950.14v0Z" transform="translate(-6.41 -50.09)"/><path class="cls-41" d="M486.53,950.06s0,0,0-.08S486.53,950,486.53,950.06Z" transform="translate(-6.41 -50.09)"/><path class="cls-41" d="M484.36,949.2l.07-.12Z" transform="translate(-6.41 -50.09)"/><path class="cls-41" d="M489,943.82l.18-.18a.17.17,0,0,1,.1,0,.58.58,0,0,0,.26-.06l-1.41.14c-.2.56-.4,1.13-.6,1.67C488,944.85,488.46,944.31,489,943.82Z" transform="translate(-6.41 -50.09)"/><path class="cls-41" d="M484.53,948.94l.09-.14Z" transform="translate(-6.41 -50.09)"/><path class="cls-41" d="M499.17,949.85c-.06-.23-.11-.47-.18-.71l.09,1.71a2.68,2.68,0,0,1,.26-.23C499.27,950.37,499.22,950.11,499.17,949.85Z" transform="translate(-6.41 -50.09)"/><path class="cls-41" d="M484.18,949.46l.07-.11-.07.11.12,0Z" transform="translate(-6.41 -50.09)"/><path class="cls-41" d="M488.77,948.25Z" transform="translate(-6.41 -50.09)"/><path class="cls-41" d="M484.48,949.53h0Z" transform="translate(-6.41 -50.09)"/><path class="cls-41" d="M482.63,951.76a.25.25,0,0,1,0-.07A.25.25,0,0,0,482.63,951.76Z" transform="translate(-6.41 -50.09)"/><path class="cls-41" d="M484.64,949.56Z" transform="translate(-6.41 -50.09)"/><path class="cls-41" d="M484.84,949.24l-.07-.67h0l.07.67Z" transform="translate(-6.41 -50.09)"/><path class="cls-41" d="M482.78,952h0a1.56,1.56,0,0,1-.13-.19A1.56,1.56,0,0,0,482.78,952Z" transform="translate(-6.41 -50.09)"/><path class="cls-41" d="M482.75,951.28a2.4,2.4,0,0,0-.17.32v0A2.4,2.4,0,0,1,482.75,951.28Z" transform="translate(-6.41 -50.09)"/><path class="cls-41" d="M502.27,947.4c-.09-.87-1.54-12.64-1.54-12.64L499,939.88a5.12,5.12,0,0,1,1.66,2.9,13,13,0,0,1,.05,1.42,2.29,2.29,0,0,1-.47,1.78,1.76,1.76,0,0,0-.18.52,1.91,1.91,0,0,0,.44.24,7.89,7.89,0,0,1,1,.18.52.52,0,0,1,.27.19,1.12,1.12,0,0,1,.56.92,3.1,3.1,0,0,1,.26.76c.06.28.16.37.37.29l.67-.26C502.81,948.17,502.29,947.64,502.27,947.4Z" transform="translate(-6.41 -50.09)"/><path class="cls-41" d="M489,946.9a.4.4,0,0,0-.3.25A.4.4,0,0,1,489,946.9Z" transform="translate(-6.41 -50.09)"/><path class="cls-41" d="M490.19,947.27s-.05,0-.07-.06l-.13-.06.13.06S490.17,947.24,490.19,947.27Z" transform="translate(-6.41 -50.09)"/><path class="cls-41" d="M494.46,943a2,2,0,0,0-.49-.19c-.06,0-.13.15-.19.24s.14.19.21.2a2.34,2.34,0,0,0,.46-.09Z" transform="translate(-6.41 -50.09)"/><path class="cls-41" d="M488.75,938.85a.82.82,0,0,1,.12-.81s.1,0,.19.09a.35.35,0,0,1,.09-.12c.16-.06.42.56.65,1.23l.05.08.93-.15c-.58-1.89-2.07-6.5-2.38-6.32a67.24,67.24,0,0,0-2.47,7.19l2.55-.48Z" transform="translate(-6.41 -50.09)"/><path class="cls-41" d="M483,951.88h0a7.61,7.61,0,0,0,0-.83L483,951h0l.07.06A7.61,7.61,0,0,1,483,951.88Z" transform="translate(-6.41 -50.09)"/><path class="cls-41" d="M490.32,947.63l0-.17Z" transform="translate(-6.41 -50.09)"/><path class="cls-39" d="M490.39,942.83a3.54,3.54,0,0,1,1.42-.43.69.69,0,0,0,.45,0h0a1.33,1.33,0,0,1,.34.1,8.61,8.61,0,0,0,1.28-.29,4.37,4.37,0,0,0-.54-.52.65.65,0,0,1-.27-.39,31,31,0,0,0-3.34.9c-1,.34-2.81.78-4.08,1.06.26,0,.53-.06.79-.09C488,943.07,489.3,943,490.39,942.83Z" transform="translate(-6.41 -50.09)"/><path class="cls-39" d="M492.48,939.45l.18.14c0-.05,0-.11,0-.17v0l-.59.1Z" transform="translate(-6.41 -50.09)"/><path class="cls-39" d="M494.05,941.3c-.06-.35-.13-.63-.16-.92a2.42,2.42,0,0,1,.08-1.09v-.08h-.06l-.41.06a1.66,1.66,0,0,0,0,.94,0,0,0,0,1,0,.06A2.68,2.68,0,0,0,494.05,941.3Z" transform="translate(-6.41 -50.09)"/><path class="cls-39" d="M489.8,941.67a8.61,8.61,0,0,1,3.27-.7c0-.07,0-.14,0-.21a1,1,0,0,0,0-.17l-3.34.7c-2.19.44-9.25,2.6-9.43,2.66a42.39,42.39,0,0,1,6.44-2.33c.68-.2,1.41-.4,2.18-.6a25.19,25.19,0,0,1,4.24-.87.5.5,0,0,1,0-.12l-.48,0h0c-1.13.14-4.62.59-7,1.08l-1,.59c-.76.47-7.24,2.48-7.24,2.48l4-1.41a16.77,16.77,0,0,0,3.07-1.4c-3,.67-7.67,1.8-7.67,1.8s1.25-.42,5.88-1.78c.43-.13.86-.24,1.28-.35a38.41,38.41,0,0,0-4.38,1.08c-2.81,1-4.17,1-3.5,2.14s4.69-.14,8.53-.77C485.3,943.19,486.8,942.63,489.8,941.67Z" transform="translate(-6.41 -50.09)"/><path class="cls-39" d="M486.53,950.06v.08a.66.66,0,0,1,0,.14s0,0,0,0l0,0,.06.06h0l0,0,0,0,0,0,.14.12.13.11,0,0,0,.09c.18.28.34.14.49-.07a2.06,2.06,0,0,1,.29-.4.72.72,0,0,0,.31-.62,2,2,0,0,0-.08-.43,1.17,1.17,0,0,0-.2-.06l-.1,0a1,1,0,0,1-.47-.23c-.19-.18-.32-.16-.44-.08l-.07.06,0,0-.08.08-.05,0a.31.31,0,0,0-.09.11h0l0,.07a.9.9,0,0,0,0,.4v.08s0,.1,0,.15S486.53,950,486.53,950.06Z" transform="translate(-6.41 -50.09)"/><path class="cls-39" d="M488.54,948a.26.26,0,0,0,0,.09l.07.06h0l.05.05,0,0h0l0,0c.09.12.18.23.28.34a1.67,1.67,0,0,0,.16.12l0,0h0a.93.93,0,0,0,.22-.1c.25-.22.49-.44.73-.68a.33.33,0,0,0,.08-.18v0s0-.1,0-.15l0-.17a.49.49,0,0,0-.1-.19s-.05,0-.07-.06l-.13-.06-.27-.11a1.58,1.58,0,0,0-.31-.09l-.17,0H489a.4.4,0,0,0-.3.25h0l0,.08a2,2,0,0,0-.08.26c0,.08,0,.16-.05.24A.57.57,0,0,0,488.54,948Z" transform="translate(-6.41 -50.09)"/><path class="cls-39" d="M486,952a.6.6,0,0,0-.08-.44l-.06-.07h0c-.05-.06-.11-.1-.16-.15l-.06-.06,0,0c-.12-.14-.24-.17-.34-.1l0,0a.86.86,0,0,0-.12.22l-.15.47a2.44,2.44,0,0,1-.1.24.63.63,0,0,0,0,.52.6.6,0,0,0,.47.37C485.54,953,486,952.39,486,952Z" transform="translate(-6.41 -50.09)"/><path class="cls-9" d="M488.7,944.41l-.43.56,0,0,.7.48h0l-.13-1.21h0Z" transform="translate(-6.41 -50.09)"/><path class="cls-9" d="M484.3,949.49l.14,0h0l.13,0h0l.24.05,0-.37-.07-.67h0l-.15.23-.09.14-.1.14-.07.12-.11.15-.07.11Z" transform="translate(-6.41 -50.09)"/><path class="cls-9" d="M482.59,951.69a.25.25,0,0,0,0,.07l0,0a1.56,1.56,0,0,0,.13.19h0s.19,0,.21-.11h0a7.61,7.61,0,0,0,0-.83L483,951h0l-.1.15-.1.14a2.4,2.4,0,0,0-.17.32v0A.35.35,0,0,1,482.59,951.69Z" transform="translate(-6.41 -50.09)"/><path class="cls-9" d="M486.2,947.19a2.23,2.23,0,0,1,.53.25,1.34,1.34,0,0,0,.25.11h0l-.09-.92-.1,0C486.71,946.89,486.29,946.87,486.2,947.19Z" transform="translate(-6.41 -50.09)"/><path class="cls-39" d="M501,949.56a.35.35,0,0,0-.24.41c0,.22.17.37.32.36a.35.35,0,0,0,.24-.41C501.32,949.7,501.18,949.55,501,949.56Z" transform="translate(-6.41 -50.09)"/><path class="cls-39" d="M484.23,953.82a.66.66,0,0,0-.34-.52c-.09,0-.83,0-1,.32s.28.87.72.91A.6.6,0,0,0,484.23,953.82Z" transform="translate(-6.41 -50.09)"/><path class="cls-41" d="M485.68,943.29c.26,0,.53-.06.79-.09l.25,0,.07-.14Z" transform="translate(-6.41 -50.09)"/><path class="cls-41" d="M493.07,941c0-.07,0-.14,0-.21a1,1,0,0,0,0-.17l-3.06.64.09.33A7.9,7.9,0,0,1,493.07,941Z" transform="translate(-6.41 -50.09)"/><path class="cls-41" d="M488.74,938.82a.82.82,0,0,1,.13-.78s.1,0,.19.09a.35.35,0,0,1,.09-.12c.16-.06.42.56.65,1.23l.05.08.93-.15c-.58-1.89-2.07-6.5-2.38-6.32a67.24,67.24,0,0,0-2.47,7.19l2.45-.46Z" transform="translate(-6.41 -50.09)"/><path class="cls-41" d="M489.14,943.64a.17.17,0,0,1,.1,0,.58.58,0,0,0,.26-.06l-1.41.14c-.2.56-.4,1.13-.6,1.67.49-.51,1-1.05,1.47-1.54Z" transform="translate(-6.41 -50.09)"/><path class="cls-41" d="M488.25,945l.7.48-.13-1.21h0l-.12.15-.43.56Z" transform="translate(-6.41 -50.09)"/><path class="cls-41" d="M493.49,940.26a2.68,2.68,0,0,0,.56,1c-.06-.35-.13-.63-.16-.92a2.42,2.42,0,0,1,.08-1.09v-.08h-.06l-.41.06a1.66,1.66,0,0,0,0,.94A0,0,0,0,1,493.49,940.26Z" transform="translate(-6.41 -50.09)"/><path class="cls-41" d="M492.48,939.45l.18.14c0-.05,0-.11,0-.17v0l-.59.1Z" transform="translate(-6.41 -50.09)"/><path class="cls-41" d="M484.86,949.41l-.11.17.13,0Z" transform="translate(-6.41 -50.09)"/><path class="cls-41" d="M488.84,941.05l.11,0,.11,0a.83.83,0,0,1-.05-.36C489,940.54,489,940.71,488.84,941.05Z" transform="translate(-6.41 -50.09)"/><path class="cls-41" d="M489.92,940.78a18.94,18.94,0,0,1,3.27-.63.5.5,0,0,1,0-.12l-.48,0h0c-.55.07-1.66.21-2.92.39Z" transform="translate(-6.41 -50.09)"/><path class="cls-41" d="M489.27,941.84c0-.15-.07-.29-.11-.42l-.51.13-.22.56Z" transform="translate(-6.41 -50.09)"/><path class="cls-41" d="M487.31,941.9c-2.91.8-6.84,2-7,2.05a42.39,42.39,0,0,1,6.44-2.33l.77-.22.35-.74c-.76.12-1.5.25-2.16.39l-1,.59c-.76.47-7.24,2.48-7.24,2.48l4-1.41a16.77,16.77,0,0,0,3.07-1.4c-3,.67-7.67,1.8-7.67,1.8s1.25-.42,5.88-1.78c.43-.13.86-.24,1.28-.35a38.41,38.41,0,0,0-4.38,1.08c-2.81,1-4.17,1-3.5,2.14s4.69-.14,8.53-.77c.38-.15,1.11-.42,2.31-.84C487.1,942.36,487.21,942.13,487.31,941.9Z" transform="translate(-6.41 -50.09)"/><path class="cls-41" d="M499,949.14l.09,1.71a2.68,2.68,0,0,1,.26-.23c-.07-.25-.12-.51-.17-.77S499.06,949.38,499,949.14Z" transform="translate(-6.41 -50.09)"/><path class="cls-41" d="M501,949.56a.35.35,0,0,0-.24.41c0,.22.17.37.32.36a.35.35,0,0,0,.24-.41C501.32,949.7,501.18,949.55,501,949.56Z" transform="translate(-6.41 -50.09)"/><path class="cls-41" d="M493.78,943.05c.07.07.14.19.21.2a2.34,2.34,0,0,0,.46-.09V943a2,2,0,0,0-.49-.19C493.91,942.8,493.84,943,493.78,943.05Z" transform="translate(-6.41 -50.09)"/><path class="cls-41" d="M493.37,941.72a.65.65,0,0,1-.27-.39c-.51.11-1.72.38-2.83.73.06.25.13.49.2.73a3.44,3.44,0,0,1,1.34-.39.69.69,0,0,0,.45,0h0a1.33,1.33,0,0,1,.34.1,8.61,8.61,0,0,0,1.28-.29A4.37,4.37,0,0,0,493.37,941.72Z" transform="translate(-6.41 -50.09)"/><path class="cls-41" d="M502.27,947.4c-.09-.87-1.54-12.64-1.54-12.64L499,939.88a5.12,5.12,0,0,1,1.66,2.9,13,13,0,0,1,.05,1.42,2.29,2.29,0,0,1-.47,1.78,1.76,1.76,0,0,0-.18.52,1.91,1.91,0,0,0,.44.24,7.89,7.89,0,0,1,1,.18.52.52,0,0,1,.27.19,1.12,1.12,0,0,1,.56.92,3.1,3.1,0,0,1,.26.76c.06.28.16.37.37.29l.67-.26C502.81,948.17,502.29,947.64,502.27,947.4Z" transform="translate(-6.41 -50.09)"/><path class="cls-41" d="M482.63,951.76l0,0,.06.1.31-.68v-.18L483,951h0l-.1.15-.1.14a2.4,2.4,0,0,0-.17.32v0a.35.35,0,0,1,0,.06A.25.25,0,0,0,482.63,951.76Z" transform="translate(-6.41 -50.09)"/><path class="cls-41" d="M486.7,947.52l.28,0h0l-.09-.92-.1,0c-.08.29-.5.27-.59.59a2.23,2.23,0,0,1,.53.25Z" transform="translate(-6.41 -50.09)"/><path class="cls-41" d="M485.89,951.51h0c-.05-.06-.11-.1-.16-.15l-.06-.06,0,0c-.12-.14-.24-.17-.34-.1l0,0a.86.86,0,0,0-.12.22l-.15.47a2.44,2.44,0,0,1-.1.24.63.63,0,0,0,0,.52.6.6,0,0,0,.47.37c.2,0,.63-.63.69-1a.6.6,0,0,0-.08-.44Z" transform="translate(-6.41 -50.09)"/><path class="cls-41" d="M483.89,953.3c-.09,0-.83,0-1,.32s.28.87.72.91a.6.6,0,0,0,.64-.71A.66.66,0,0,0,483.89,953.3Z" transform="translate(-6.41 -50.09)"/><path class="cls-41" d="M490.19,947.27s-.05,0-.07-.06l-.13-.06-.27-.11a1.58,1.58,0,0,0-.31-.09l-.17,0H489a.4.4,0,0,0-.3.25h0l0,.08a2,2,0,0,0-.08.26c0,.08,0,.16-.05.24a.57.57,0,0,0,0,.27.26.26,0,0,0,0,.09l.07.06h0l.05.05,0,0h0l0,0c.09.12.18.23.28.34a1.67,1.67,0,0,0,.16.12l0,0a.93.93,0,0,0,.22-.1c.25-.22.49-.44.73-.68a.33.33,0,0,0,.08-.18v0s0-.1,0-.15l0-.17A.49.49,0,0,0,490.19,947.27Z" transform="translate(-6.41 -50.09)"/><path class="cls-41" d="M488.21,942.69l-.15.37,1.52-.15c-.06-.19-.11-.38-.16-.56C489.07,942.46,488.65,942.57,488.21,942.69Z" transform="translate(-6.41 -50.09)"/><path class="cls-41" d="M487.89,949.28l-.1,0a1,1,0,0,1-.47-.23c-.19-.18-.32-.16-.44-.08l-.07.06,0,0-.08.08-.05,0a.31.31,0,0,0-.09.11h0l0,.07a.9.9,0,0,0,0,.4v.08s0,.1,0,.15,0,.06,0,.08v.08a.66.66,0,0,1,0,.14s0,0,0,0l0,0,.06.06h0l0,0,0,0,0,0,.14.12.13.11,0,0,0,.09c.18.28.34.14.49-.07a2.06,2.06,0,0,1,.29-.4.72.72,0,0,0,.31-.62,2,2,0,0,0-.08-.43A1.17,1.17,0,0,0,487.89,949.28Z" transform="translate(-6.41 -50.09)"/><path class="cls-24" d="M513.47,953.78a14.52,14.52,0,0,1-3-.75,43.59,43.59,0,0,1-5.79-4.19l.69.25-.73-.36.89-.41.88.31-.76-.36.91-.4.88.31-.75-.37.91-.4.88.32-.75-.37.89-.41.9.32-.78-.38c.49-.23,1-.47,1.44-.75l-1.61.67.49-.7a4.19,4.19,0,0,0-.51.55l-.16.21h0l-.85.35.47-.66a4.73,4.73,0,0,0-.51.54l-.15.21-.82.34L507,947a4.84,4.84,0,0,0-.5.54l-.13.17-.81.33.4-.59a5.14,5.14,0,0,0-.5.55l-.09.11-.8.31.36-.51a4.73,4.73,0,0,0-.51.54l0,0-.07,0c-.79-.65-1.35-1.13-1.4-1.21-.17-.27-1.76-14.07-1.76-14.07s-.18-.46-.54-.52-1.73,4.53-2.35,6.53a4.15,4.15,0,0,0-2.57-1,6.37,6.37,0,0,0-.75.11c-.3-1.38-1.14-5.28-1.28-6.06-.17-.95-.23-2.2-.55-2s-.24,1.09-.13,1.46.89,4.91,1.22,6.81l-.13.06c-.54.07-1.38.2-2.39.36l-2.85-7.57s-.45-.92-.78-.79-1.84,5.39-3.15,9.59a37.91,37.91,0,0,0-5.94,1.54c-2.86,1.27-4.43,1.1-3.7,2.62s4.58.4,8.4-.24a9.31,9.31,0,0,1-.42,1.15c-.26.22-8.14,1.53-8.14,1.53s-6.86-2.28-7.68-2.78-4.16-3.05-4.16-3.05,4.06,3.45,4.73,3.86,7.41,2.81,8,2.65,7.76-1.1,8.11-1.82c.07-.15.28-.78.57-1.7l1.26-.14.49,0-2.61,5.68c-.34.44-.67.89-1,1.35s-.79,1.25-1.18,1.89l-.1.17-.39.15-.82.28a.58.58,0,0,0-.56.24h0v0a.8.8,0,0,0-.07.36,1.37,1.37,0,0,0,.84,1.42l-.07-.16.25,0a21.15,21.15,0,0,1-3.42,3.83c-2.46,1.81-7,4.42-10,5.21a37,37,0,0,1-3.88.76l-.27.61a23.6,23.6,0,0,0,5.64-1.14c1.35-.43,9.29-4.46,10.45-6,.39-.52,1.3-1.78,2.34-3.26.55-.09,1.13-.25,1.63-.31h.19c.3.13,1.6.45,4.06-1.67a16,16,0,0,0,3.87-4.72c.8,3.39,1.71,7.11,2.1,8.18,0,2.25.16,11.53.16,11.53s.06,4.64-.17,6.41-.73,5-.34,4.69.94-10.28.95-11.54.14-10.68.14-10.68l0,0c.11,0,.16-.09.08-.38s-1.41-5.35-2.48-9.36c0,0,0-.07,0-.1a6.34,6.34,0,0,0,.61,1.46,1.46,1.46,0,0,0,.33.52c.08.1.16.21.25.31s.08.14.11.15l0,0a3.37,3.37,0,0,0,2.38,1.12,2.74,2.74,0,0,0,.59-.06.35.35,0,0,0,.2-.07l.15-.06a.65.65,0,0,0,.47-.28l.07-.11a3.55,3.55,0,0,0,.84-2.49.35.35,0,0,1,.32.05.55.55,0,0,1,.17,0c.09,2.66.31,8.79.37,9.39.08.76,5.15,9.25,5.51,10s4.61,7.37,4.61,7.37l.39-.24-4.91-7.63-4.8-9.19-.27-5.18a15,15,0,0,1,3.8,3.65c1.27,2.09,4,8.59,4,8.59a1.6,1.6,0,0,0,.06-.78c-.1-.28-3.51-8.26-4-9a26.51,26.51,0,0,0-3.79-2.9l.42-.49.06.09c.25.13.49.27.74.38a2.2,2.2,0,0,0,.58.09c.06,0,.14,0,.18,0l.35.45h0c.05,0,.07.06.08.12a7.75,7.75,0,0,1,.49.86c.23.27.44.57.68.82a2.61,2.61,0,0,0,.27.22c.11-.28-.08-.45-.2-.63s-.35-.41-.5-.64-.26-.48-.4-.72l.1-.13a9.5,9.5,0,0,1,.8.76c.61.71.6.73.82.67-.44-.5-.83-1-1.24-1.39-.13-.14-.26-.22-.2-.49s.13-.6.2-1l.7.49.48,1-.36-.89,1,.76.4.82-.3-.74.57.45.56,1.13-.42-1c.27.21.55.43.83.63l.55,1.13-.41-1c.32.23.64.46,1,.67l.53,1.08-.41-1a11.2,11.2,0,0,0,1.49.79,15.6,15.6,0,0,1-1.57-1h.72a4.72,4.72,0,0,0-.66-.12h-.24c-.26-.19-.51-.39-.76-.59h.56a4.21,4.21,0,0,0-.66-.12H506l-.73-.62h.49a6,6,0,0,0-.63-.12c-.28-.23-.55-.47-.83-.72h.63a4.45,4.45,0,0,0-.66-.12h-.12l-.66-.57h.42a4.59,4.59,0,0,0-.56-.11l-.77-.63c.22-.34,0-.88.22-1a4.66,4.66,0,0,1,1.06-.44,54.55,54.55,0,0,0,5.58,4.07,9.88,9.88,0,0,0,4.09,1.12,12.13,12.13,0,0,0,3.11-1.58A14.91,14.91,0,0,1,513.47,953.78Zm-30.89-2.15v0a2.4,2.4,0,0,1,.17-.32l.1-.14.1-.15.07.06v.18l-.31.68-.06-.1,0,0a.25.25,0,0,1,0-.07A.35.35,0,0,0,482.58,951.63Zm1,2.9c-.44,0-.9-.59-.72-.91s.93-.31,1-.32a.66.66,0,0,1,.34.52A.6.6,0,0,1,483.59,954.53Zm9.91-15.27.41-.06H494v.08a2.42,2.42,0,0,0-.08,1.09c0,.29.1.57.16.92a2.68,2.68,0,0,1-.56-1,0,0,0,0,0,0-.06A1.66,1.66,0,0,1,493.5,939.26Zm-.85.13v0c0,.06,0,.12,0,.17l-.18-.14-.42,0Zm-4.25-6.54c.31-.18,1.8,4.43,2.38,6.32l-.93.15-.05-.08c-.23-.67-.49-1.29-.65-1.23a.35.35,0,0,0-.09.12c-.09-.1-.15-.13-.19-.09a.82.82,0,0,0-.13.78l-.36.76-2.45.46A67.24,67.24,0,0,1,488.4,932.85Zm-.91,12.51c.2-.54.4-1.11.6-1.67l1.41-.14a.58.58,0,0,1-.26.06.17.17,0,0,0-.1,0l-.18.18C488.46,944.31,488,944.85,487.49,945.36Zm1.33-1.1.13,1.21-.7-.48,0,0c.13-.18.26-.34.43-.56Zm-.76-1.2.15-.37c.44-.12.86-.23,1.21-.34.05.18.1.37.16.56Zm1-2.06-.11,0-.11,0c.14-.34.2-.51.17-.41A.83.83,0,0,0,489.06,941Zm.1.42c0,.13.07.27.11.42l-.84.27.22-.56Zm-13,2.78c-.67-1.12.69-1.12,3.5-2.14A38.41,38.41,0,0,1,484,941c-.42.11-.85.22-1.28.35-4.63,1.36-5.88,1.78-5.88,1.78s4.63-1.13,7.67-1.8a16.77,16.77,0,0,1-3.07,1.4l-4,1.41s6.48-2,7.24-2.48l1-.59c.66-.14,1.4-.27,2.16-.39l-.35.74-.77.22a42.39,42.39,0,0,0-6.44,2.33c.14,0,4.07-1.25,7-2.05-.1.23-.21.46-.32.69-1.2.42-1.93.69-2.31.84C480.84,944.06,476.86,945.37,476.15,944.2Zm9.53-.91,1.11-.25-.07.14-.25,0C486.21,943.23,485.94,943.25,485.68,943.29ZM486,952c-.06.37-.49,1-.69,1a.6.6,0,0,1-.47-.37.63.63,0,0,1,0-.52,2.44,2.44,0,0,0,.1-.24l.15-.47a.86.86,0,0,1,.12-.22l0,0c.1-.07.22,0,.34.1l0,0,.06.06s.11.09.16.15h0l.06.07A.6.6,0,0,1,486,952Zm2.14-2.25a.72.72,0,0,1-.31.62,2.06,2.06,0,0,0-.29.4c-.15.21-.31.35-.49.07l0-.09,0,0-.13-.11-.14-.12,0,0,0,0,0,0h0l-.06-.06,0,0s0,0,0,0a.66.66,0,0,0,0-.14v-.08s0,0,0-.08,0-.1,0-.15v-.08a.9.9,0,0,1,0-.4l0-.07h0a.31.31,0,0,1,.09-.11l.05,0,.08-.08,0,0,.07-.06c.12-.08.25-.1.44.08a1,1,0,0,0,.47.23l.1,0a1.17,1.17,0,0,1,.2.06A2,2,0,0,1,488.17,949.77Zm2.14-2v0a.33.33,0,0,1-.08.18c-.24.24-.48.46-.73.68a.93.93,0,0,1-.22.1l0,0a1.67,1.67,0,0,1-.16-.12c-.1-.11-.19-.22-.28-.34l0,0h0l0,0-.05-.05h0l-.07-.06a.26.26,0,0,1,0-.09.57.57,0,0,1,0-.27c0-.08,0-.16.05-.24a2,2,0,0,1,.08-.26l0-.08h0a.4.4,0,0,1,.3-.25h.24l.17,0a1.58,1.58,0,0,1,.31.09l.27.11.13.06s.05,0,.07.06a.49.49,0,0,1,.1.19l0,.17S490.31,947.73,490.31,947.78Zm-.51-7.42c1.26-.18,2.37-.32,2.92-.39h0l.48,0a.5.5,0,0,0,0,.12,18.94,18.94,0,0,0-3.27.63Zm.24.87,3.06-.64a1,1,0,0,1,0,.17c0,.07,0,.14,0,.21a7.9,7.9,0,0,0-2.94.59Zm2.25,1.2h0a.69.69,0,0,1-.45,0,3.44,3.44,0,0,0-1.34.39c-.07-.24-.14-.48-.2-.73,1.11-.35,2.32-.62,2.83-.73a.65.65,0,0,0,.27.39,4.37,4.37,0,0,1,.54.52,8.61,8.61,0,0,1-1.28.29A1.33,1.33,0,0,0,492.29,942.43Zm2.16.73a2.34,2.34,0,0,1-.46.09c-.07,0-.14-.13-.21-.2s.13-.25.19-.24a2,2,0,0,1,.49.19Zm4.63,7.69-.09-1.71c.07.24.12.48.18.71s.1.52.17.77A2.68,2.68,0,0,0,499.08,950.85Zm2-.52c-.15,0-.29-.14-.32-.36a.35.35,0,0,1,.24-.41c.15,0,.29.14.32.36A.35.35,0,0,1,501.11,950.33Zm1.77-1.25c-.21.08-.31,0-.37-.29a3.1,3.1,0,0,0-.26-.76,1.12,1.12,0,0,0-.56-.92.52.52,0,0,0-.27-.19,7.89,7.89,0,0,0-1-.18,1.91,1.91,0,0,1-.44-.24,1.76,1.76,0,0,1,.18-.52,2.29,2.29,0,0,0,.47-1.78,13,13,0,0,0-.05-1.42,5.12,5.12,0,0,0-1.66-2.9l1.78-5.12s1.45,11.77,1.54,12.64c0,.24.54.77,1.28,1.42Z" transform="translate(-6.41 -50.09)"/><path class="cls-38" d="M469.75,931.88c.18.5,44.17,42.32,44.17,42.32l-3.57,5.33-43.89-41.1" transform="translate(-6.41 -50.09)"/><path class="cls-4" d="M670.85,1453.88s69.65-55.67,43.89-55.67-55.34,24.07-55.34,24.07S738.59,1344,710.92,1338s-72.52,72.22-72.52,72.22,18.13-56.42,1-55.67-37.21,54.17-37.21,54.17,13.35-40.62-1.91-37.62-24.81,28.59-24.81,28.59l-9.54-16.55S627,1332,605,1316.21s-65.84,33.85-65.84,33.85,37.21-53.41,13.36-67.71-55.34,82.76-55.34,79.75,7.63-65.45-14.32-67-21,72.22-21,72.22,2.87-94-26.71-98.55-32.45,67-32.45,67-17.17-78.24-41-85.77-3.82,87.27-3.82,87.27-26.72-42.13-49.62-40.62,20,67.7,20,67.7-30.53-21.06-42-18,21,36.86,21,36.86-18.13-15.8-34.35-6.77-19.09,15-19.09,15,8.59-42.88-5.72-41.38-26.72,39.12-26.72,39.12-5.72-41.38-26.71-46.64-8.59,50.4-8.59,50.4-28.63-66.2-52.48-67.71,21,76.74,21,76.74-32.44-31.6-50.57-27.08,30.53,43.63,30.53,43.63-31.48-14.29-38.16-3,32.44,17.3,32.44,17.3-50.57,26.33-23.86,24.08,104-9,104-9-16.22,8.28.95,8.28,74.43-6.78,74.43-6.78-6.68,7.53,18.13,6.78,91.6-5.27,91.6-5.27,72.51,18.81,63,10.53A62.51,62.51,0,0,0,439,1450.12s93.51,17.3,105,9.78-9.54-9.78-9.54-9.78,107.82,15,104,9.78-22.9-8.28-22.9-8.28,56.3,15.05,71.57,12S670.85,1453.88,670.85,1453.88Z" transform="translate(-6.41 -50.09)"/></svg>